<?xml version="1.0" encoding="UTF-8"?>
<svg width="229px" height="277px" viewBox="0 0 229 277" version="1.1" xmlns="http://www.w3.org/2000/svg" xmlns:xlink="http://www.w3.org/1999/xlink">
    <title>blackfeminism</title>
    <defs>
        <filter id="filter-1">
            <feColorMatrix in="SourceGraphic" type="matrix" values="0 0 0 0 0.988236 0 0 0 0 0.930932 0 0 0 0 0.592314 0 0 0 1.000000 0"></feColorMatrix>
        </filter>
        <polygon id="path-2" points="0.169435897 0.0167736365 119.622359 0.0167736365 119.622359 275.0876 0.169435897 275.0876"></polygon>
        <polygon id="path-4" points="0.169435897 0.0167736365 119.622359 0.0167736365 119.622359 275.0876 0.169435897 275.0876"></polygon>
        <polygon id="path-6" points="0.169435897 0.0167736365 119.622359 0.0167736365 119.622359 275.0876 0.169435897 275.0876"></polygon>
        <polygon id="path-8" points="0.169435897 0.0167736365 119.622359 0.0167736365 119.622359 275.0876 0.169435897 275.0876"></polygon>
        <polygon id="path-10" points="0.169435897 0.0167736365 119.622359 0.0167736365 119.622359 275.0876 0.169435897 275.0876"></polygon>
        <polygon id="path-12" points="0.1652 0.0167736365 116.6318 0.0167736365 116.6318 275.0876 0.1652 275.0876"></polygon>
        <polygon id="path-14" points="0.1652 0.0167736365 116.6318 0.0167736365 116.6318 275.0876 0.1652 275.0876"></polygon>
        <polygon id="path-16" points="0.1652 0.0167736365 116.6318 0.0167736365 116.6318 275.0876 0.1652 275.0876"></polygon>
        <polygon id="path-18" points="0.1652 0.0167736365 116.6318 0.0167736365 116.6318 275.0876 0.1652 275.0876"></polygon>
        <polygon id="path-20" points="0.1652 0.0167736365 116.6318 0.0167736365 116.6318 275.0876 0.1652 275.0876"></polygon>
        <polygon id="path-22" points="0.1652 0.0167736365 116.6318 0.0167736365 116.6318 275.0876 0.1652 275.0876"></polygon>
    </defs>
    <g id="Page-1" stroke="none" stroke-width="1" fill="none" fill-rule="evenodd">
        <g id="blackfeminism">
            <g id="blob-(5)" transform="translate(26.000000, 18.000000)" fill="#FFD0D7" fill-rule="nonzero">
                <g id="Group" transform="translate(0.200000, 0.600000)">
                    <path d="M154.436354,29.548164 C161.463017,38.5530691 156.19302,59.0724431 165.934531,77.2298748 C175.676042,95.5349279 200.748456,111.478039 201.387243,123.435372 C202.026031,135.392705 178.550586,143.511882 158.907867,153.697758 C139.424845,163.883634 123.934245,176.283831 102.694557,183.664901 C81.2951722,191.045971 54.3063956,193.407913 46.4812474,179.679123 C38.6560991,165.950334 50.1542761,136.130812 42.6485217,112.511388 C35.1427673,89.0395865 8.47338449,71.6202618 1.76611457,50.805645 C-4.94115535,29.9910281 8.15399068,5.63349783 29.2339819,0.909613168 C50.1542761,-3.8142715 79.3788094,11.0954895 103.652739,17.2955881 C127.926668,23.3480653 147.40969,20.6908802 154.436354,29.548164 Z" id="Path"></path>
                </g>
            </g>
            <path d="M123.1028,64.9796 C123.1028,64.9796 128.924,75.133 126.081,85.4218 C123.238,95.7106 122.6966,96.252 124.3212,98.9596 C125.9456,101.6672 133.2562,111.956 133.2562,113.1744 C133.2562,114.3928 131.3608,114.9344 128.1794,117.1004 C124.998,119.2664 124.998,121.7032 126.758,124.817 L119.8536,130.1644 L122.4936,134.7674 C122.4936,134.7674 119.109,136.1212 119.8536,139.3702 C120.5982,142.6192 121.1398,144.853 118.8382,147.493 C116.5368,150.1328 115.1154,150.2682 109.6326,149.5236 C104.1496,148.779 91.3564,144.5822 86.9566,145.6654 C82.5568,146.7484 77.2094,151.4866 78.6308,160.9632 C80.0522,170.4396 84.249,173.418 101.036,174.2302 C117.823,175.0426 135.4222,169.3566 147.877,198.3276 C160.3318,227.2988 164.3932,275.0876 164.3932,275.0876 L47.832,275.0876 L47.832,149.5914 C47.832,149.5914 44.1768,102.7502 69.0866,84.8802 C93.9962,67.0102 123.1028,64.9796 123.1028,64.9796" id="Fill-4" fill="#5A262B" fill-rule="nonzero"></path>
            <path d="M72.6656,98.418 C72.6656,98.418 70.4318,111.2114 80.3822,118.1158 C80.3822,118.1158 74.8764,116.4912 72.451,108.9776 C70.0256,101.4642 72.6656,98.418 72.6656,98.418" id="Fill-5" fill="#491F24" fill-rule="nonzero"></path>
            <path d="M126.336,124.0104 C126.336,124.0104 124.8826,123.1296 122.1962,125.2876 C119.5098,127.4456 113.5644,127.974 111.8028,128.5466 C110.0412,129.119 114.357,132.1578 116.383,134.2718 C118.4088,136.3856 121.2274,137.839 122.9448,136.2536 C124.6624,134.6682 122.9008,131.3736 120.6108,130.3784 C120.6108,130.3784 122.989,130.7046 125.235,128.5466 C127.481,126.3886 126.8204,124.4948 126.336,124.0104" id="Fill-6" fill="#231515" fill-rule="nonzero"></path>
            <path d="M89.8408,145.5272 C89.8408,145.5272 71.1724,141.4636 65.2748,130.9834 C65.2748,130.9834 64.6768,144.4638 78.431,156.8616 C78.431,156.8616 78.4948,152.5538 81.182,149.401 C83.8692,146.2482 87.1196,145.2054 89.8408,145.5272" id="Fill-7" fill="#231515" fill-rule="nonzero"></path>
            <path d="M75.2462,113.4136 C74.8664,113.4136 74.4906,113.4298 74.1184,113.4598 C73.7058,113.493 73.389,113.8406 73.389,114.2546 L73.389,114.2556 C73.389,114.7182 73.7818,115.0844 74.2428,115.0482 C74.574,115.0222 74.9086,115.0084 75.2462,115.0084 C82.6204,115.0084 88.58,121.18 88.2316,128.6292 C87.9202,135.2826 82.5208,140.682 75.8676,140.9934 C68.4182,141.3422 62.2466,135.3822 62.2466,128.0082 C62.2466,123.6396 64.4138,119.769 67.7286,117.4108 C67.9418,117.2592 68.073,117.0178 68.073,116.756 C68.073,116.1084 67.3408,115.7326 66.8128,116.1078 C62.8972,118.89 60.4056,123.5506 60.671,128.766 C61.0498,136.2106 67.1,142.2364 74.546,142.5864 C82.9106,142.9794 89.8408,136.288 89.8408,128.0082 C89.8408,119.9608 83.2938,113.4136 75.2462,113.4136" id="Fill-8" fill="#F6CC26" fill-rule="nonzero"></path>
            <path d="M104.495,101.2512 C99.7396,101.2512 96.8536,99.9374 95.4102,99.0116 C94.7798,98.6074 94.703,97.716 95.2464,97.2006 L95.2484,97.1986 C95.6328,96.834 96.2144,96.7738 96.6612,97.0584 C98.014,97.9204 101.3974,99.4638 107.577,98.7476 C113.4652,98.0648 115.596,95.9084 116.32,94.783 C116.5826,94.3748 117.0674,94.172 117.5416,94.2754 C118.3266,94.4464 118.7084,95.3462 118.2768,96.0238 C117.218,97.6852 114.5228,100.2756 107.8442,101.05 C106.638,101.1898 105.5224,101.2512 104.495,101.2512" id="Fill-9" fill="#231515" fill-rule="nonzero"></path>
            <g filter="url(#filter-1)" id="reflected-light">
                <g transform="translate(18.000000, 1.000000)">
                    <g id="Fill-10-Clipped">
                        <mask id="mask-3" fill="white">
                            <use xlink:href="#path-2"></use>
                        </mask>
                        <g id="path-2"></g>
                        <path d="M110.367385,222.4582 C110.367385,222.4582 116.370256,257.8744 119.524513,275.0876 L113.449026,275.0876 C113.449026,275.0876 111.793436,236.7982 110.367385,222.4582" id="Fill-10" fill="#491F24" fill-rule="nonzero" mask="url(#mask-3)"></path>
                    </g>
                    <g id="Fill-13-Clipped">
                        <mask id="mask-5" fill="white">
                            <use xlink:href="#path-4"></use>
                        </mask>
                        <g id="path-2"></g>
                        <path d="M63.2445128,46.260921 C49.7540513,46.2152 19.0921026,57.5194 8.2014359,66.4158 C0.273435897,72.8922 -2.66994872,90.6878 -2.7214359,107.461 C0.202666667,101.5516 5.21292308,92.6976 13.3362051,81.6576 C25.7444103,64.7936 53.046359,51.0064 63.2445128,46.260921" id="Fill-13" fill="#1A291D" fill-rule="nonzero" mask="url(#mask-5)"></path>
                    </g>
                    <g id="Fill-14-Clipped">
                        <mask id="mask-7" fill="white">
                            <use xlink:href="#path-6"></use>
                        </mask>
                        <g id="path-2"></g>
                        <path d="M77.2732308,64.9796 C77.2732308,64.9796 75.4962051,53.43 68.8369231,47.6206 C67.7700513,46.6898 65.8180513,46.2702 63.2445128,46.2612 C53.046359,51.0064 25.7444103,64.7936 13.3362051,81.6576 C5.21292308,92.6976 0.202666667,101.5516 -2.7228098,107.461 C-2.75446154,118.1248 -1.61887179,128.3754 0.148717949,135.0408 L77.2732308,64.9796" id="Fill-14" fill="#2E4934" fill-rule="nonzero" mask="url(#mask-7)"></path>
                    </g>
                    <g id="Fill-15-Clipped">
                        <mask id="mask-9" fill="white">
                            <use xlink:href="#path-8"></use>
                        </mask>
                        <g id="path-2"></g>
                        <path d="M51.0619487,30.2658 C51.0619487,30.2658 2.85353846,15.5862 -2.72287179,6.7006 C-8.29907692,-2.1848 -14.9058462,46.3436 -2.72287179,50.2166 C9.46010256,54.0898 51.0619487,30.2658 51.0619487,30.2658" id="Fill-15" fill="#2E4934" fill-rule="nonzero" mask="url(#mask-9)"></path>
                    </g>
                    <g id="Fill-16-Clipped">
                        <mask id="mask-11" fill="white">
                            <use xlink:href="#path-10"></use>
                        </mask>
                        <g id="path-2"></g>
                        <path d="M77.8886154,64.9796 C77.8886154,64.9796 83.8590769,75.133 80.9431795,85.4218 C78.0274872,95.7106 77.472,96.252 79.1382564,98.9596 C80.8043077,101.6672 88.302359,111.956 88.302359,113.1744 C88.302359,114.3928 86.358359,114.9344 83.0953846,117.1004 C79.8324103,119.2664 79.8324103,121.7032 81.6375385,124.817 L74.5561026,130.1644 L77.2637949,134.7674 C77.2637949,134.7674 73.7924103,136.1212 74.5561026,139.3702 C75.3197949,142.6192 75.8752821,144.853 73.5146667,147.493 C71.1542564,150.1328 69.6964103,150.2682 64.0730256,149.5236 C58.4494359,148.779 45.3282051,144.5822 40.8155897,145.6654 C36.3029744,146.7484 30.8182564,151.4866 32.2763077,160.9632 C33.7341538,170.4396 38.0385641,173.418 55.256,174.2302 C72.4734359,175.0426 90.5238974,169.3566 103.298051,198.3276 C116.072205,227.2988 120.237744,275.0876 120.237744,275.0876 L0.687794872,275.0876 L0.687794872,149.5914 C0.687794872,149.5914 -3.06112821,102.7502 22.4873846,84.8802 C48.0356923,67.0102 77.8886154,64.9796 77.8886154,64.9796" id="Fill-16" fill="#331C1D" fill-rule="nonzero" mask="url(#mask-11)"></path>
                    </g>
                </g>
            </g>
            <g id="Group-17" transform="translate(17.000000, 0.000000)">
                <g id="Fill-10-Clipped">
                    <mask id="mask-13" fill="white">
                        <use xlink:href="#path-12"></use>
                    </mask>
                    <g id="path-2"></g>
                    <path d="M107.6082,222.4582 C107.6082,222.4582 113.461,257.8744 116.5364,275.0876 L110.6128,275.0876 C110.6128,275.0876 108.9986,236.7982 107.6082,222.4582" id="Fill-10" fill="#491F24" fill-rule="nonzero" mask="url(#mask-13)"></path>
                </g>
                <g id="Fill-12-Clipped">
                    <mask id="mask-15" fill="white">
                        <use xlink:href="#path-14"></use>
                    </mask>
                    <g id="path-2"></g>
                    <path d="M33.086,124.5062 C33.086,124.5062 34.5142,101.6442 56.951,86.7272 C79.3878,71.8104 100.5228,76.1366 108.1118,65.844 C115.7006,55.5512 112.1452,28.7114 92.2164,10.0558 C72.8408,-8.0816 11.5456,-3.237 -6.2912,37.7568 C-24.1282,78.7508 33.086,124.5062 33.086,124.5062" id="Fill-12" fill="#3E3A38" fill-rule="nonzero" mask="url(#mask-15)"></path>
                </g>
                <g id="Fill-13-Clipped">
                    <mask id="mask-17" fill="white">
                        <use xlink:href="#path-16"></use>
                    </mask>
                    <g id="path-2"></g>
                    <path d="M61.6634,46.260921 C48.5102,46.2152 18.6148,57.5194 7.9964,66.4158 C0.2666,72.8922 -2.6032,90.6878 -2.6534,107.461 C0.1976,101.5516 5.0826,92.6976 13.0028,81.6576 C25.1008,64.7936 51.7202,51.0064 61.6634,46.260921" id="Fill-13" fill="#1A291D" fill-rule="nonzero" mask="url(#mask-17)"></path>
                </g>
                <g id="Fill-14-Clipped">
                    <mask id="mask-19" fill="white">
                        <use xlink:href="#path-18"></use>
                    </mask>
                    <g id="path-2"></g>
                    <path d="M75.3414,64.9796 C75.3414,64.9796 73.6088,53.43 67.116,47.6206 C66.0758,46.6898 64.1726,46.2702 61.6634,46.2612 C51.7202,51.0064 25.1008,64.7936 13.0028,81.6576 C5.0826,92.6976 0.1976,101.5516 -2.65473956,107.461 C-2.6856,118.1248 -1.5784,128.3754 0.145,135.0408 L75.3414,64.9796" id="Fill-14" fill="#2E4934" fill-rule="nonzero" mask="url(#mask-19)"></path>
                </g>
                <g id="Fill-15-Clipped">
                    <mask id="mask-21" fill="white">
                        <use xlink:href="#path-20"></use>
                    </mask>
                    <g id="path-2"></g>
                    <path d="M49.7854,30.2658 C49.7854,30.2658 2.7822,15.5862 -2.6548,6.7006 C-8.0916,-2.1848 -14.5332,46.3436 -2.6548,50.2166 C9.2236,54.0898 49.7854,30.2658 49.7854,30.2658" id="Fill-15" fill="#2E4934" fill-rule="nonzero" mask="url(#mask-21)"></path>
                </g>
                <g id="Fill-16-Clipped">
                    <mask id="mask-23" fill="white">
                        <use xlink:href="#path-22"></use>
                    </mask>
                    <g id="path-2"></g>
                    <path d="M75.9414,64.9796 C75.9414,64.9796 81.7626,75.133 78.9196,85.4218 C76.0768,95.7106 75.5352,96.252 77.1598,98.9596 C78.7842,101.6672 86.0948,111.956 86.0948,113.1744 C86.0948,114.3928 84.1994,114.9344 81.018,117.1004 C77.8366,119.2664 77.8366,121.7032 79.5966,124.817 L72.6922,130.1644 L75.3322,134.7674 C75.3322,134.7674 71.9476,136.1212 72.6922,139.3702 C73.4368,142.6192 73.9784,144.853 71.6768,147.493 C69.3754,150.1328 67.954,150.2682 62.4712,149.5236 C56.9882,148.779 44.195,144.5822 39.7952,145.6654 C35.3954,146.7484 30.0478,151.4866 31.4694,160.9632 C32.8908,170.4396 37.0876,173.418 53.8746,174.2302 C70.6616,175.0426 88.2608,169.3566 100.7156,198.3276 C113.1704,227.2988 117.2318,275.0876 117.2318,275.0876 L0.6706,275.0876 L0.6706,149.5914 C0.6706,149.5914 -2.9846,102.7502 21.9252,84.8802 C46.8348,67.0102 75.9414,64.9796 75.9414,64.9796" id="Fill-16" fill="#331C1D" fill-rule="nonzero" mask="url(#mask-23)"></path>
                </g>
            </g>
            <path d="M35.753,98.418 C35.753,98.418 33.5192,111.2114 43.4696,118.1158 C43.4696,118.1158 37.964,116.4912 35.5386,108.9776 C33.113,101.4642 35.753,98.418 35.753,98.418" id="Fill-18" fill="#491F24" fill-rule="nonzero"></path>
            <path d="M95.5746,124.0104 C95.5746,124.0104 94.1212,123.1296 91.4348,125.2876 C88.7484,127.4456 82.803,127.974 81.0414,128.5466 C79.2798,129.119 83.5956,132.1578 85.6216,134.2718 C87.6474,136.3856 90.4658,137.839 92.1834,136.2536 C93.901,134.6682 92.1394,131.3736 89.8494,130.3784 C89.8494,130.3784 92.2276,130.7046 94.4736,128.5466 C96.7196,126.3886 96.059,124.4948 95.5746,124.0104" id="Fill-19" fill="#110D0D" fill-rule="nonzero"></path>
            <path d="M59.0796,145.5272 C59.0796,145.5272 40.411,141.4636 34.5134,130.9834 C34.5134,130.9834 33.9154,144.4638 47.6696,156.8616 C47.6696,156.8616 47.7334,152.5538 50.4206,149.401 C53.108,146.2482 56.3582,145.2054 59.0796,145.5272" id="Fill-20" fill="#491F24" fill-rule="nonzero"></path>
            <path d="M44.4848,113.4136 C44.1052,113.4136 43.7292,113.4298 43.357,113.4598 C42.9444,113.493 42.6276,113.8406 42.6276,114.2546 L42.6276,114.2556 C42.6276,114.7182 43.0204,115.0844 43.4814,115.0482 C43.8126,115.0222 44.1472,115.0084 44.4848,115.0084 C51.859,115.0084 57.8186,121.18 57.4702,128.6292 C57.1588,135.2826 51.7594,140.682 45.1062,140.9934 C37.6568,141.3422 31.4852,135.3822 31.4852,128.0082 C31.4852,123.6396 33.6524,119.769 36.9672,117.4108 C37.1804,117.2592 37.3114,117.0178 37.3114,116.756 C37.3114,116.1084 36.5794,115.7326 36.0514,116.1078 C32.1358,118.89 29.6442,123.5506 29.9096,128.766 C30.2884,136.2106 36.3386,142.2364 43.7846,142.5864 C52.1492,142.9794 59.0796,136.288 59.0796,128.0082 C59.0796,119.9608 52.5324,113.4136 44.4848,113.4136" id="Fill-21" fill="#F6CC26" fill-rule="nonzero"></path>
            <path d="M73.7336,101.2512 C68.9782,101.2512 66.0922,99.9374 64.6488,99.0116 C64.0184,98.6074 63.9416,97.716 64.485,97.2006 L64.487,97.1986 C64.8714,96.834 65.453,96.7738 65.8996,97.0584 C67.2526,97.9204 70.636,99.4638 76.8156,98.7476 C82.7038,98.0648 84.8346,95.9084 85.5586,94.783 C85.8212,94.3748 86.306,94.172 86.7802,94.2754 C87.5652,94.4464 87.947,95.3462 87.5154,96.0238 C86.4566,97.6852 83.7614,100.2756 77.0828,101.05 C75.8764,101.1898 74.761,101.2512 73.7336,101.2512" id="Fill-22" fill="#000000" fill-rule="nonzero"></path>
            <path d="M87.6956,222.4582 C87.6956,222.4582 93.5484,257.8744 96.624,275.0876 L90.7002,275.0876 C90.7002,275.0876 89.086,236.7982 87.6956,222.4582" id="Fill-23" fill="#491F24" fill-rule="nonzero"></path>
            <g id="Group-29" transform="translate(0.000000, 30.000000)" fill="#838D1D" fill-rule="nonzero">
                <path d="M10.5032,71.2512 C10.5032,71.2512 25.9958,33.8866 80.6282,16.3668 C80.6282,16.3668 87.5332,11.1278 83.4326,4.9766 C79.3318,-1.1746 46.194,-2.8832 15.433,8.0522 C-15.328,18.9876 10.5032,71.2512 10.5032,71.2512" id="Fill-27"></path>
            </g>
        </g>
    </g>
</svg>