<?xml version="1.0" encoding="UTF-8"?>
<svg width="259px" height="280px" viewBox="0 0 259 280" version="1.1" xmlns="http://www.w3.org/2000/svg" xmlns:xlink="http://www.w3.org/1999/xlink">
    <title>black-history-month-vector-design</title>
    <defs>
        <filter id="filter-1">
            <feColorMatrix in="SourceGraphic" type="matrix" values="0 0 0 0 1.000000 0 0 0 0 0.976688 0 0 0 0 0.891670 0 0 0 1.000000 0"></feColorMatrix>
        </filter>
        <polygon id="path-2" points="0.1652 0.0167736365 116.6318 0.0167736365 116.6318 275.0876 0.1652 275.0876"></polygon>
    </defs>
    <g id="black-history-month-vector-design" stroke="none" stroke-width="1" fill="none" fill-rule="evenodd">
        <g filter="url(#filter-1)" id="blob-(5)">
            <g transform="translate(9.200000, 23.600000)">
                <path d="M154.436354,29.548164 C161.463017,38.5530691 156.19302,59.0724431 165.934531,77.2298748 C175.676042,95.5349279 200.748456,111.478039 201.387243,123.435372 C202.026031,135.392705 178.550586,143.511882 158.907867,153.697758 C139.424845,163.883634 123.934245,176.283831 102.694557,183.664901 C81.2951722,191.045971 54.3063956,193.407913 46.4812474,179.679123 C38.6560991,165.950334 50.1542761,136.130812 42.6485217,112.511388 C35.1427673,89.0395865 8.47338449,71.6202618 1.76611457,50.805645 C-4.94115535,29.9910281 8.15399068,5.63349783 29.2339819,0.909613168 C50.1542761,-3.8142715 79.3788094,11.0954895 103.652739,17.2955881 C127.926668,23.3480653 147.40969,20.6908802 154.436354,29.548164 Z" id="Path" fill="#FF0066" fill-rule="nonzero"></path>
            </g>
        </g>
        <path d="M106.1028,69.9796 C106.1028,69.9796 111.924,80.133 109.081,90.4218 C106.238,100.7106 105.6966,101.252 107.3212,103.9596 C108.9456,106.6672 116.2562,116.956 116.2562,118.1744 C116.2562,119.3928 114.3608,119.9344 111.1794,122.1004 C107.998,124.2664 107.998,126.7032 109.758,129.817 L102.8536,135.1644 L105.4936,139.7674 C105.4936,139.7674 102.109,141.1212 102.8536,144.3702 C103.5982,147.6192 104.1398,149.853 101.8382,152.493 C99.5368,155.1328 98.1154,155.2682 92.6326,154.5236 C87.1496,153.779 74.3564,149.5822 69.9566,150.6654 C65.5568,151.7484 60.2094,156.4866 61.6308,165.9632 C63.0522,175.4396 67.249,178.418 84.036,179.2302 C100.823,180.0426 118.4222,174.3566 130.877,203.3276 C143.3318,232.2988 147.3932,280.0876 147.3932,280.0876 L30.832,280.0876 L30.832,154.5914 C30.832,154.5914 27.1768,107.7502 52.0866,89.8802 C76.9962,72.0102 106.1028,69.9796 106.1028,69.9796" id="Fill-4" fill="#5A262B"></path>
        <path d="M55.6656,103.418 C55.6656,103.418 53.4318,116.2114 63.3822,123.1158 C63.3822,123.1158 57.8764,121.4912 55.451,113.9776 C53.0256,106.4642 55.6656,103.418 55.6656,103.418" id="Fill-5" fill="#491F24"></path>
        <path d="M109.336,129.0104 C109.336,129.0104 107.8826,128.1296 105.1962,130.2876 C102.5098,132.4456 96.5644,132.974 94.8028,133.5466 C93.0412,134.119 97.357,137.1578 99.383,139.2718 C101.4088,141.3856 104.2274,142.839 105.9448,141.2536 C107.6624,139.6682 105.9008,136.3736 103.6108,135.3784 C103.6108,135.3784 105.989,135.7046 108.235,133.5466 C110.481,131.3886 109.8204,129.4948 109.336,129.0104" id="Fill-6" fill="#231515"></path>
        <path d="M72.8408,150.5272 C72.8408,150.5272 54.1724,146.4636 48.2748,135.9834 C48.2748,135.9834 47.6768,149.4638 61.431,161.8616 C61.431,161.8616 61.4948,157.5538 64.182,154.401 C66.8692,151.2482 70.1196,150.2054 72.8408,150.5272" id="Fill-7" fill="#231515"></path>
        <path d="M58.2462,118.4136 C57.8664,118.4136 57.4906,118.4298 57.1184,118.4598 C56.7058,118.493 56.389,118.8406 56.389,119.2546 L56.389,119.2556 C56.389,119.7182 56.7818,120.0844 57.2428,120.0482 C57.574,120.0222 57.9086,120.0084 58.2462,120.0084 C65.6204,120.0084 71.58,126.18 71.2316,133.6292 C70.9202,140.2826 65.5208,145.682 58.8676,145.9934 C51.4182,146.3422 45.2466,140.3822 45.2466,133.0082 C45.2466,128.6396 47.4138,124.769 50.7286,122.4108 C50.9418,122.2592 51.073,122.0178 51.073,121.756 C51.073,121.1084 50.3408,120.7326 49.8128,121.1078 C45.8972,123.89 43.4056,128.5506 43.671,133.766 C44.0498,141.2106 50.1,147.2364 57.546,147.5864 C65.9106,147.9794 72.8408,141.288 72.8408,133.0082 C72.8408,124.9608 66.2938,118.4136 58.2462,118.4136" id="Fill-8" fill="#F6CC26"></path>
        <path d="M87.495,106.2512 C82.7396,106.2512 79.8536,104.9374 78.4102,104.0116 C77.7798,103.6074 77.703,102.716 78.2464,102.2006 L78.2484,102.1986 C78.6328,101.834 79.2144,101.7738 79.6612,102.0584 C81.014,102.9204 84.3974,104.4638 90.577,103.7476 C96.4652,103.0648 98.596,100.9084 99.32,99.783 C99.5826,99.3748 100.0674,99.172 100.5416,99.2754 C101.3266,99.4464 101.7084,100.3462 101.2768,101.0238 C100.218,102.6852 97.5228,105.2756 90.8442,106.05 C89.638,106.1898 88.5224,106.2512 87.495,106.2512" id="Fill-9" fill="#231515"></path>
        <g id="Group-17" transform="translate(0.000000, 5.000000)">
            <mask id="mask-3" fill="white">
                <use xlink:href="#path-2"></use>
            </mask>
            <g id="Clip-11"></g>
            <path d="M107.6082,222.4582 C107.6082,222.4582 113.461,257.8744 116.5364,275.0876 L110.6128,275.0876 C110.6128,275.0876 108.9986,236.7982 107.6082,222.4582" id="Fill-10" fill="#491F24" mask="url(#mask-3)"></path>
            <path d="M33.086,124.5062 C33.086,124.5062 34.5142,101.6442 56.951,86.7272 C79.3878,71.8104 100.5228,76.1366 108.1118,65.844 C115.7006,55.5512 112.1452,28.7114 92.2164,10.0558 C72.8408,-8.0816 11.5456,-3.237 -6.2912,37.7568 C-24.1282,78.7508 33.086,124.5062 33.086,124.5062" id="Fill-12" fill="#3E3A38" mask="url(#mask-3)"></path>
            <path d="M61.6634,46.2610601 C48.5102,46.2152 18.6148,57.5194 7.9964,66.4158 C0.2666,72.8922 -2.6032,90.6878 -2.6534,107.461 C0.1976,101.5516 5.0826,92.6976 13.0028,81.6576 C25.1008,64.7936 51.7202,51.0064 61.6634,46.2610601" id="Fill-13" fill="#1A291D" mask="url(#mask-3)"></path>
            <path d="M75.3414,64.9796 C75.3414,64.9796 73.6088,53.43 67.116,47.6206 C66.0758,46.6898 64.1726,46.2702 61.6634,46.2612 C51.7202,51.0064 25.1008,64.7936 13.0028,81.6576 C5.0826,92.6976 0.1976,101.5516 -2.65408397,107.461 C-2.6856,118.1248 -1.5784,128.3754 0.145,135.0408 L75.3414,64.9796" id="Fill-14" fill="#2E4934" mask="url(#mask-3)"></path>
            <path d="M49.7854,30.2658 C49.7854,30.2658 2.7822,15.5862 -2.6548,6.7006 C-8.0916,-2.1848 -14.5332,46.3436 -2.6548,50.2166 C9.2236,54.0898 49.7854,30.2658 49.7854,30.2658" id="Fill-15" fill="#2E4934" mask="url(#mask-3)"></path>
            <path d="M75.9414,64.9796 C75.9414,64.9796 81.7626,75.133 78.9196,85.4218 C76.0768,95.7106 75.5352,96.252 77.1598,98.9596 C78.7842,101.6672 86.0948,111.956 86.0948,113.1744 C86.0948,114.3928 84.1994,114.9344 81.018,117.1004 C77.8366,119.2664 77.8366,121.7032 79.5966,124.817 L72.6922,130.1644 L75.3322,134.7674 C75.3322,134.7674 71.9476,136.1212 72.6922,139.3702 C73.4368,142.6192 73.9784,144.853 71.6768,147.493 C69.3754,150.1328 67.954,150.2682 62.4712,149.5236 C56.9882,148.779 44.195,144.5822 39.7952,145.6654 C35.3954,146.7484 30.0478,151.4866 31.4694,160.9632 C32.8908,170.4396 37.0876,173.418 53.8746,174.2302 C70.6616,175.0426 88.2608,169.3566 100.7156,198.3276 C113.1704,227.2988 117.2318,275.0876 117.2318,275.0876 L0.6706,275.0876 L0.6706,149.5914 C0.6706,149.5914 -2.9846,102.7502 21.9252,84.8802 C46.8348,67.0102 75.9414,64.9796 75.9414,64.9796" id="Fill-16" fill="#331C1D" mask="url(#mask-3)"></path>
        </g>
        <path d="M18.753,103.418 C18.753,103.418 16.5192,116.2114 26.4696,123.1158 C26.4696,123.1158 20.964,121.4912 18.5386,113.9776 C16.113,106.4642 18.753,103.418 18.753,103.418" id="Fill-18" fill="#491F24"></path>
        <path d="M78.5746,129.0104 C78.5746,129.0104 77.1212,128.1296 74.4348,130.2876 C71.7484,132.4456 65.803,132.974 64.0414,133.5466 C62.2798,134.119 66.5956,137.1578 68.6216,139.2718 C70.6474,141.3856 73.4658,142.839 75.1834,141.2536 C76.901,139.6682 75.1394,136.3736 72.8494,135.3784 C72.8494,135.3784 75.2276,135.7046 77.4736,133.5466 C79.7196,131.3886 79.059,129.4948 78.5746,129.0104" id="Fill-19" fill="#110D0D"></path>
        <path d="M42.0796,150.5272 C42.0796,150.5272 23.411,146.4636 17.5134,135.9834 C17.5134,135.9834 16.9154,149.4638 30.6696,161.8616 C30.6696,161.8616 30.7334,157.5538 33.4206,154.401 C36.108,151.2482 39.3582,150.2054 42.0796,150.5272" id="Fill-20" fill="#491F24"></path>
        <path d="M27.4848,118.4136 C27.1052,118.4136 26.7292,118.4298 26.357,118.4598 C25.9444,118.493 25.6276,118.8406 25.6276,119.2546 L25.6276,119.2556 C25.6276,119.7182 26.0204,120.0844 26.4814,120.0482 C26.8126,120.0222 27.1472,120.0084 27.4848,120.0084 C34.859,120.0084 40.8186,126.18 40.4702,133.6292 C40.1588,140.2826 34.7594,145.682 28.1062,145.9934 C20.6568,146.3422 14.4852,140.3822 14.4852,133.0082 C14.4852,128.6396 16.6524,124.769 19.9672,122.4108 C20.1804,122.2592 20.3114,122.0178 20.3114,121.756 C20.3114,121.1084 19.5794,120.7326 19.0514,121.1078 C15.1358,123.89 12.6442,128.5506 12.9096,133.766 C13.2884,141.2106 19.3386,147.2364 26.7846,147.5864 C35.1492,147.9794 42.0796,141.288 42.0796,133.0082 C42.0796,124.9608 35.5324,118.4136 27.4848,118.4136" id="Fill-21" fill="#F6CC26"></path>
        <path d="M56.7336,106.2512 C51.9782,106.2512 49.0922,104.9374 47.6488,104.0116 C47.0184,103.6074 46.9416,102.716 47.485,102.2006 L47.487,102.1986 C47.8714,101.834 48.453,101.7738 48.8996,102.0584 C50.2526,102.9204 53.636,104.4638 59.8156,103.7476 C65.7038,103.0648 67.8346,100.9084 68.5586,99.783 C68.8212,99.3748 69.306,99.172 69.7802,99.2754 C70.5652,99.4464 70.947,100.3462 70.5154,101.0238 C69.4566,102.6852 66.7614,105.2756 60.0828,106.05 C58.8764,106.1898 57.761,106.2512 56.7336,106.2512" id="Fill-22" fill="#000000"></path>
        <path d="M70.6956,227.4582 C70.6956,227.4582 76.5484,262.8744 79.624,280.0876 L73.7002,280.0876 C73.7002,280.0876 72.086,241.7982 70.6956,227.4582" id="Fill-23" fill="#491F24"></path>
        <g id="Group-29" transform="translate(0.000000, 35.000000)" fill="#838D1D">
            <path d="M-6.4968,71.2512 C-6.4968,71.2512 8.9958,33.8866 63.6282,16.3668 C63.6282,16.3668 70.5332,11.1278 66.4326,4.9766 C62.3318,-1.1746 29.194,-2.8832 -1.567,8.0522 C-32.328,18.9876 -6.4968,71.2512 -6.4968,71.2512" id="Fill-27"></path>
        </g>
    </g>
</svg>