<?xml version="1.0" encoding="UTF-8"?>
<svg width="200px" height="143px" viewBox="0 0 200 143" version="1.1" xmlns="http://www.w3.org/2000/svg" xmlns:xlink="http://www.w3.org/1999/xlink">
    <title>clean-code</title>
    <g id="Page-1" stroke="none" stroke-width="1" fill="none" fill-rule="evenodd">
        <g id="clean-code" fill-rule="nonzero">
            <rect id="Rectangle" fill="#FFC1E5" x="0" y="0" width="200" height="143"></rect>
            <g id="Group" transform="translate(20.000000, 10.000000)">
                <g transform="translate(95.772687, 0.859206)">
                    <path d="M31.5150661,10.5395909 C31.2296035,7.04548736 28.1608811,4.15282792 24.6639648,4.02394705 C23.6648458,3.98098676 22.7228194,4.16714801 21.8664317,4.52515042 C21.0243172,1.9188929 18.5978855,0.0429602888 15.7147137,0.0429602888 C13.4452863,0.0429602888 11.4470485,1.21720818 10.2909251,3.00722022 C9.83418502,2.87833935 9.36317181,2.82105897 8.87788546,2.82105897 C6.40863436,2.82105897 4.32475771,4.51083032 3.73955947,6.80204573 C1.62713656,7.50373045 0.114185022,9.50854392 0.114185022,11.8570397 C0.114185022,11.8713598 0.114185022,11.8856799 0.114185022,11.8856799 C0.12845815,13.5468111 0.899207048,16.4824308 3.14008811,16.4824308 L27.8896916,16.4824308 C30.7585903,16.3249097 31.6577974,12.2150421 31.5150661,10.5395909 Z" id="Path" fill="#FFFFFF"></path>
                    <g transform="translate(3.853744, 10.883273)" fill="#605D5D">
                        <path d="M23.4364758,10.5395909 L21.5524229,8.63501805 C21.3240529,8.40589651 20.9529515,8.40589651 20.7245815,8.63501805 C20.4962115,8.86413959 20.4962115,9.23646209 20.7245815,9.46558363 L21.566696,10.3104693 L12.5603524,10.3104693 L12.5603524,3.90938628 C12.5603524,3.70890493 12.403348,3.55138387 12.2035242,3.55138387 L11.6611454,3.55138387 C11.4613216,3.55138387 11.3043172,3.70890493 11.3043172,3.90938628 L11.3043172,10.3104693 L2.08387665,10.3104693 L2.92599119,9.46558363 C3.15436123,9.23646209 3.15436123,8.86413959 2.92599119,8.63501805 C2.69762115,8.40589651 2.32651982,8.40589651 2.09814978,8.63501805 L0.199823789,10.5395909 C0.0856387665,10.6541516 0.0285462555,10.8116727 0.0285462555,10.9548736 C0.0285462555,11.1123947 0.0856387665,11.2555957 0.199823789,11.3701564 L2.09814978,13.2747292 C2.32651982,13.5038508 2.69762115,13.5038508 2.92599119,13.2747292 C3.15436123,13.0456077 3.15436123,12.6732852 2.92599119,12.4441637 L2.06960352,11.5849579 L11.6611454,11.5849579 L12.2035242,11.5849579 L21.5809692,11.5849579 L20.7245815,12.4441637 C20.4962115,12.6732852 20.4962115,13.0456077 20.7245815,13.2747292 C20.9529515,13.5038508 21.3240529,13.5038508 21.5524229,13.2747292 L23.4507489,11.3701564 C23.5649339,11.2555957 23.6220264,11.0980746 23.6220264,10.9548736 C23.6077533,10.7973526 23.5506608,10.6541516 23.4364758,10.5395909 Z" id="Path"></path>
                        <path d="M11.8181498,0.128880866 C10.619207,0.128880866 9.64863436,1.10264741 9.64863436,2.3055355 C9.64863436,3.50842359 10.619207,4.48219013 11.8181498,4.48219013 C13.0170925,4.48219013 13.9876652,3.50842359 13.9876652,2.3055355 C13.9876652,1.10264741 13.0170925,0.128880866 11.8181498,0.128880866 Z M11.8181498,3.4368231 C11.2044053,3.4368231 10.6905727,2.93561974 10.6905727,2.3055355 C10.6905727,1.67545126 11.1901322,1.17424789 11.8181498,1.17424789 C12.4318943,1.17424789 12.9457269,1.67545126 12.9457269,2.3055355 C12.9457269,2.93561974 12.4461674,3.4368231 11.8181498,3.4368231 Z" id="Shape"></path>
                    </g>
                </g>
                <path d="M152.180088,31.5471721 C151.923172,28.3108303 149.082819,25.6616125 145.842819,25.5327316 C144.929339,25.5040915 144.044405,25.6616125 143.259383,25.9909747 C142.488634,23.5851986 140.23348,21.8524669 137.578678,21.8524669 C135.480529,21.8524669 133.639295,22.9407942 132.568811,24.5876053 C132.15489,24.4730445 131.712423,24.4157641 131.255683,24.4157641 C128.971982,24.4157641 127.059383,25.9766546 126.502731,28.0960289 C124.561586,28.7547533 123.148546,30.5877256 123.148546,32.7643803 C123.148546,32.7787004 123.148546,32.7787004 123.148546,32.7930205 C123.162819,34.3252708 123.876476,37.046089 125.946079,37.046089 L148.797357,37.046089 C151.480705,36.888568 152.308546,33.0937425 152.180088,31.5471721 Z" id="Path" fill="#6FD0C9"></path>
                <g transform="translate(49.813216, 94.226233)" id="Path">
                    <path d="M53.8953304,0.0429602888 L1.47013216,0.0429602888 C0.69938326,0.0429602888 0.0713656388,0.673044525 0.0713656388,1.44632972 L0.0713656388,23.2558363 C0.0713656388,24.0291215 0.69938326,24.6592058 1.47013216,24.6592058 L53.8953304,24.6592058 C54.6660793,24.6592058 55.2940969,24.0291215 55.2940969,23.2558363 L55.2940969,1.44632972 C55.2940969,0.673044525 54.6660793,0.0429602888 53.8953304,0.0429602888 Z" fill="#FFFFFF"></path>
                    <g transform="translate(3.140088, 2.434416)">
                        <path d="M0.471013216,4.2101083 C0.228370044,4.2101083 0.0428193833,4.02394705 0.0428193833,3.78050542 L0.0428193833,0.443922984 C0.0428193833,0.200481348 0.228370044,0.0143200963 0.471013216,0.0143200963 L6.87964758,0.0143200963 C7.12229075,0.0143200963 7.30784141,0.200481348 7.30784141,0.443922984 L7.30784141,3.78050542 C7.30784141,4.02394705 7.12229075,4.2101083 6.87964758,4.2101083 L0.471013216,4.2101083 Z" fill="#7A7878"></path>
                        <path d="M0.471013216,9.27942238 C0.228370044,9.27942238 0.0428193833,9.09326113 0.0428193833,8.84981949 L0.0428193833,5.51323706 C0.0428193833,5.26979543 0.228370044,5.08363418 0.471013216,5.08363418 L4.06784141,5.08363418 C4.31048458,5.08363418 4.49603524,5.26979543 4.49603524,5.51323706 L4.49603524,8.84981949 C4.49603524,9.09326113 4.31048458,9.27942238 4.06784141,9.27942238 L0.471013216,9.27942238 Z" fill="#58A3C4"></path>
                        <path d="M6.05180617,9.27942238 C5.809163,9.27942238 5.62361233,9.09326113 5.62361233,8.84981949 L5.62361233,5.51323706 C5.62361233,5.26979543 5.809163,5.08363418 6.05180617,5.08363418 L9.64863436,5.08363418 C9.89127753,5.08363418 10.0768282,5.26979543 10.0768282,5.51323706 L10.0768282,8.84981949 C10.0768282,9.09326113 9.89127753,9.27942238 9.64863436,9.27942238 L6.05180617,9.27942238 Z" fill="#7A7878"></path>
                        <path d="M11.6325991,9.27942238 C11.3899559,9.27942238 11.2044053,9.09326113 11.2044053,8.84981949 L11.2044053,5.51323706 C11.2044053,5.26979543 11.3899559,5.08363418 11.6325991,5.08363418 L15.2294273,5.08363418 C15.4720705,5.08363418 15.6576211,5.26979543 15.6576211,5.51323706 L15.6576211,8.84981949 C15.6576211,9.09326113 15.4720705,9.27942238 15.2294273,9.27942238 L11.6325991,9.27942238 Z" fill="#7A7878"></path>
                        <path d="M17.2133921,9.27942238 C16.9707489,9.27942238 16.7851982,9.09326113 16.7851982,8.84981949 L16.7851982,5.51323706 C16.7851982,5.26979543 16.9707489,5.08363418 17.2133921,5.08363418 L20.8102203,5.08363418 C21.0528634,5.08363418 21.2384141,5.26979543 21.2384141,5.51323706 L21.2384141,8.84981949 C21.2384141,9.09326113 21.0528634,9.27942238 20.8102203,9.27942238 L17.2133921,9.27942238 Z" fill="#7A7878"></path>
                        <path d="M22.794185,9.27942238 C22.5515419,9.27942238 22.3659912,9.09326113 22.3659912,8.84981949 L22.3659912,5.51323706 C22.3659912,5.26979543 22.5515419,5.08363418 22.794185,5.08363418 L26.3910132,5.08363418 C26.6336564,5.08363418 26.819207,5.26979543 26.819207,5.51323706 L26.819207,8.84981949 C26.819207,9.09326113 26.6336564,9.27942238 26.3910132,9.27942238 L22.794185,9.27942238 Z" fill="#7A7878"></path>
                        <path d="M28.4177974,9.27942238 C28.1751542,9.27942238 27.9896035,9.09326113 27.9896035,8.84981949 L27.9896035,5.51323706 C27.9896035,5.26979543 28.1751542,5.08363418 28.4177974,5.08363418 L32.0146256,5.08363418 C32.2572687,5.08363418 32.4428194,5.26979543 32.4428194,5.51323706 L32.4428194,8.84981949 C32.4428194,9.09326113 32.2572687,9.27942238 32.0146256,9.27942238 L28.4177974,9.27942238 Z" fill="#7A7878"></path>
                        <path d="M33.9843172,9.27942238 C33.741674,9.27942238 33.5561233,9.09326113 33.5561233,8.84981949 L33.5561233,5.51323706 C33.5561233,5.26979543 33.741674,5.08363418 33.9843172,5.08363418 L37.5811454,5.08363418 C37.8237885,5.08363418 38.0093392,5.26979543 38.0093392,5.51323706 L38.0093392,8.84981949 C38.0093392,9.09326113 37.8237885,9.27942238 37.5811454,9.27942238 L33.9843172,9.27942238 Z" fill="#7A7878"></path>
                        <g transform="translate(10.133921, 10.453670)" fill="#7A7878">
                            <path d="M0.471013216,4.19578821 C0.228370044,4.19578821 0.0428193833,4.00962696 0.0428193833,3.76618532 L0.0428193833,0.429602888 C0.0428193833,0.186161252 0.228370044,0 0.471013216,0 L4.06784141,0 C4.31048458,0 4.49603524,0.186161252 4.49603524,0.429602888 L4.49603524,3.76618532 C4.49603524,4.00962696 4.31048458,4.19578821 4.06784141,4.19578821 L0.471013216,4.19578821 Z"></path>
                            <path d="M6.05180617,4.19578821 C5.809163,4.19578821 5.62361233,4.00962696 5.62361233,3.76618532 L5.62361233,0.429602888 C5.62361233,0.186161252 5.809163,0 6.05180617,0 L9.64863436,0 C9.89127753,0 10.0768282,0.186161252 10.0768282,0.429602888 L10.0768282,3.76618532 C10.0768282,4.00962696 9.89127753,4.19578821 9.64863436,4.19578821 L6.05180617,4.19578821 Z"></path>
                            <path d="M11.6325991,4.19578821 C11.3899559,4.19578821 11.2044053,4.00962696 11.2044053,3.76618532 L11.2044053,0.429602888 C11.2044053,0.186161252 11.3899559,0 11.6325991,0 L15.2294273,0 C15.4720705,0 15.6576211,0.186161252 15.6576211,0.429602888 L15.6576211,3.76618532 C15.6576211,4.00962696 15.4720705,4.19578821 15.2294273,4.19578821 L11.6325991,4.19578821 Z"></path>
                            <path d="M17.2133921,4.19578821 C16.9707489,4.19578821 16.7851982,4.00962696 16.7851982,3.76618532 L16.7851982,0.429602888 C16.7851982,0.186161252 16.9707489,0 17.2133921,0 L20.8102203,0 C21.0528634,0 21.2384141,0.186161252 21.2384141,0.429602888 L21.2384141,3.76618532 C21.2384141,4.00962696 21.0528634,4.19578821 20.8102203,4.19578821 L17.2133921,4.19578821 Z"></path>
                            <path d="M22.8370044,4.19578821 C22.5943612,4.19578821 22.4088106,4.00962696 22.4088106,3.76618532 L22.4088106,0.429602888 C22.4088106,0.186161252 22.5943612,0 22.8370044,0 L26.4338326,0 C26.6764758,0 26.8620264,0.186161252 26.8620264,0.429602888 L26.8620264,3.76618532 C26.8620264,4.00962696 26.6764758,4.19578821 26.4338326,4.19578821 L22.8370044,4.19578821 Z"></path>
                        </g>
                        <g transform="translate(8.421145, 0.000000)" fill="#7A7878">
                            <path d="M0.485286344,4.2101083 C0.242643172,4.2101083 0.057092511,4.02394705 0.057092511,3.78050542 L0.057092511,0.443922984 C0.057092511,0.200481348 0.242643172,0.0143200963 0.485286344,0.0143200963 L4.08211454,0.0143200963 C4.32475771,0.0143200963 4.51030837,0.200481348 4.51030837,0.443922984 L4.51030837,3.78050542 C4.51030837,4.02394705 4.32475771,4.2101083 4.08211454,4.2101083 L0.485286344,4.2101083 Z"></path>
                            <path d="M6.0660793,4.2101083 C5.82343612,4.2101083 5.63788546,4.02394705 5.63788546,3.78050542 L5.63788546,0.443922984 C5.63788546,0.200481348 5.82343612,0.0143200963 6.0660793,0.0143200963 L9.66290749,0.0143200963 C9.90555066,0.0143200963 10.0911013,0.200481348 10.0911013,0.443922984 L10.0911013,3.78050542 C10.0911013,4.02394705 9.90555066,4.2101083 9.66290749,4.2101083 L6.0660793,4.2101083 Z"></path>
                            <path d="M11.6468722,4.2101083 C11.4042291,4.2101083 11.2186784,4.02394705 11.2186784,3.78050542 L11.2186784,0.443922984 C11.2186784,0.200481348 11.4042291,0.0143200963 11.6468722,0.0143200963 L15.2437004,0.0143200963 C15.4863436,0.0143200963 15.6718943,0.200481348 15.6718943,0.443922984 L15.6718943,3.78050542 C15.6718943,4.02394705 15.4863436,4.2101083 15.2437004,4.2101083 L11.6468722,4.2101083 Z"></path>
                            <path d="M17.2276652,4.2101083 C16.985022,4.2101083 16.7994714,4.02394705 16.7994714,3.78050542 L16.7994714,0.443922984 C16.7994714,0.200481348 16.985022,0.0143200963 17.2276652,0.0143200963 L20.8244934,0.0143200963 C21.0671366,0.0143200963 21.2526872,0.200481348 21.2526872,0.443922984 L21.2526872,3.78050542 C21.2526872,4.02394705 21.0671366,4.2101083 20.8244934,4.2101083 L17.2276652,4.2101083 Z"></path>
                            <path d="M22.8512775,4.2101083 C22.6086344,4.2101083 22.4230837,4.02394705 22.4230837,3.78050542 L22.4230837,0.443922984 C22.4230837,0.200481348 22.6086344,0.0143200963 22.8512775,0.0143200963 L26.4481057,0.0143200963 C26.6907489,0.0143200963 26.8762996,0.200481348 26.8762996,0.443922984 L26.8762996,3.78050542 C26.8762996,4.02394705 26.6907489,4.2101083 26.4481057,4.2101083 L22.8512775,4.2101083 Z"></path>
                            <path d="M28.4320705,4.2101083 C28.1894273,4.2101083 28.0038767,4.02394705 28.0038767,3.78050542 L28.0038767,0.443922984 C28.0038767,0.200481348 28.1894273,0.0143200963 28.4320705,0.0143200963 L32.0288987,0.0143200963 C32.2715419,0.0143200963 32.4570925,0.200481348 32.4570925,0.443922984 L32.4570925,3.78050542 C32.4570925,4.02394705 32.2715419,4.2101083 32.0288987,4.2101083 L28.4320705,4.2101083 Z"></path>
                        </g>
                        <path d="M39.5651101,9.27942238 C39.322467,9.27942238 39.1369163,9.09326113 39.1369163,8.84981949 L39.1369163,5.51323706 C39.1369163,5.26979543 39.322467,5.08363418 39.5651101,5.08363418 L43.1619383,5.08363418 C43.4045815,5.08363418 43.5901322,5.26979543 43.5901322,5.51323706 L43.5901322,8.84981949 C43.5901322,9.09326113 43.4045815,9.27942238 43.1619383,9.27942238 L39.5651101,9.27942238 Z" fill="#7A7878"></path>
                        <path d="M0.471013216,19.9622142 C0.228370044,19.9622142 0.0428193833,19.7760529 0.0428193833,19.5326113 L0.0428193833,16.1960289 C0.0428193833,15.9525872 0.228370044,15.766426 0.471013216,15.766426 L4.06784141,15.766426 C4.31048458,15.766426 4.49603524,15.9525872 4.49603524,16.1960289 L4.49603524,19.5326113 C4.49603524,19.7760529 4.31048458,19.9622142 4.06784141,19.9622142 L0.471013216,19.9622142 Z" fill="#7A7878"></path>
                        <path d="M6.16599119,19.9622142 C5.92334802,19.9622142 5.73779736,19.7760529 5.73779736,19.5326113 L5.73779736,16.1960289 C5.73779736,15.9525872 5.92334802,15.766426 6.16599119,15.766426 L11.6040529,15.766426 C11.846696,15.766426 12.0322467,15.9525872 12.0322467,16.1960289 L12.0322467,19.5326113 C12.0322467,19.7760529 11.846696,19.9622142 11.6040529,19.9622142 L6.16599119,19.9622142 Z" fill="#7A7878"></path>
                        <path d="M13.5737445,19.9622142 C13.3311013,19.9622142 13.1455507,19.7760529 13.1455507,19.5326113 L13.1455507,16.1960289 C13.1455507,15.9525872 13.3311013,15.766426 13.5737445,15.766426 L37.4384141,15.766426 C37.6810573,15.766426 37.8666079,15.9525872 37.8666079,16.1960289 L37.8666079,19.5326113 C37.8666079,19.7760529 37.6810573,19.9622142 37.4384141,19.9622142 L13.5737445,19.9622142 Z" fill="#58A3C4"></path>
                        <path d="M0.471013216,14.6494585 C0.228370044,14.6494585 0.0428193833,14.4632972 0.0428193833,14.2198556 L0.0428193833,10.8832732 C0.0428193833,10.6398315 0.228370044,10.4536703 0.471013216,10.4536703 L8.52105727,10.4536703 C8.76370044,10.4536703 8.9492511,10.6398315 8.9492511,10.8832732 L8.9492511,14.2198556 C8.9492511,14.4632972 8.76370044,14.6494585 8.52105727,14.6494585 L0.471013216,14.6494585 Z" fill="#7A7878"></path>
                        <path d="M42.4340088,4.2101083 C42.1913656,4.2101083 42.005815,4.02394705 42.005815,3.78050542 L42.005815,0.443922984 C42.005815,0.200481348 42.1913656,0.0143200963 42.4340088,0.0143200963 L48.9140088,0.0143200963 C49.156652,0.0143200963 49.3422026,0.200481348 49.3422026,0.443922984 L49.3422026,3.78050542 C49.3422026,4.02394705 49.156652,4.2101083 48.9140088,4.2101083 L42.4340088,4.2101083 Z" fill="#58A3C4"></path>
                        <path d="M45.3314537,9.27942238 C45.0888106,9.27942238 44.9032599,9.09326113 44.9032599,8.84981949 L44.9032599,5.51323706 C44.9032599,5.26979543 45.0888106,5.08363418 45.3314537,5.08363418 L48.9282819,5.08363418 C49.1709251,5.08363418 49.3564758,5.26979543 49.3564758,5.51323706 L49.3564758,8.84981949 C49.3564758,9.09326113 49.1709251,9.27942238 48.9282819,9.27942238 L45.3314537,9.27942238 Z" fill="#7A7878"></path>
                        <path d="M45.3314537,20.0194946 C45.0888106,20.0194946 44.9032599,19.8333333 44.9032599,19.5898917 L44.9032599,16.2533093 C44.9032599,16.0098676 45.0888106,15.8237064 45.3314537,15.8237064 L48.9282819,15.8237064 C49.1709251,15.8237064 49.3564758,16.0098676 49.3564758,16.2533093 L49.3564758,19.5898917 C49.3564758,19.8333333 49.1709251,20.0194946 48.9282819,20.0194946 L45.3314537,20.0194946 Z" fill="#7A7878"></path>
                        <path d="M39.5651101,20.0194946 C39.322467,20.0194946 39.1369163,19.8333333 39.1369163,19.5898917 L39.1369163,16.2533093 C39.1369163,16.0098676 39.322467,15.8237064 39.5651101,15.8237064 L43.1619383,15.8237064 C43.4045815,15.8237064 43.5901322,16.0098676 43.5901322,16.2533093 L43.5901322,19.5898917 C43.5901322,19.8333333 43.4045815,20.0194946 43.1619383,20.0194946 L39.5651101,20.0194946 Z" fill="#7A7878"></path>
                        <path d="M38.5374449,14.6494585 C38.2948018,14.6494585 38.1092511,14.4632972 38.1092511,14.2198556 L38.1092511,10.8832732 C38.1092511,10.6398315 38.2948018,10.4536703 38.5374449,10.4536703 L48.9140088,10.4536703 C49.156652,10.4536703 49.3422026,10.6398315 49.3422026,10.8832732 L49.3422026,14.2198556 C49.3422026,14.4632972 49.156652,14.6494585 48.9140088,14.6494585 L38.5374449,14.6494585 Z" fill="#7A7878"></path>
                    </g>
                </g>
                <path d="M58.4770044,29.75716 L58.4770044,24.0577617 L54.9229956,23.4849579 C54.7231718,22.8548736 54.4805286,22.2534296 54.180793,21.6806258 L56.2932159,18.7593261 L52.2681938,14.7496992 L49.3564758,16.8690734 C48.7855507,16.5683514 48.1860793,16.3249097 47.5580617,16.1244284 L46.9871366,12.5587244 L41.3064317,12.5587244 L40.7355066,16.1244284 C40.107489,16.3249097 39.5080176,16.5683514 38.9370925,16.8690734 L36.0539207,14.7496992 L32.0431718,18.7736462 L34.1555947,21.6949458 C33.855859,22.2677497 33.6132159,22.8691937 33.4133921,23.499278 L29.8593833,24.0720818 L29.8593833,29.7714801 L33.4133921,30.344284 C33.6132159,30.9743682 33.855859,31.5758123 34.1555947,32.1486161 L32.0431718,35.0699158 L36.0539207,39.0938628 L38.9656388,36.9744886 C39.5365639,37.2752106 40.1360352,37.5186522 40.7640529,37.7191336 L41.334978,41.2848375 L47.0156828,41.2848375 L47.5866079,37.7191336 C48.2146256,37.5186522 48.8140969,37.2752106 49.385022,36.9744886 L52.2967401,39.0938628 L56.307489,35.0699158 L54.1950661,32.1486161 C54.4948018,31.5758123 54.7374449,30.9743682 54.9372687,30.344284 L58.4770044,29.75716 Z M44.1610573,31.9338147 C41.3920705,31.9338147 39.1511894,29.6855596 39.1511894,26.9074609 C39.1511894,24.1293622 41.3920705,21.8811071 44.1610573,21.8811071 C46.9300441,21.8811071 49.1709251,24.1293622 49.1709251,26.9074609 C49.1709251,29.6855596 46.9300441,31.9338147 44.1610573,31.9338147 Z" id="Shape" fill="#FFFFFF"></path>
                <path d="M73.3496035,18.7306859 L73.3496035,15.7234657 L71.4798238,15.4227437 C71.3799119,15.0933815 71.2371806,14.7783394 71.0801762,14.4776173 L72.1934802,12.9310469 L70.0810573,10.8116727 L68.5395595,11.9286402 C68.2398238,11.7711191 67.925815,11.6422383 67.597533,11.5276775 L67.2977974,9.65174489 L64.3004405,9.65174489 L64.0007048,11.5276775 C63.6724229,11.6279182 63.3584141,11.7711191 63.0586784,11.9286402 L61.5171806,10.8116727 L59.4047577,12.9310469 L60.5180617,14.4776173 C60.3610573,14.7783394 60.2325991,15.0933815 60.1184141,15.4227437 L58.2486344,15.7234657 L58.2486344,18.7306859 L60.1184141,19.0314079 C60.218326,19.3607702 60.3610573,19.6758123 60.5180617,19.9765343 L59.4047577,21.5231047 L61.5171806,23.6424789 L63.0586784,22.5255114 C63.3584141,22.6830325 63.6724229,22.8119134 64.0007048,22.9264741 L64.3004405,24.8024067 L67.2977974,24.8024067 L67.597533,22.9264741 C67.925815,22.8262335 68.2398238,22.6830325 68.5395595,22.5255114 L70.0810573,23.6424789 L72.1934802,21.5231047 L71.0801762,19.9765343 C71.2371806,19.6758123 71.3656388,19.3607702 71.4798238,19.0314079 L73.3496035,18.7306859 Z M65.7991189,19.8762936 C64.3432599,19.8762936 63.1585903,18.6877256 63.1585903,17.2270758 C63.1585903,15.766426 64.3432599,14.577858 65.7991189,14.577858 C67.254978,14.577858 68.4396476,15.766426 68.4396476,17.2270758 C68.4396476,18.6877256 67.254978,19.8762936 65.7991189,19.8762936 Z" id="Shape" fill="#58A3C4"></path>
                <path d="M60.5180617,7.63261131 L60.5180617,5.12659446 L58.9480176,4.88315283 C58.8623789,4.611071 58.7481938,4.33898917 58.6197357,4.09554753 L59.547489,2.80673887 L57.7776211,1.03104693 L56.4930396,1.96185319 C56.2361233,1.83297232 55.979207,1.71841155 55.7080176,1.63249097 L55.4653744,0.0572803851 L52.9675771,0.0572803851 L52.7249339,1.63249097 C52.4537445,1.71841155 52.1825551,1.83297232 51.9399119,1.96185319 L50.6553304,1.03104693 L48.8854626,2.80673887 L49.8132159,4.09554753 C49.6847577,4.35330927 49.5705727,4.611071 49.4849339,4.88315283 L47.9148899,5.12659446 L47.9148899,7.63261131 L49.4849339,7.87605295 C49.5705727,8.14813478 49.6847577,8.42021661 49.8132159,8.66365824 L48.8854626,9.95246691 L50.6553304,11.7281588 L51.9399119,10.7973526 C52.1968282,10.9262335 52.4537445,11.0407942 52.7249339,11.1267148 L52.9675771,12.7019254 L55.4653744,12.7019254 L55.7080176,11.1267148 C55.979207,11.0407942 56.2503965,10.9262335 56.4930396,10.7973526 L57.7776211,11.7281588 L59.547489,9.95246691 L58.6197357,8.66365824 C58.7481938,8.40589651 58.8623789,8.14813478 58.9480176,7.87605295 L60.5180617,7.63261131 Z M54.2093392,8.59205776 C52.9961233,8.59205776 51.9970044,7.60397112 51.9970044,6.37244284 C51.9970044,5.15523466 52.9818502,4.15282792 54.2093392,4.15282792 C55.4225551,4.15282792 56.421674,5.14091456 56.421674,6.37244284 C56.421674,7.60397112 55.4368282,8.59205776 54.2093392,8.59205776 Z" id="Shape" fill="#6FD0C9"></path>
                <g transform="translate(43.104846, 26.778580)">
                    <path d="M42.234185,50.4783394 L26.5480176,50.4783394 C26.6051101,52.5977136 26.1198238,57.5381468 20.5104846,58.1968712 C19.5113656,58.311432 18.7548899,59.1419976 18.7548899,60.1587244 L18.7548899,60.244645 C18.7548899,61.3329723 19.6398238,62.2208183 20.7245815,62.2208183 L48.0718943,62.2208183 C49.156652,62.2208183 50.0415859,61.3329723 50.0415859,60.244645 L50.0415859,60.1587244 C50.0415859,59.1563177 49.2851101,58.311432 48.2859912,58.1968712 C42.6623789,57.5524669 42.1770925,52.5977136 42.234185,50.4783394 Z" id="Path" fill="#FFFFFF"></path>
                    <path d="M26.3767401,52.6979543 L42.3911894,52.6979543 C42.234185,51.8530686 42.2056388,51.0654633 42.2199119,50.4926594 L26.5480176,50.4926594 C26.5622907,51.0654633 26.5337445,51.8387485 26.3767401,52.6979543 Z" id="Path" fill="#E5E5E5"></path>
                    <path d="M64.1719824,0.0859205776 L4.61022026,0.0859205776 C2.09814978,0.0859205776 0.0713656388,2.11937425 0.0713656388,4.63971119 L0.0713656388,45.8672684 C0.0713656388,48.3876053 2.09814978,50.421059 4.61022026,50.421059 L64.1577093,50.421059 C66.6697797,50.421059 68.6966383,48.3876053 68.6966383,45.8672684 L68.6966383,4.63971119 C68.710837,2.13369434 66.6697797,0.0859205776 64.1719824,0.0859205776 Z" id="Path" fill="#605D5D"></path>
                    <path d="M0.0713656388,41.8290012 L0.0713656388,45.8815884 C0.0713656388,48.4019254 2.09814978,50.4353791 4.61022026,50.4353791 L64.1577093,50.4353791 C66.6697797,50.4353791 68.6965639,48.4019254 68.6965639,45.8815884 L68.6965639,41.8290012 L0.0713656388,41.8290012 Z" id="Path" fill="#FFFFFF"></path>
                    <path d="M63.7580617,38.4494585 L5.02414097,38.4494585 C3.86801762,38.4494585 2.92599119,37.5043321 2.92599119,36.3444043 L2.92599119,5.69939832 C2.92599119,4.53947052 3.86801762,3.59434416 5.02414097,3.59434416 L63.7723348,3.59434416 C64.9284581,3.59434416 65.8704846,4.53947052 65.8704846,5.69939832 L65.8704846,36.3444043 C65.8704846,37.5043321 64.9284581,38.4494585 63.7580617,38.4494585 Z" id="Path" fill="#FFFFFF"></path>
                    <ellipse id="Oval" fill="#605D5D" cx="34.3839648" cy="46.4543923" rx="2.22660793" ry="2.23393502"></ellipse>
                    <rect id="Rectangle" fill="#605D5D" x="7.89303965" y="7.01684717" width="54.8944493" height="28.6115523"></rect>
                    <rect id="Rectangle" fill="#E5E5E5" x="7.89303965" y="7.01684717" width="54.8944493" height="4.96907341"></rect>
                    <g transform="translate(9.991189, 8.448857)" id="Oval">
                        <ellipse fill="#57BD90" cx="1.12757709" cy="1.10264741" rx="1.01339207" ry="1.01672684"></ellipse>
                        <ellipse fill="#FF5930" cx="5.76634361" cy="1.10264741" rx="1.01339207" ry="1.01672684"></ellipse>
                        <ellipse fill="#8EC9FA" cx="10.5335683" cy="1.10264741" rx="1.01339207" ry="1.01672684"></ellipse>
                    </g>
                    <g transform="translate(17.127753, 13.604091)">
                        <rect id="Rectangle" fill="#30E1FF" x="0.12845815" y="3.29362214" width="10.0482819" height="1"></rect>
                        <rect id="Rectangle" fill="#30E1FF" x="0.12845815" y="15.0790614" width="10.0482819" height="1"></rect>
                        <rect id="Rectangle" fill="#57BD90" x="1.04193833" y="5.09795427" width="12.5603524" height="1"></rect>
                        <rect id="Rectangle" fill="#57BD90" x="1.04193833" y="12.9310469" width="11.4470485" height="1"></rect>
                        <rect id="Rectangle" fill="#8EC9FA" x="13.3453744" y="12.9310469" width="2.85462555" height="1"></rect>
                        <rect id="Rectangle" fill="#8EC9FA" x="1.04193833" y="7.21732852" width="14.1161233" height="1"></rect>
                        <rect id="Rectangle" fill="#57BD90" x="1.04193833" y="9.12190132" width="12.5603524" height="1"></rect>
                        <rect id="Rectangle" fill="#30E1FF" x="1.04193833" y="11.0694344" width="15.1866079" height="1"></rect>
                        <rect id="Rectangle" fill="#30E1FF" x="14.5585903" y="9.12190132" width="3.6539207" height="1"></rect>
                        <rect id="Rectangle" fill="#8EC9FA" x="16.1143612" y="7.21732852" width="10.8190308" height="1"></rect>
                        <rect id="Rectangle" fill="#57BD90" x="14.2874009" y="5.09795427" width="5.46660793" height="1"></rect>
                        <g transform="translate(0.856388, 0.000000)" fill="#57BD90" id="Path">
                            <polygon points="1.34167401 2.52033694 0 1.68977136 0 1.38904934 1.34167401 0.558483755 1.34167401 0.988086643 0.413920705 1.5322503 1.34167401 2.09073406"></polygon>
                            <polygon points="3.09726872 0.128880866 2.0553304 2.92129964 1.57004405 2.92129964 2.61198238 0.128880866"></polygon>
                            <polygon points="3.32563877 2.09073406 4.25339207 1.5322503 3.32563877 0.988086643 3.32563877 0.558483755 4.66731278 1.38904934 4.66731278 1.68977136 3.32563877 2.52033694"></polygon>
                        </g>
                        <g transform="translate(0.856388, 17.040915)" fill="#57BD90" id="Path">
                            <polygon points="1.34167401 2.49169675 0 1.66113117 0 1.36040915 1.34167401 0.529843562 1.34167401 0.95944645 0.413920705 1.50361011 1.34167401 2.06209386"></polygon>
                            <polygon points="3.09726872 0.100240674 2.0553304 2.89265945 1.57004405 2.89265945 2.61198238 0.100240674"></polygon>
                            <polygon points="3.32563877 2.06209386 4.25339207 1.50361011 3.32563877 0.95944645 3.32563877 0.529843562 4.66731278 1.36040915 4.66731278 1.66113117 3.32563877 2.49169675"></polygon>
                        </g>
                    </g>
                    <rect id="Rectangle" fill="#30E1FF" x="14.5871366" y="13.8761733" width="1" height="20.0051745"></rect>
                    <g transform="translate(11.418502, 14.749699)" fill="#8EC9FA" id="Oval">
                        <ellipse cx="0.785022026" cy="0.816245487" rx="1" ry="1"></ellipse>
                        <ellipse cx="0.785022026" cy="4.05258724" rx="1" ry="1"></ellipse>
                        <ellipse cx="0.785022026" cy="7.288929" rx="1" ry="1"></ellipse>
                        <ellipse cx="0.785022026" cy="10.5252708" rx="1" ry="1"></ellipse>
                        <ellipse cx="0.785022026" cy="13.7616125" rx="1" ry="1"></ellipse>
                        <ellipse cx="0.785022026" cy="16.9979543" rx="1" ry="1"></ellipse>
                    </g>
                </g>
                <g transform="translate(2.426432, 49.117930)">
                    <rect id="Rectangle" fill="#FFFFFF" x="0.0856387665" y="0.0286401925" width="33.4419383" height="22.6687124"></rect>
                    <rect id="Rectangle" fill="#605D5D" x="0.0856387665" y="0.0286401925" width="33.4419383" height="4.81155235"></rect>
                    <g transform="translate(7.992952, 8.305656)" fill="#6FD0C9" id="Path">
                        <polygon points="5.08123348 9.07894103 0.0285462555 5.94283995 0.0285462555 4.82587244 5.08123348 1.70409146 5.08123348 3.32226233 1.58431718 5.3843562 5.08123348 7.46077016"></polygon>
                        <polygon points="11.7039648 0.0572803851 7.79312775 10.5825511 5.95189427 10.5825511 9.86273128 0.0572803851"></polygon>
                        <polygon points="12.5603524 7.46077016 16.0715419 5.3843562 12.5603524 3.30794224 12.5603524 1.68977136 17.6130396 4.81155235 17.6130396 5.92851986 12.5603524 9.07894103"></polygon>
                    </g>
                </g>
                <g transform="translate(111.044934, 92.221420)" id="Path">
                    <path d="M9.33462555,0.0716004813 L5.32387665,0.0716004813 C2.4692511,0.0716004813 0.12845815,2.42009627 0.12845815,5.28411552 L0.12845815,16.7688327 C0.12845815,19.632852 2.4692511,21.9813478 5.32387665,21.9813478 L9.33462555,21.9813478 C12.1892511,21.9813478 14.530109,19.632852 14.530109,16.7688327 L14.530109,5.28411552 C14.5443172,2.42009627 12.2035242,0.0716004813 9.33462555,0.0716004813 Z" fill="#FFFFFF"></path>
                    <path d="M7.86449339,2.92129964 L6.79400881,2.92129964 C6.48,2.92129964 6.20881057,3.17906137 6.20881057,3.50842359 L6.20881057,9.15054152 C6.20881057,9.46558363 6.46572687,9.73766546 6.79400881,9.73766546 L7.86449339,9.73766546 C8.1785022,9.73766546 8.44969163,9.47990373 8.44969163,9.15054152 L8.44969163,3.50842359 C8.44969163,3.17906137 8.19277533,2.92129964 7.86449339,2.92129964 Z" fill="#E5E5E5"></path>
                </g>
                <g transform="translate(17.698678, 80.908544)">
                    <g>
                        <path d="M18.654978,0.0286401925 L2.48352423,0.0286401925 C1.12757709,0.0286401925 0.0285462555,1.13128761 0.0285462555,2.49169675 L0.0285462555,30.344284 C0.0285462555,31.7046931 1.12757709,32.8073406 2.48352423,32.8073406 L18.6692511,32.8073406 C20.0251982,32.8073406 21.1242291,31.7046931 21.1242291,30.344284 L21.1242291,2.49169675 C21.1099559,1.13128761 20.0109251,0.0286401925 18.654978,0.0286401925 Z" id="Path" fill="#FFFFFF"></path>
                        <path d="M1.47013216,4.2387485 L1.47013216,26.1055355 C1.47013216,26.7356197 1.98396476,27.2511432 2.61198238,27.2511432 L18.5265198,27.2511432 C19.1545374,27.2511432 19.66837,26.7356197 19.66837,26.1055355 L19.66837,4.2387485 C19.66837,3.60866426 19.1545374,3.09314079 18.5265198,3.09314079 L2.61198238,3.09314079 C1.98396476,3.10746089 1.47013216,3.60866426 1.47013216,4.2387485 Z" id="Path" fill="#605D5D"></path>
                        <ellipse id="Oval" fill="#605D5D" cx="10.5621145" cy="30.1581227" rx="1.5414978" ry="1.5465704"></ellipse>
                    </g>
                    <path d="M15.5862555,12.1291215 L15.5862555,10.1386282 L14.3444934,9.93814681 C14.2731278,9.72334537 14.187489,9.50854392 14.0875771,9.30806258 L14.8297797,8.27701564 L13.4167401,6.85932611 L12.3890749,7.60397112 C12.1892511,7.50373045 11.9751542,7.41780987 11.7610573,7.34620939 L11.5612335,6.10036101 L9.57726872,6.10036101 L9.37744493,7.34620939 C9.16334802,7.41780987 8.9492511,7.50373045 8.74942731,7.60397112 L7.72176211,6.85932611 L6.30872247,8.27701564 L7.05092511,9.30806258 C6.95101322,9.50854392 6.86537445,9.72334537 6.79400881,9.93814681 L5.5522467,10.1386282 L5.5522467,12.1291215 L6.79400881,12.3296029 C6.86537445,12.5444043 6.95101322,12.7592058 7.05092511,12.9596871 L6.30872247,13.9907341 L7.72176211,15.4084236 L8.74942731,14.6637786 C8.9492511,14.7640193 9.16334802,14.8499398 9.37744493,14.9215403 L9.57726872,16.1673887 L11.5612335,16.1673887 L11.7610573,14.9215403 C11.9751542,14.8499398 12.1892511,14.7640193 12.3890749,14.6637786 L13.4167401,15.4084236 L14.8297797,13.9907341 L14.0875771,12.9596871 C14.187489,12.7592058 14.2731278,12.5444043 14.3444934,12.3296029 L15.5862555,12.1291215 Z M10.5621145,13.5611312 C9.22044053,13.5611312 8.13568282,12.4728039 8.13568282,11.1267148 C8.13568282,9.78062575 9.22044053,8.69229844 10.5621145,8.69229844 C11.9037885,8.69229844 12.9885463,9.78062575 12.9885463,11.1267148 C13.0028194,12.4728039 11.9037885,13.5611312 10.5621145,13.5611312 Z" id="Shape" fill="#FFFFFF"></path>
                    <ellipse id="Oval" fill="#58A3C4" transform="translate(10.563248, 11.141001) rotate(-76.714204) translate(-10.563248, -11.141001) " cx="10.5632478" cy="11.1410005" rx="1.13105026" ry="1.12773179"></ellipse>
                    <path d="M16.1429075,18.5588448 L4.99559471,18.5588448 C4.66731278,18.5588448 4.39612335,18.8309266 4.39612335,19.1602888 L4.39612335,19.1602888 C4.39612335,19.489651 4.66731278,19.7617329 4.99559471,19.7617329 L16.1571806,19.7617329 C16.4854626,19.7617329 16.756652,19.489651 16.756652,19.1602888 L16.756652,19.1602888 C16.7423789,18.8309266 16.4711894,18.5588448 16.1429075,18.5588448 Z" id="Path" fill="#59D7E4"></path>
                    <path d="M14.3444934,21.3083032 L6.79400881,21.3083032 C6.46572687,21.3083032 6.19453744,21.5803851 6.19453744,21.9097473 L6.19453744,21.9097473 C6.19453744,22.2391095 6.46572687,22.5111913 6.79400881,22.5111913 L14.3444934,22.5111913 C14.6727753,22.5111913 14.9439648,22.2391095 14.9439648,21.9097473 L14.9439648,21.9097473 C14.9439648,21.5803851 14.6727753,21.3083032 14.3444934,21.3083032 Z" id="Path" fill="#58A3C4"></path>
                    <path d="M15.6005286,23.9575211 L5.52370044,23.9575211 C5.1954185,23.9575211 4.92422907,24.2296029 4.92422907,24.5589651 L4.92422907,24.5589651 C4.92422907,24.8883273 5.1954185,25.1604091 5.52370044,25.1604091 L15.6005286,25.1604091 C15.9288106,25.1604091 16.2,24.8883273 16.2,24.5589651 L16.2,24.5589651 C16.2,24.2296029 15.9288106,23.9575211 15.6005286,23.9575211 Z" id="Path" fill="#59D7E4"></path>
                </g>
                <g transform="translate(123.034361, 42.387485)" id="Rectangle">
                    <rect fill="#FFFFFF" x="0.057092511" y="0.128880866" width="34.0414097" height="39.0509025"></rect>
                    <rect fill="#605D5D" x="0.057092511" y="0.128880866" width="34.0414097" height="6.10036101"></rect>
                    <g transform="translate(4.139207, 9.594465)">
                        <rect fill="#58A3C4" x="0.057092511" y="0.0286401925" width="2.44070485" height="2.20529483"></rect>
                        <rect fill="#58A3C4" x="0.057092511" y="4.16714801" width="2.44070485" height="2.20529483"></rect>
                        <rect fill="#8EC9FA" x="0.057092511" y="8.29133574" width="2.44070485" height="2.20529483"></rect>
                        <rect fill="#58A3C4" x="0.057092511" y="12.4298436" width="2.44070485" height="2.20529483"></rect>
                        <rect fill="#8EC9FA" x="0.057092511" y="16.5540313" width="2.44070485" height="2.20529483"></rect>
                        <rect fill="#8EC9FA" x="0.057092511" y="20.678219" width="2.44070485" height="2.20529483"></rect>
                        <rect fill="#58A3C4" x="0.057092511" y="24.8167268" width="2.44070485" height="2.20529483"></rect>
                    </g>
                    <g transform="translate(10.133921, 9.594465)">
                        <rect fill="#605D5D" x="0.114185022" y="0.0286401925" width="7.32211454" height="2.20529483"></rect>
                        <rect fill="#58A3C4" x="0.114185022" y="3.78050542" width="10.3051982" height="2.20529483"></rect>
                        <rect fill="#58A3C4" x="0.114185022" y="10.7400722" width="11.4898678" height="2.20529483"></rect>
                        <rect fill="#605D5D" x="0.114185022" y="14.3916968" width="4.85286344" height="2.20529483"></rect>
                        <rect fill="#58A3C4" x="11.9751542" y="3.78050542" width="2.88317181" height="2.20529483"></rect>
                        <rect fill="#8EC9FA" x="0.114185022" y="7.18868833" width="12.9029075" height="2.20529483"></rect>
                        <rect fill="#8EC9FA" x="14.9582379" y="7.18868833" width="3.61110132" height="2.20529483"></rect>
                        <rect fill="#605D5D" x="8.99207048" y="0.0286401925" width="1.86977974" height="2.20529483"></rect>
                    </g>
                    <g transform="translate(10.133921, 27.208183)">
                        <rect fill="#58A3C4" x="0.114185022" y="0.0429602888" width="10.833304" height="2.20529483"></rect>
                        <rect fill="#8EC9FA" x="0.114185022" y="3.79482551" width="7.99295154" height="2.20529483"></rect>
                        <rect fill="#8EC9FA" x="9.89127753" y="3.79482551" width="4.13920705" height="2.20529483"></rect>
                        <rect fill="#58A3C4" x="0.114185022" y="7.20300842" width="14.9439648" height="2.20529483"></rect>
                        <rect fill="#58A3C4" x="13.0313656" y="0.0429602888" width="3.31136564" height="2.20529483"></rect>
                    </g>
                    <rect fill="#605D5D" x="8.2784141" y="8.73525872" width="1" height="28.8836342"></rect>
                </g>
                <g transform="translate(7.422026, 25.060168)" fill="#6FD0C9" id="Path">
                    <path d="M5.62361233,5.61347774 L5.62361233,5.61347774 C5.15259912,6.08604091 4.38185022,6.08604091 3.910837,5.61347774 L0.428193833,2.11937425 C-0.0428193833,1.64681107 -0.0428193833,0.873525872 0.428193833,0.400962696 L0.428193833,0.400962696 C0.899207048,-0.0716004813 1.66995595,-0.0716004813 2.14096916,0.400962696 L5.62361233,3.89506619 C6.09462555,4.36762936 6.09462555,5.14091456 5.62361233,5.61347774 Z"></path>
                    <path d="M5.56651982,8.72093863 L5.56651982,8.72093863 C6.03753304,9.19350181 6.03753304,9.966787 5.56651982,10.4393502 L2.08387665,13.9334537 C1.61286344,14.4060168 0.842114537,14.4060168 0.371101322,13.9334537 L0.371101322,13.9334537 C-0.0999118943,13.4608905 -0.0999118943,12.6876053 0.371101322,12.2150421 L3.85374449,8.72093863 C4.32475771,8.24837545 5.09550661,8.24837545 5.56651982,8.72093863 Z"></path>
                    <path d="M8.66378855,8.77821901 L8.66378855,8.77821901 C9.13480176,8.30565584 9.90555066,8.30565584 10.3765639,8.77821901 L13.859207,12.2723225 C14.3302203,12.7448857 14.3302203,13.5181709 13.859207,13.9907341 L13.859207,13.9907341 C13.3881938,14.4632972 12.6174449,14.4632972 12.1464317,13.9907341 L8.66378855,10.4966306 C8.19277533,10.0240674 8.19277533,9.25078219 8.66378855,8.77821901 Z"></path>
                    <path d="M8.72088106,5.67075812 L8.72088106,5.67075812 C8.24986784,5.19819495 8.24986784,4.42490975 8.72088106,3.95234657 L12.2035242,0.458243081 C12.6745374,-0.0143200963 13.4452863,-0.0143200963 13.9162996,0.458243081 L13.9162996,0.458243081 C14.3873128,0.930806258 14.3873128,1.70409146 13.9162996,2.17665463 L10.4336564,5.67075812 C9.96264317,6.1433213 9.19189427,6.1433213 8.72088106,5.67075812 Z"></path>
                </g>
                <g transform="translate(143.159471, 8.448857)" fill="#FFFFFF" id="Path">
                    <path d="M3.39700441,3.36522262 L3.39700441,3.36522262 C3.12581498,3.63730445 2.66907489,3.63730445 2.39788546,3.36522262 L0.371101322,1.33176895 C0.0999118943,1.05968712 0.0999118943,0.601444043 0.371101322,0.329362214 L0.371101322,0.329362214 C0.642290749,0.0572803851 1.09903084,0.0572803851 1.37022026,0.329362214 L3.39700441,2.36281588 C3.68246696,2.63489771 3.68246696,3.09314079 3.39700441,3.36522262 Z"></path>
                    <path d="M3.36845815,5.16955475 L3.36845815,5.16955475 C3.63964758,5.44163658 3.63964758,5.89987966 3.36845815,6.17196149 L1.34167401,8.20541516 C1.07048458,8.47749699 0.613744493,8.47749699 0.342555066,8.20541516 L0.342555066,8.20541516 C0.0713656388,7.93333333 0.0713656388,7.47509025 0.342555066,7.20300842 L2.36933921,5.16955475 C2.64052863,4.89747292 3.09726872,4.89747292 3.36845815,5.16955475 Z"></path>
                    <path d="M5.16687225,5.19819495 L5.16687225,5.19819495 C5.43806167,4.92611312 5.89480176,4.92611312 6.16599119,5.19819495 L8.19277533,7.23164862 C8.46396476,7.50373045 8.46396476,7.96197353 8.19277533,8.23405535 L8.19277533,8.23405535 C7.9215859,8.50613718 7.46484581,8.50613718 7.19365639,8.23405535 L5.16687225,6.20060168 C4.89568282,5.92851986 4.89568282,5.48459687 5.16687225,5.19819495 Z"></path>
                    <path d="M5.20969163,3.39386282 L5.20969163,3.39386282 C4.9385022,3.12178099 4.9385022,2.66353791 5.20969163,2.39145608 L7.23647577,0.358002407 C7.5076652,0.0859205776 7.96440529,0.0859205776 8.23559471,0.358002407 L8.23559471,0.358002407 C8.50678414,0.630084236 8.50678414,1.08832732 8.23559471,1.36040915 L6.20881057,3.39386282 C5.92334802,3.66594465 5.48088106,3.66594465 5.20969163,3.39386282 Z"></path>
                </g>
                <g transform="translate(31.258150, 1.575211)" fill="#FFFFFF" id="Path">
                    <path d="M2.76898678,3.60866426 L2.76898678,3.60866426 C2.76898678,3.8521059 2.569163,4.06690734 2.3122467,4.06690734 L0.471013216,4.06690734 C0.228370044,4.06690734 0.0142731278,3.86642599 0.0142731278,3.60866426 L0.0142731278,3.60866426 C0.0142731278,3.36522262 0.214096916,3.15042118 0.471013216,3.15042118 L2.3122467,3.15042118 C2.569163,3.15042118 2.76898678,3.36522262 2.76898678,3.60866426 Z"></path>
                    <path d="M3.56828194,4.45354994 L3.56828194,4.45354994 C3.81092511,4.45354994 4.02502203,4.65403129 4.02502203,4.91179302 L4.02502203,6.75908544 C4.02502203,7.00252708 3.82519824,7.21732852 3.56828194,7.21732852 L3.56828194,7.21732852 C3.32563877,7.21732852 3.11154185,7.01684717 3.11154185,6.75908544 L3.11154185,4.91179302 C3.11154185,4.65403129 3.32563877,4.45354994 3.56828194,4.45354994 Z"></path>
                    <path d="M4.41039648,3.63730445 L4.41039648,3.63730445 C4.41039648,3.39386282 4.61022026,3.17906137 4.86713656,3.17906137 L6.70837004,3.17906137 C6.95101322,3.17906137 7.16511013,3.37954272 7.16511013,3.63730445 L7.16511013,3.63730445 C7.16511013,3.88074609 6.96528634,4.09554753 6.70837004,4.09554753 L4.86713656,4.09554753 C4.61022026,4.09554753 4.41039648,3.89506619 4.41039648,3.63730445 Z"></path>
                    <path d="M3.59682819,2.80673887 L3.59682819,2.80673887 C3.35418502,2.80673887 3.14008811,2.60625752 3.14008811,2.34849579 L3.14008811,0.501203369 C3.14008811,0.257761733 3.33991189,0.0429602888 3.59682819,0.0429602888 L3.59682819,0.0429602888 C3.83947137,0.0429602888 4.05356828,0.243441637 4.05356828,0.501203369 L4.05356828,2.34849579 C4.05356828,2.59193742 3.85374449,2.80673887 3.59682819,2.80673887 Z"></path>
                </g>
                <g transform="translate(0.000000, 85.634176)" fill="#FFFFFF" id="Path">
                    <path d="M3.7538326,4.85451264 L3.7538326,4.85451264 C3.7538326,5.18387485 3.48264317,5.45595668 3.15436123,5.45595668 L0.685110132,5.45595668 C0.356828194,5.45595668 0.0856387665,5.18387485 0.0856387665,4.85451264 L0.0856387665,4.85451264 C0.0856387665,4.52515042 0.356828194,4.25306859 0.685110132,4.25306859 L3.14008811,4.25306859 C3.48264317,4.25306859 3.7538326,4.52515042 3.7538326,4.85451264 Z"></path>
                    <path d="M4.82431718,5.97148014 L4.82431718,5.97148014 C5.15259912,5.97148014 5.42378855,6.24356197 5.42378855,6.57292419 L5.42378855,9.05030084 C5.42378855,9.37966306 5.15259912,9.65174489 4.82431718,9.65174489 L4.82431718,9.65174489 C4.49603524,9.65174489 4.22484581,9.37966306 4.22484581,9.05030084 L4.22484581,6.58724428 C4.22484581,6.24356197 4.49603524,5.97148014 4.82431718,5.97148014 Z"></path>
                    <path d="M5.93762115,4.89747292 L5.93762115,4.89747292 C5.93762115,4.56811071 6.20881057,4.29602888 6.53709251,4.29602888 L9.00634361,4.29602888 C9.33462555,4.29602888 9.60581498,4.56811071 9.60581498,4.89747292 L9.60581498,4.89747292 C9.60581498,5.22683514 9.33462555,5.49891697 9.00634361,5.49891697 L6.53709251,5.49891697 C6.20881057,5.49891697 5.93762115,5.22683514 5.93762115,4.89747292 Z"></path>
                    <path d="M4.86713656,3.78050542 L4.86713656,3.78050542 C4.53885463,3.78050542 4.2676652,3.50842359 4.2676652,3.17906137 L4.2676652,0.701684717 C4.2676652,0.372322503 4.53885463,0.100240674 4.86713656,0.100240674 L4.86713656,0.100240674 C5.1954185,0.100240674 5.46660793,0.372322503 5.46660793,0.701684717 L5.46660793,3.17906137 C5.46660793,3.50842359 5.1954185,3.78050542 4.86713656,3.78050542 Z"></path>
                </g>
                <g transform="translate(153.864317, 105.395909)" fill="#FFFFFF" id="Path">
                    <path d="M2.39788546,3.05018051 L2.39788546,3.05018051 C2.39788546,3.26498195 2.22660793,3.4368231 2.01251101,3.4368231 L0.471013216,3.4368231 C0.2569163,3.4368231 0.0856387665,3.26498195 0.0856387665,3.05018051 L0.0856387665,3.05018051 C0.0856387665,2.83537906 0.2569163,2.66353791 0.471013216,2.66353791 L2.01251101,2.66353791 C2.22660793,2.677858 2.39788546,2.84969916 2.39788546,3.05018051 Z"></path>
                    <path d="M3.08299559,3.75186522 L3.08299559,3.75186522 C3.29709251,3.75186522 3.46837004,3.92370638 3.46837004,4.13850782 L3.46837004,5.68507822 C3.46837004,5.89987966 3.29709251,6.07172082 3.08299559,6.07172082 L3.08299559,6.07172082 C2.86889868,6.07172082 2.69762115,5.89987966 2.69762115,5.68507822 L2.69762115,4.13850782 C2.69762115,3.92370638 2.86889868,3.75186522 3.08299559,3.75186522 Z"></path>
                    <path d="M3.78237885,3.0788207 L3.78237885,3.0788207 C3.78237885,2.86401925 3.95365639,2.6921781 4.1677533,2.6921781 L5.7092511,2.6921781 C5.92334802,2.6921781 6.09462555,2.86401925 6.09462555,3.0788207 L6.09462555,3.0788207 C6.09462555,3.29362214 5.92334802,3.4654633 5.7092511,3.4654633 L4.1677533,3.4654633 C3.95365639,3.4654633 3.78237885,3.29362214 3.78237885,3.0788207 Z"></path>
                    <path d="M3.09726872,2.37713598 L3.09726872,2.37713598 C2.88317181,2.37713598 2.71189427,2.20529483 2.71189427,1.99049338 L2.71189427,0.443922984 C2.71189427,0.22912154 2.88317181,0.0572803851 3.09726872,0.0572803851 L3.09726872,0.0572803851 C3.31136564,0.0572803851 3.48264317,0.22912154 3.48264317,0.443922984 L3.48264317,2.00481348 C3.48264317,2.20529483 3.31136564,2.37713598 3.09726872,2.37713598 Z"></path>
                </g>
                <g transform="translate(80.928634, 10.596871)" fill="#FFFFFF" id="Path">
                    <path d="M4.29621145,5.59915764 L4.29621145,5.59915764 C4.29621145,5.98580024 3.98220264,6.30084236 3.59682819,6.30084236 L0.770748899,6.30084236 C0.385374449,6.30084236 0.0713656388,5.98580024 0.0713656388,5.59915764 L0.0713656388,5.59915764 C0.0713656388,5.21251504 0.385374449,4.89747292 0.770748899,4.89747292 L3.59682819,4.89747292 C3.98220264,4.89747292 4.29621145,5.21251504 4.29621145,5.59915764 Z"></path>
                    <path d="M5.53797357,6.88796631 L5.53797357,6.88796631 C5.92334802,6.88796631 6.23735683,7.20300842 6.23735683,7.58965102 L6.23735683,10.4250301 C6.23735683,10.8116727 5.92334802,11.1267148 5.53797357,11.1267148 L5.53797357,11.1267148 C5.15259912,11.1267148 4.83859031,10.8116727 4.83859031,10.4250301 L4.83859031,7.58965102 C4.83859031,7.18868833 5.15259912,6.88796631 5.53797357,6.88796631 Z"></path>
                    <path d="M6.80828194,5.64211793 L6.80828194,5.64211793 C6.80828194,5.25547533 7.12229075,4.94043321 7.5076652,4.94043321 L10.3337445,4.94043321 C10.7191189,4.94043321 11.0331278,5.25547533 11.0331278,5.64211793 L11.0331278,5.64211793 C11.0331278,6.02876053 10.7191189,6.34380265 10.3337445,6.34380265 L7.5076652,6.34380265 C7.12229075,6.34380265 6.80828194,6.02876053 6.80828194,5.64211793 Z"></path>
                    <path d="M5.58079295,4.36762936 L5.58079295,4.36762936 C5.1954185,4.36762936 4.88140969,4.05258724 4.88140969,3.66594465 L4.88140969,0.830565584 C4.88140969,0.443922984 5.1954185,0.128880866 5.58079295,0.128880866 L5.58079295,0.128880866 C5.9661674,0.128880866 6.28017621,0.443922984 6.28017621,0.830565584 L6.28017621,3.66594465 C6.26590308,4.05258724 5.95189427,4.36762936 5.58079295,4.36762936 Z"></path>
                </g>
                <g transform="translate(111.187665, 80.335740)" fill="#6FD0C9" id="Path">
                    <path d="M2.69762115,4.13850782 L2.69762115,4.13850782 C2.91171806,4.35330927 2.91171806,4.71131167 2.69762115,4.92611312 L1.08475771,6.544284 C0.870660793,6.75908544 0.513832599,6.75908544 0.299735683,6.544284 L0.299735683,6.544284 C0.0856387665,6.32948255 0.0856387665,5.97148014 0.299735683,5.7566787 L1.91259912,4.13850782 C2.11242291,3.92370638 2.4692511,3.92370638 2.69762115,4.13850782 Z"></path>
                    <path d="M4.12493392,4.16714801 L4.12493392,4.16714801 C4.33903084,3.95234657 4.69585903,3.95234657 4.90995595,4.16714801 L6.52281938,5.78531889 C6.7369163,6.00012034 6.7369163,6.35812274 6.52281938,6.57292419 L6.52281938,6.57292419 C6.30872247,6.78772563 5.95189427,6.78772563 5.73779736,6.57292419 L4.12493392,4.95475331 C3.89656388,4.73995187 3.89656388,4.38194946 4.12493392,4.16714801 Z"></path>
                    <path d="M4.13920705,2.73513839 L4.13920705,2.73513839 C3.92511013,2.52033694 3.92511013,2.16233454 4.13920705,1.94753309 L5.75207048,0.329362214 C5.9661674,0.11456077 6.32299559,0.11456077 6.53709251,0.329362214 L6.53709251,0.329362214 C6.75118943,0.544163658 6.75118943,0.902166065 6.53709251,1.11696751 L4.92422907,2.73513839 C4.72440529,2.94993983 4.36757709,2.94993983 4.13920705,2.73513839 Z"></path>
                    <path d="M2.71189427,2.70649819 L2.71189427,2.70649819 C2.49779736,2.92129964 2.14096916,2.92129964 1.92687225,2.70649819 L0.314008811,1.08832732 C0.0999118943,0.873525872 0.0999118943,0.515523466 0.314008811,0.300722022 L0.314008811,0.300722022 C0.528105727,0.0859205776 0.884933921,0.0859205776 1.09903084,0.300722022 L2.71189427,1.9188929 C2.94026432,2.13369434 2.94026432,2.49169675 2.71189427,2.70649819 Z"></path>
                </g>
                <path d="M144.900793,94.8563177 L144.900793,92.822864 L143.416388,92.822864 C143.259383,91.8634176 142.874009,90.9898917 142.33163,90.2309266 L143.373568,89.1855596 L141.931982,87.7392298 L140.875771,88.798917 C140.119295,88.2547533 139.234361,87.8824308 138.278062,87.7392298 L138.278062,86.2642599 L136.251278,86.2642599 L136.251278,87.7535499 C135.294978,87.911071 134.424317,88.2977136 133.667841,88.8418773 L132.625903,87.7965102 L131.184317,89.24284 L132.240529,90.3025271 C131.69815,91.0614922 131.327048,91.9493381 131.184317,92.9087846 L129.714185,92.9087846 L129.714185,94.9422383 L131.19859,94.9422383 C131.355595,95.9016847 131.740969,96.7752106 132.283348,97.5341757 L131.24141,98.5795427 L132.682996,100.025872 L133.739207,98.9661853 C134.495683,99.510349 135.380617,99.8826715 136.336916,100.025872 L136.336916,101.500842 L138.3637,101.500842 L138.3637,100.011552 C139.32,99.8540313 140.190661,99.4673887 140.947137,98.923225 L141.989075,99.9685921 L143.430661,98.5222623 L142.374449,97.4625752 C142.916828,96.7036101 143.28793,95.8157641 143.430661,94.8563177 L144.900793,94.8563177 Z M137.307489,97.2191336 C135.466256,97.2191336 133.967577,95.7155235 133.967577,93.868231 C133.967577,92.0209386 135.451982,90.5030084 137.307489,90.5030084 C139.162996,90.5030084 140.647401,92.0066185 140.647401,93.853911 C140.647401,95.7012034 139.148722,97.2191336 137.307489,97.2191336 Z" id="Shape" fill="#58A3C4"></path>
                <path d="M148.540441,106.885199 L148.540441,105.467509 L147.512775,105.467509 C147.39859,104.808785 147.141674,104.19302 146.7563,103.663177 L147.484229,102.932852 L146.48511,101.930445 L145.757181,102.66077 C145.229075,102.288448 144.61533,102.030686 143.958767,101.916125 L143.958767,100.885078 L142.545727,100.885078 L142.545727,101.916125 C141.889163,102.030686 141.275419,102.288448 140.747313,102.67509 L140.019383,101.944765 L139.020264,102.947172 L139.748194,103.677497 C139.377093,104.207341 139.120176,104.823105 139.005991,105.481829 L137.978326,105.481829 L137.978326,106.899519 L139.005991,106.899519 C139.120176,107.558243 139.377093,108.174007 139.762467,108.703851 L139.034537,109.434176 L140.033656,110.436582 L140.761586,109.706258 C141.289692,110.07858 141.903436,110.336342 142.56,110.450903 L142.56,111.481949 L143.97304,111.481949 L143.97304,110.450903 C144.629604,110.336342 145.243348,110.07858 145.771454,109.691937 L146.499383,110.422262 L147.498502,109.419856 L146.770573,108.689531 C147.141674,108.159687 147.39859,107.543923 147.512775,106.885199 L148.540441,106.885199 Z M143.259383,108.53201 C141.974802,108.53201 140.932863,107.486643 140.932863,106.197834 C140.932863,104.909025 141.974802,103.863658 143.259383,103.863658 C144.543965,103.863658 145.585903,104.909025 145.585903,106.197834 C145.585903,107.486643 144.543965,108.53201 143.259383,108.53201 Z" id="Shape" fill="#6FD0C9"></path>
                <path d="M153.593128,97.734657 L153.593128,96.546089 L152.73674,96.546089 C152.636828,95.9876053 152.422731,95.4864019 152.108722,95.0424789 L152.708194,94.4410349 L151.880352,93.6104693 L151.266608,94.2262335 C150.824141,93.9111913 150.310308,93.6963899 149.76793,93.6104693 L149.76793,92.7512635 L148.58326,92.7512635 L148.58326,93.6104693 C148.026608,93.71071 147.527048,93.9255114 147.084581,94.2405535 L146.48511,93.6391095 L145.657269,94.4696751 L146.271013,95.0854392 C145.957004,95.5293622 145.742907,96.0448857 145.657269,96.5890493 L144.800881,96.5890493 L144.800881,97.7776173 L145.657269,97.7776173 C145.757181,98.3361011 145.971278,98.8373045 146.285286,99.2812274 L145.685815,99.8826715 L146.513656,100.713237 L147.127401,100.097473 C147.569868,100.412515 148.0837,100.627316 148.626079,100.713237 L148.626079,101.572443 L149.810749,101.572443 L149.810749,100.713237 C150.367401,100.612996 150.86696,100.398195 151.309427,100.083153 L151.908899,100.684597 L152.73674,99.8540313 L152.122996,99.2382671 C152.437004,98.7943442 152.651101,98.2788207 152.73674,97.734657 L153.593128,97.734657 Z M149.197004,99.1093863 C148.12652,99.1093863 147.255859,98.2358604 147.255859,97.1618532 C147.255859,96.087846 148.12652,95.2143201 149.197004,95.2143201 C150.267489,95.2143201 151.13815,96.087846 151.13815,97.1618532 C151.13815,98.2358604 150.267489,99.1093863 149.197004,99.1093863 Z" id="Shape" fill="#FFFFFF"></path>
                <path d="M18.098326,11.3271961 C16.4426432,11.3271961 15.1152423,12.6732852 15.1152423,14.3200963 C15.1152423,15.9812274 16.4569163,17.3129964 18.098326,17.3129964 C19.7397357,17.3129964 21.0814097,15.9669073 21.0814097,14.3200963 C21.0814097,12.6732852 19.7397357,11.3271961 18.098326,11.3271961 Z M18.098326,15.9525872 C17.1991189,15.9525872 16.4854626,15.2222623 16.4854626,14.3344164 C16.4854626,13.4322503 17.2133921,12.7162455 18.098326,12.7162455 C18.9832599,12.7162455 19.7111894,13.4465704 19.7111894,14.3344164 C19.7111894,15.2222623 18.997533,15.9525872 18.098326,15.9525872 Z" id="Shape" fill="#58A3C4"></path>
                <path d="M159.302379,85.8060168 C157.817974,85.8060168 156.619031,87.0089049 156.619031,88.4981949 C156.619031,89.987485 157.817974,91.190373 159.302379,91.190373 C160.786784,91.190373 161.985727,89.987485 161.985727,88.4981949 C161.985727,87.0089049 160.786784,85.8060168 159.302379,85.8060168 Z M159.302379,89.9445247 C158.503084,89.9445247 157.84652,89.2858002 157.84652,88.4838748 C157.84652,87.6819495 158.503084,87.023225 159.302379,87.023225 C160.101674,87.023225 160.758238,87.6819495 160.758238,88.4838748 C160.758238,89.2858002 160.101674,89.9445247 159.302379,89.9445247 Z" id="Shape" fill="#58A3C4"></path>
                <path d="M48.7998238,83.6293622 C47.6722467,83.6293622 46.7587665,84.5458484 46.7587665,85.677136 C46.7587665,86.8084236 47.6722467,87.7249097 48.7998238,87.7249097 C49.9274009,87.7249097 50.8408811,86.8084236 50.8408811,85.677136 C50.8408811,84.5458484 49.9274009,83.6293622 48.7998238,83.6293622 Z M48.7998238,86.7797834 C48.1860793,86.7797834 47.700793,86.27858 47.700793,85.677136 C47.700793,85.0756919 48.2003524,84.5744886 48.7998238,84.5744886 C49.3992952,84.5744886 49.8988546,85.0756919 49.8988546,85.677136 C49.8988546,86.27858 49.4135683,86.7797834 48.7998238,86.7797834 Z" id="Shape" fill="#6FD0C9"></path>
                <path d="M8.97779736,103.047413 C7.85022026,103.047413 6.93674009,103.963899 6.93674009,105.095187 C6.93674009,106.226474 7.85022026,107.14296 8.97779736,107.14296 C10.1053744,107.14296 11.0188546,106.226474 11.0188546,105.095187 C11.0188546,103.963899 10.1053744,103.047413 8.97779736,103.047413 Z M8.97779736,106.212154 C8.36405286,106.212154 7.86449339,105.710951 7.86449339,105.095187 C7.86449339,104.479422 8.36405286,103.978219 8.97779736,103.978219 C9.59154185,103.978219 10.0911013,104.479422 10.0911013,105.095187 C10.0911013,105.710951 9.59154185,106.212154 8.97779736,106.212154 Z" id="Shape" fill="#605D5D"></path>
            </g>
        </g>
    </g>
</svg>