<?xml version="1.0" encoding="UTF-8"?>
<svg width="250px" height="250px" viewBox="0 0 250 250" version="1.1" xmlns="http://www.w3.org/2000/svg" xmlns:xlink="http://www.w3.org/1999/xlink">
    <title>earth-day-illustration-vector</title>
    <defs>
        <filter id="filter-1">
            <feColorMatrix in="SourceGraphic" type="matrix" values="0 0 0 0 0.929220 0 0 0 0 0.990445 0 0 0 0 0.918504 0 0 0 1.000000 0"></feColorMatrix>
        </filter>
    </defs>
    <g id="earth-day-illustration-vector" stroke="none" stroke-width="1" fill="none" fill-rule="evenodd">
        <g id="Group" transform="translate(3.529831, 16.718133)">
            <g filter="url(#filter-1)" id="blob-(5)">
                <g transform="translate(120.970169, 85.781867) scale(-1, 1) translate(-120.970169, -85.781867) translate(0.970169, 0.281867)">
                    <path d="M183.65197,26.6494517 C192.007908,34.7709642 185.740954,53.2773617 197.325323,69.6535263 C208.909692,86.1628305 238.725199,100.541902 239.48483,111.326205 C240.244461,122.110509 212.328031,129.433184 188.969385,138.619813 C165.800647,147.806442 147.379601,158.990164 122.121879,165.647142 C96.674249,172.304119 64.5798498,174.434352 55.2743731,162.052374 C45.9688964,149.670396 59.6422499,122.776207 50.7165886,101.473879 C41.7909273,80.3046903 10.0763435,64.5942234 2.10022065,45.8215469 C-5.87590222,27.0488703 9.69652815,5.08084457 34.7643429,0.820378965 C59.6422499,-3.44008664 94.3953567,10.0070079 123.261325,15.598869 C152.127294,21.0575906 175.296032,18.6610787 183.65197,26.6494517 Z" id="Path" fill="#FF0066" fill-rule="nonzero"></path>
                </g>
            </g>
            <path d="M176.048669,108.808367 C182.778169,104.000367 189.664669,99.0793667 192.941169,95.0113667 C193.518169,94.2948667 194.433669,92.5028667 195.612169,90.1943667 C197.472169,86.5543667 199.979169,81.6453667 202.958169,77.4488667 C207.639169,70.8563667 208.258669,69.1863667 209.328169,66.3038667 C209.939169,64.6568667 210.695669,62.6168667 212.417669,59.0673667 C213.224669,57.4058667 213.984669,55.8668667 214.762169,54.3623667 C215.546669,52.8448667 216.344669,51.3698667 217.216669,49.8483667 L218.016669,48.4783667 C219.431169,46.0703667 220.879169,43.6048667 220.927669,42.0328667 C220.955669,41.1223667 220.390169,40.5228667 218.799669,40.4733667 C217.654669,40.4383667 216.675669,40.6398667 215.767169,41.0063667 C214.847669,41.3778667 213.987169,41.9283667 213.098169,42.5778667 C210.975669,44.1298667 209.154169,46.0608667 207.531669,48.1613667 C205.897169,50.2783667 204.458669,52.5698667 203.113169,54.8228667 L202.605169,55.6698667 C201.504169,57.4938667 200.069669,59.8733667 199.392669,61.5773667 C199.819669,61.7648667 200.354169,61.9273667 200.914669,62.0968667 C202.011669,62.4298667 203.200669,62.7908667 204.079669,63.4603667 C205.788669,64.7623667 206.265669,67.0243667 202.626169,71.8023667 L202.592169,71.8403667 L201.444669,73.0673667 L201.438169,73.0758667 C200.879669,73.6533667 200.602169,73.9978667 200.339169,74.3263667 C199.931169,74.8348667 199.550669,75.3078667 198.311669,76.4578667 L193.579169,81.2463667 C192.728669,82.1753667 192.027169,82.9388667 191.271169,83.6408667 C190.503669,84.3533667 189.688169,84.9918667 188.620169,85.6568667 C187.474669,86.3708667 186.395169,87.1733667 185.333169,87.9613667 C184.641169,88.4763667 183.953669,88.9868667 183.246169,89.4738667 C182.632169,89.8963667 182.228669,90.3193667 181.787169,90.7778667 C181.503169,91.0748667 181.204669,91.3868667 180.835169,91.7223667 C177.810669,94.4583667 177.467169,95.0903667 176.935169,96.0688667 C176.582669,96.7153667 176.154169,97.5038667 174.974669,99.0018667 L174.079669,98.5603667 C174.900669,95.3753667 177.514669,92.3593667 180.518169,89.7568667 C183.480169,87.1923667 186.819669,85.0263667 189.161669,83.5098667 C191.179669,82.2043667 193.990669,79.0078667 196.472669,76.1863667 C197.864669,74.6038667 199.155669,73.1353667 200.180169,72.1498667 C202.328169,70.0808667 203.345169,68.4078667 203.575669,67.1048667 C203.712169,66.3263667 203.557169,65.6898667 203.192669,65.1883667 C202.811669,64.6638667 202.198669,64.2658667 201.447669,63.9943667 C199.774669,63.3873667 197.468169,63.4083667 195.429169,64.0128667 C189.428669,65.7923667 185.456669,69.9213667 182.362669,73.1373667 C180.991169,74.5643667 179.785669,75.8163667 178.624169,76.6423667 C172.423169,81.0573667 165.838169,83.6643667 159.278169,86.2603667 C150.054169,89.9113667 140.879169,93.5428667 133.031169,102.158867 C130.900669,104.498367 129.376169,108.877867 128.278169,113.502367 C127.169169,118.174367 126.502669,123.091867 126.082169,126.447867 C125.581169,130.449367 125.166169,134.509367 124.827169,138.605367 C124.326669,144.652367 123.990169,150.779367 123.781169,156.915867 C123.451169,166.601867 123.435669,176.318867 123.589669,185.791367 C132.929169,185.999867 147.869169,186.211867 160.372169,185.837867 C160.032169,183.831367 159.513169,181.569367 159.026669,179.447867 C158.761169,178.292867 158.505669,177.178867 158.289169,176.149867 C157.054169,170.276867 155.726669,162.893367 154.741669,155.678867 C153.937669,149.784867 153.362669,143.998367 153.255169,139.237867 C152.972169,126.708867 155.579169,124.646867 160.884169,120.452367 C161.851169,119.687367 162.913169,118.847867 164.072669,117.847367 C167.319669,115.046367 171.651669,111.950367 176.048669,108.808367" id="Fill-4" fill="#695B3C"></path>
            <path d="M125.502669,131.453367 C126.298169,130.995367 127.021169,130.708867 127.200669,130.685867 L127.077169,131.792867 C126.716169,131.938367 126.029169,132.285367 125.366169,132.760367 L125.502669,131.453367 Z M153.261669,139.517367 C152.569169,139.682867 151.809169,139.830367 150.995169,139.958867 C143.003669,141.228367 129.606669,140.816367 125.885669,139.310867 C125.478169,139.145867 125.121169,138.975367 124.810669,138.801367 L124.908669,137.642367 C125.247169,137.875867 125.696669,138.110867 126.276169,138.345867 C129.878169,139.803367 142.978169,140.181367 150.832169,138.933867 C151.711169,138.794367 152.521669,138.634367 153.241669,138.454367 L153.255169,139.237867 L153.261669,139.517367 Z M125.042669,136.117867 C125.340669,136.292867 125.704169,136.468867 126.137669,136.644867 C129.808169,138.131367 143.160169,138.516367 151.164169,137.245367 C151.907669,137.127367 152.603169,136.994367 153.237169,136.847867 C153.234669,137.193867 153.233669,137.547867 153.236169,137.912867 C152.641669,138.044367 152.002169,138.163867 151.327169,138.270867 C143.185169,139.563367 129.536169,139.144367 125.746669,137.609867 C125.453169,137.491367 125.185669,137.370367 124.942169,137.246367 L125.042669,136.117867 Z M126.859169,133.753867 C126.400669,133.976367 125.744669,134.351367 125.163169,134.821867 L125.296169,133.460867 C125.948669,133.051367 126.597669,132.746867 126.988169,132.597367 L126.859169,133.753867 L126.859169,133.753867 Z" id="Fill-5" fill="#5E4925"></path>
            <path d="M188.672669,64.8343667 C190.162169,63.7858667 191.949169,62.8793667 194.350669,62.2223667 C195.475669,61.9153667 196.182169,61.8028667 196.658669,61.7268667 C197.022169,61.6683667 197.222169,61.6368667 197.313669,61.5718667 C197.441169,61.4808667 197.577669,61.2138667 197.877669,60.6278667 L198.623169,59.2128667 C198.914669,58.6833667 199.157669,58.2738667 199.363669,57.9248667 C200.090669,56.7018667 200.348169,56.2673667 200.694669,53.7188667 C201.124669,50.5568667 201.764169,46.6163667 202.522169,42.7923667 C203.149669,39.6303667 203.862169,36.5313667 204.610669,33.9863667 C204.917669,32.9418667 205.355669,31.8818667 205.767669,30.8833667 C206.108669,30.0548667 206.434169,29.2698667 206.640669,28.5928667 C206.430669,28.4258667 206.210669,28.2758667 205.982669,28.1453667 C204.934669,27.5458667 203.715169,27.3528667 202.486169,27.6133667 C201.232669,27.8798667 199.960669,28.6178667 198.830169,29.8763667 C198.347169,30.4128667 197.889669,31.0483667 197.469669,31.7818667 C195.107169,35.9118667 193.518669,42.8853667 192.111669,49.0698667 C191.438169,52.0298667 190.804669,54.8123667 190.144669,57.0323667 C189.636669,58.7428667 188.817669,60.6088667 188.005669,62.4583667 C187.333669,63.9908667 186.664669,65.5143667 186.192669,66.9068667 C186.953169,66.1808667 187.754669,65.4818667 188.672669,64.8343667" id="Fill-9" fill="#5A4B2C"></path>
            <path d="M188.417669,57.3143667 C189.567669,53.7973667 190.184669,50.7178667 190.794669,47.6743667 C191.594669,43.6833667 192.383669,39.7498667 194.348169,34.9088667 L194.513169,34.5268667 C194.804169,33.8753667 195.262169,32.8448667 195.006169,32.5123667 C193.060169,31.9523667 191.482669,32.4873667 190.234169,33.4568667 C188.914669,34.4808667 187.935669,35.9943667 187.264669,37.2463667 C186.604669,38.4748667 185.732169,42.0333667 184.723169,46.1453667 C183.663669,50.4678667 182.454669,55.3968667 181.152669,58.9843667 C179.228669,64.2123667 178.041169,66.8723667 177.039669,72.0758667 C176.819669,73.2168667 176.571169,74.5073667 176.519669,75.8703667 C178.556669,74.8498667 179.224669,74.0428667 180.160669,72.9108667 C180.618669,72.3568667 181.140169,71.7273667 181.908169,70.9543667 C182.216169,70.6443667 182.480169,70.4288667 182.720669,70.2323667 C183.146169,69.8843667 183.492169,69.6013667 183.789169,68.9733667 C184.227169,68.0548667 184.644669,66.7538667 185.049169,65.4918667 C185.340169,64.5808667 185.628169,63.6873667 185.911169,62.9623667 C186.250669,62.0898667 186.663169,61.2503667 187.070669,60.4178667 C187.572669,59.3938667 188.069669,58.3793667 188.417669,57.3143667" id="Fill-10" fill="#5A4B2C"></path>
            <path d="M179.267669,59.4628667 L180.382169,49.6958667 L180.406169,49.0693667 L180.288669,48.9168667 C177.476669,47.9548667 175.879669,49.6733667 174.906669,52.2858667 C173.961669,54.8208667 173.573669,58.2013667 173.260169,60.9338667 C173.149669,61.9013667 173.047169,62.7898667 172.924169,63.5833667 C171.958669,69.8178667 170.375169,73.2303667 169.096169,75.9893667 C168.299169,77.7068667 167.623669,79.1643667 167.307669,80.8893667 C168.135669,80.5488667 169.445169,79.9703667 170.706669,79.3873667 C172.269169,78.6663667 173.741169,77.9483667 174.108169,77.6873667 L174.468669,77.4453667 L174.649169,77.3283667 L174.732169,76.8873667 L174.833669,76.2533667 C175.885669,70.3148667 176.603669,65.8693667 178.982669,60.1528667 L179.267669,59.4628667" id="Fill-11" fill="#5A4B2C"></path>
            <path d="M202.605169,55.6698667 C201.504169,57.4938667 200.069669,59.8733667 199.392669,61.5773667 C199.819669,61.7648667 200.354169,61.9273667 200.914669,62.0968667 C201.476669,62.2673667 202.063669,62.4458667 202.619669,62.6688667 C203.369669,61.0968667 204.507669,59.2093667 205.418169,57.7013667 L205.925669,56.8543667 C207.271669,54.6013667 208.709669,52.3098667 210.344169,50.1928667 C211.967169,48.0923667 213.788169,46.1613667 215.911169,44.6093667 C216.800169,43.9598667 217.660669,43.4093667 218.580169,43.0378667 C219.287169,42.7523667 220.037169,42.5673667 220.875169,42.5158667 C220.905169,42.3468667 220.922669,42.1858667 220.927669,42.0328667 C220.955669,41.1223667 220.390169,40.5228667 218.799669,40.4733667 C217.654669,40.4383667 216.675669,40.6398667 215.767169,41.0063667 C214.847669,41.3778667 213.987169,41.9283667 213.098169,42.5778667 C210.975669,44.1298667 209.154169,46.0608667 207.531669,48.1613667 C205.897169,50.2783667 204.458669,52.5698667 203.113169,54.8228667 L202.605169,55.6698667 Z M193.361169,49.5383667 C194.769169,43.3543667 196.356669,36.3808667 198.719169,32.2508667 C199.139169,31.5173667 199.597169,30.8818667 200.079669,30.3448667 C201.210169,29.0868667 202.482169,28.3488667 203.736169,28.0823667 C204.464669,27.9273667 205.189669,27.9328667 205.878669,28.0873667 C204.854669,27.5333667 203.674669,27.3618667 202.486169,27.6133667 C201.232669,27.8798667 199.960669,28.6178667 198.830169,29.8763667 C198.347169,30.4128667 197.889669,31.0483667 197.469669,31.7818667 C195.107169,35.9123667 193.519669,42.8853667 192.111669,49.0698667 C191.439169,52.0298667 190.804669,54.8123667 190.144669,57.0323667 C189.636669,58.7428667 188.817669,60.6088667 188.005669,62.4583667 C187.333669,63.9908667 186.664669,65.5143667 186.192669,66.9068667 C186.854669,66.2748667 187.547669,65.6628667 188.322169,65.0878667 C188.618169,64.3788667 188.936169,63.6538667 189.255169,62.9268667 C190.067169,61.0773667 190.886169,59.2118667 191.394169,57.5013667 C192.054169,55.2813667 192.688669,52.4983667 193.361169,49.5383667 Z M185.972669,46.4578667 C186.981669,42.3458667 187.854169,38.7873667 188.514169,37.5583667 C189.185669,36.3068667 190.164169,34.7938667 191.484669,33.7693667 C192.464669,33.0073667 193.648669,32.5143667 195.055669,32.6093667 C195.043669,32.5728667 195.027169,32.5403667 195.006169,32.5123667 C193.060169,31.9523667 191.482669,32.4873667 190.234669,33.4568667 C188.914669,34.4813667 187.935669,35.9943667 187.264669,37.2463667 C186.604669,38.4748667 185.732169,42.0333667 184.723169,46.1453667 C183.663669,50.4678667 182.454669,55.3968667 181.152669,58.9843667 C179.228669,64.2123667 178.041169,66.8723667 177.039669,72.0758667 C176.819669,73.2168667 176.571169,74.5078667 176.519669,75.8703667 C177.043669,75.6078667 177.477169,75.3593667 177.847169,75.1158667 C177.950669,74.1463667 178.128169,73.2268667 178.289169,72.3883667 C179.290669,67.1848667 180.478169,64.5243667 182.402169,59.2968667 C183.704669,55.7093667 184.913169,50.7798667 185.972669,46.4578667 Z M128.355669,133.113367 C128.264169,134.218367 125.350669,169.707867 128.124669,185.882867 C126.506169,185.853867 124.985669,185.822867 123.589669,185.791367 C123.435669,176.318867 123.451169,166.601867 123.781169,156.915867 C123.990169,150.779367 124.326669,144.652367 124.827169,138.605367 C125.144669,134.771367 125.528669,130.968867 125.987669,127.215867 L125.990669,127.189867 L125.993169,127.164867 L125.994169,127.162867 L125.997169,127.136867 L126.000669,127.109867 L126.003669,127.083367 L126.006669,127.056867 L126.010169,127.030367 L126.013169,127.003867 L126.015669,126.982867 L126.016669,126.977867 L126.019169,126.951367 L126.023169,126.924367 L126.025669,126.897867 L126.029169,126.871367 L126.032669,126.844867 L126.036169,126.818867 L126.038169,126.800367 L126.082169,126.447867 C126.502669,123.091867 127.169169,118.174367 128.278169,113.502367 C129.376169,108.877867 130.900669,104.498367 133.031169,102.158867 C140.879169,93.5428667 150.054169,89.9113667 159.278169,86.2603667 C165.838169,83.6643667 172.423169,81.0573667 178.624169,76.6423667 C179.785669,75.8163667 180.991169,74.5643667 182.362669,73.1373667 C185.456669,69.9213667 189.428669,65.7923667 195.429169,64.0128667 C197.468169,63.4083667 199.774669,63.3873667 201.447669,63.9943667 C202.198669,64.2658667 202.811669,64.6638667 203.192669,65.1883667 C203.328169,65.3748667 203.434669,65.5798667 203.508169,65.8043667 C201.934669,65.4368667 199.989669,65.5258667 198.242169,66.0443667 C192.241669,67.8238667 188.269669,71.9528667 185.175669,75.1693667 C183.803669,76.5958667 182.598169,77.8478667 181.436669,78.6738667 C175.236169,83.0888667 168.650669,85.6958667 162.090669,88.2918667 C152.867169,91.9428667 143.692169,95.5743667 135.843669,104.190867 C133.713669,106.529867 132.189169,110.909367 131.091169,115.533867 C129.982169,120.205867 129.315169,125.123367 128.894669,128.479367 C128.703669,130.007367 128.524669,131.543867 128.358169,133.086867 L128.355669,133.113367 Z M174.314669,61.2463667 C174.628169,58.5138667 175.016169,55.1333667 175.961169,52.5983667 C176.812669,50.3118667 178.142169,48.7098667 180.346169,48.9908667 L180.288669,48.9168667 C177.476669,47.9548667 175.879669,49.6733667 174.906669,52.2858667 C173.961669,54.8208667 173.573669,58.2013667 173.260169,60.9338667 C173.149669,61.9018667 173.047169,62.7898667 172.924169,63.5833667 C171.958669,69.8178667 170.375169,73.2303667 169.096169,75.9888667 C168.299169,77.7068667 167.623669,79.1643667 167.308669,80.8893667 C167.651669,80.7478667 168.078169,80.5658667 168.549669,80.3588667 C168.907169,78.9838667 169.486669,77.7328667 170.150669,76.3013667 C171.429669,73.5428667 173.013169,70.1298667 173.978669,63.8953667 C174.101669,63.1023667 174.204169,62.2143667 174.314669,61.2463667 L174.314669,61.2463667 Z" id="Fill-15" fill="#5E4925"></path>
            <path d="M125.756669,129.252367 C125.283669,129.443367 124.249169,129.981367 123.443169,130.698867 C123.075669,131.026367 122.772169,131.384867 122.628669,131.746867 C122.510669,132.045867 122.509669,132.360367 122.698169,132.673367 C122.978169,133.138867 123.629169,133.622867 124.817169,134.104367 C128.488169,135.590867 141.839669,135.975867 149.843169,134.704867 C151.762669,134.400367 153.360669,134.001367 154.419669,133.501367 C155.274169,133.097867 155.724169,132.662867 155.601669,132.209367 C155.469669,131.716867 155.002669,131.212367 153.766669,130.494367 L154.009669,129.397367 C155.504169,130.264867 156.403169,131.184867 156.607169,131.941367 C156.886669,132.978867 156.214169,133.803867 154.863669,134.441367 C153.715669,134.983367 152.021669,135.410867 150.006669,135.730367 C141.864669,137.022867 128.215669,136.603867 124.426169,135.069367 C123.008669,134.495367 122.196169,133.858867 121.806669,133.210867 C121.427169,132.581367 121.426169,131.955867 121.660169,131.364367 C121.869169,130.835867 122.272669,130.347367 122.751169,129.921367 C123.895669,128.902367 125.590669,128.182367 125.880169,128.145367 L125.756669,129.252367" id="Fill-20" fill="#A6CB56"></path>
            <path d="M125.538669,131.212867 C125.017169,131.465867 124.242669,131.915867 123.610169,132.478867 C123.249669,132.799367 122.952169,133.150867 122.812669,133.503867 C122.698169,133.793867 122.697669,134.100367 122.880669,134.404367 L122.880669,134.406867 C123.153169,134.859867 123.790669,135.333367 124.955669,135.805367 C128.557669,137.262867 141.657669,137.640867 149.511669,136.393367 C151.394169,136.094367 152.961669,135.702867 153.999669,135.213367 C154.834169,134.819367 155.273169,134.396367 155.154669,133.956867 C155.025669,133.477367 154.696169,133.059867 153.485669,132.356867 L153.636669,131.240367 C155.104669,132.092867 155.959169,132.944367 156.160169,133.688867 C156.435669,134.712867 155.773669,135.525367 154.443669,136.153867 C153.316669,136.685367 151.653669,137.104867 149.674669,137.418867 C141.683169,138.687867 128.286169,138.276367 124.564669,136.770367 C123.173669,136.207367 122.374669,135.580367 121.990169,134.941367 L121.989169,134.941867 C121.615169,134.321867 121.614169,133.704867 121.844169,133.121367 C122.049669,132.600867 122.447169,132.120867 122.918169,131.701367 C123.814669,130.902367 125.057669,130.290367 125.667669,130.056867 L125.538669,131.212867" id="Fill-21" fill="#0588A8"></path>
        </g>
        <g id="Group-2" transform="translate(34.041000, 44.164000)">
            <path d="M80.551,161.1025 C36.0635,161.1025 0,125.038 0,80.5515 C0,36.064 36.0635,0 80.551,0 L80.551,161.1025" id="Fill-6" fill="#0588A8"></path>
            <path d="M39.4395,58.2545 C39.4395,54.702 37.1325,54.787 37.386,52.5235 C37.4495,51.952 37.0395,51.098 37.493,50.469 C38.569,48.9775 36.4485,47.7455 39.223,46.359 C41.601,45.1715 42.279,45.953 43.7655,47.44 C45.8965,49.57 46.724,48.089 48.524,48.089 C50.4155,48.089 52.633,50.8125 52.633,52.8475 C52.633,55.2145 52.4035,54.4095 52.201,55.659 C51.8205,57.9985 48.591,58.2545 46.577,58.2545 C44.818,58.2545 44.9525,59.174 43.7655,59.769 C41.852,60.7265 42.078,61.0655 39.8725,61.0655 C36.64,61.0655 39.373,58.2545 39.4395,58.2545 M31.221,72.53 C27.5495,75.177 22.57,73.3475 22.57,69.9345 C22.57,68.781 21.3885,65.176 19.5415,65.176 C13.6185,65.176 15.05,63.688 12.189,63.013 C7.7105,61.956 4.2055,64.2555 1.1825,66.72 C0.4055,71.2135 0,75.8355 0,80.5515 C0,113.257 19.491,141.4095 47.492,154.027 C49.171,153.6465 50.254,153.2745 50.254,152.987 C51.63,152.987 53.282,153.037 53.282,151.69 C56.511,151.69 54.5795,148.193 54.5795,146.0665 C54.5795,143.8305 50.7475,140.442 50.6875,140.442 C50.2185,139.5075 49.126,136.55 47.6585,136.55 C47.6585,134.0755 48.092,133.2215 48.092,130.493 C48.092,126.25 46.361,123.2275 46.361,122.2745 C46.361,120.031 45.4735,120.2355 45.063,119.247 L42.4675,115.787 C41.4985,114.8175 42.3075,114.7125 42.0355,114.0555 C41.894,113.715 38.5805,108.8895 38.575,108.8655 C37.1195,102.6995 41.603,100.0665 41.603,98.916 C41.603,95.1855 42.1175,93.2925 38.143,93.2925 C36.425,93.2925 33.8165,87.1615 33.8165,85.939 C33.8165,82.634 33.416,83.4345 34.6815,82.9115 C41.088,80.261 41.863,83.3435 42.0355,83.3435 C42.397,84.067 44.062,85.939 44.1985,85.939 C44.1985,87.175 46.448,88.1885 47.226,88.967 C52.556,94.2965 47.428,87.237 53.715,87.237 C58.7025,87.237 59.163,84.209 60.203,84.209 C63.8105,77.007 54.5795,72.9775 54.5795,72.097 C52.215,72.097 49.389,69.756 49.389,67.7715 C49.389,62.2685 48.9345,64.765 51.1195,62.5805 C53.1355,60.5655 58.598,60.811 61.501,61.2825 C64.022,61.692 64.4425,62.6225 64.9615,63.878 C67.6025,70.263 66.615,69.5015 73.613,69.5015 C75.0825,69.5015 78.7445,75.937 80.551,77.7205 L80.551,0 C65.7835,0 51.944,3.974 40.044,10.9105 C40.96,11.679 42.2515,12.0315 43.7655,14.1335 L48.092,15.43 L48.092,24.5145 C48.092,27.065 45.537,30.2695 43.7655,31.0035 C41.0405,32.132 38.827,31.138 36.412,30.138 C31.1865,27.9735 28.6685,32.301 28.626,32.301 C28.626,34.952 25.948,36.2775 24.733,37.4915 C23.891,38.333 15.2165,37.065 15.2165,43.1145 C15.2165,45.9465 15.1055,44.8455 18.6765,44.8455 C29.271,44.8455 23.5165,48.7375 27.761,48.7375 C33.695,48.7375 36.0355,54.9825 31.221,57.39 C31.221,61.228 31.0545,62.007 34.2495,64.3115 C39.0395,67.7655 33.384,70.612 33.384,71.2315 C33.312,71.2315 31.4485,72.3665 31.221,72.53" id="Fill-7" fill="#A6CB56"></path>
            <path d="M17.5005,44.887 C18.6545,42.5445 19.918,40.2655 21.2825,38.055 C27.094,28.6445 34.752,20.495 43.7515,14.1125 C53.8215,6.9705 65.571,2.0405 78.2915,0.0315 C39.5335,1.0985 7.616,29.544 1.1825,66.72 C0.4055,71.2135 0,75.8355 0,80.5515 C0,113.257 19.491,141.41 47.492,154.027 C54.3345,157.111 61.686,159.2675 69.385,160.335 C63.037,158.59 56.998,156.102 51.3645,152.971 C26.1475,138.953 9.084,112.041 9.084,81.144 C9.084,74.846 9.793,68.714 11.135,62.8225 C12.5675,56.5395 14.719,50.5305 17.5005,44.887" id="Fill-8" fill="#FFFFFE"></path>
        </g>
        <path d="M124.9995,231.725 C161.0705,231.725 190.3125,232.564 190.3125,233.6 C190.3125,234.6355 161.0705,235.475 124.9995,235.475 C88.929,235.475 59.687,234.6355 59.687,233.6 C59.687,232.564 88.929,231.725 124.9995,231.725" id="Fill-14" fill="#5E4925"></path>
    </g>
</svg>