<?xml version="1.0" encoding="UTF-8"?>
<svg width="212px" height="208px" viewBox="0 0 212 208" version="1.1" xmlns="http://www.w3.org/2000/svg" xmlns:xlink="http://www.w3.org/1999/xlink">
    <title>Artboard</title>
    <defs>
        <filter id="filter-1">
            <feColorMatrix in="SourceGraphic" type="matrix" values="0 0 0 0 0.876841 0 0 0 0 0.746169 0 0 0 0 0.746169 0 0 0 1.000000 0"></feColorMatrix>
        </filter>
    </defs>
    <g id="Artboard" stroke="none" stroke-width="1" fill="none" fill-rule="evenodd" transform="translate(0.000000, 0.000000)">
        <g filter="url(#filter-1)" id="blob-(1)">
            <g transform="translate(0.416588, 0.355603)">
                <path d="M131.849159,35.5660817 C148.259646,42.1659097 165.121915,49.9177993 179.877119,62.6963773 C194.632323,75.4749552 207.280436,93.0707657 203.217506,108.570013 C199.004028,124.069243 178.230029,137.262472 155.497505,138.725937 C132.76498,140.189403 108.224466,129.818394 82.330403,130.967296 C56.5869001,132.220944 29.4898609,145.099231 17.2950344,141.222835 C5.10022047,137.451167 7.95816697,116.924834 9.31121388,101.215805 C10.8148085,85.5067945 10.8134909,74.5103607 9.90837278,59.2199731 C9.00326721,44.0343134 7.3449213,24.6594458 19.53838,17.1204964 C31.581291,9.58152898 57.6265544,13.8784978 78.5532718,18.8032204 C99.6305244,23.6232331 115.438671,28.9662536 131.849159,35.5660817 Z" id="Path" fill="#FF0066" fill-rule="nonzero" transform="translate(106.005291, 77.491643) rotate(8.000000) translate(-106.005291, -77.491643) "></path>
            </g>
        </g>
        <path d="M183.765965,207.305187 C182.133992,207.007735 181.052686,205.434769 181.348043,203.791221 C181.553291,202.641746 181.207873,202.051884 180.837425,201.623352 C178.25931,198.633708 169.488709,197.423734 154.775928,198.028721 C154.080087,198.05897 153.499385,198.084178 153.043834,198.094261 C152.488163,198.109386 151.59208,198.179968 150.550821,198.265674 C142.315869,198.926118 134.716684,199.163071 132.163599,194.85254 C130.346403,191.787273 130.761905,189.241286 131.432716,187.643112 C133.790565,181.996568 142.826486,179.379999 151.872419,177.18188 C153.444318,176.803763 154.795952,176.471021 155.511817,176.229026 C157.824612,175.437501 160.077335,173.531792 159.837045,171.71179 C159.211288,166.927352 152.653363,166.720648 142.991686,167.885248 C142.210742,167.975996 141.499883,168.061702 140.879132,168.127243 C136.628996,168.550734 132.368847,168.994391 128.088674,169.443089 C111.00803,171.227801 93.3366731,173.073011 76.0607937,173.647748 C65.0024287,174.01074 51.6462866,170.718603 50.4798769,160.217039 C50.1494776,157.232437 51.1757179,155.246063 52.0968312,154.101629 C54.8101104,150.727315 59.8111546,150.235763 63.8260069,149.841513 C64.7771564,149.748244 65.6682334,149.660521 66.3440502,149.546078 C70.4289872,148.854376 75.1296684,147.7654 79.0293815,144.928515 C80.371003,143.950957 82.2482718,144.254459 83.2244516,145.60963 C84.1956254,146.963792 83.8902563,148.85488 82.5436288,149.832942 C77.6427056,153.400853 72.1110201,154.706616 67.3452602,155.513265 C66.4591893,155.659471 65.4629853,155.760302 64.4117148,155.861133 C61.8185808,156.118252 57.8988434,156.501411 56.76247,157.913047 C56.6423248,158.059252 56.3319497,158.447452 56.4520949,159.54147 C57.2130145,166.40303 69.4778376,167.819708 75.8605517,167.602921 C92.931183,167.033225 110.487401,165.198098 127.47293,163.423469 C131.753103,162.979812 136.02827,162.531114 140.283412,162.107623 C140.86912,162.047124 141.539931,161.966459 142.280826,161.875711 C145.895195,161.442137 150.851184,160.847233 155.306569,161.527844 C163.116008,162.722693 165.31867,167.295386 165.794244,170.925307 C166.495091,176.299608 161.95961,180.408477 157.444153,181.956235 C156.472979,182.288978 155.066279,182.631804 153.279119,183.065378 C148.813722,184.149313 138.346071,186.690258 136.969407,189.992478 C136.884304,190.189099 136.689068,190.657964 137.284788,191.691483 C137.439976,191.81248 138.451198,192.4578 142.015506,192.573756 C144.733791,192.664504 147.817518,192.417467 150.070241,192.235971 C151.241656,192.140182 152.167776,192.064558 152.878635,192.044392 C153.309155,192.034309 153.869833,192.014143 154.530631,191.983893 C166.920606,191.474696 180.276748,191.751982 185.372907,197.655646 C187.099994,199.652103 187.750781,202.152715 187.255182,204.875156 C186.994867,206.332166 185.728336,207.355603 184.306618,207.355603 C184.1264,207.355603 183.946183,207.340478 183.765965,207.305187 Z" id="Fill-2178" fill="#A49B8D"></path>
        <path d="M77.4165877,151.355603 C57.5350197,151.355603 41.4165877,149.11379 41.4165877,146.355366 C41.4165877,143.593149 57.5350197,141.355603 77.4165877,141.355603 C97.2981557,141.355603 113.416588,143.593149 113.416588,146.355366 C113.416588,149.11379 97.2981557,151.355603 77.4165877,151.355603 Z" id="Fill-2179" fill="#A49B8D"></path>
        <path d="M67.2114017,142.249259 C67.9945713,142.685814 68.7924252,141.682698 68.2246273,140.97298 C61.420842,132.472038 53.2269308,116.793479 52.502499,90.1767543 C52.4780249,89.2965616 51.3228499,89.0365507 50.9557392,89.8307476 C48.5670721,94.9748164 47.2895268,100.94141 47.4265815,107.678931 C47.7545337,123.939733 55.4687536,135.718128 67.2114017,142.249259 Z" id="Fill-1905" fill="#282D46"></path>
        <path d="M81.4225457,73.1933903 C81.3306373,74.0778426 82.3212053,74.67033 83.0717903,74.1765066 L93.4165877,67.3591263 C93.2685131,67.3586229 93.1255445,67.3556026 92.9774699,67.3556026 C89.5206941,67.3556026 86.1405086,67.6223981 82.8828675,68.1439078 C82.4386438,68.2153889 82.0914344,68.5576926 82.0148441,68.9936264 C81.8361333,69.9641579 81.6165745,71.3887453 81.4225457,73.1933903 Z" id="Fill-1906" fill="#282D46"></path>
        <path d="M81.9258465,93.8836641 C82.1675954,95.2678758 82.4504929,96.6399878 82.7745392,98 C83.4843549,97.0349237 84.163309,96.0848511 84.8165452,95.1522022 L93,79 C92.7171024,79.1785924 92.4342049,79.3576687 92.1513073,79.536745 C86.4573511,83.1361795 83.0882983,85.1747459 81,86.346486 C81.1645949,88.7122297 81.4577797,91.2376901 81.9258465,93.8836641 Z" id="Fill-1986" fill="#282D46"></path>
        <path d="M81.5825749,75.9769899 C81.4463989,78.0557077 81.3757891,80.4564171 81.4413553,83.1107261 C81.4716167,84.1545779 81.5170087,85.2378675 81.592662,86.3556026 C83.6403456,85.1470109 86.9438745,83.0443309 92.5270907,79.331693 C92.8044862,79.1469847 93.0818818,78.9622763 93.3592773,78.7780672 C94.1208543,78.2713672 94.872344,77.7676625 95.6087032,77.2754397 C96.5165432,75.2970635 97.268033,73.5068901 97.8833468,71.9238895 C98.493617,70.3508732 98.9979726,68.9121449 99.4165877,67.6116983 C97.8278677,67.4714198 96.2088863,67.3855553 94.5646872,67.3556026 C89.8388755,70.5575469 85.1483687,73.6766221 81.5825749,75.9769899 Z" id="Fill-1908" fill="#282D46"></path>
        <path d="M100.466225,68.3658741 C99.6801151,68.2790618 98.9440762,68.7500432 98.6887157,69.4944333 C98.3632563,70.4458757 97.9977404,71.4611799 97.5821538,72.5398471 C96.9712916,74.1219255 96.2252385,75.9110562 95.3239664,77.8882801 C93.0707861,82.8216109 89.8211993,88.9313974 85.189662,95.9447298 C85.1496054,96.0085916 85.1095489,96.0754471 85.0744994,96.1437992 L83.5823933,99.265049 C83.4171601,99.6132958 83.3720965,100.007942 83.4622237,100.382632 C83.9729446,102.476104 84.5687856,104.540141 85.2447397,106.572745 C86.2411461,110.178946 83.1367643,112.67854 88.2189377,107.021774 C99.2344861,91.8236424 104.667154,79.5217474 107.330914,71.4212662 C107.646359,70.4668304 107.060532,69.4505283 106.069133,69.2464696 C104.526956,68.9271602 102.94973,68.6677213 101.337454,68.4681529 C101.047044,68.4317316 100.756635,68.397805 100.466225,68.3658741 Z" id="Fill-1909" fill="#282D46"></path>
        <path d="M85.4165877,95.3556026 C84.7767892,96.3778838 84.1118018,97.4192631 83.4165877,98.477088 C83.4770411,98.7704567 83.5425323,99.0638254 83.6080235,99.3556026 L85.4165877,95.3556026 Z" id="Fill-1910" fill="#282D46"></path>
        <path d="M86.4165877,109.338016 L86.4165877,109.340988 C87.4525367,112.080066 88.6414115,114.754246 89.9881452,117.355603 C92.4448243,115.923395 95.6809317,113.57519 99.1883591,109.799731 C103.238426,105.442174 106.888913,99.9986963 110.041158,93.6194041 C112.897418,87.834099 115.35903,81.2467379 117.38653,73.9638323 C117.495058,73.5585934 117.302667,73.1315569 116.922819,72.9497443 C114.81639,71.9425919 112.596499,71.090005 110.273013,70.3919835 C109.809303,70.2527755 109.320927,70.5257421 109.1976,70.9943924 C107.357557,77.7298787 105.137666,83.8054895 102.572459,89.1157041 C99.8740586,94.6944266 96.7958102,99.4403782 93.4166432,103.223268 C90.8317037,106.113444 88.3602254,108.085639 86.4165877,109.338016 Z" id="Fill-1911" fill="#282D46"></path>
        <path d="M86.9115877,109.857103 L86.9215877,109.860103 L86.9115877,109.857103 Z" id="Fill-1912" fill="#282D46"></path>
        <path d="M89.4165877,117.620589 C89.7293318,118.213816 90.0471201,118.803031 90.374997,119.388234 C91.5149997,121.422655 92.7558875,123.412447 94.0875721,125.355603 C95.0005831,125.010097 96.0447448,124.577839 97.1797032,124.056822 C99.3941331,122.974171 101.855732,121.47581 104.463614,119.400269 C109.66929,115.252697 114.456292,109.57467 118.698515,102.525653 C122.320293,96.5016199 125.553663,89.4355533 128.36836,81.4302529 C128.47429,81.1233597 128.40367,80.7793584 128.176678,80.5436725 C126.380922,78.6561787 124.373307,76.9772921 122.184098,75.5045054 C121.704893,75.1805625 121.044095,75.4092281 120.862502,75.9578248 C118.153735,84.1466594 115.016205,91.304493 111.490268,97.3049581 C107.898755,103.426275 103.908745,108.34459 99.6362576,111.924008 C95.3335042,115.530004 91.676416,117.011817 89.4165877,117.620589 Z" id="Fill-1913" fill="#282D46"></path>
        <path d="M97.44913,123.870181 C96.3753117,124.402045 95.36115,124.832317 94.4165877,125.180917 C96.0969144,127.650001 97.9363253,130.042891 99.9248776,132.355603 C103.494329,130.808815 108.301654,128.323297 113.461947,124.502641 C119.517089,120.017155 124.866295,114.590947 129.35048,108.375907 C131.975369,104.740507 134.306947,100.83071 136.330299,96.6739037 C136.419784,96.4876517 136.439669,96.2735117 136.389955,96.0733157 C135.510021,92.6650038 134.232376,89.5719259 132.601763,86.7896 C132.233881,86.16212 131.309204,86.227358 131.045721,86.905634 C128.768829,92.7855198 125.885428,98.1853337 122.425347,103.02191 C118.51287,108.484471 113.859658,113.259295 108.585023,117.213913 C104.57809,120.222829 100.630814,122.404567 97.44913,123.870181 Z" id="Fill-1914" fill="#282D46"></path>
        <path d="M94.4165877,125.339645 L94.4312696,125.355603 C95.3611228,125.089645 96.3594915,124.761378 97.4165877,124.355603 C96.3154458,124.750359 95.3023952,125.077867 94.4165877,125.339645 Z" id="Fill-1915" fill="#282D46"></path>
        <path d="M101.416588,134.236794 C103.625918,136.705372 106.006359,139.080509 108.552877,141.355603 C110.299205,140.69999 112.956441,139.612211 116.096811,138.032341 C122.483236,134.362737 130.002007,128.177326 137.274177,117.751507 C137.344634,117.652987 137.389928,117.540756 137.415092,117.422431 C138.069335,114.333281 138.416588,111.005956 138.416588,107.433856 C138.416588,105.608703 138.326,103.848045 138.149858,102.150358 C138.05927,101.275869 136.901762,101.054453 136.49915,101.83347 C133.439303,107.722306 130.077496,112.916933 126.453992,117.34067 C122.367485,122.327594 117.948824,126.349126 113.313759,129.292529 C108.442159,132.384726 104.063759,133.758415 101.416588,134.236794 Z" id="Fill-1916" fill="#282D46"></path>
        <path d="M108.416588,141.036596 C109.74946,142.168289 111.128471,143.274789 112.548492,144.355603 C121.396715,141.351257 128.671123,136.1512 133.284912,128.665528 C133.797555,127.830219 132.700499,126.936621 131.931534,127.569401 C127.558687,131.182816 123.124323,133.934741 119.474303,135.901249 C118.259338,136.556752 117.085385,137.151002 115.967823,137.687457 C113.209802,139.200991 110.656839,140.274889 108.416588,141.036596 Z" id="Fill-1917" fill="#282D46"></path>
        <path d="M36.4950749,102.456691 L127.565901,50.2341207 C129.327009,49.2233872 129.939131,46.9733498 128.930634,45.2080826 C127.917119,43.4438202 125.669324,42.832457 123.908217,43.8431905 L19.0194708,103.989369 C15.9036655,105.777744 14.8750985,108.743131 15.6778825,110.545573 C16.4756491,112.348014 18.0912518,112.432409 19.285393,112.324906 C20.4845516,112.217905 21.3726314,111.129809 21.3726314,111.129809 C20.0731248,110.856529 19.0445578,110.431539 18.733479,109.774964 C17.6697903,107.517893 28.1461213,107.245618 36.4950749,102.456691 Z" id="Fill-1918" fill="#8D4C65"></path>
        <path d="M73.9947845,127.599569 C77.7528293,133.759465 82.3550358,139.570005 87.7556361,144.988015 C88.9710254,145.896641 90.1152204,146.670784 91.1526238,147.325828 C91.7882877,147.345678 92.4290369,147.355603 93.0748714,147.355603 C96.273532,147.355603 99.4009983,147.152142 102.416588,146.745221 C100.575705,145.126964 98.8111022,143.460571 97.1278643,141.748524 C90.9898939,136.083384 85.8639004,129.931427 81.8210781,123.35915 C76.7917055,115.188466 73.4048884,106.33346 71.7419917,97.0407643 C69.9570475,87.0280167 70.3130193,75.5285173 71.0351335,70.622137 C71.1622662,69.751226 70.2519956,69.0941968 69.4281752,69.4579448 C67.2618327,70.4176838 65.2022817,71.523319 63.2800342,72.7713767 C62.2324601,73.4507369 61.5713697,74.5727483 61.5103459,75.7994674 C61.2255685,81.4348325 61.5662844,90.6520984 62.8528681,98.0977675 C64.6530682,108.517436 68.4009424,118.443341 73.9947845,127.599569 Z" id="Fill-1919" fill="#282D46"></path>
        <path d="M87.9217519,145.222734 C84.7775067,142.876677 81.1518949,139.653151 77.6030969,135.345489 C72.046898,128.592171 67.8682268,120.587389 65.1899853,111.552753 C62.373479,102.036057 60.9447421,88.2480522 61.4619551,76.587983 C61.5080434,75.561614 60.2739015,74.9714892 59.469917,75.6393013 C57.5444508,77.2393612 55.7982169,79.0102336 54.2568198,80.9464406 C52.9868315,82.5430145 52.3415955,84.531013 52.4235302,86.5483932 C52.7922365,95.7065325 54.3029081,106.444812 56.5356294,113.978489 C59.5416099,124.13013 64.2630987,133.16128 70.5720729,140.821947 C71.5808942,142.050502 72.5999574,143.203362 73.6190206,144.286004 C73.7521646,144.428431 73.921155,144.536496 74.110629,144.60024 C78.1459145,145.990145 82.498697,146.915919 87.081921,147.349175 C88.2034026,147.458734 88.8588804,146.142034 88.0702586,145.353707 L88.044654,145.330301 L87.9217519,145.222734 Z" id="Fill-1920" fill="#282D46"></path>
        <path d="M108.307016,141.406719 C105.807684,139.166199 103.471353,136.827155 101.302961,134.39609 C100.863356,133.905976 100.433629,133.41086 100.013781,132.912745 C98.0380247,130.590205 96.2104506,128.187146 94.5409369,125.707569 L94.5261187,125.686565 C93.2221199,123.748614 92.00703,121.764153 90.890728,119.735181 C90.5696677,119.151545 90.2584861,118.563908 89.952244,117.972271 C89.9226076,117.910257 89.8880319,117.848242 89.8583956,117.786228 C88.5099422,115.160117 87.3195493,112.460489 86.2822775,109.695347 L86.2773381,109.693846 C85.0820059,106.505105 84.0990674,103.229843 83.3235832,99.8815648 C83.2593711,99.6065008 83.1951591,99.3299365 83.1358864,99.0533722 C82.8247048,97.6480455 82.5530384,96.2302159 82.3208871,94.7998833 C81.8714027,92.0657476 81.5898575,89.4561409 81.431797,87.0115725 C81.3577061,85.8918122 81.3132516,84.8065598 81.2836153,83.7608167 C81.2194032,81.1016984 81.2885547,78.6966393 81.4219182,76.6141551 C81.4367364,76.3896029 81.4515545,76.1685515 81.4663727,75.9520011 C81.6194938,73.8940226 81.7330998,71.0748672 81.8516451,68.8898592 C81.9356147,67.2879867 80.4735554,66.0521994 78.9324659,66.4212852 C77.6432852,66.7293568 76.3788015,67.0824389 75.1439541,67.4810316 L75.0748026,67.504037 C73.7312887,67.9381379 72.7928046,69.1604221 72.6841381,70.5812524 C72.2297142,76.5256345 72.2297142,86.7105025 73.6818948,95.8311231 C75.2526206,105.720922 78.4484057,115.124609 83.1704621,123.781122 C86.8107922,130.447671 91.35997,136.669118 96.773541,142.384947 C98.5517212,144.085342 100.413871,145.742728 102.36493,147.355603 C104.06408,147.100543 105.733594,146.780469 107.358653,146.388878 C109.092379,145.96878 110.78165,145.467664 112.416588,144.885028 C111.048377,143.790774 109.719681,142.670513 108.43544,141.524747 L108.307016,141.406719 Z" id="Fill-1921" fill="#282D46"></path>
        <path d="M75.1589686,145.911009 C73.0414191,146.637984 70.7586708,147.139102 68.3457658,147.54645 C67.9202535,147.619047 67.3595784,147.687106 66.723813,147.752645 C65.607469,147.869102 64.2608477,147.980517 62.8491481,148.178142 C61.7878703,148.327368 60.6865444,148.523984 59.5852184,148.828991 C58.759224,149.05888 57.9332295,149.349771 57.1272592,149.747036 C56.5215299,150.045489 55.9258127,150.404943 55.3601316,150.852118 C54.5191191,151.519604 53.7481909,152.401855 53.217552,153.480722 C52.6819071,154.554547 52.4165877,155.799781 52.4165877,157.075264 C52.4165877,157.44833 52.4416178,157.831479 52.4816661,158.219669 C52.6418589,159.676644 53.0623652,161.042872 53.6781065,162.262899 C54.2187574,163.331683 54.9145952,164.284514 55.7005414,165.116351 C57.0771989,166.573325 58.7291878,167.672358 60.4863033,168.529402 C63.1194735,169.809926 66.0079511,170.571182 68.8113263,171.040036 C71.6147014,171.508889 74.3279681,171.670215 76.6057104,171.670215 C77.1163252,171.670215 77.6019098,171.665173 78.0574582,171.650049 C99.6784891,170.929124 121.559833,168.257164 142.880502,166.124638 C144.192082,165.99356 145.763974,165.776779 147.491053,165.595287 C149.208121,165.413795 151.065357,165.267594 152.852508,165.267594 C154.149069,165.267594 155.405582,165.348257 156.526932,165.524707 C157.367945,165.660826 158.128861,165.857442 158.774638,166.09943 C159.260223,166.280922 159.680729,166.487621 160.031151,166.714485 C160.556784,167.057303 160.92723,167.425328 161.21758,167.879057 C161.502923,168.332786 161.728194,168.887343 161.838327,169.714139 C161.853345,169.809926 161.858351,169.900672 161.858351,169.991417 C161.858351,170.324152 161.783261,170.656887 161.603044,171.040036 C161.337724,171.604676 160.797073,172.270145 160.056181,172.84991 C159.320295,173.434717 158.399186,173.928777 157.51312,174.226222 C157.142674,174.357299 156.426812,174.553915 155.545751,174.770697 C153.993883,175.158887 151.891351,175.642865 149.618615,176.252878 C147.916566,176.706607 146.10939,177.230916 144.337256,177.851013 C143.005653,178.314825 141.694074,178.829051 140.447573,179.42394 C139.511446,179.867586 138.610361,180.351564 137.769349,180.896039 C136.502824,181.717792 135.346432,182.670623 134.425323,183.910816 C133.964768,184.530912 133.574298,185.221589 133.293961,185.992928 C133.018629,186.759226 132.863442,187.601146 132.863442,188.458189 C132.863442,189.214405 132.983587,189.975661 133.203852,190.71171 C133.429123,191.44776 133.754515,192.163643 134.165009,192.85432 C134.470377,193.373587 134.855841,193.817234 135.261329,194.185258 C135.982197,194.830562 136.768143,195.249001 137.564102,195.566611 C138.755536,196.035464 139.997031,196.277453 141.28358,196.433738 C142.570129,196.590022 143.896726,196.640437 145.223323,196.640437 C147.290812,196.640437 149.348289,196.509359 151.105405,196.378282 C151.98146,196.312743 152.78743,196.242163 153.463244,196.191749 C154.139057,196.141335 154.704738,196.101003 155.045148,196.095962 C155.926209,196.070754 157.17271,196.010257 158.714566,195.954802 C160.251416,195.899346 162.063598,195.848931 164.010943,195.848931 C166.338745,195.848931 168.851771,195.919511 171.279694,196.12621 C173.101888,196.287536 174.879027,196.519442 176.480956,196.852177 C177.682403,197.099207 178.783728,197.406734 179.724862,197.754593 C180.430711,198.016748 181.046453,198.30411 181.547055,198.596513 C182.302965,199.040159 182.778538,199.493888 183.038851,199.877037 C183.169008,200.073653 183.254111,200.250103 183.314183,200.446719 C183.374255,200.638294 183.409297,200.855075 183.409297,201.132354 C183.409297,201.318887 183.394279,201.535669 183.349225,201.792782 C183.05387,203.436289 184.135171,205.009217 185.767136,205.306661 C187.399101,205.604106 188.965987,204.515156 189.261343,202.871649 C189.361464,202.291884 189.416699,201.712119 189.416699,201.132354 C189.421536,199.78125 189.10115,198.460394 188.510439,197.326071 C187.994818,196.327868 187.293974,195.475865 186.503022,194.765023 C185.111347,193.529872 183.464364,192.687952 181.69223,192.037607 C179.029024,191.069652 176.03542,190.53526 172.976737,190.212608 C169.928067,189.894998 166.819324,189.799211 164.010943,189.799211 C161.963478,189.799211 160.076205,189.849625 158.499307,189.905081 C156.922408,189.965578 155.640865,190.026075 154.879949,190.046241 C154.329286,190.061365 153.713545,190.106738 153.002689,190.162194 C151.941411,190.242857 150.684899,190.348727 149.348289,190.439473 C148.006674,190.525177 146.584962,190.590716 145.223323,190.590716 C144.342262,190.590716 143.481226,190.565509 142.700286,190.49997 C141.528875,190.404183 140.517658,190.212608 139.906922,189.990785 C139.596549,189.884915 139.396308,189.768962 139.311205,189.713506 L139.271157,189.678216 L139.261145,189.673175 L138.990819,189.950454 L139.321217,189.753838 C139.291181,189.703424 139.261145,189.673175 139.261145,189.673175 L138.990819,189.950454 L139.321217,189.753838 C139.125982,189.426145 139.01585,189.153907 138.950771,188.947209 C138.885693,188.735468 138.870675,188.584225 138.870675,188.458189 C138.870675,188.332154 138.885693,188.226283 138.925741,188.100248 C139.000832,187.868342 139.186055,187.530566 139.596549,187.107085 C139.951977,186.744102 140.467597,186.330704 141.113375,185.922348 C142.244737,185.201423 143.766569,184.500664 145.438582,183.875526 C147.951608,182.937819 150.795031,182.171521 153.313063,181.546384 C154.569576,181.233815 155.745992,180.951494 156.777234,180.699423 C157.292854,180.568346 157.773433,180.447351 158.218969,180.326357 C158.6595,180.205362 159.064988,180.084368 159.445446,179.953291 C160.456663,179.610473 161.447857,179.14162 162.38899,178.566896 C163.795683,177.69977 165.102257,176.590654 166.123486,175.16897 C166.629095,174.458128 167.064619,173.671664 167.374993,172.799496 C167.685367,171.932369 167.865583,170.979538 167.865583,169.991417 C167.865583,169.638517 167.840553,169.280575 167.795499,168.922633 C167.550204,167.027054 166.859372,165.302884 165.8031,163.936655 C165.017154,162.913244 164.050991,162.091491 163.019749,161.466353 C161.462875,160.523605 159.770838,159.97913 158.048764,159.651437 C156.331697,159.328785 154.574582,159.217873 152.852508,159.217873 C150.749977,159.217873 148.6925,159.384241 146.8653,159.580857 C145.0381,159.772431 143.421153,159.994254 142.284785,160.105166 C120.879014,162.247775 99.1228201,164.899569 77.8622232,165.600329 C77.4717531,165.615453 77.0512468,165.620494 76.6057104,165.620494 C74.8786311,165.620494 72.8161479,165.509583 70.7236286,165.21718 C69.1567421,164.995356 67.5698316,164.672705 66.0980596,164.229059 C64.9917276,163.901365 63.950474,163.503092 63.029365,163.049363 C61.6426955,162.363728 60.5363636,161.541974 59.7904655,160.649641 C59.4150135,160.205994 59.1196579,159.742182 58.8993927,159.232998 C58.6791275,158.728854 58.5239407,158.179338 58.4538563,157.544117 L58.4538563,157.539076 C58.4338322,157.367667 58.4238202,157.211383 58.4238202,157.075264 C58.4288262,156.651784 58.4939045,156.409795 58.574001,156.223262 C58.6440853,156.066977 58.7291878,155.9359 58.8793686,155.784657 C59.12967,155.522502 59.6202606,155.199851 60.3561466,154.927613 C61.4474605,154.509174 63.014347,154.231895 64.6162756,154.050404 C65.422246,153.954616 66.2382284,153.878995 67.0291807,153.803373 C67.825139,153.72271 68.5960671,153.637006 69.3419651,153.51097 C71.9300811,153.072366 74.5332152,152.517808 77.096301,151.635557 C79.6593869,150.760364 82.1824245,149.553949 84.5502753,147.832803 C85.8918906,146.854261 86.1972582,144.963723 85.226089,143.60909 C84.2499137,142.254961 82.3726536,141.950458 81.0310383,142.929001 C79.2288686,144.238765 77.281524,145.18353 75.1589686,145.911009 Z" id="Fill-1984" fill="#282D46"></path>
    </g>
</svg>