<?xml version="1.0" encoding="UTF-8"?>
<svg width="234px" height="187px" viewBox="0 0 234 187" version="1.1" xmlns="http://www.w3.org/2000/svg" xmlns:xlink="http://www.w3.org/1999/xlink">
    <title>french</title>
    <defs>
        <filter id="filter-1">
            <feColorMatrix in="SourceGraphic" type="matrix" values="0 0 0 0 0.964273 0 0 0 0 0.889605 0 0 0 0 0.889605 0 0 0 1.000000 0"></feColorMatrix>
        </filter>
    </defs>
    <g id="french" stroke="none" stroke-width="1" fill="none" fill-rule="evenodd">
        <g filter="url(#filter-1)" id="blob-(1)">
            <g transform="translate(3.900000, 4.300000)">
                <path d="M145.216627,28.2114802 C164.459549,36.4771226 184.232093,46.1859723 201.533069,62.1924544 C218.834045,78.1989364 233.663453,100.240649 228.896857,119.658349 C223.953721,139.076048 199.591123,155.607333 172.933497,157.444143 C146.27587,159.280952 117.499757,146.292085 87.1347794,147.735293 C56.9463419,149.309701 25.1690393,165.447384 10.8692531,160.592959 C-3.43053311,155.869734 -0.0762622768,130.154403 1.51260285,110.474302 C3.27800856,90.7942009 3.27800856,77.0181303 2.21876514,57.8628322 C1.15952171,38.8387347 -0.782424557,14.5666103 13.5173616,5.12016187 C27.6406072,-4.32628654 58.1821259,1.05294103 82.7212651,7.21937263 C107.436945,13.2546036 125.973705,19.9458379 145.216627,28.2114802 Z" id="Path" fill="#FF0066" fill-rule="nonzero"></path>
            </g>
        </g>
        <path d="M117.923,46.1191 C117.923,46.1191 119.996,42.8027 116.146,42.0914 C112.295,41.3805 111.407,37.2336 109.629,36.3449 C107.853,35.4566 100.744,30.7172 98.6703,33.0867 C96.5965,35.4566 90.9695,38.6559 92.7465,42.0914 C94.5238,45.527 94.7285,51.1547 92.4047,51.7473 C90.0809,52.3395 85.934,48.4887 84.1566,51.7473 C82.3793,55.0051 77.9375,54.4133 77.6414,56.4863 C77.3445,58.5594 75.5676,63.0027 71.4207,60.3367 C67.2734,57.6707 62.8301,57.6707 64.6086,54.4125 C66.3848,51.1547 57.2027,51.4508 57.4996,53.8203 C57.7953,56.1898 62.2383,62.4102 60.7574,65.3719 C59.2754,68.334 56.3141,73.073 52.168,69.2227 C48.0215,65.3719 44.468,64.7797 42.9855,66.5566 C41.5047,68.334 37.6539,70.4074 33.2113,68.6301 C28.768,66.8531 24.3254,71.2961 26.9914,73.073 C29.6566,74.8504 33.8039,77.8125 31.1383,80.4781 C28.4723,83.1438 30.2492,83.7363 33.8039,84.9211 C37.3574,86.1059 45.6508,86.9941 45.9477,90.5484 C46.2445,94.1031 47.4281,93.807 51.2789,95.8801 C55.1293,97.9535 54.8336,101.508 54.8336,105.358 C54.8336,109.209 57.2039,106.247 59.8695,111.282 C62.5344,116.318 71.4207,128.166 66.3848,125.796 C61.3496,123.427 62.5344,127.277 62.2383,133.201 C61.9418,139.125 62.534,145.345 60.1652,147.714 C57.7953,150.084 54.0852,154.23 54.0156,156.6 C53.9449,158.97 59.2754,167.559 64.0148,166.966 C68.7551,166.374 67.9152,169.041 72.3336,170.521 C76.7527,172.002 80.6023,172.595 84.7496,170.521 C88.8957,168.448 86.527,167.578 93.6355,171.864 C100.744,176.149 110.223,178.519 111.111,174.075 C112.145,168.903 115.277,160.783 120.502,158.458 C123.999,156.902 130.498,155.996 134.229,157.117 C136.193,157.707 136.607,159.578 138.3,160.376 C142.225,162.227 146.709,161.418 150.859,161.108 C152.444,160.989 154.086,161.025 155.639,160.637 C157.72,160.117 156.93,159.665 157.409,158.072 C158.03,156.008 160.754,154.327 162.648,153.639 C165.907,152.454 171.83,147.714 166.795,145.048 C161.76,142.383 153.171,139.599 155.244,136.548 C157.318,133.497 151.69,132.312 156.725,128.166 C161.76,124.019 154.948,125.796 156.429,120.761 C157.909,115.725 155.54,110.394 152.282,108.913 C149.023,107.431 142.508,109.801 148.431,100.619 C154.355,91.4371 157.318,95.2875 159.983,89.6602 C162.648,84.0324 157.316,72.4809 162.352,68.334 C167.388,64.1871 162.055,65.0758 156.132,63.0027 C150.208,60.9289 144.58,57.6711 138.361,58.2637 C132.14,58.8555 132.437,56.4863 130.956,52.9316 C129.474,49.3777 129.77,47.6004 126.81,49.3777 C123.847,51.1547 115.85,49.6734 117.923,46.1191" id="Fill-1" fill="#EBEBEB"></path>
        <path d="M180.01,173.754 C179.244,175.392 178.184,176.903 177.792,178.671 C177.2,181.337 173.941,174.551 171.571,173.945 C169.202,173.339 170.683,169.193 171.571,168.008 C172.461,166.823 174.534,163.861 172.164,161.788 C169.794,159.715 171.571,158.529 173.943,157.344 C176.345,156.144 178.861,157.397 180.051,154.657 C180.648,153.282 181.051,150.972 182.596,153.07 C184.825,156.094 182.082,160.699 181.632,163.894 C181.25,166.593 181.333,169.364 180.652,172.018 C180.498,172.621 180.271,173.195 180.01,173.754" id="Fill-2" fill="#AA3335"></path>
        <path d="M182.867,173.516 C182.048,175.207 180.87,176.79 180.505,178.582 C179.956,181.287 175.656,174.744 172.787,174.308 C169.917,173.872 171.442,169.627 172.434,168.381 C173.428,167.135 175.731,164.031 172.773,162.13 C169.817,160.229 171.872,158.92 174.636,157.568 C177.438,156.199 180.523,157.271 181.782,154.451 C182.415,153.036 182.759,150.701 184.732,152.685 C187.577,155.545 184.57,160.337 184.221,163.559 C183.925,166.28 184.189,169.041 183.532,171.738 C183.383,172.352 183.146,172.94 182.867,173.516 Z" id="Stroke-3" stroke="#0D1636" stroke-width="2.9934" stroke-linecap="round" stroke-linejoin="round"></path>
        <path d="M87.3059,50.5418 C86.0477,50.2676 84.8957,50.3906 84.1566,51.7473 C82.3793,55.0051 77.9375,54.4133 77.6414,56.4863 C77.3445,58.5594 75.5676,63.0027 71.4207,60.3367 C67.2734,57.6707 62.8301,57.6707 64.6086,54.4125 C66.3848,51.1547 57.2027,51.4508 57.4996,53.8203 C57.7953,56.1898 62.2383,62.4102 60.7574,65.3719 C59.2754,68.334 56.3141,73.073 52.168,69.2227 C48.0215,65.3719 44.468,64.7797 42.9855,66.5566 C41.5047,68.334 37.6539,70.4074 33.2113,68.6301 C28.768,66.8531 24.3254,71.2961 26.9914,73.073 C29.6566,74.8504 33.8039,77.8125 31.1383,80.4781 C28.4723,83.1438 30.2492,83.7363 33.8039,84.9211 C37.3574,86.1059 45.6508,86.9941 45.9477,90.5484 C46.2445,94.1031 47.4281,93.807 51.2789,95.8801 C55.1293,97.9535 54.8336,101.508 54.8336,105.358 C54.8336,109.209 57.2039,106.247 59.8695,111.282 C62.5344,116.318 71.4207,128.166 66.3848,125.796 C61.3496,123.427 62.5344,127.277 62.2383,133.201 C61.9418,139.125 62.534,145.345 60.1652,147.714 C57.7953,150.084 54.0852,154.23 54.0156,156.6 C53.9449,158.97 59.2754,167.559 64.0148,166.966 C68.7551,166.374 67.9152,169.041 72.3336,170.521 C76.7527,172.002 80.6023,172.595 84.7496,170.521 C86.1234,169.835 86.7809,169.281 87.3059,169.003 L87.3059,50.5418" id="Fill-4" fill="#4558AA"></path>
        <path d="M166.795,145.048 C161.76,142.383 153.171,139.599 155.244,136.548 C157.318,133.497 151.69,132.312 156.725,128.166 C161.76,124.019 154.948,125.796 156.429,120.761 C157.909,115.725 155.54,110.394 152.282,108.913 C149.023,107.431 142.508,109.801 148.431,100.619 C154.355,91.4371 157.318,95.2875 159.983,89.6602 C162.648,84.0324 157.316,72.4809 162.352,68.334 C167.388,64.1871 162.055,65.0758 156.132,63.0027 C150.208,60.9289 144.58,57.6711 138.361,58.2637 C132.14,58.8555 132.437,56.4863 130.956,52.9316 C129.474,49.3777 129.77,47.6004 126.81,49.3777 C126.094,49.8063 125.086,50.0441 123.996,50.1098 L123.996,157.343 C127.404,156.558 131.536,156.309 134.229,157.117 C136.193,157.707 136.607,159.578 138.3,160.376 C142.225,162.227 146.709,161.418 150.859,161.108 C152.444,160.989 154.086,161.025 155.639,160.637 C157.72,160.117 156.93,159.665 157.409,158.072 C158.03,156.008 160.754,154.327 162.648,153.639 C165.907,152.454 171.83,147.714 166.795,145.048" id="Fill-5" fill="#C25557"></path>
        <path d="M121.805,43.6898 C121.805,43.6898 123.965,40.3113 119.952,39.5867 C115.939,38.8625 115.014,34.6387 113.16,33.7332 C111.308,32.8281 103.899,28.0004 101.737,30.4141 C99.5758,32.8281 93.7102,36.0875 95.5633,39.5867 C97.4148,43.0863 97.6289,48.8191 95.2066,49.4223 C92.7844,50.0258 88.4625,46.1035 86.6094,49.4223 C84.7574,52.741 80.127,52.1379 79.8176,54.2496 C79.509,56.3617 77.6566,60.8875 73.3344,58.1723 C69.0117,55.4566 64.3813,55.4566 66.2336,52.1379 C68.0859,48.8191 58.5156,49.1207 58.8242,51.5344 C59.1328,53.9484 63.7645,60.2844 62.2207,63.3012 C60.6762,66.3184 57.5895,71.1457 53.2668,67.2234 C48.9449,63.3012 45.241,62.6977 43.6965,64.5082 C42.1531,66.3184 38.1395,68.4305 33.5082,66.6203 C28.8781,64.8098 24.2473,69.3355 27.0254,71.1457 C29.8035,72.9559 34.1266,75.9734 31.3473,78.6891 C28.5688,81.4043 30.4211,82.0082 34.1266,83.2148 C37.8313,84.4215 46.4742,85.3266 46.7836,88.9473 C47.0926,92.5676 48.327,92.266 52.3414,94.3781 C56.3547,96.4902 56.0453,100.111 56.0453,104.033 C56.0453,107.955 58.5156,104.938 61.2945,110.067 C64.0727,115.196 73.3344,127.266 68.0859,124.852 C62.8379,122.438 64.0727,126.36 63.7637,132.395 C63.4547,138.429 64.0715,144.765 61.6023,147.178 C59.1328,149.592 55.2664,153.816 55.1918,156.23 C55.1195,158.644 60.6762,167.393 65.6156,166.79 C70.5555,166.187 69.6801,168.902 74.2863,170.411 C78.8914,171.92 82.9047,172.523 87.2273,170.411 C91.5496,168.299 89.0797,167.413 96.4887,171.778 C103.899,176.144 113.778,178.557 114.704,174.031 C115.783,168.763 119.047,160.491 124.491,158.122 C128.137,156.537 134.912,155.615 138.8,156.757 C140.846,157.357 141.279,159.263 143.044,160.075 C147.135,161.961 151.807,161.138 156.134,160.821 C157.786,160.701 159.498,160.737 161.116,160.341 C163.285,159.813 162.463,159.352 162.961,157.729 C163.608,155.627 166.448,153.914 168.422,153.213 C171.818,152.006 177.993,147.178 172.744,144.463 C167.496,141.748 158.543,138.913 160.704,135.804 C162.865,132.696 157,131.489 162.248,127.266 C167.496,123.041 160.395,124.852 161.939,119.722 C163.482,114.593 161.014,109.163 157.617,107.654 C154.22,106.145 147.43,108.558 153.604,99.2055 C159.778,89.8527 162.865,93.7746 165.645,88.0422 C168.422,82.3094 162.865,70.5422 168.114,66.3184 C173.363,62.0945 167.805,62.9996 161.63,60.8875 C155.456,58.7758 149.589,55.4566 143.107,56.0602 C136.623,56.6637 136.933,54.2496 135.389,50.6293 C133.845,47.009 134.153,45.1984 131.067,47.009 C127.98,48.8191 119.642,47.3105 121.805,43.6898 Z M87.3059,169.003 L87.3059,60.9082 L87.3059,169.003 Z M123.996,157.343 L123.996,60.9082 L123.996,157.343 Z" id="Stroke-6" stroke="#0D1636" stroke-width="2.9934" stroke-linecap="round" stroke-linejoin="round"></path>
        <path d="M150.136,43.1031 C151.134,41.1262 153.546,40.3332 155.523,41.3313 C157.501,42.3293 158.294,44.7414 157.296,46.7184 C156.298,48.6949 153.886,49.4891 151.909,48.491 C149.932,47.493 149.138,45.0801 150.136,43.1031" id="Fill-15" fill="#273368"></path>
        <path d="M158.664,33.8359 C159.99,31.2086 163.193,30.1551 165.82,31.4813 C168.445,32.8063 169.5,36.0098 168.173,38.6371 C166.848,41.2629 163.644,42.316 161.019,40.991 C158.392,39.6648 157.338,36.4617 158.664,33.8359" id="Fill-16" fill="#AA3335"></path>
        <path d="M149.814,31.9836 C150.545,30.5359 152.311,29.9555 153.757,30.6855 C155.205,31.4168 155.787,33.1828 155.056,34.6305 C154.325,36.0773 152.559,36.6594 151.111,35.9281 C149.664,35.1977 149.083,33.4305 149.814,31.9836" id="Fill-17" fill="#DD4045"></path>
        <path d="M40.6031,99.4762 C40.6031,100.574 39.7121,101.464 38.6141,101.464 C37.516,101.464 36.6254,100.574 36.6254,99.4762 C36.6254,98.3773 37.516,97.4875 38.6141,97.4875 C39.7121,97.4875 40.6031,98.3773 40.6031,99.4762" id="Fill-19" fill="#0D1636"></path>
        <path d="M48.6172,99.4762 C48.6172,100.574 47.7273,101.464 46.6277,101.464 C45.5305,101.464 44.6402,100.574 44.6402,99.4762 C44.6402,98.3773 45.5305,97.4875 46.6277,97.4875 C47.7273,97.4875 48.6172,98.3773 48.6172,99.4762" id="Fill-20" fill="#0D1636"></path>
        <path d="M56.6309,99.4762 C56.6309,100.574 55.7414,101.464 54.6422,101.464 C53.5441,101.464 52.6535,100.574 52.6535,99.4762 C52.6535,98.3773 53.5441,97.4875 54.6422,97.4875 C55.7414,97.4875 56.6309,98.3773 56.6309,99.4762" id="Fill-21" fill="#0D1636"></path>
        <path d="M64.6461,99.4762 C64.6461,100.574 63.7543,101.464 62.6578,101.464 C61.5574,101.464 60.6668,100.574 60.6668,99.4762 C60.6668,98.3773 61.5574,97.4875 62.6578,97.4875 C63.7543,97.4875 64.6461,98.3773 64.6461,99.4762" id="Fill-22" fill="#0D1636"></path>
        <path d="M72.6602,99.4762 C72.6602,100.574 71.7695,101.464 70.6703,101.464 C69.5715,101.464 68.6824,100.574 68.6824,99.4762 C68.6824,98.3773 69.5715,97.4875 70.6703,97.4875 C71.7695,97.4875 72.6602,98.3773 72.6602,99.4762" id="Fill-23" fill="#0D1636"></path>
        <path d="M80.673,99.4762 C80.673,100.574 79.7836,101.464 78.6848,101.464 C77.5863,101.464 76.6949,100.574 76.6949,99.4762 C76.6949,98.3773 77.5863,97.4875 78.6848,97.4875 C79.7836,97.4875 80.673,98.3773 80.673,99.4762" id="Fill-24" fill="#0D1636"></path>
        <path d="M88.6887,99.4762 C88.6887,100.574 87.7969,101.464 86.6988,101.464 C85.6004,101.464 84.7102,100.574 84.7102,99.4762 C84.7102,98.3773 85.6004,97.4875 86.6988,97.4875 C87.7969,97.4875 88.6887,98.3773 88.6887,99.4762" id="Fill-25" fill="#0D1636"></path>
        <path d="M96.7016,99.4762 C96.7016,100.574 95.8109,101.464 94.7129,101.464 C93.6145,101.464 92.7242,100.574 92.7242,99.4762 C92.7242,98.3773 93.6145,97.4875 94.7129,97.4875 C95.8109,97.4875 96.7016,98.3773 96.7016,99.4762" id="Fill-26" fill="#0D1636"></path>
        <path d="M104.716,99.4762 C104.716,100.574 103.826,101.464 102.727,101.464 C101.629,101.464 100.738,100.574 100.738,99.4762 C100.738,98.3773 101.629,97.4875 102.727,97.4875 C103.826,97.4875 104.716,98.3773 104.716,99.4762" id="Fill-27" fill="#0D1636"></path>
        <path d="M36.6254,106.371 C36.6254,107.47 35.7348,108.361 34.6363,108.361 C33.5375,108.361 32.6477,107.47 32.6477,106.371 C32.6477,105.273 33.5375,104.382 34.6363,104.382 C35.7348,104.382 36.6254,105.273 36.6254,106.371" id="Fill-28" fill="#0D1636"></path>
        <path d="M44.6402,106.371 C44.6402,107.47 43.7496,108.361 42.6504,108.361 C41.5527,108.361 40.6617,107.47 40.6617,106.371 C40.6617,105.273 41.5527,104.382 42.6504,104.382 C43.7496,104.382 44.6402,105.273 44.6402,106.371" id="Fill-29" fill="#0D1636"></path>
        <path d="M52.6535,106.371 C52.6535,107.47 51.7633,108.361 50.6645,108.361 C49.5664,108.361 48.6758,107.47 48.6758,106.371 C48.6758,105.273 49.5664,104.382 50.6645,104.382 C51.7633,104.382 52.6535,105.273 52.6535,106.371" id="Fill-30" fill="#0D1636"></path>
        <path d="M60.6668,106.371 C60.6668,107.47 59.7762,108.361 58.6793,108.361 C57.5797,108.361 56.6895,107.47 56.6895,106.371 C56.6895,105.273 57.5797,104.382 58.6793,104.382 C59.7762,104.382 60.6668,105.273 60.6668,106.371" id="Fill-31" fill="#0D1636"></path>
        <path d="M68.6824,106.371 C68.6824,107.47 67.7914,108.361 66.6938,108.361 C65.5945,108.361 64.7039,107.47 64.7039,106.371 C64.7039,105.273 65.5945,104.382 66.6938,104.382 C67.7914,104.382 68.6824,105.273 68.6824,106.371" id="Fill-32" fill="#0D1636"></path>
        <path d="M76.6949,106.371 C76.6949,107.47 75.8055,108.361 74.7066,108.361 C73.609,108.361 72.7184,107.47 72.7184,106.371 C72.7184,105.273 73.609,104.382 74.7066,104.382 C75.8055,104.382 76.6949,105.273 76.6949,106.371" id="Fill-33" fill="#0D1636"></path>
        <path d="M84.7102,106.371 C84.7102,107.47 83.8199,108.361 82.7207,108.361 C81.6223,108.361 80.7332,107.47 80.7332,106.371 C80.7332,105.273 81.6223,104.382 82.7207,104.382 C83.8199,104.382 84.7102,105.273 84.7102,106.371" id="Fill-34" fill="#0D1636"></path>
        <path d="M92.7242,106.371 C92.7242,107.47 91.834,108.361 90.7355,108.361 C89.6371,108.361 88.7473,107.47 88.7473,106.371 C88.7473,105.273 89.6371,104.382 90.7355,104.382 C91.834,104.382 92.7242,105.273 92.7242,106.371" id="Fill-35" fill="#0D1636"></path>
        <path d="M100.738,106.371 C100.738,107.47 99.8477,108.361 98.7504,108.361 C97.6508,108.361 96.7605,107.47 96.7605,106.371 C96.7605,105.273 97.6508,104.382 98.7504,104.382 C99.8477,104.382 100.738,105.273 100.738,106.371" id="Fill-36" fill="#0D1636"></path>
        <path d="M36.727,120.069 C36.727,121.168 35.8363,122.058 34.7387,122.058 C33.6398,122.058 32.7496,121.168 32.7496,120.069 C32.7496,118.97 33.6398,118.081 34.7387,118.081 C35.8363,118.081 36.727,118.97 36.727,120.069" id="Fill-37" fill="#0D1636"></path>
        <path d="M44.7422,120.069 C44.7422,121.168 43.8512,122.058 42.7523,122.058 C41.6551,122.058 40.7641,121.168 40.7641,120.069 C40.7641,118.97 41.6551,118.081 42.7523,118.081 C43.8512,118.081 44.7422,118.97 44.7422,120.069" id="Fill-38" fill="#0D1636"></path>
        <path d="M52.7559,120.069 C52.7559,121.168 51.8652,122.058 50.766,122.058 C49.668,122.058 48.7781,121.168 48.7781,120.069 C48.7781,118.97 49.668,118.081 50.766,118.081 C51.8652,118.081 52.7559,118.97 52.7559,120.069" id="Fill-39" fill="#0D1636"></path>
        <path d="M60.7691,120.069 C60.7691,121.168 59.8793,122.058 58.7809,122.058 C57.6824,122.058 56.7918,121.168 56.7918,120.069 C56.7918,118.97 57.6824,118.081 58.7809,118.081 C59.8793,118.081 60.7691,118.97 60.7691,120.069" id="Fill-40" fill="#0D1636"></path>
        <path d="M68.784,120.069 C68.784,121.168 67.8934,122.058 66.7949,122.058 C65.6969,122.058 64.8059,121.168 64.8059,120.069 C64.8059,118.97 65.6969,118.081 66.7949,118.081 C67.8934,118.081 68.784,118.97 68.784,120.069" id="Fill-41" fill="#0D1636"></path>
        <path d="M76.7973,120.069 C76.7973,121.168 75.9066,122.058 74.8086,122.058 C73.7094,122.058 72.8199,121.168 72.8199,120.069 C72.8199,118.97 73.7094,118.081 74.8086,118.081 C75.9066,118.081 76.7973,118.97 76.7973,120.069" id="Fill-42" fill="#0D1636"></path>
        <path d="M84.8117,120.069 C84.8117,121.168 83.9219,122.058 82.8234,122.058 C81.725,122.058 80.8348,121.168 80.8348,120.069 C80.8348,118.97 81.725,118.081 82.8234,118.081 C83.9219,118.081 84.8117,118.97 84.8117,120.069" id="Fill-43" fill="#0D1636"></path>
        <path d="M92.8266,120.069 C92.8266,121.168 91.9363,122.058 90.8367,122.058 C89.7395,122.058 88.8484,121.168 88.8484,120.069 C88.8484,118.97 89.7395,118.081 90.8367,118.081 C91.9363,118.081 92.8266,118.97 92.8266,120.069" id="Fill-44" fill="#0D1636"></path>
        <path d="M100.84,120.069 C100.84,121.168 99.9492,122.058 98.8504,122.058 C97.7527,122.058 96.8625,121.168 96.8625,120.069 C96.8625,118.97 97.7527,118.081 98.8504,118.081 C99.9492,118.081 100.84,118.97 100.84,120.069" id="Fill-45" fill="#0D1636"></path>
        <path d="M40.6031,113.266 C40.6031,114.365 39.7121,115.255 38.6141,115.255 C37.516,115.255 36.6254,114.365 36.6254,113.266 C36.6254,112.168 37.516,111.277 38.6141,111.277 C39.7121,111.277 40.6031,112.168 40.6031,113.266" id="Fill-46" fill="#0D1636"></path>
        <path d="M48.6172,113.266 C48.6172,114.365 47.7273,115.255 46.6277,115.255 C45.5305,115.255 44.6402,114.365 44.6402,113.266 C44.6402,112.168 45.5305,111.277 46.6277,111.277 C47.7273,111.277 48.6172,112.168 48.6172,113.266" id="Fill-47" fill="#0D1636"></path>
        <path d="M56.6309,113.266 C56.6309,114.365 55.7414,115.255 54.6422,115.255 C53.5441,115.255 52.6535,114.365 52.6535,113.266 C52.6535,112.168 53.5441,111.277 54.6422,111.277 C55.7414,111.277 56.6309,112.168 56.6309,113.266" id="Fill-48" fill="#0D1636"></path>
        <path d="M64.6461,113.266 C64.6461,114.365 63.7543,115.255 62.6578,115.255 C61.5574,115.255 60.6668,114.365 60.6668,113.266 C60.6668,112.168 61.5574,111.277 62.6578,111.277 C63.7543,111.277 64.6461,112.168 64.6461,113.266" id="Fill-49" fill="#0D1636"></path>
        <path d="M72.6602,113.266 C72.6602,114.365 71.7695,115.255 70.6703,115.255 C69.5715,115.255 68.6824,114.365 68.6824,113.266 C68.6824,112.168 69.5715,111.277 70.6703,111.277 C71.7695,111.277 72.6602,112.168 72.6602,113.266" id="Fill-50" fill="#0D1636"></path>
        <path d="M80.673,113.266 C80.673,114.365 79.7836,115.255 78.6848,115.255 C77.5863,115.255 76.6949,114.365 76.6949,113.266 C76.6949,112.168 77.5863,111.277 78.6848,111.277 C79.7836,111.277 80.673,112.168 80.673,113.266" id="Fill-51" fill="#0D1636"></path>
        <path d="M88.6887,113.266 C88.6887,114.365 87.7969,115.255 86.6988,115.255 C85.6004,115.255 84.7102,114.365 84.7102,113.266 C84.7102,112.168 85.6004,111.277 86.6988,111.277 C87.7969,111.277 88.6887,112.168 88.6887,113.266" id="Fill-52" fill="#0D1636"></path>
        <path d="M96.7016,113.266 C96.7016,114.365 95.8109,115.255 94.7129,115.255 C93.6145,115.255 92.7242,114.365 92.7242,113.266 C92.7242,112.168 93.6145,111.277 94.7129,111.277 C95.8109,111.277 96.7016,112.168 96.7016,113.266" id="Fill-53" fill="#0D1636"></path>
        <path d="M104.716,113.266 C104.716,114.365 103.826,115.255 102.727,115.255 C101.629,115.255 100.738,114.365 100.738,113.266 C100.738,112.168 101.629,111.277 102.727,111.277 C103.826,111.277 104.716,112.168 104.716,113.266" id="Fill-54" fill="#0D1636"></path>
        <path d="M40.6031,127.731 C40.6031,128.83 39.7121,129.719 38.6141,129.719 C37.516,129.719 36.6254,128.83 36.6254,127.731 C36.6254,126.632 37.516,125.742 38.6141,125.742 C39.7121,125.742 40.6031,126.632 40.6031,127.731" id="Fill-55" fill="#0D1636"></path>
        <path d="M48.6172,127.731 C48.6172,128.83 47.7273,129.719 46.6277,129.719 C45.5305,129.719 44.6402,128.83 44.6402,127.731 C44.6402,126.632 45.5305,125.742 46.6277,125.742 C47.7273,125.742 48.6172,126.632 48.6172,127.731" id="Fill-56" fill="#0D1636"></path>
        <path d="M56.6309,127.731 C56.6309,128.83 55.7414,129.719 54.6422,129.719 C53.5441,129.719 52.6535,128.83 52.6535,127.731 C52.6535,126.632 53.5441,125.742 54.6422,125.742 C55.7414,125.742 56.6309,126.632 56.6309,127.731" id="Fill-57" fill="#0D1636"></path>
        <path d="M64.6461,127.731 C64.6461,128.83 63.7543,129.719 62.6578,129.719 C61.5574,129.719 60.6668,128.83 60.6668,127.731 C60.6668,126.632 61.5574,125.742 62.6578,125.742 C63.7543,125.742 64.6461,126.632 64.6461,127.731" id="Fill-58" fill="#0D1636"></path>
        <path d="M72.6602,127.731 C72.6602,128.83 71.7695,129.719 70.6703,129.719 C69.5715,129.719 68.6824,128.83 68.6824,127.731 C68.6824,126.632 69.5715,125.742 70.6703,125.742 C71.7695,125.742 72.6602,126.632 72.6602,127.731" id="Fill-59" fill="#0D1636"></path>
        <path d="M80.673,127.731 C80.673,128.83 79.7836,129.719 78.6848,129.719 C77.5863,129.719 76.6949,128.83 76.6949,127.731 C76.6949,126.632 77.5863,125.742 78.6848,125.742 C79.7836,125.742 80.673,126.632 80.673,127.731" id="Fill-60" fill="#0D1636"></path>
        <path d="M88.6887,127.731 C88.6887,128.83 87.7969,129.719 86.6988,129.719 C85.6004,129.719 84.7102,128.83 84.7102,127.731 C84.7102,126.632 85.6004,125.742 86.6988,125.742 C87.7969,125.742 88.6887,126.632 88.6887,127.731" id="Fill-61" fill="#0D1636"></path>
        <path d="M96.7016,127.731 C96.7016,128.83 95.8109,129.719 94.7129,129.719 C93.6145,129.719 92.7242,128.83 92.7242,127.731 C92.7242,126.632 93.6145,125.742 94.7129,125.742 C95.8109,125.742 96.7016,126.632 96.7016,127.731" id="Fill-62" fill="#0D1636"></path>
        <path d="M104.716,127.731 C104.716,128.83 103.826,129.719 102.727,129.719 C101.629,129.719 100.738,128.83 100.738,127.731 C100.738,126.632 101.629,125.742 102.727,125.742 C103.826,125.742 104.716,126.632 104.716,127.731" id="Fill-63" fill="#0D1636"></path>
    </g>
</svg>