<?xml version="1.0" encoding="UTF-8"?>
<svg width="209px" height="209px" viewBox="0 0 209 209" version="1.1" xmlns="http://www.w3.org/2000/svg" xmlns:xlink="http://www.w3.org/1999/xlink">
    <title>envio-02</title>
    <defs>
        <polygon id="path-1" points="0.021 0.30975 208.348 0.30975 208.348 208.6 0.021 208.6"></polygon>
    </defs>
    <g id="envio-02" stroke="none" stroke-width="1" fill="none" fill-rule="evenodd">
        <g id="Group-3">
            <mask id="mask-2" fill="white">
                <use xlink:href="#path-1"></use>
            </mask>
            <g id="Clip-2"></g>
            <polygon id="Fill-1" fill="#A6D9E6" mask="url(#mask-2)" points="0.021 208.6 208.348 208.6 208.348 0.30975 0.021 0.30975"></polygon>
        </g>
        <path d="M184.8875,26.84815 C184.2225,26.84815 183.582,26.9486 182.9758,27.1299 C182.97825,27.0361 182.98315,26.94265 182.98315,26.84815 C182.98315,20.97445 178.2214,16.21305 172.34455,16.21305 C166.97275,16.21305 162.53195,20.19535 161.81095,25.368 C160.895,25.04775 159.91115,24.87135 158.8853,24.87135 C153.98635,24.87135 150.0163,28.8414 150.0163,33.73825 C150.0163,38.17065 153.26955,41.8432 157.51925,42.4998 C158.43065,46.30955 161.8498,49.14525 165.9399,49.14525 C169.2677,49.14525 172.1538,47.2682 173.6063,44.5172 C174.72,46.1419 176.5883,47.20835 178.7065,47.20835 C182.1197,47.20835 184.8875,44.44195 184.8875,41.0291 C184.8875,40.72775 184.85845,40.4341 184.81645,40.1443 L184.8875,40.14815 C188.56075,40.14815 191.5389,37.1707 191.5389,33.4978 C191.5389,29.8256 188.56075,26.84815 184.8875,26.84815" id="Fill-4" fill="#E6F3F0"></path>
        <path d="M190.1984,143.6701 C189.3794,143.6701 188.57895,143.7478 187.80125,143.8892 C187.8926,143.23855 187.943,142.5739 187.943,141.8977 C187.943,134.06295 181.58875,127.71045 173.7519,127.71045 C167.0704,127.71045 161.47005,132.3287 159.96365,138.54505 C158.1496,137.47965 156.03875,136.86715 153.78195,136.86715 C148.8543,136.86715 144.6102,139.783 142.67505,143.98195 C141.8431,143.8255 140.98665,143.7401 140.1092,143.7401 C132.4834,143.7401 126.301,149.91935 126.301,157.5434 C126.301,165.1671 132.4834,171.34705 140.1092,171.34705 C142.72965,171.34705 145.1814,170.6173 147.2688,169.34925 C147.2681,169.40315 147.2646,169.45565 147.2646,169.5092 C147.2646,176.8207 153.1943,182.74795 160.5086,182.74795 C165.39285,182.74795 169.65725,180.10265 171.95325,176.1683 C173.23775,176.86305 174.70915,177.25785 176.27295,177.25785 C180.8996,177.25785 184.716,173.80055 185.2851,169.32895 C186.80585,169.9334 188.46275,170.26975 190.1984,170.26975 C197.5463,170.26975 203.5019,164.3152 203.5019,156.9694 C203.5019,149.625 197.5463,143.6701 190.1984,143.6701" id="Fill-5" fill="#E6F3F0"></path>
        <path d="M53.6256,92.8837 C53.48105,92.61805 53.3232,92.35975 53.15625,92.1088 C53.4212,92.27085 53.69525,92.41925 53.97455,92.5589 C53.85625,92.66425 53.7397,92.7731 53.6256,92.8837 Z M72.4248,82.9892 C71.36885,82.9892 70.34965,83.14915 69.3903,83.4449 C69.3973,83.29405 69.40185,83.1418 69.40185,82.9892 C69.40185,77.0903 64.6191,72.30895 58.71845,72.30895 C55.29125,72.30895 52.2424,73.92455 50.288,76.4337 C48.61465,74.8755 46.37115,73.9214 43.904,73.9214 C40.12785,73.9214 36.8753,76.15405 35.3913,79.3709 C34.37385,78.9761 33.26855,78.7577 32.11215,78.7577 C27.10225,78.7577 23.04155,82.81735 23.04155,87.8255 C23.04155,92.83365 27.10225,96.89365 32.11215,96.89365 C32.83245,96.89365 33.53175,96.80685 34.20305,96.64865 C34.1572,97.0424 34.132,97.4414 34.132,97.84775 C34.132,103.5776 38.7786,108.2235 44.5102,108.2235 C47.6651,108.2235 50.4882,106.8144 52.3915,104.594 C54.0512,107.10315 56.8967,108.75795 60.12965,108.75795 C64.057,108.75795 67.4114,106.31635 68.76345,102.8692 C69.9013,103.30355 71.13505,103.54295 72.4248,103.54295 C78.10285,103.54295 82.70535,98.94185 82.70535,93.26625 C82.70535,87.59065 78.10285,82.9892 72.4248,82.9892 L72.4248,82.9892 Z" id="Fill-6" fill="#E6F3F0"></path>
        <path d="M86.03665,18.1706 C84.595,14.0574 80.11675,11.2469 75.03685,11.62105 C70.90335,11.9259 67.47055,14.25795 65.8903,17.4209 C64.3748,15.73355 61.96715,14.72975 59.33585,14.924 C55.09525,15.23585 51.8826,18.536 52.1598,22.29535 C52.185,22.62715 52.2431,22.9488 52.31975,23.26345 L52.23155,23.26555 C47.6686,23.60155 44.21095,27.1537 44.5088,31.199 C44.80735,35.24395 48.74905,38.2508 53.3113,37.91445 C54.1366,37.8539 54.9248,37.6852 55.6626,37.42935 C55.66715,37.53435 55.6682,37.63655 55.6766,37.74015 C56.1533,44.2106 62.4561,49.01855 69.75465,48.48095 C76.42845,47.98955 81.6207,43.19665 82.09495,37.43285 C83.25975,37.70235 84.4963,37.8056 85.771,37.7118 C91.8561,37.2638 96.46525,32.5283 96.0673,27.1341 C95.7089,22.25195 91.36785,18.50555 86.03665,18.1706" id="Fill-7" fill="#E6F3F0"></path>
        <path d="M34.3406,155.22815 C34.3952,155.1711 34.4484,155.1116 34.49915,155.0521 C34.58245,155.1774 34.67275,155.29885 34.76585,155.4161 C34.6276,155.3475 34.4855,155.2852 34.3406,155.22815 Z M44.982,152.14885 C44.62465,152.1793 44.2827,152.25315 43.95685,152.3599 C43.9621,152.16285 43.95755,151.96335 43.94005,151.7628 C43.6961,148.925 41.1971,146.82255 38.35895,147.06825 C36.79655,147.20265 35.45815,148.01955 34.6108,149.20045 C33.6826,148.02865 32.2028,147.33075 30.6019,147.46865 C28.65695,147.63595 27.1005,148.98835 26.57795,150.7527 C25.9952,150.5861 25.375,150.5203 24.7352,150.5749 C21.92435,150.8178 19.84115,153.2923 20.0837,156.10245 C20.32625,158.9126 22.80215,160.99475 25.6123,160.7536 C26.1359,160.70845 26.6343,160.5856 27.09595,160.3987 C27.09945,160.47325 27.1033,160.5485 27.1096,160.6241 C27.3616,163.5452 29.9348,165.7082 32.8559,165.45725 C34.55235,165.31095 35.9926,164.3803 36.85465,163.0559 C37.7489,163.75555 38.90145,164.13215 40.12365,164.0268 C41.99265,163.86615 43.50745,162.62155 44.1056,160.9657 C44.6264,161.11725 45.1829,161.1792 45.75515,161.1295 C48.2356,160.91565 50.07415,158.73235 49.8603,156.2519 C49.6461,153.77215 47.4621,151.935 44.982,152.14885 L44.982,152.14885 Z" id="Fill-8" fill="#E6F3F0"></path>
        <path d="M134.04195,49.40145 L127.6366,57.79445 C125.98565,59.90985 118.2174,63.56735 121.5536,66.7534 C125.6101,70.62545 130.57275,70.7917 132.14145,69.0928 L143.3628,56.6678 C145.05085,54.62205 147.4214,50.7332 143.90005,47.3739 C139.84215,43.5057 135.60575,47.69905 134.04195,49.40145" id="Fill-9" fill="#6E3F1E"></path>
        <path d="M71.8767,78.1858 C71.6352,91.65695 70.53095,121.36845 70.53095,121.36845 C70.53095,121.36845 70.0476,127.48505 72.46855,130.23885 C74.89055,132.9937 78.5225,134.20365 78.5225,134.20365 L72.4605,146.79735 L109.0334,154.53585 L127.197,128.63375 L79.86895,84.39515 C79.86895,84.39515 81.1769,77.4942 71.8767,78.1858" id="Fill-10" fill="#6E3F1E"></path>
        <path d="M127.12245,40.355 L84.90545,40.355 C82.0449,40.355 79.72475,42.67375 79.72475,45.5364 L79.72475,126.26565 C79.72475,129.12865 82.0449,131.4474 84.90545,131.4474 L127.12245,131.4474 C129.9858,131.4474 132.3049,129.12865 132.3049,126.26565 L132.3049,45.5364 C132.3049,42.67375 129.9858,40.355 127.12245,40.355" id="Fill-11" fill="#1C1B19"></path>
        <polygon id="Fill-12" fill="#FFFBF2" points="82.9633 118.6703 129.0667 118.6703 129.0667 51.80455 82.9633 51.80455"></polygon>
        <path d="M106.015,44.75345 C104.9461,44.75345 104.07915,45.62075 104.07915,46.6886 C104.07915,47.75785 104.9461,48.6248 106.015,48.6248 C107.0846,48.6248 107.9512,47.75785 107.9512,46.6886 C107.9512,45.62075 107.0846,44.75345 106.015,44.75345" id="Fill-13" fill="#3A3A39"></path>
        <path d="M109.36555,122.99 L102.6627,122.99 C101.48635,122.99 100.5319,123.9455 100.5319,125.12395 C100.5319,126.30135 101.48635,127.25405 102.6627,127.25405 L109.36555,127.25405 C110.5426,127.25405 111.4974,126.30135 111.4974,125.12395 C111.4974,123.9455 110.5426,122.99 109.36555,122.99" id="Fill-14" fill="#3A3A39"></path>
        <path d="M129.682,105.93135 L127.63485,108.5119 C125.98425,110.62765 124.0281,114.28585 127.3657,117.4733 C131.42255,121.34465 135.6572,117.1513 137.22415,115.45275 L139.0025,113.19875 C140.6902,111.15335 143.0618,107.2652 139.5387,103.90415 C135.48185,100.0349 131.2451,104.22965 129.682,105.93135" id="Fill-15" fill="#6E3F1E"></path>
        <path d="M129.682,89.31265 L127.6366,91.8953 C125.98425,94.00895 124.02915,97.66645 127.3657,100.8553 C131.42255,104.727 135.6572,100.5333 137.2252,98.83405 L139.0032,96.58075 C140.69055,94.53395 143.0618,90.6465 139.54115,87.2865 C135.48185,83.4183 131.24685,87.6134 129.682,89.31265" id="Fill-16" fill="#6E3F1E"></path>
        <path d="M129.682,72.5655 L127.6366,75.145 C125.98565,77.2597 124.02915,80.91965 127.3671,84.10605 C131.42395,87.97565 135.6579,83.78405 137.22625,82.08515 L139.00495,79.8315 C140.69195,77.7847 143.0618,73.89795 139.54115,70.5376 C135.4829,66.6694 131.24685,70.86275 129.682,72.5655" id="Fill-17" fill="#6E3F1E"></path>
        <polyline id="Fill-18" fill="#7E22CE" points="71.19525 134.63275 32.72045 208.6 86.8721 208.6 113.59845 157.21685 71.19525 134.63275"></polyline>
        <polyline id="Fill-19" fill="#A855F7" points="70.8267 134.3643 32.21295 208.6 59.28755 208.6 92.0241 145.65985 70.8267 134.3643"></polyline>
        <polyline id="Fill-20" fill="#9333EA" points="59.73205 155.7157 102.41175 178.437 105.0602 173.6231 62.55445 150.2893 59.73205 155.7157"></polyline>
        <polyline id="Fill-21" fill="#581C87" points="80.93435 167.0032 102.41175 178.437 105.0602 173.6231 83.6143 161.85015 80.93435 167.0032"></polyline>
        <path d="M115.51855,157.7478 L69.53415,133.0714 C68.91535,132.73925 68.14535,132.97165 67.8125,133.58975 L59.75025,148.61455 C59.41775,149.233 59.6505,150.00405 60.27,150.33655 L106.25475,175.0126 C106.87355,175.3444 107.64425,175.112 107.9764,174.4932 L116.03865,159.4691 C116.37115,158.85065 116.1377,158.0803 115.51855,157.7478" id="Fill-22" fill="#A855F7"></path>
        <path d="M115.51855,157.7478 L92.21205,145.2409 L83.174,162.6275 L106.25475,175.0126 C106.87355,175.3444 107.64425,175.112 107.9764,174.4932 L116.03865,159.4691 C116.37115,158.85065 116.1377,158.0803 115.51855,157.7478" id="Fill-23" fill="#9333EA"></path>
        <path d="M106.8039,68.2423 C97.664,68.2423 90.2545,75.65005 90.2545,84.7917 C90.2545,93.9316 97.664,101.3411 106.8039,101.3411 C115.9452,101.3411 123.35295,93.9316 123.35295,84.7917 C123.35295,75.65005 115.9452,68.2423 106.8039,68.2423" id="Fill-24" fill="#EAEAE6"></path>
        <polyline id="Fill-25" fill="#EAEAE6" points="90.2545 102.27175 107.5403 97.51875 97.2426 89.31125 90.2545 102.27175"></polyline>
        <path d="M112.021,76.9545 C109.8125,76.93035 107.8749,78.12525 106.848,79.91305 C105.88515,78.15535 104.02735,76.9538 101.88045,76.93035 C98.7147,76.895 96.12015,79.43285 96.08515,82.59895 C96.0694,84.0098 96.56535,85.30725 97.39975,86.3156 C98.74515,88.36065 106.86725,95.3134 106.86725,95.3134 C106.86725,95.3134 115.02155,88.54055 116.68405,86.3485 C117.3991,85.386 117.8282,84.19705 117.84255,82.90625 C117.87825,79.6551 115.2718,76.99055 112.021,76.9545" id="Fill-26" fill="#AC252A"></path>
        <path d="M101.88045,76.93035 C98.7147,76.895 96.12015,79.43285 96.08515,82.59895 C96.0694,84.0098 96.56535,85.30725 97.39975,86.3156 C98.74515,88.36065 106.86725,95.3134 106.86725,95.3134 L106.848,79.91305 C105.88515,78.15535 104.02735,76.9538 101.88045,76.93035" id="Fill-27" fill="#CE232A"></path>
        <path d="M70.49175,143.5791 C69.12185,143.5791 68.01165,144.68895 68.01165,146.0585 C68.01165,147.4284 69.12185,148.5386 70.49175,148.5386 C71.8613,148.5386 72.97115,147.4284 72.97115,146.0585 C72.97115,144.68895 71.8613,143.5791 70.49175,143.5791" id="Fill-28" fill="#57534E"></path>
    </g>
</svg>