<?xml version="1.0" encoding="UTF-8"?>
<svg width="324px" height="292px" viewBox="0 0 324 292" version="1.1" xmlns="http://www.w3.org/2000/svg" xmlns:xlink="http://www.w3.org/1999/xlink">
    <title>vector-set-of-animals-reading-a-book</title>
    <g id="vector-set-of-animals-reading-a-book" stroke="none" stroke-width="1" fill="none" fill-rule="evenodd">
        <path d="M234.185,41.816 C230.025,36.303 222.957,37.211 217.189,39.307 C212.557,40.99 207.951,42.821 203.353,44.603 C201.073,45.486 198.749,46.375 196.568,47.483 C194.331,48.62 192.309,50.473 189.693,50.371 C188.455,50.323 187.474,50.681 186.74,51.276 C171.536,45.694 153.506,45.485 138.477,50.365 C137.631,50.64 136.801,50.944 135.979,51.261 C135.506,50.933 134.928,50.681 134.228,50.54 C132.101,50.113 130.107,48 128.177,47.001 C125.65,45.693 123.059,44.542 120.55,43.192 C115.708,40.585 110.873,37.97 105.72,36.016 C99.847,33.788 87.026,30.711 85.922,40.247 C85.546,43.496 86.883,46.901 87.927,49.919 C89.183,53.554 90.152,57.272 91.217,60.966 C93.647,69.397 96.646,77.539 102.071,84.406 C100.817,86.727 99.645,89.081 98.555,91.444 C96.304,96.324 95.798,100.71 95.564,106.031 C95.321,111.548 95.038,116.362 96.317,121.734 C97.568,126.982 98.037,132.14 100.654,137.136 C103.128,141.86 106.936,146.058 110.999,149.467 C117.847,155.213 126.382,160.813 135.19,163.818 C141.727,166.671 148.748,168.466 155.74,169.693 C166.101,171.512 176.43,173.026 186.79,170.383 C196.436,167.921 205.221,162.65 212.98,156.524 C229.135,143.773 232.527,117.502 227.689,98.689 C227.357,97.399 226.977,96.117 226.572,94.839 C226.829,94.282 226.986,93.637 227.009,92.901 C227.013,91.47 228.867,90.008 229.583,88.823 C230.658,87.044 231.275,85.035 231.865,83.052 C233.357,78.042 234.166,72.853 235.218,67.738 C236.828,59.903 239.485,48.839 234.185,41.816" id="Fill-3" fill="#594E47"></path>
        <path d="M126.038,57.738 C123.052,54.641 117.656,52.961 113.91,51.059 C110.095,49.121 105.305,44.427 100.823,44.548 C86.928,44.924 103.158,68.573 104.224,73.75 C104.919,77.135 108.163,77.779 110.61,76.614 C111.199,76.54 111.764,76.386 112.256,76.149 C115.245,74.709 116.861,71.696 119.576,69.896 C122.353,68.056 125.166,66.522 126.777,63.466 C127.777,61.569 127.543,59.299 126.038,57.738" id="Fill-4" fill="#957F72"></path>
        <path d="M229.264,52.799 C227.969,47.157 222.063,46.683 217.631,48.943 C214.885,50.342 212.637,52.252 209.727,53.368 C206.446,54.626 203.164,55.672 200.021,57.276 C198.514,58.047 197.73,59.756 197.723,61.409 C197.443,62.735 197.766,64.188 199.035,65.436 C204.78,71.088 211.093,76.101 217.065,81.503 C218.703,82.985 220.844,83.248 222.794,82.242 C227.005,80.072 226.846,74.19 227.577,70.134 C228.152,66.939 227.685,63.781 228.448,60.636 C229.055,58.132 229.859,55.393 229.264,52.799" id="Fill-5" fill="#957F72"></path>
        <path d="M178.166,139.091 C174.789,141.781 173.6,147.103 168.402,143.242 C166.089,141.523 165.018,138.606 164.371,135.707 C164.39,134.622 164.366,133.519 164.333,132.38 C165.843,131.817 167.535,131.451 168.892,130.578 C171.374,128.979 173.263,126.787 173.041,123.679 C172.601,117.497 164.757,117 160.051,116.68 C155.396,116.363 148.984,117.487 149.068,123.47 C149.106,126.226 151.009,128.192 152.782,130.042 C153.469,130.757 154.086,131.455 154.737,132.091 C154.504,132.802 154.426,133.6 154.569,134.474 C154.665,135.057 154.775,135.642 154.893,136.227 C154.717,138.663 153.999,140.865 151.668,142.949 C150.112,144.34 148.15,145.552 145.965,145.258 C145.029,145.132 144.223,144.712 143.418,144.258 C143.127,144.094 141.41,142.501 141.743,143.371 C139.591,137.745 130.447,140.187 132.627,145.884 C135.66,153.815 146.378,156.669 153.612,153.039 C155.967,151.857 158.152,150.091 159.918,148.02 C161.408,149.854 163.259,151.397 165.582,152.474 C168.935,154.027 172.964,154.587 176.511,153.374 C180.63,151.965 181.748,148.248 184.852,145.776 C189.608,141.986 182.88,135.335 178.166,139.091" id="Fill-6" fill="#40352F"></path>
        <path d="M132.44,92.508 C131.911,90.409 130.142,89.408 128.196,89.091 C127.996,89.047 127.79,89.013 127.575,89 C127.56,88.998 127.545,88.996 127.53,88.994 C127.011,88.929 126.497,89.005 126.009,89.176 C124.013,89.729 122.103,91.495 122.364,93.721 C122.379,93.797 122.378,93.875 122.383,93.952 C122.362,94.088 122.348,94.225 122.328,94.297 C122.181,94.844 121.997,95.38 121.879,95.935 C121.444,97.958 121.557,100.004 122.66,101.808 C123.482,103.153 125.093,104.275 126.741,104.149 C132.704,103.695 133.636,97.25 132.44,92.508" id="Fill-7" fill="#282120"></path>
        <path d="M200.561,91.832 C199.023,90.148 196.721,90.269 194.833,91.092 C194.011,91.451 193.346,92.012 192.648,92.573 C191.314,93.645 191.012,95.645 191.51,97.313 C191.184,99.147 191.061,100.928 191.51,102.849 C191.996,104.938 194.041,106.222 196.067,106.319 C202.848,106.645 204.166,95.779 200.561,91.832" id="Fill-8" fill="#282120"></path>
        <path d="M105.148,116.203 C90.145,115.83 75.443,112.292 60.386,112.25298 C54.302,112.237 54.293,121.691 60.386,121.707 C75.442,121.746 90.146,125.284 105.148,125.657 C111.234,125.808 111.231,116.354 105.148,116.203" id="Fill-9" fill="#4E3B2F"></path>
        <path d="M104.331,132.609 C101.348,133.167 98.265,135.206 95.617,136.596 C91.934,138.53 88.342,140.631 84.645,142.539 C76.953,146.509 69.072,150.055 61.95,155.028 C56.997,158.486 61.717,166.686 66.722,163.191 C73.386,158.538 80.702,155.127 87.928,151.462 C91.398,149.703 94.78,147.793 98.197,145.937 C100.819,144.513 103.89,142.277 106.845,141.726 C112.817,140.609 110.288,131.496 104.331,132.609" id="Fill-10" fill="#4E3B2F"></path>
        <path d="M259.245,121.199 C244.549,123.496 229.705,124.992 215.36,129.098 C209.521,130.77 212.004,139.895 217.874,138.215 C232.218,134.108 247.062,132.612 261.759,130.315 C267.752,129.378 265.207,120.267 259.245,121.199" id="Fill-11" fill="#4E3B2F"></path>
        <path d="M249.91,159.379 C243.252,157.26 237.381,153.393 231.091,150.43 C224.459,147.306 217.657,144.546 210.852,141.825 C205.203,139.566 202.749,148.706 208.339,150.941 C215.406,153.768 222.501,156.608 229.303,160.037 C235.286,163.053 240.975,166.452 247.396,168.495 C253.208,170.345 255.695,161.22 249.91,159.379" id="Fill-12" fill="#4E3B2F"></path>
        <path d="M156.959,53.451 L153.188,53.451 C150.716,53.451 148.347,55.625 148.461,58.178 C148.576,60.739 150.538,62.905 153.188,62.905 L156.959,62.905 C159.432,62.905 161.801,60.73 161.686,58.178 C161.571,55.617 159.609,53.451 156.959,53.451" id="Fill-13" fill="#736E6C"></path>
        <path d="M176.327,68.033 C175.402,67.184 174.266,66.648 172.984,66.648 L171.1,66.648 C169.888,66.648 168.614,67.176 167.757,68.033 C166.936,68.853 166.319,70.198 166.372,71.375 C166.427,72.598 166.828,73.866 167.757,74.718 C168.682,75.567 169.818,76.103 171.1,76.103 L172.984,76.103 C174.196,76.103 175.47,75.575 176.327,74.718 C177.147,73.898 177.765,72.553 177.712,71.375 C177.657,70.153 177.256,68.885 176.327,68.033" id="Fill-14" fill="#736E6C"></path>
        <path d="M141.448,68.976 C140.523,68.126 139.386,67.591 138.105,67.591 L137.163,67.591 C135.951,67.591 134.678,68.118 133.82,68.976 C133,69.795 132.383,71.141 132.435,72.318 C132.49,73.541 132.892,74.809 133.82,75.661 C134.745,76.51 135.882,77.045 137.163,77.045 L138.105,77.045 C139.317,77.045 140.591,76.518 141.448,75.661 C142.268,74.841 142.886,73.496 142.832,72.318 C142.777,71.096 142.376,69.828 141.448,68.976" id="Fill-15" fill="#736E6C"></path>
        <path d="M109.396,96.313 C108.577,95.494 107.231,94.876 106.055,94.929 C103.875,95.026 102.079,96.428 101.52,98.438 C100.793,99.213 100.385,100.572 100.385,101.542 C100.385,102.701 100.899,104.085 101.769,104.884 C102.67,105.711 103.853,106.325 105.111,106.269 C105.53,106.212 105.949,106.156 106.368,106.1 C107.169,105.875 107.864,105.47 108.454,104.884 C110,103.653 110.746,101.579 110.781,99.656 C110.803,98.458 110.238,97.155 109.396,96.313" id="Fill-16" fill="#736E6C"></path>
        <path d="M238.687,124.84 C238.653,119.946 239.418,109.946 231.129,110.049195 C223.074,110.151 215.821,116.369 210.19,120.608 C196.323,131.049 184.75,143.622 172.583,155.484 C169.657,158.337 166.929,161.337 163.92,164.128 C162.99,164.99 161.581,166.894 160.339,167.501 C159.973,167.68 159.745,167.806 159.603,167.894 C159.635,167.799 159.569,167.681 159.205,167.586 C158.152,167.314 156.718,165.98 155.962,165.357 C149.499,160.033 142.89,154.763 136.125,149.689 C128.17,143.723 120.346,137.604 112.096,131.937 C105.744,127.572 99.002,123.679 92.504,119.49 C88.267,116.759 81.52,112.923 76.747,117.022 C70.817,122.114 72.27,131.986 72.319,138.405 C71.286,138.966 70.571,139.942 70.631,141.342 C70.958,149.023 77.209,153.474 83.232,158.373 C86.135,160.734 88.32,163.551 90.86,166.183 C94.159,169.601 97.796,172.8 101.213,176.135 C107.395,182.167 113.471,188.649 120.7,193.788 C127.523,198.638 135.467,203.157 143.54,206.267 C147.268,207.703 151.048,209.242 155.07,209.959 C159.745,210.793 164.8,210.62 169.522,210.177 C178.571,209.33 184.513,205.706 190.987,200.528 C203.83,190.26 216.739,179.468 227.345,167.401 C232.292,161.771 236.548,155.654 237.028,148.482 C237.274,144.815 238.055,141.226 238.411,137.57 C238.823,133.345 238.718,129.076 238.687,124.84" id="Fill-17" fill="#FDFAE1"></path>
        <path d="M245.525,113.468 C244.263,112.775 242.532,112.833 241.264,113.468 C238.597,114.8 236.797,116.882 234.459,118.56 C231.477,120.699 228.284,122.609 225.322,124.775 C219.752,128.849 214.478,133.207 208.833,137.206 C203.022,141.321 197.014,145.223 191.17,149.303 C188.324,151.289 185.596,153.326 183.009,155.56 C180.323,157.88 177.406,159.667 174.515,161.761 C173.994,162.138 173.632,162.549 173.406,162.972 C173.287,162.951 173.179,162.923 173.056,162.906 C166.257,161.958 160.062,165.462 153.434,165.056 C152.932,165.025 152.477,165.06 152.068,165.148 C149.768,163.465 146.853,162.393 144.27,161.085 C141.067,159.464 138.008,157.685 135.04,155.761 C128.674,151.633 122.204,147.663 115.524,143.916 C108.27,139.846 100.936,135.459 92.972,132.487 C85.165,129.574 78.874,126.677 72.817,121.438 C71.284,120.112 69.413,120.137 67.96,120.854 C65.985,120.954 64.177,122.11 64.251,124.34 C64.283,125.287 63.603,126.267 63.374,127.201 C63.04,128.564 62.952,129.934 63.098,131.317 C63.475,134.881 64.315,138.295 64.384,141.901 C64.505,148.243 63.577,154.793 64.545,161.09 C65.014,164.134 65.717,166.941 65.63,170.034 C65.534,173.451 66.488,176.434 66.922,179.782 C67.759,186.228 66.567,192.752 67.419,199.231 C68.14,204.716 67.894,210.123 68.392,215.598 C68.849,220.61 70.542,225.194 75.15,228.508 C80.184,232.127 86.03,235.182 91.395,238.438 C97.762,242.303 104.052,246.362 110.173,250.512 C116.827,255.023 123.381,258.715 130.97,261.986 C134.206,263.381 136.986,265.188 140.01,266.874 C140.957,267.401 142.307,267.835 143.601,268.337 C144.638,268.987 145.648,269.564 146.694,270.048 C146.718,270.071 146.736,270.096 146.759,270.12 C146.745,270.403 146.765,270.698 146.828,271.007 C146.891,271.308 146.953,271.609 147.016,271.911 C147.281,273.193 148.652,274.042 149.965,274.448 C154.516,275.856 158.538,274.353 162.935,273.73 C165.192,273.411 167.089,273.92 169.317,273.043 C171.507,272.182 173.061,270.771 174.051,268.898 C174.152,268.706 174.242,268.512 174.326,268.318 C176.156,267.326 178.511,266.875 180.315,265.83 C183.087,264.225 185.286,262.108 187.824,260.268 C190.463,258.356 193.533,257.008 196.442,255.442 C199.897,253.582 202.941,251.215 206.324,249.256 C212.791,245.51 220.007,242.555 226.176,238.465 C231.387,235.01 237.264,231.052 241.574,226.779 C246.468,221.929 244.644,216.253 245.302,210.368 C245.674,207.029 246.518,203.763 246.743,200.407 C246.987,196.771 246.799,193.126 246.736,189.488 C246.618,182.484 247.913,175.606 247.679,168.601 C247.445,161.624 248.054,154.809 248.735,147.862 C249.437,140.697 249.782,133.546 250.214,126.373 C250.496,121.669 250.703,116.306 245.525,113.468" id="Fill-18" fill="#79BC57"></path>
        <path d="M173.932,252.665 C173.249,248.124 172.526,243.579 172.309,239 C172.047,233.477 173.412,228.149 173.383,222.658 C173.36,218.339 174.199,214.138 174.219,209.841 C174.227,207.851 174.013,205.867 173.976,203.878 C173.931,201.469 174.614,199.224 174.795,196.838 C175.199,191.499 174.707,185.948 174.707,180.587 C174.707,175.767 174.826,170.96 174.954,166.15 C175.057,162.294 172.474,159.477 167.702,160.186 C162.498,160.959 157.158,161.435 151.911,162.043 C150.388,162.22 149.483,162.913 149.089,163.799 C148.457,164.375 148.053,165.174 148.053,166.199 C148.053,186.785 148.731,207.411 146.867,227.933 C146.407,232.989 145.397,237.945 144.582,242.959 C143.894,247.183 143.943,251.671 143.651,255.95 C143.362,260.191 142.831,265.101 143.626,269.278 C144.204,272.322 146.443,274.507 149.82,275.52 C152.63,276.362 155.717,276.38 158.658,276.32 C160.411,276.284 162.207,276.351 163.952,276.276 C166.356,276.174 168.269,275.21 170.467,274.551 C174.039,273.481 176.171,271.182 176.331,267.822 C176.564,262.933 174.661,257.514 173.932,252.665" id="Fill-19" fill="#6D9D46"></path>
        <path d="M161.943,114.652 C157.412,114.426 151.327,115.122 148.918,119.557 C147.472,122.219 148.05,125.386 149.716,127.795 C150.612,129.092 151.907,129.895 152.927,131.062 C154.046,132.342 154.943,133.791 156.12,135.034 C158.007,137.029 160.396,136.764 162.073,135.471 C166.876,134.278 173.289,130.56 174.205,125.647 C175.425,119.108 167.342,114.921 161.943,114.652" id="Fill-20" fill="#403332"></path>
    </g>
</svg>