<?xml version="1.0" encoding="UTF-8"?>
<svg width="211px" height="163px" viewBox="0 0 211 163" version="1.1" xmlns="http://www.w3.org/2000/svg" xmlns:xlink="http://www.w3.org/1999/xlink">
    <title>Artboard</title>
    <defs>
        <filter id="filter-1">
            <feColorMatrix in="SourceGraphic" type="matrix" values="0 0 0 0 1.000000 0 0 0 0 0.614742 0 0 0 0 0.825469 0 0 0 1.000000 0"></feColorMatrix>
        </filter>
    </defs>
    <g id="Artboard" stroke="none" stroke-width="1" fill="none" fill-rule="evenodd">
        <g filter="url(#filter-1)" id="blob-(5)">
            <g transform="translate(87.723473, 88.033953) rotate(166.000000) translate(-87.723473, -88.033953) translate(20.723473, 28.033953)">
                <path d="M102.561382,18.6624084 C107.227798,24.3498419 103.727986,37.3097313 110.197336,48.777835 C116.666686,60.3391752 133.317308,70.4087296 133.741528,77.9608954 C134.165748,85.5130612 118.575675,90.641075 105.53092,97.0744014 C92.5922195,103.507728 82.3048923,111.339603 68.199588,116.001434 C53.9882288,120.663265 36.0649474,122.155051 30.8682564,113.484046 C25.6715653,104.81304 33.3075195,85.9792442 28.3229383,71.0613859 C23.3383571,56.2367641 5.62718558,45.2348436 1.17287896,32.0884809 C-3.28142765,18.9421182 5.41507574,3.55807682 19.4143251,0.574505152 C33.3075195,-2.40906652 52.7155698,7.00783157 68.8359175,10.9237694 C84.9562653,14.7464706 97.8949654,13.0682115 102.561382,18.6624084 Z" id="Path" fill="#FF0066" fill-rule="nonzero"></path>
            </g>
        </g>
        <g id="BlockNotes_02" transform="translate(72.750000, 33.750000)" fill="#030404" fill-rule="nonzero">
            <g id="Group">
                <g transform="translate(0.000000, 15.250000)">
                    <g id="Group-2" transform="translate(0.047917, 0.179767)">
                        <path d="M87.8520833,62.5452332 C87.8270833,62.3952332 87.7020833,62.2952332 87.5770833,62.2952332 C87.2520833,61.4952332 87.4020833,60.1702332 87.3270833,59.3952332 C87.2020833,58.0952332 87.1270833,56.8202332 87.1520833,55.5202332 C87.1770833,52.9952332 87.2270833,50.4702332 87.1020833,47.9452332 C86.9020833,42.8702332 86.9020833,37.8202332 86.9020833,32.7452332 C86.9020833,30.1952332 87.1020833,27.6452332 87.0520833,25.0952332 C87.0020833,22.5452332 87.3520833,20.0952332 87.6520833,17.5952332 C87.9270833,15.1952332 87.9020833,12.7702332 88.0520833,10.3702332 C88.2020833,8.1202332 88.0270833,5.8702332 88.0270833,3.5952332 C88.0270833,2.3452332 88.5020833,0.395233196 86.8270833,0.120233196 C84.3770833,-0.279766804 81.8020833,0.520233196 79.3520833,0.195233196 C77.2520833,-0.0797668038 75.0020833,0.0452331962 72.9020833,0.0952331962 C70.4520833,0.170233196 68.0270833,0.220233196 65.5770833,0.220233196 C60.5020833,0.220233196 55.4270833,0.0952331962 50.3270833,0.0702331962 C45.0020833,0.0702331962 39.6520833,-0.129766804 34.3270833,0.145233196 C28.5270833,0.445233196 22.8770833,1.1952332 17.0520833,0.620233196 C15.6520833,0.470233196 14.2270833,0.245233196 12.8270833,0.195233196 C11.4520833,0.145233196 10.0770833,0.370233196 8.70208333,0.345233196 C7.27708333,0.320233196 5.85208333,0.470233196 4.45208333,0.645233196 C3.27708333,0.795233196 1.97708333,1.2202332 0.752083333,1.0702332 C0.627083333,0.895233196 0.377083333,0.795233196 0.202083333,0.995233196 C0.177083333,1.0452332 0.127083333,1.0702332 0.102083333,1.1202332 C-0.0729166667,1.3202332 -0.0229166667,1.6702332 0.252083333,1.7452332 C0.302083333,3.5702332 0.152083333,5.3702332 0.127083333,7.1952332 C0.0770833333,9.2202332 0.277083333,11.2702332 0.227083333,13.3202332 C0.152083333,17.5452332 0.202083333,21.7452332 0.252083333,25.9952332 C0.302083333,30.3202332 0.0520833333,34.6202332 0.0770833333,38.9202332 C0.102083333,43.0702332 -0.0979166667,47.2702332 0.0770833333,51.3952332 C0.127083333,52.4702332 0.227083333,53.5452332 0.252083333,54.6202332 C0.252083333,55.6952332 0.127083333,56.7702332 0.127083333,57.8452332 C0.127083333,59.9702332 -0.122916667,62.2452332 0.152083333,64.3452332 C0.152083333,64.4202332 0.227083333,64.4952332 0.302083333,64.5452332 C0.377083333,64.7452332 0.602083333,64.8702332 0.827083333,64.7202332 C1.97708333,63.8952332 4.27708333,64.1702332 5.65208333,63.9952332 C7.12708333,63.7952332 8.57708333,63.5952332 10.0770833,63.6452332 C13.0020833,63.7702332 15.9520833,63.9952332 18.8770833,64.0452332 C24.9520833,64.1952332 31.0270833,64.2702332 37.1020833,64.4702332 C40.3020833,64.5702332 43.5020833,64.2952332 46.7270833,64.3702332 C49.8520833,64.4452332 52.9520833,64.7702332 56.0770833,64.9452332 C59.2020833,65.1202332 62.3270833,65.4702332 65.4770833,65.6702332 C68.5770833,65.8702332 71.6770833,65.7452332 74.7770833,65.8702332 C78.2520833,65.9952332 81.7020833,66.0952332 85.1520833,65.8702332 C85.9270833,65.8202332 87.5520833,66.0702332 88.1020833,65.3702332 C88.6020833,64.7702332 88.0020833,63.1702332 87.8520833,62.5452332 Z M87.4770833,64.7452332 C87.3020833,65.0702332 86.7520833,65.0952332 86.4270833,65.1202332 C84.7770833,65.3452332 83.0520833,65.3202332 81.3770833,65.3202332 C78.3770833,65.3202332 75.3770833,65.1202332 72.3770833,65.1702332 C66.3020833,65.2452332 60.2270833,64.6202332 54.1770833,64.1452332 C51.2020833,63.9202332 48.2270833,63.6702332 45.2270833,63.6452332 C42.1770833,63.6202332 39.1270833,63.8702332 36.1020833,63.7202332 C30.2020833,63.4452332 24.2770833,63.4452332 18.3770833,63.3202332 C15.3020833,63.2452332 12.2270833,62.8702332 9.15208333,62.8952332 C9.10208333,62.8952332 9.07708333,62.8952332 9.02708333,62.8952332 C9.02708333,62.8702332 9.02708333,62.8452332 9.02708333,62.8452332 L9.02708333,61.2202332 C9.02708333,60.7452332 8.27708333,60.7452332 8.27708333,61.2202332 L8.27708333,62.8452332 C8.27708333,62.8702332 8.27708333,62.9202332 8.27708333,62.9452332 C6.92708333,63.0452332 5.60208333,63.2952332 4.25208333,63.4202332 C3.17708333,63.5202332 1.70208333,63.3952332 0.677083333,63.9202332 C0.677083333,63.9202332 0.677083333,63.9202332 0.677083333,63.9202332 C0.752083333,63.9452332 0.827083333,58.5952332 0.827083333,58.0952332 C0.827083333,56.1452332 1.00208333,54.2202332 0.852083333,52.2702332 C0.527083333,48.2702332 0.827083333,44.1452332 0.802083333,40.1452332 C0.777083333,35.9202332 1.05208333,31.6952332 0.977083333,27.4702332 C0.902083333,23.2452332 0.727083333,19.0202332 0.902083333,14.7952332 C1.00208333,12.5452332 1.02708333,10.2702332 0.877083333,8.0202332 C0.802083333,7.0202332 0.927083333,5.9952332 0.977083333,4.9952332 C1.02708333,3.9202332 1.02708333,2.9202332 1.00208333,1.8452332 C1.50208333,1.8452332 2.02708333,1.7952332 2.50208333,1.7452332 C3.72708333,1.5702332 4.92708333,1.3702332 6.17708333,1.2452332 C6.17708333,1.6202332 6.27708333,1.9452332 6.35208333,2.3202332 C6.42708333,2.7952332 6.37708333,3.2702332 6.37708333,3.7452332 C6.37708333,4.2202332 7.12708333,4.2202332 7.12708333,3.7452332 C7.12708333,3.2952332 7.17708333,2.8452332 7.12708333,2.3952332 C7.07708333,1.9952332 6.92708333,1.5952332 6.92708333,1.1702332 C6.92708333,1.1702332 6.92708333,1.1702332 6.92708333,1.1452332 C8.00208333,1.0702332 9.05208333,1.1202332 10.1270833,1.0702332 C11.4270833,0.970233196 12.6770833,0.895233196 13.9770833,1.0452332 C16.4270833,1.2952332 18.8770833,1.6202332 21.3270833,1.6702332 C23.8270833,1.7202332 26.3020833,1.5202332 28.7770833,1.3202332 C39.0020833,0.470233196 49.2520833,0.970233196 59.5270833,0.970233196 C62.0270833,0.970233196 64.5270833,0.970233196 67.0020833,0.970233196 C69.4270833,0.970233196 71.8270833,0.845233196 74.2520833,0.820233196 C75.3270833,0.820233196 76.3770833,0.820233196 77.4520833,0.820233196 C78.6770833,0.820233196 79.8770833,1.0452332 81.1020833,0.995233196 C82.3020833,0.945233196 83.4770833,0.820233196 84.6770833,0.820233196 C85.1270833,0.820233196 85.7020833,0.720233196 86.1520833,0.820233196 C87.1270833,1.0202332 87.2770833,1.6452332 87.2770833,2.5452332 C87.2770833,3.6202332 87.2770833,4.7202332 87.2770833,5.7952332 C87.2770833,6.9702332 87.4770833,8.1202332 87.4020833,9.3202332 C87.2770833,11.5452332 87.2520833,13.7702332 87.0770833,15.9952332 C86.8770833,18.4702332 86.3770833,20.8952332 86.3020833,23.3702332 C86.2270833,25.9202332 86.1770833,28.4702332 86.1770833,31.0452332 C86.1770833,36.5202332 86.1270833,42.0202332 86.3520833,47.4952332 C86.4770833,50.3452332 86.4270833,53.1702332 86.4020833,56.0202332 C86.4020833,57.3952332 86.5270833,58.7452332 86.6520833,60.1202332 C86.7270833,60.8452332 86.6270833,61.8452332 86.9020833,62.5702332 C86.9020833,62.5702332 86.9020833,62.5702332 86.9020833,62.5952332 C86.9020833,62.5952332 86.9020833,62.6202332 86.9020833,62.6202332 C86.9020833,62.6452332 86.9020833,62.6452332 86.9270833,62.6702332 C86.9520833,62.7452332 87.0020833,62.7952332 87.0270833,62.8702332 C87.0270833,62.8702332 87.0270833,62.8702332 87.0270833,62.8702332 C87.0270833,62.8702332 87.0270833,62.8952332 87.0520833,62.8952332 C87.0520833,62.8952332 87.0520833,62.8952332 87.0770833,62.9202332 C87.0770833,62.9202332 87.0770833,62.9202332 87.0770833,62.9452332 C87.1020833,62.9952332 87.1520833,63.0202332 87.2020833,63.0452332 C87.2270833,63.0452332 87.2270833,63.0702332 87.2520833,63.0702332 C87.3770833,63.5702332 87.6520833,64.3952332 87.4770833,64.7452332 Z" id="Shape"></path>
                    </g>
                    <path d="M6.6,6.675 L6.6,8.65 C6.6,9.125 7.35,9.125 7.35,8.65 L7.35,6.675 C7.35,6.2 6.6,6.2 6.6,6.675 Z" id="Path"></path>
                    <path d="M6.8,12.025 L6.8,14.4 C6.8,14.875 7.55,14.875 7.55,14.4 L7.55,12.025 C7.55,11.525 6.8,11.525 6.8,12.025 Z" id="Path"></path>
                    <path d="M7,18.15 L7,20.725 C7,21.2 7.75,21.2 7.75,20.725 L7.75,18.15 C7.75,17.675 7,17.675 7,18.15 Z" id="Path"></path>
                    <path d="M7.675,25.35 C7.425,24.8 7.6,24.1 7.6,23.55 C7.6,23.075 6.85,23.075 6.85,23.55 C6.85,24.3 6.725,25.025 7.025,25.75 C7.225,26.15 7.85,25.775 7.675,25.35 Z" id="Path"></path>
                    <path d="M7.1,28.525 L7.1,30.275 C7.1,30.75 7.85,30.75 7.85,30.275 L7.85,28.525 C7.85,28.05 7.1,28.05 7.1,28.525 Z" id="Path"></path>
                    <path d="M7.1,33.15 L7.1,35.025 C7.1,35.5 7.85,35.5 7.85,35.025 L7.85,33.15 C7.85,32.675 7.1,32.675 7.1,33.15 Z" id="Path"></path>
                    <path d="M7.225,37.4 L7.225,39.525 C7.225,40 7.975,40 7.975,39.525 L7.975,37.4 C7.975,36.925 7.225,36.925 7.225,37.4 Z" id="Path"></path>
                    <path d="M7.35,42.275 L7.35,44.525 C7.35,45 8.1,45 8.1,44.525 L8.1,42.275 C8.1,41.8 7.35,41.8 7.35,42.275 Z" id="Path"></path>
                    <path d="M8.3,47.1 C8.075,46.675 7.425,47.05 7.65,47.475 C7.9,47.975 7.725,48.625 7.725,49.15 C7.725,49.625 8.475,49.625 8.475,49.15 C8.475,48.45 8.625,47.75 8.3,47.1 Z" id="Path"></path>
                    <path d="M7.975,52.275 C7.95,53 7.85,53.7 7.75,54.425 C7.675,54.9 8.4,55.1 8.475,54.625 C8.6,53.85 8.725,53.075 8.75,52.275 C8.725,51.8 7.975,51.8 7.975,52.275 Z" id="Path"></path>
                    <path d="M8.9,57.95 C8.875,57.75 8.875,57.55 8.85,57.35 C8.825,57.15 8.725,56.975 8.725,56.775 C8.7,56.3 7.95,56.3 7.975,56.775 C7.975,56.975 8.05,57.1 8.075,57.275 C8.125,57.5 8.125,57.725 8.15,57.95 C8.2,58.35 8.225,58.75 8.225,59.15 C8.225,59.625 8.975,59.625 8.975,59.15 C8.975,58.75 8.95,58.35 8.9,57.95 Z" id="Path"></path>
                    <path d="M3.825,3.475 C3.775,3.425 3.725,3.375 3.625,3.375 C3.3,3.325 3,3.3 2.75,3.5 C2.5,3.675 2.325,4 2.3,4.325 C2.25,5 2.75,5.575 3.4,5.625 C4.7,5.7 4.9,3.825 3.825,3.475 Z M3.5,4.85 C3.025,4.875 2.9,4.1 3.325,4.075 C3.375,4.125 3.45,4.15 3.55,4.15 C3.925,4.175 3.875,4.85 3.5,4.85 Z" id="Shape"></path>
                    <path d="M3.825,6.675 C3.775,6.625 3.725,6.575 3.625,6.575 C3.3,6.525 3,6.5 2.75,6.7 C2.5,6.875 2.325,7.2 2.3,7.525 C2.25,8.2 2.75,8.775 3.4,8.825 C4.7,8.9 4.9,7.025 3.825,6.675 Z M3.5,8.05 C3.025,8.075 2.9,7.3 3.325,7.275 C3.375,7.325 3.45,7.35 3.55,7.35 C3.925,7.375 3.875,8.05 3.5,8.05 Z" id="Shape"></path>
                    <path d="M3.825,9.875 C3.775,9.825 3.725,9.775 3.625,9.775 C3.3,9.725 3,9.7 2.75,9.9 C2.5,10.075 2.325,10.4 2.3,10.725 C2.25,11.4 2.75,11.975 3.4,12.025 C4.7,12.1 4.9,10.225 3.825,9.875 Z M3.5,11.275 C3.025,11.3 2.9,10.525 3.325,10.5 C3.375,10.55 3.45,10.575 3.55,10.575 C3.925,10.575 3.875,11.25 3.5,11.275 Z" id="Shape"></path>
                    <path d="M3.825,13.075 C3.775,13.025 3.725,12.975 3.625,12.975 C3.3,12.925 3,12.9 2.75,13.1 C2.5,13.275 2.325,13.6 2.3,13.925 C2.25,14.6 2.75,15.175 3.4,15.225 C4.7,15.3 4.9,13.425 3.825,13.075 Z M3.5,14.475 C3.025,14.5 2.9,13.725 3.325,13.7 C3.375,13.75 3.45,13.775 3.55,13.775 C3.925,13.8 3.875,14.45 3.5,14.475 Z" id="Shape"></path>
                    <path d="M3.825,16.275 C3.775,16.225 3.725,16.175 3.625,16.175 C3.3,16.125 3,16.1 2.75,16.3 C2.5,16.475 2.325,16.8 2.3,17.125 C2.25,17.8 2.75,18.375 3.4,18.425 C4.7,18.5 4.9,16.625 3.825,16.275 Z M3.5,17.675 C3.025,17.7 2.9,16.925 3.325,16.9 C3.375,16.95 3.45,16.975 3.55,16.975 C3.925,17 3.875,17.65 3.5,17.675 Z" id="Shape"></path>
                    <path d="M3.825,19.475 C3.775,19.425 3.725,19.375 3.625,19.375 C3.3,19.325 3,19.3 2.75,19.5 C2.5,19.675 2.325,20 2.3,20.325 C2.25,21 2.75,21.575 3.4,21.625 C4.7,21.7 4.9,19.85 3.825,19.475 Z M3.5,20.875 C3.025,20.9 2.9,20.125 3.325,20.1 C3.375,20.15 3.45,20.175 3.55,20.175 C3.925,20.2 3.875,20.875 3.5,20.875 Z" id="Shape"></path>
                    <path d="M3.825,22.7 C3.775,22.65 3.725,22.6 3.625,22.6 C3.3,22.55 3,22.525 2.75,22.725 C2.5,22.9 2.325,23.225 2.3,23.55 C2.25,24.225 2.75,24.8 3.4,24.85 C4.7,24.925 4.9,23.05 3.825,22.7 Z M3.5,24.075 C3.025,24.1 2.9,23.325 3.325,23.3 C3.375,23.35 3.45,23.375 3.55,23.375 C3.925,23.4 3.875,24.075 3.5,24.075 Z" id="Shape"></path>
                    <path d="M3.825,25.9 C3.775,25.85 3.725,25.8 3.625,25.8 C3.3,25.75 3,25.725 2.75,25.925 C2.5,26.1 2.325,26.425 2.3,26.75 C2.25,27.425 2.75,28 3.4,28.05 C4.7,28.125 4.9,26.25 3.825,25.9 Z M3.5,27.275 C3.025,27.3 2.9,26.525 3.325,26.5 C3.375,26.55 3.45,26.575 3.55,26.575 C3.925,26.6 3.875,27.275 3.5,27.275 Z" id="Shape"></path>
                    <path d="M3.825,29.1 C3.775,29.05 3.725,29 3.625,29 C3.3,28.95 3,28.925 2.75,29.125 C2.5,29.3 2.325,29.625 2.3,29.95 C2.25,30.625 2.75,31.2 3.4,31.25 C4.7,31.325 4.9,29.45 3.825,29.1 Z M3.5,30.5 C3.025,30.525 2.9,29.75 3.325,29.725 C3.375,29.775 3.45,29.8 3.55,29.8 C3.925,29.8 3.875,30.475 3.5,30.5 Z" id="Shape"></path>
                    <path d="M3.825,32.3 C3.775,32.25 3.725,32.2 3.625,32.2 C3.3,32.15 3,32.125 2.75,32.325 C2.5,32.5 2.325,32.825 2.3,33.15 C2.25,33.825 2.75,34.4 3.4,34.45 C4.7,34.525 4.9,32.65 3.825,32.3 Z M3.5,33.7 C3.025,33.725 2.9,32.95 3.325,32.925 C3.375,32.975 3.45,33 3.55,33 C3.925,33.025 3.875,33.675 3.5,33.7 Z" id="Shape"></path>
                    <path d="M3.825,35.5 C3.775,35.45 3.725,35.4 3.625,35.4 C3.3,35.35 3,35.325 2.75,35.525 C2.5,35.7 2.325,36.025 2.3,36.35 C2.25,37.025 2.75,37.6 3.4,37.65 C4.7,37.725 4.9,35.85 3.825,35.5 Z M3.5,36.9 C3.025,36.925 2.9,36.15 3.325,36.125 C3.375,36.175 3.45,36.2 3.55,36.2 C3.925,36.225 3.875,36.875 3.5,36.9 Z" id="Shape"></path>
                    <path d="M3.825,38.7 C3.775,38.65 3.725,38.6 3.625,38.6 C3.3,38.55 3,38.525 2.75,38.725 C2.5,38.9 2.325,39.225 2.3,39.55 C2.25,40.225 2.75,40.8 3.4,40.85 C4.7,40.925 4.9,39.075 3.825,38.7 Z M3.5,40.1 C3.025,40.125 2.9,39.35 3.325,39.325 C3.375,39.375 3.45,39.4 3.55,39.4 C3.925,39.425 3.875,40.075 3.5,40.1 Z" id="Shape"></path>
                    <path d="M3.825,41.925 C3.775,41.875 3.725,41.825 3.625,41.825 C3.3,41.775 3,41.75 2.75,41.95 C2.5,42.125 2.325,42.45 2.3,42.775 C2.25,43.45 2.75,44.025 3.4,44.075 C4.7,44.15 4.9,42.275 3.825,41.925 Z M3.5,43.3 C3.025,43.325 2.9,42.55 3.325,42.525 C3.375,42.575 3.45,42.6 3.55,42.6 C3.925,42.625 3.875,43.3 3.5,43.3 Z" id="Shape"></path>
                    <path d="M3.825,45.125 C3.775,45.075 3.725,45.025 3.625,45.025 C3.3,44.975 3,44.95 2.75,45.15 C2.5,45.325 2.325,45.65 2.3,45.975 C2.25,46.65 2.75,47.225 3.4,47.275 C4.7,47.35 4.9,45.475 3.825,45.125 Z M3.5,46.5 C3.025,46.525 2.9,45.75 3.325,45.725 C3.375,45.775 3.45,45.8 3.55,45.8 C3.925,45.825 3.875,46.5 3.5,46.5 Z" id="Shape"></path>
                    <path d="M3.825,48.325 C3.775,48.275 3.725,48.225 3.625,48.225 C3.3,48.175 3,48.15 2.75,48.35 C2.5,48.525 2.325,48.85 2.3,49.175 C2.25,49.85 2.75,50.425 3.4,50.475 C4.7,50.55 4.9,48.675 3.825,48.325 Z M3.5,49.725 C3.025,49.75 2.9,48.975 3.325,48.95 C3.375,49 3.45,49.025 3.55,49.025 C3.925,49.025 3.875,49.7 3.5,49.725 Z" id="Shape"></path>
                    <path d="M3.825,51.525 C3.775,51.475 3.725,51.425 3.625,51.425 C3.3,51.375 3,51.35 2.75,51.55 C2.5,51.725 2.325,52.05 2.3,52.375 C2.25,53.05 2.75,53.625 3.4,53.675 C4.7,53.75 4.9,51.875 3.825,51.525 Z M3.5,52.925 C3.025,52.95 2.9,52.175 3.325,52.15 C3.375,52.2 3.45,52.225 3.55,52.225 C3.925,52.25 3.875,52.9 3.5,52.925 Z" id="Shape"></path>
                    <path d="M3.825,54.725 C3.775,54.675 3.725,54.625 3.625,54.625 C3.3,54.575 3,54.55 2.75,54.75 C2.5,54.925 2.325,55.25 2.3,55.575 C2.25,56.25 2.75,56.825 3.4,56.875 C4.7,56.95 4.9,55.075 3.825,54.725 Z M3.5,56.125 C3.025,56.15 2.9,55.375 3.325,55.35 C3.375,55.4 3.45,55.425 3.55,55.425 C3.925,55.45 3.875,56.1 3.5,56.125 Z" id="Shape"></path>
                    <path d="M3.825,57.925 C3.775,57.875 3.725,57.825 3.625,57.825 C3.3,57.775 3,57.75 2.75,57.95 C2.5,58.125 2.325,58.45 2.3,58.775 C2.25,59.45 2.75,60.025 3.4,60.075 C4.7,60.15 4.9,58.3 3.825,57.925 Z M3.5,59.325 C3.025,59.35 2.9,58.575 3.325,58.55 C3.375,58.6 3.45,58.625 3.55,58.625 C3.925,58.65 3.875,59.3 3.5,59.325 Z" id="Shape"></path>
                    <path d="M3.825,61.15 C3.775,61.1 3.725,61.05 3.625,61.05 C3.3,61 3,60.975 2.75,61.175 C2.5,61.35 2.325,61.675 2.3,62 C2.25,62.675 2.75,63.25 3.4,63.3 C4.7,63.375 4.9,61.5 3.825,61.15 Z M3.5,62.525 C3.025,62.55 2.9,61.775 3.325,61.75 C3.375,61.8 3.45,61.825 3.55,61.825 C3.925,61.85 3.875,62.525 3.5,62.525 Z" id="Shape"></path>
                </g>
                <path d="M108.225,77.475 C108.25,76.1 108,74.675 108.1,73.3 C108.2,72.075 108.075,70.875 107.875,69.65 C107.45,67.125 107.55,64.55 107.5,62 C107.475,60.625 107.375,59.275 107.35,57.9 C107.325,56.475 107.2,55 107.375,53.6 C107.7,51.05 107.875,48.425 107.9,45.85 C107.9,44.55 108.125,43.25 108.1,41.95 C108.075,40.65 107.975,39.35 107.975,38.075 C107.975,36.825 108.025,35.575 108,34.325 C107.95,32.9 108.2,31.525 108.15,30.125 C108.125,28.75 108.25,27.4 108.15,26 C108.05,24.45 107.6,22.925 107.575,21.35 C107.55,19.75 107.475,18.25 107.25,16.65 C107.05,15.175 107.125,13.725 107.125,12.225 C107.125,12.175 107.125,12.125 107.1,12.075 C107.175,12.025 107.225,12 107.275,11.95 C107.65,11.6 107.6,10.975 107.575,10.525 C107.525,9.325 107.35,8.175 107.4,6.975 C107.475,5.325 107.575,2.875 106.675,1.4 C106,0.3 103.775,0.225 102.625,0.175 C100.925,0.075 98.95,0.35 97.975,1.95 C97.575,2.6 97.7,3.225 97.725,3.95 C97.75,5.125 97.725,6.3 97.8,7.475 C97.8,7.55 97.825,7.625 97.875,7.675 C97.85,7.725 97.825,7.775 97.8,7.825 C97.55,8.45 97.775,9.35 97.775,10 C97.775,10.75 97.825,11.65 98.2,12.325 C98.025,13.325 98.375,14.675 98.475,15.7 C98.6,17.275 98.7,18.875 98.8,20.45 C98.975,23.475 99.15,26.55 99.525,29.575 C99.7,31.05 99.775,32.325 99.6,33.8 C99.425,35.35 99.325,36.875 99.125,38.425 C98.8,41.125 98.925,43.775 98.975,46.475 C99.05,49.375 98.65,52.25 98.625,55.15 C98.6,58.15 98.6,61.15 98.7,64.15 C98.75,65.5 99.25,66.825 99.125,68.2 C99,69.6 99.125,71 99.125,72.4 C99.15,73.775 99.275,75.125 99.45,76.5 C99.625,77.95 99.675,79.375 99.8,80.825 C99.9,81.975 99.65,83.125 100.275,84.15 C101.075,85.45 101.775,87.025 102.225,88.5 C102.65,89.85 103,91.225 103.5,92.55 C103.875,93.6 104.425,95.275 105.25,96.05 C105.45,96.225 105.725,96.125 105.825,95.925 C106.275,95.15 106.175,93.925 106.275,93.05 C106.425,91.7 106.475,90.35 106.875,89.05 C107.2,87.975 107.2,86.875 107.375,85.775 C107.5,85.125 107.7,84.475 107.825,83.825 C107.95,83.2 107.9,82.35 108.15,81.775 C108.2,81.675 108.2,81.525 108.125,81.425 C108.9,80.45 108.2,78.675 108.225,77.475 Z M99.05,1.875 C100.375,0.5 102.675,0.85 104.35,1.2 C104.7,1.275 105.1,1.3 105.425,1.425 C106.15,1.7 106.25,2.375 106.4,3.075 C106.575,3.95 106.625,4.875 106.65,5.775 C106.65,6.05 106.65,6.3 106.65,6.575 C104.825,6.5 103.125,6.85 101.3,7.075 C100.475,7.175 99.6,7.05 98.775,7.15 C98.7,7.15 98.6,7.175 98.525,7.2 C98.5,6.475 98.525,5.75 98.5,5.025 C98.475,3.95 98.225,2.725 99.05,1.875 Z M98.675,11.35 C98.525,10.9 98.55,10.375 98.55,9.925 C98.55,9.55 98.475,9.1 98.525,8.725 C98.425,8.4 98.525,8.125 98.85,7.9 C99,7.9 99.15,7.925 99.3,7.925 C99.95,7.825 100.7,7.9 101.375,7.825 C103.15,7.6 104.85,7.25 106.625,7.325 C106.625,7.6 106.6,7.9 106.6,8.175 C106.625,8.975 106.85,9.8 106.8,10.625 C106.775,11.125 106.775,11.275 106.375,11.525 C106.025,11.725 105.475,11.85 105.075,11.875 C104.225,11.95 103.325,11.975 102.475,12.025 C101.575,12.075 100.625,12.2 99.725,12.125 C99.15,12.025 98.9,11.95 98.675,11.35 Z M100.625,81.125 C100.5,79.825 100.525,78.55 100.35,77.25 C100.15,75.9 100,74.55 99.95,73.175 C99.825,70.525 100.025,67.95 99.625,65.325 C99.2,62.525 99.35,59.55 99.4,56.75 C99.425,53.875 99.65,51.05 99.75,48.175 C99.85,45.25 99.5,42.375 99.8,39.45 C100.075,36.925 100.55,34.35 100.575,31.8 C100.575,30.25 100.225,28.675 100.1,27.125 C99.95,25.425 99.8,23.725 99.675,22.05 C99.55,20.375 99.475,18.7 99.375,17.05 C99.325,16.25 99.25,15.475 99.175,14.675 C99.125,14.175 98.95,13.45 98.95,12.85 C98.975,12.85 99.025,12.85 99.05,12.875 C100.15,13 101.45,12.8 102.55,12.75 C102.675,12.75 102.775,12.75 102.9,12.725 C102.875,14.975 102.65,17.2 102.65,19.45 C102.65,21.65 102.4,23.825 102.375,26.025 C102.325,30.675 102.475,35.325 102.75,39.975 C103.025,44.6 103.35,49.25 103.625,53.875 C103.7,54.95 103.6,56.025 103.625,57.1 C103.65,58.3 103.85,59.475 103.875,60.65 C103.925,62.85 104.075,65 104.25,67.2 C104.475,69.75 104.2,72.275 104.25,74.8 C104.3,77.1 104.725,79.375 104.85,81.675 C104.85,81.7 104.85,81.75 104.875,81.775 C103.4,82.2 102.15,82.3 100.625,81.925 C100.65,81.65 100.65,81.375 100.625,81.125 Z M107.275,82.9 C107.2,83.5 107.075,84.075 106.925,84.65 C106.625,85.9 106.625,87.175 106.325,88.425 C106.05,89.525 105.875,90.5 105.75,91.625 C105.625,91.625 105.5,91.675 105.425,91.75 C105.475,91.7 105.425,91.75 105.4,91.775 C105.375,91.775 105.325,91.8 105.325,91.8 C105.25,91.825 105.175,91.825 105.1,91.825 C105.025,91.825 104.95,91.825 104.875,91.8 C104.825,91.8 104.85,91.8 104.8,91.775 C104.8,91.775 104.775,91.775 104.775,91.775 C104.775,91.775 104.775,91.775 104.75,91.75 C104.5,91.525 104.2,91.725 104.15,92 C103.725,90.75 103.35,89.45 102.975,88.175 C102.625,86.975 102.075,85.75 101.525,84.625 C101.3,84.175 100.95,83.775 100.775,83.3 C100.7,83.1 100.675,82.9 100.65,82.675 C103,83.2 105.05,82.575 107.325,81.925 C107.325,81.925 107.35,81.925 107.35,81.925 C107.3,82.3 107.275,82.925 107.275,82.9 Z M106.75,81.3 C106.375,81.425 106,81.5 105.625,81.575 C105.525,79.625 105.225,77.675 105.075,75.7 C104.925,73.475 105.175,71.25 105.125,69.025 C105.075,66.85 104.675,64.7 104.625,62.55 C104.575,60.25 104.375,57.975 104.4,55.675 C104.425,53.45 104.125,51.225 104.025,49 C103.9,46.625 103.75,44.275 103.625,41.925 C103.35,37.275 103.2,32.65 103.15,27.975 C103.125,25.425 103.45,22.95 103.425,20.4 C103.4,17.825 103.625,15.25 103.65,12.7 C104.3,12.675 104.95,12.65 105.575,12.55 C105.8,12.5 106.1,12.45 106.375,12.375 C106.375,13.55 106.275,14.675 106.4,15.85 C106.525,17.15 106.8,18.425 106.85,19.725 C106.9,21 106.85,22.2 107.075,23.475 C107.3,24.775 107.5,26.15 107.475,27.475 C107.425,29.85 107.175,32.2 107.225,34.6 C107.275,37.025 107.25,39.425 107.325,41.825 C107.35,42.975 107.15,44.125 107.125,45.275 C107.125,46.75 106.975,48.225 106.925,49.7 C106.875,50.825 106.825,51.925 106.675,53.05 C106.5,54.25 106.6,55.325 106.6,56.525 C106.65,59 106.5,61.55 106.7,64.025 C106.8,65.2 106.775,66.35 106.85,67.5 C106.925,68.875 107.25,70.225 107.35,71.6 C107.45,72.875 107.3,74.125 107.4,75.425 C107.5,76.8 107.525,78.175 107.625,79.55 C107.725,80.475 107.85,80.95 106.75,81.3 Z" id="Shape"></path>
            </g>
        </g>
    </g>
</svg>