<?xml version="1.0" encoding="UTF-8"?>
<svg width="285px" height="250px" viewBox="0 0 285 250" version="1.1" xmlns="http://www.w3.org/2000/svg" xmlns:xlink="http://www.w3.org/1999/xlink">
    <title>sustainable</title>
    <defs>
        <filter id="filter-1">
            <feColorMatrix in="SourceGraphic" type="matrix" values="0 0 0 0 0.880814 0 0 0 0 0.912451 0 0 0 0 0.844398 0 0 0 1.000000 0"></feColorMatrix>
        </filter>
    </defs>
    <g id="sustainable" stroke="none" stroke-width="1" fill="none" fill-rule="evenodd">
        <g filter="url(#filter-1)" id="blob-(5)">
            <g transform="translate(14.400000, 12.000000)">
                <path d="M184.648828,30.7949219 C193.050122,40.1797809 186.749152,61.5649513 198.3964,80.4885193 C210.043649,99.5659375 240.020994,116.181753 240.784748,128.643615 C241.548502,141.105477 213.480542,149.567235 189.995106,160.182895 C166.700609,170.798555 148.179574,183.721968 122.784754,191.414475 C97.1989944,199.106982 64.9303876,201.568585 55.574401,187.260521 C46.2184145,172.952457 59.9659866,141.874728 50.991877,117.258704 C42.0177674,92.796531 10.1310377,74.6422137 2.1116206,52.9493431 C-5.90779647,31.2564724 9.74916066,5.87119816 34.9530429,0.947993471 C59.9659866,-3.97521122 94.9077323,11.5636536 123.930385,18.0253598 C152.953037,24.3332158 176.247534,21.5639131 184.648828,30.7949219 Z" id="Path" fill="#FF0066" fill-rule="nonzero"></path>
            </g>
        </g>
        <path d="M75.5205635,163.862389 C75.5205635,163.862389 90.9902717,146.460822 101.700276,147.852655 C112.41028,149.244488 105.865575,133.234754 121.930581,136.019464 C137.995587,138.80313 141.565588,147.156217 141.565588,147.156217 C141.565588,147.156217 149.300888,128.361773 164.175299,131.146483 C179.050602,133.931193 182.720563,155.197106 182.720563,155.197106 L129.665881,181.265 C129.665881,181.265 105.865575,176.392018 97.5358692,177.088457 C89.2052711,177.784895 75.5205635,163.862389 75.5205635,163.862389" id="Fill-13" fill="#AB7A54" transform="translate(129.120563, 156.065000) rotate(19.000000) translate(-129.120563, -156.065000) "></path>
        <path d="M131.7336,51.132 C131.7336,51.132 106.6664,53.7984 95.4664,62.332 C84.2664,70.8656 77.8664,82.5984 80,92.1984 C82.1336,101.7984 85.8664,110.8656 85.8664,110.8656 L84.2664,132.1984 L93.3336,133.7984 C93.3336,133.7984 92.2664,120.4656 96,117.2656 C99.7336,114.0656 115.2,115.6656 125.8664,104.4656 C136.5336,93.2656 135.4664,58.0656 131.7336,51.132" id="Fill-22" fill="#60734A" transform="translate(106.974006, 92.465200) scale(-1, 1) translate(-106.974006, -92.465200) "></path>
        <path d="M64.5336,177.3984 C64.5336,177.3984 89.7336,163.7984 105.3336,158.1984 C120.9336,152.5984 136.5336,159.3984 143.7336,168.5984 C150.9336,177.7984 172.5336,181.3984 182.1336,179.7984 C191.7336,178.1984 195.3336,182.1984 195.3336,182.1984 C195.3336,182.1984 210.5336,173.3984 224.5336,167.7984 C238.5336,162.1984 243.7336,160.1984 249.7336,162.9984 C255.7336,165.7984 257.7336,169.3984 252.1336,175.3984 C246.5336,181.3984 201.7336,208.1984 190.1336,214.9984 C178.5336,221.7984 172.1336,230.5984 159.7336,224.5984 C147.3336,218.5984 133.3336,214.5984 126.5336,211.3984 C119.7336,208.1984 120.9336,203.3984 111.3336,206.9984 C101.7336,210.5984 85.3336,216.9984 74.9336,214.5984 C64.5336,212.1984 56.5336,183.7984 64.5336,177.3984" id="Fill-23" fill="#634E3B" transform="translate(158.357341, 191.380798) scale(-1, 1) translate(-158.357341, -191.380798) "></path>
        <path d="M154.9848,171.5096 C146.4488,169.6424 140.5616,165.62 135.732,161.3488 C139.5144,156.3296 149.1072,146.0632 163.46,147.5352 C163.46,147.5352 172.6632,136.8792 185.256,140.2696 C197.8488,143.66 201.2392,148.988 201.2392,148.988 C201.2392,148.988 220.1672,147.1488 227.3712,158.7872 C214.2544,162.784 194.904,172.7448 188.7024,176.0176 C183.596,171.9912 175.5368,176.0056 154.9848,171.5096 Z M183.3184,110.7248 C166.3664,85.5392 185.74,68.588 195.9112,65.6816 C206.0824,62.7752 224.0032,54.5416 224.0032,54.5416 C224.0032,54.5416 228.3616,75.8528 220.128,95.2264 C211.8944,114.6 186.7088,116.0528 186.7088,116.0528 C184.316,120.5392 183.5864,127.4232 183.3776,132.036 C182.332,132.0432 181.2472,132.1144 180.1184,132.2672 C180.1472,124.1224 183.3184,110.7248 183.3184,110.7248 Z M237.5648,157.2216 C236.4032,157.0104 234.8904,157.0816 233.1176,157.3752 C231.3416,152.8064 224.672,141.128 203.176,142.692 C203.176,142.692 198.0256,134.2368 187.6152,132.388 C187.9288,127.1656 189.6144,120.896 189.6144,120.896 C189.6144,120.896 217.2224,117.9904 226.9088,98.132 C236.596,78.2744 226.4248,40.98 226.4248,40.98 C214.8008,58.4168 183.3184,54.5416 173.1472,75.368 C162.976,96.1952 177.9904,113.6312 177.9904,113.6312 C175.2088,120.1216 175.3864,128.184 175.8784,133.1736 C171.732,134.372 167.1104,136.5992 162.0072,140.2696 C162.0072,140.2696 143.3056,139.3608 130.6912,156.5728 C124.9392,150.9096 120.0488,146.088 112.12,146.8088 C96.1368,148.2616 56.1792,165.6976 61.9912,171.5096 C67.8032,177.3224 76.5216,168.604 87.4192,162.792 C98.3168,156.98 118.6592,152.6208 133.1888,167.8776 C147.7192,183.1336 158.6168,180.228 174.6,180.228 C190.5832,180.228 186.224,186.7664 180.412,188.9464 C174.6,191.1256 155.7112,194.7584 136.8216,190.3992 C123.5312,187.332 115.7528,182.408 120.8384,188.22 C125.924,194.032 140.4544,199.844 166.6088,197.664 C188.1872,195.8664 193.9328,188.6288 192.4296,182.0712 C203.6056,175.6712 231.1464,160.4304 238.0488,161.5808 C246.7672,163.0336 248.22,166.4248 239.9864,173.2048 C231.752,179.9856 180.8968,216.3112 158.1328,218.7328 C135.3688,221.1552 113.5736,197.4224 104.8552,198.3912 C96.1368,199.3592 76.7944,211.0864 83.544,212.4368 C90.8096,213.8896 100.012,203.2344 108.7296,207.5928 C117.448,211.952 147.4768,228.904 161.0384,226.9664 C174.6,225.0296 243.3768,180.9544 248.22,171.752 C253.0632,162.5496 248.22,159.1592 237.5648,157.2216 L237.5648,157.2216 Z" id="Fill-24" fill="#1A1919" transform="translate(155.760091, 134.050004) scale(-1, 1) translate(-155.760091, -134.050004) "></path>
        <path d="M86.3928,101.5664 C94.1424,85.0984 113.032,63.788 113.032,63.788 C87.3616,77.3488 86.3928,101.5664 86.3928,101.5664" id="Fill-25" fill="#1A1919" transform="translate(99.712400, 82.677200) scale(-1, 1) translate(-99.712400, -82.677200) "></path>
    </g>
</svg>