<?xml version="1.0" encoding="UTF-8"?>
<svg width="272px" height="210px" viewBox="0 0 272 210" version="1.1" xmlns="http://www.w3.org/2000/svg" xmlns:xlink="http://www.w3.org/1999/xlink">
    <title>interfaces</title>
    <defs>
        <filter id="filter-1">
            <feColorMatrix in="SourceGraphic" type="matrix" values="0 0 0 0 1.000000 0 0 0 0 0.910793 0 0 0 0 0.910793 0 0 0 1.000000 0"></feColorMatrix>
        </filter>
    </defs>
    <g id="interfaces" stroke="none" stroke-width="1" fill="none" fill-rule="evenodd">
        <g filter="url(#filter-1)" id="blob">
            <g transform="translate(121.866796, 104.681228) scale(-1, -1) rotate(-34.000000) translate(-121.866796, -104.681228) translate(24.366796, 31.681228)">
                <path d="M186.880095,34.5961002 C200.33181,59.3973467 196.533679,103.390034 166.623395,126.715016 C136.713112,150.187624 80.6906765,152.8449 44.1336636,128.486533 C7.7349061,104.275793 -9.04017343,53.0494086 5.51932956,26.624271 C20.0788325,0.346759927 65.9729181,-0.981878274 104.270741,1.3801452 C142.568564,3.5945422 173.42838,9.64722734 186.880095,34.5961002 Z" id="Path" fill="#FF0066" fill-rule="nonzero"></path>
            </g>
        </g>
        <path d="M207.688,188.324 L65.956,188.324 C65.128,188.324 64.456,187.652 64.456,186.824 L64.456,45.091 L67.456,45.091 L67.456,185.324 L207.688,185.324 L207.688,188.324" id="Fill-17" fill="#343534"></path>
        <path d="M66.588,188.185 L65.325,185.463 L109.706,164.867 L135.124,90.141 C135.292,89.649 135.702,89.278 136.209,89.162 C136.717,89.046 137.247,89.201 137.612,89.571 L161.772,114.085 L186.454,65.281 L189.131,66.634 L163.507,117.301 C163.289,117.732 162.877,118.032 162.4,118.106 C161.923,118.18 161.439,118.021 161.1,117.677 L137.182,93.408 L112.34,166.441 C112.208,166.829 111.923,167.146 111.551,167.318 L66.588,188.185" id="Fill-18" fill="#343534"></path>
        <path d="M110.92,160.231 C107.974,160.231 105.586,162.618 105.586,165.564 C105.586,168.509 107.974,170.897 110.92,170.897 C113.865,170.897 116.253,168.509 116.253,165.564 C116.253,162.618 113.865,160.231 110.92,160.231" id="Fill-19" fill="#FEDA2E"></path>
        <path d="M162.168,110.624 C159.223,110.624 156.835,113.012 156.835,115.958 C156.835,118.903 159.223,121.291 162.168,121.291 C165.114,121.291 167.502,118.903 167.502,115.958 C167.502,113.012 165.114,110.624 162.168,110.624" id="Fill-20" fill="#FEDA2E"></path>
        <path d="M110.92,161.731 C108.806,161.731 107.086,163.45 107.086,165.564 C107.086,167.678 108.806,169.397 110.92,169.397 C113.033,169.397 114.753,167.678 114.753,165.564 C114.753,163.45 113.033,161.731 110.92,161.731 Z M110.92,172.397 C107.152,172.397 104.086,169.332 104.086,165.564 C104.086,161.796 107.152,158.731 110.92,158.731 C114.687,158.731 117.753,161.796 117.753,165.564 C117.753,169.332 114.687,172.397 110.92,172.397 L110.92,172.397 Z" id="Fill-21" fill="#343534"></path>
        <path d="M136.544,86.318 C133.598,86.318 131.211,88.706 131.211,91.651 C131.211,94.597 133.598,96.984 136.544,96.984 C139.489,96.984 141.877,94.597 141.877,91.651 C141.877,88.706 139.489,86.318 136.544,86.318" id="Fill-22" fill="#CD35B6"></path>
        <path d="M136.544,87.818 C134.43,87.818 132.711,89.537 132.711,91.651 C132.711,93.765 134.43,95.484 136.544,95.484 C138.658,95.484 140.377,93.765 140.377,91.651 C140.377,89.537 138.658,87.818 136.544,87.818 Z M136.544,98.484 C132.776,98.484 129.711,95.419 129.711,91.651 C129.711,87.883 132.776,84.818 136.544,84.818 C140.312,84.818 143.377,87.883 143.377,91.651 C143.377,95.419 140.312,98.484 136.544,98.484 L136.544,98.484 Z" id="Fill-23" fill="#343534"></path>
        <path d="M162.168,112.124 C160.054,112.124 158.335,113.844 158.335,115.958 C158.335,118.071 160.054,119.791 162.168,119.791 C164.282,119.791 166.002,118.071 166.002,115.958 C166.002,113.844 164.282,112.124 162.168,112.124 Z M162.168,122.791 C158.401,122.791 155.335,119.726 155.335,115.958 C155.335,112.19 158.401,109.124 162.168,109.124 C165.936,109.124 169.002,112.19 169.002,115.958 C169.002,119.726 165.936,122.791 162.168,122.791 L162.168,122.791 Z" id="Fill-24" fill="#343534"></path>
        <path d="M67.211,187.647 L64.702,186.001 L104.332,125.568 C104.746,124.938 105.564,124.712 106.243,125.042 L154.43,148.521 L195.877,148.521 L195.877,151.521 L154.084,151.521 C153.856,151.521 153.632,151.469 153.426,151.37 L106.116,128.318 L67.211,187.647" id="Fill-25" fill="#343534"></path>
        <path d="M105.586,121.057 C102.641,121.057 100.253,123.445 100.253,126.391 C100.253,129.336 102.641,131.724 105.586,131.724 C108.532,131.724 110.919,129.336 110.919,126.391 C110.919,123.445 108.532,121.057 105.586,121.057" id="Fill-26" fill="#CD35B6"></path>
        <path d="M105.586,122.557 C103.472,122.557 101.753,124.277 101.753,126.391 C101.753,128.505 103.472,130.224 105.586,130.224 C107.7,130.224 109.42,128.505 109.42,126.391 C109.42,124.277 107.7,122.557 105.586,122.557 Z M105.586,133.224 C101.818,133.224 98.753,130.159 98.753,126.391 C98.753,122.623 101.818,119.557 105.586,119.557 C109.354,119.557 112.42,122.623 112.42,126.391 C112.42,130.159 109.354,133.224 105.586,133.224 L105.586,133.224 Z" id="Fill-27" fill="#343534"></path>
        <path d="M153.919,144.688 C150.974,144.688 148.586,147.075 148.586,150.021 C148.586,152.966 150.974,155.354 153.919,155.354 C156.865,155.354 159.253,152.966 159.253,150.021 C159.253,147.075 156.865,144.688 153.919,144.688" id="Fill-28" fill="#FEDA2E"></path>
        <path d="M153.92,146.188 C151.806,146.188 150.086,147.907 150.086,150.021 C150.086,152.135 151.806,153.854 153.92,153.854 C156.033,153.854 157.753,152.135 157.753,150.021 C157.753,147.907 156.033,146.188 153.92,146.188 Z M153.92,156.854 C150.152,156.854 147.086,153.789 147.086,150.021 C147.086,146.253 150.152,143.188 153.92,143.188 C157.687,143.188 160.753,146.253 160.753,150.021 C160.753,153.789 157.687,156.854 153.92,156.854 L153.92,156.854 Z" id="Fill-29" fill="#343534"></path>
    </g>
</svg>