<?xml version="1.0" encoding="UTF-8"?>
<svg width="309px" height="195px" viewBox="0 0 309 195" version="1.1" xmlns="http://www.w3.org/2000/svg" xmlns:xlink="http://www.w3.org/1999/xlink">
    <title>veggies</title>
    <defs>
        <filter id="filter-1">
            <feColorMatrix in="SourceGraphic" type="matrix" values="0 0 0 0 0.966399 0 0 0 0 1.000000 0 0 0 0 0.913131 0 0 0 1.000000 0"></feColorMatrix>
        </filter>
    </defs>
    <g id="veggies" stroke="none" stroke-width="1" fill="none" fill-rule="evenodd">
        <g filter="url(#filter-1)" id="blob-(4)">
            <g transform="translate(148.000000, 71.500000) scale(-1, -1) rotate(-165.000000) translate(-148.000000, -71.500000) translate(15.000000, -3.000000)">
                <path d="M216.352773,23.9800528 C230.859329,37.4873362 235.157568,51.3948355 243.574953,64.7020111 C251.813244,78.1092406 264.349774,90.9161463 265.424334,105.624077 C266.498894,120.332008 256.111483,136.84091 235.336661,143.744633 C214.56184,150.748409 183.220514,148.147007 152.774655,147.446629 C122.328796,146.746251 92.9574962,147.946899 65.018943,142.243823 C37.0803898,136.540748 10.574583,124.034004 2.69447823,108.625696 C-5.36471979,93.2173872 5.38087758,74.8074602 25.2602327,63.6014176 C45.3186811,52.395375 74.6899806,48.293163 97.2557351,36.1866349 C120.000583,24.0801067 135.939886,3.96926249 156.356521,0.567428138 C176.773156,-2.93446017 201.667123,10.3727154 216.352773,23.9800528 Z" id="Path" fill="#FF0066" fill-rule="nonzero"></path>
            </g>
        </g>
        <path d="M151.99975,180 C84.0692939,180 29,177.314151 29,174 C29,170.686821 84.0692939,168 151.99975,168 C219.930206,168 275,170.686821 275,174 C275,177.314151 219.930206,180 151.99975,180" id="Fill-1" fill="#D0C9C6"></path>
        <polyline id="Fill-2" fill="#046D33" points="69 106 73.9889915 85.2488428 87.8262051 71 98 93.9367076 91.8678632 104.47253 69 106"></polyline>
        <line x1="105.5" y1="111.5" x2="105.5" y2="111.5" id="Fill-3" fill="#046D33"></line>
        <path d="M76.8429809,106.169218 C73.9183496,106.173213 72,106.401915 72,106.401915 C72,106.401915 73.2658702,98.853764 74.9511915,98.0443202 C79.7615985,95.7288416 87.118279,97.221394 87.118279,97.221394 L77.4167819,93.2316002 C77.4167819,93.2316002 78.8209658,81.5538383 82.2737947,83.7584615 C89.0436445,88.0828188 90.9414476,88.9047462 90.9414476,88.9047462 L84.3449909,79.7182335 L90.5660965,73 C104.586887,92.8401111 112.923289,92.5335112 112.923289,92.5335112 C112.923289,92.5335112 113.767202,96.5582593 109.856836,104.244729 C108.354931,107.19488 106.882592,109.316112 105.635765,110.811161 C105.470891,111.006406 105.312031,111.192164 105.15718,111.366936 C103.4017,113.341859 102.20198,114 102.20198,114 C102.20198,114 100.61438,111.508251 91.413518,108.342882 C86.202703,106.549722 80.6636438,106.165223 76.8429809,106.169218" id="Fill-4" fill="#72BB45"></path>
        <path d="M87.3872638,106.467429 C90.7248628,107.197995 96.9190019,109.779715 100.522901,111.774034 C103.821086,113.60045 105.778167,111.30664 106,111.145053 C103.699305,114.173113 102.15355,115 102.15355,115 C102.15355,115 100.552715,112.373541 91.2751498,109.037043 C86.0208947,107.14694 80.4356589,106.741654 76.5831449,106.745865 C76.5831449,106.745865 75.3365353,106.314263 76.4886512,106.27426 C78.8621111,106.193203 83.4129691,105.597381 87.3872638,106.467429" id="Fill-5" fill="#5DA032"></path>
        <path d="M45.7577482,89.5288138 C45.9490084,89.2479649 46.0891003,88.9495629 46.184482,88.6409216 L46.3076834,88.7257614 C48.9058418,90.4415729 52.3882683,89.82234 54.0857649,87.3424828 C55.6372082,85.0761878 55.1573189,82.0409714 53.0763083,80.2276428 C53.4816806,79.9350918 53.8443299,79.5703783 54.1404107,79.1369152 C55.5557363,77.0710177 54.9451939,74.2371738 52.7777436,72.8080623 C50.8154634,71.5140118 48.2520796,71.8158269 46.7339205,73.4155932 C44.7845565,72.6890915 42.5425892,73.3044238 41.3607501,75.0280367 C40.3994811,76.4332566 40.397494,78.197339 41.1948256,79.6137734 C40.1545687,79.6088975 39.1446153,80.0862432 38.5305955,80.980474 C37.5459779,82.4198249 37.9707247,84.3930813 39.4814321,85.3906801 C39.6135755,85.4769827 39.7521771,85.5520708 39.8927657,85.6183823 L39.8714042,85.648125 C38.8097858,87.1981576 39.26732,89.3225654 40.8922867,90.393302 C42.5192406,91.4655013 44.6966265,91.079334 45.7577482,89.5288138" id="Fill-6" fill="#289933"></path>
        <path d="M62.4976228,85 C65.3443665,85.023517 67.6675252,82.7117427 67.690507,79.8418147 C67.6950034,79.2791233 67.6085719,78.7360958 67.448199,78.22685 C70.555736,77.8476888 72.9748187,75.191039 73,71.9490087 C73.0197831,69.3942082 71.5484492,67.181762 69.4081456,66.1466316 C69.501072,65.7074701 69.5520316,65.2521741 69.5550292,64.7847772 C69.5835066,61.0657701 66.6203552,58.0299591 62.9377739,58 C61.6013332,57.9896228 60.3553208,58.3778597 59.3061523,59.0519802 C58.4363417,58.4620618 57.3906705,58.1131527 56.2655622,58.1055897 C53.2044884,58.0808837 50.7039703,60.5645915 50.6814881,63.6533439 C50.6754929,64.4525069 50.8353661,65.212342 51.1301325,65.9015886 C49.3300592,66.4733557 48.0161007,68.1639509 48,70.1711862 C47.9846256,72.3916996 49.5583783,74.2476738 51.6472227,74.6409527 C51.2345498,75.4466704 50.9977374,76.3572624 50.9887446,77.3258379 C50.9637644,80.6142549 53.5836879,83.2991401 56.8436041,83.3248545 C57.4346356,83.3304007 58.0046838,83.2456945 58.5452554,83.0863661 C59.4810137,84.2435138 60.9023872,84.9882227 62.4976228,85" id="Fill-7" fill="#038340"></path>
        <path d="M67.8353659,115.756393 C68.0427429,115.376581 68.1837184,114.980881 68.2628895,114.577735 C68.3200969,114.608517 68.3742397,114.640292 68.4304256,114.670081 C71.9777988,116.512541 76.3465078,115.288206 78.1878729,111.939408 C79.8678312,108.875592 78.8539312,105.094851 75.9537173,103.064222 C76.4338513,102.640223 76.8506485,102.135793 77.1714189,101.549443 C78.7047831,98.7572057 77.5499075,95.2495316 74.5924862,93.7139002 C71.9159944,92.3247321 68.6796867,93.0302388 66.9517149,95.2460562 C64.3656313,94.5713316 61.5818754,95.6318259 60.2993046,97.9643175 C59.2578224,99.8613908 59.4892062,102.096075 60.6951598,103.787106 C59.3650864,103.911724 58.135126,104.642552 57.473154,105.851992 C56.4040896,107.797224 57.2075479,110.241922 59.2695704,111.310856 C59.4508976,111.405685 59.6373326,111.482144 59.8253,111.548673 L59.8012933,111.587399 C58.6499932,113.682074 59.5172991,116.314443 61.7345989,117.463312 C63.9544527,118.615656 66.6840657,117.851067 67.8353659,115.756393" id="Fill-8" fill="#038340"></path>
        <path d="M84.1673493,55.7726778 C84.013461,56.178529 83.9268351,56.5913691 83.902376,57.0027115 C83.8427571,56.9787498 83.7841572,56.9557866 83.7245382,56.9328233 C79.9680329,55.5490353 75.8115199,57.3256952 74.4397738,60.9009801 C73.1877752,64.1677581 74.6981227,67.80744 77.8390748,69.4622947 C77.418175,69.9440246 77.075748,70.5016333 76.8372721,71.1271334 C75.6943202,74.106371 77.3055613,77.4570149 80.4378508,78.6081748 C83.2715359,79.6530046 86.3778376,78.5372881 87.7903489,76.1051759 C90.4385526,76.4486269 93.0495582,75.0363844 94.004481,72.5483615 C94.781566,70.5245965 94.2521291,68.3251125 92.832484,66.7945591 C94.1323816,66.4995307 95.2498553,65.6149447 95.7441323,64.3245075 C96.5400712,62.2488255 95.4169923,59.9145569 93.2360586,59.1118401 C93.0434435,59.0409534 92.8482805,58.988038 92.6536271,58.9446074 L92.6719714,58.9046712 C93.5295675,56.6692446 92.3208818,54.1577593 89.9738303,53.2941398 C87.6232119,52.4285235 85.0249454,53.5382495 84.1673493,55.7726778" id="Fill-9" fill="#289933"></path>
        <path d="M72.3250495,49.5691504 C69.7420994,48.2654528 66.5780874,49.2772027 65.2591125,51.8302353 C64.9999009,52.3310767 64.8328647,52.8530591 64.7488373,53.3810818 C61.7452412,52.3169826 58.3378045,53.595009 56.8487378,56.4787479 C55.6754103,58.7488932 56.0130475,61.3890068 57.4970216,63.2776066 C57.2133656,63.6284472 56.9607743,64.0120061 56.7453587,64.4262699 C55.0373117,67.7323263 56.3644347,71.780836 59.7087235,73.4696026 C60.9207545,74.0821895 62.2315813,74.2976268 63.4930102,74.1697738 C64.0190724,75.0899126 64.8135129,75.8711244 65.8355911,76.3875699 C68.6130773,77.7899257 72.0154214,76.7026721 73.4347199,73.9558466 C73.8013847,73.2456083 73.9989763,72.4951012 74.0432817,71.7481177 C75.9417907,72.0501326 77.9039569,71.1350275 78.82673,69.3496161 C79.8472805,67.3754454 79.2519594,65.0071452 77.5260884,63.7130114 C78.2665476,63.1814652 78.8954797,62.4747503 79.3400608,61.6140079 C80.8515347,58.6905037 79.6787165,55.1101171 76.7204442,53.6166534 C76.1836877,53.3453433 75.6255423,53.1631277 75.0623044,53.0629594 C74.7317968,51.6067443 73.7743941,50.3010332 72.3250495,49.5691504" id="Fill-10" fill="#289933"></path>
        <path d="M49.8703396,84.8684182 C49.8067913,85.3146843 49.8154339,85.7540544 49.8871163,86.178155 C49.819501,86.1683036 49.7544276,86.1569746 49.6863039,86.1476158 C45.4961872,85.579193 41.6385549,88.3168828 41.0701794,92.2598852 C40.5511174,95.8669565 42.9634086,99.2316847 46.5831163,100.214357 C46.2658835,100.797064 46.0447356,101.44085 45.9471255,102.130937 C45.4712763,105.418332 47.9201712,108.465847 51.4127824,108.937726 C54.5749428,109.366752 57.5073128,107.536864 58.3873288,104.747947 C61.193619,104.502649 63.546429,102.482137 63.94297,99.7380441 C64.2642699,97.5037582 63.2032685,95.3857182 61.3827386,94.1454333 C62.6496363,93.5533673 63.5906586,92.4042074 63.7950297,90.9821652 C64.1254806,88.6902489 62.4203542,86.5667907 59.9862025,86.2377557 C59.7716636,86.2082016 59.5581415,86.1973651 59.3481782,86.1973651 L59.3568207,86.1525415 C59.7126909,83.6857637 57.8764009,81.3992657 55.2571967,81.0460948 C52.6374841,80.6934165 50.225193,82.4026256 49.8703396,84.8684182" id="Fill-11" fill="#038340"></path>
        <path d="M74.3250752,76.5689578 C71.742127,75.2652444 68.5786265,76.2780133 67.2596526,78.8305733 C67.0009504,79.3314207 66.8328958,79.8534094 66.7493777,80.3799284 C63.7457838,79.3168231 60.3383495,80.5958717 58.8482654,83.4781353 C57.6754481,85.7488113 58.0135943,88.3884534 59.4965488,90.2775794 C59.2134022,90.629431 58.9597926,91.0119878 58.7459049,91.4272633 C57.0373498,94.7323528 58.3634534,98.7814148 61.7077398,100.470202 C62.9207885,101.082293 64.2326328,101.298739 65.492533,101.169878 C66.0180856,102.088518 66.8130348,102.870746 67.8356215,103.387701 C70.6136149,104.790577 74.0154473,103.700793 75.4342355,100.956452 C75.8014094,100.246708 75.9984916,99.4951852 76.0438154,98.747186 C77.9428323,99.0497079 79.9039785,98.1330816 80.826751,96.3491588 C81.8473008,94.3744609 81.2519801,92.0071389 79.5261103,90.7139962 C80.266569,90.1804301 80.8955006,89.4752168 81.3405907,88.6154707 C82.851045,85.6909245 81.6787369,82.1099913 78.7214853,80.6165096 C78.1842198,80.3451963 77.6255656,80.1634818 77.0597818,80.0618022 C76.73233,78.6060728 75.7739095,77.3008494 74.3250752,76.5689578" id="Fill-12" fill="#289933"></path>
        <path d="M75.1757145,84.866025 C75.4447591,84.5905089 75.6620455,84.2837286 75.8300152,83.9554541 L75.9476916,84.075626 C78.4516124,86.530357 82.413061,86.5464776 84.7963756,84.1137293 C86.9750991,81.8881066 87.0776387,78.3845583 85.1640535,75.9259193 C85.6728455,75.6797135 86.1469693,75.3470425 86.5615225,74.9191133 C88.5498152,72.8913345 88.4658303,69.5885612 86.3784159,67.5431963 C84.4892449,65.6907904 81.6044626,65.505159 79.6005448,66.9911872 C77.6078575,65.7757901 75.0126277,66.0092948 73.3519735,67.700983 C72.0038212,69.0814944 71.6341902,71.0609113 72.2176896,72.8112199 C71.0731518,72.5943243 69.8622073,72.9230873 69.0028273,73.8014169 C67.6175654,75.213681 67.6746947,77.5145332 69.1292929,78.941941 C69.2586882,79.0674864 69.3949194,79.1788653 69.5345687,79.2819395 L69.5062482,79.3097842 C68.0155169,80.8304962 68.0780173,83.3086753 69.643456,84.8425768 C71.2098713,86.3764783 73.6864481,86.3872254 75.1757145,84.866025" id="Fill-13" fill="#038340"></path>
        <path d="M101.470899,92.5822931 C101.228788,93.1975448 100.875262,93.7392278 101.044097,94.4482113 C101.380482,95.8650884 102.217375,94.1702854 102.438918,93.620973 C102.640321,93.1196165 103.30195,91.6340753 102.838724,91.142528 C102.262798,90.5316359 101.726724,92.0585935 101.521893,92.4438751 L101.470899,92.5822931" id="Fill-14" fill="#F97D9A"></path>
        <path d="M96.4714787,103.583867 C96.2289804,104.197337 95.8755156,104.739435 96.0438934,105.44825 C96.380649,106.864788 97.2182535,105.170935 97.4384728,104.621209 C97.641126,104.120517 98.3013555,102.633151 97.8390663,102.142266 C97.26324,101.532065 96.7276872,103.058658 96.5216065,103.444392 L96.4714787,103.583867" id="Fill-15" fill="#F97D9A"></path>
        <path d="M91.1291546,102.513719 C91.1427999,102.517802 92.2979259,102.997959 93.5102571,103 C93.9416581,103 94.3835554,102.938258 94.7839921,102.761197 C95.1844288,102.584646 95.5407807,102.285122 95.7753747,101.836601 C95.930721,101.541669 96.0005219,101.246226 96,100.963031 C96,100.51553 95.829431,100.106809 95.5880144,99.7516665 C94.859566,98.6903197 93.4834914,98.0320806 93.4708957,98.0218753 C93.365932,97.970849 93.238401,98.0121803 93.186444,98.1137226 C93.1339621,98.2152649 93.1759476,98.3392588 93.2809113,98.3902851 C93.2809113,98.3902851 93.3139749,98.4066135 93.377478,98.4402909 C93.5989515,98.5581616 94.1636564,98.8821785 94.6622342,99.3358022 C95.1644857,99.7899362 95.5801421,100.365513 95.5764684,100.963031 C95.5759435,101.181423 95.5245113,101.40798 95.39803,101.649334 C95.2048967,102.014172 94.9340903,102.240219 94.6081779,102.386154 C94.2827903,102.530558 93.9001974,102.588218 93.5102571,102.588218 C92.9618216,102.588218 92.4034145,102.474939 91.985134,102.360641 C91.7757313,102.303491 91.6020163,102.246342 91.4807832,102.20348 C91.4199042,102.182559 91.3726705,102.1647 91.3411814,102.152453 L91.2944725,102.134084 C91.1863599,102.089691 91.0619778,102.139187 91.0168434,102.24379 C90.9711842,102.348394 91.0215668,102.469327 91.1291546,102.513719" id="Fill-16" fill="#1D1D1B"></path>
        <path d="M98.3231263,89.3699628 C98.3231263,89.3699628 98.3554167,89.3882438 98.4173065,89.4252999 C98.6331138,89.5552433 99.182588,89.9090056 99.6690961,90.3882646 C100.158833,90.8680177 100.568921,91.4688208 100.565692,92.071106 C100.565154,92.2998657 100.509722,92.5325781 100.375179,92.7756662 C100.196505,93.0953369 99.958633,93.2934635 99.678245,93.4214306 C99.3978571,93.5484096 99.0690336,93.6012763 98.7251413,93.6012763 C98.1530638,93.6017704 97.5449287,93.4550282 97.0847911,93.3053215 C96.8549914,93.2307152 96.6612492,93.1561089 96.5261679,93.1002777 C96.4588963,93.0726091 96.4056172,93.0493873 96.3700978,93.0335767 L96.3173569,93.0093667 C96.2107987,92.9584763 96.0800227,92.9965206 96.024591,93.0943487 C95.9691592,93.1921768 96.0105985,93.3122386 96.1171567,93.363129 C96.1322255,93.3675758 97.4270689,93.9965414 98.7251413,94 C99.1158546,94 99.5114115,93.9416984 99.8703727,93.7796397 C100.228796,93.618075 100.545241,93.3488007 100.762663,92.9565 C100.927344,92.6605452 101.000535,92.3606378 101,92.071106 C100.994615,91.1916411 100.362262,90.4431077 99.7605855,89.9040648 C99.1540649,89.365516 98.5566933,89.0334933 98.5480825,89.0290466 C98.4452915,88.9717331 98.3118247,89.0018721 98.2499348,89.0962417 C98.1875068,89.1906112 98.2203353,89.3131434 98.3231263,89.3699628" id="Fill-17" fill="#1D1D1B"></path>
        <path d="M98,99.5847562 C98,99.5847562 100.931518,100.792527 101.825762,99.0884675 C102.720006,97.3857531 99.8810918,96 99.8810918,96 L98,99.5847562" id="Fill-18" fill="#046D33"></path>
        <path d="M101.802969,98.9874245 C102.194178,98.248994 101.953514,97.5648893 101.511777,97 C101.05337,97.2555332 100.636637,97.6720322 100.351695,98.2117706 C100.033936,98.8128773 99.9370456,99.4517103 100.038624,100 C100.751759,99.9491952 101.432077,99.6886318 101.802969,98.9874245" id="Fill-19" fill="#289933"></path>
        <path d="M124.185175,99.6871612 C125.899998,99.0361032 126.957768,95.3964836 127,95.2478563 C126.762812,94.3535898 126.327231,93.4903499 125.683927,92.6616396 C122.214011,91.2844592 119.388382,92.0576219 117.204094,94.9771242 C110.506361,97.1564922 105.800908,103.198671 103.085771,113.099157 C102.45327,115.691879 105.500863,115.516228 106.27332,117 L110.721942,114.873678 C112.388149,107.463827 115.248153,102.52109 119.302445,100.048471 C119.302445,100.048471 122.434503,100.35073 124.185175,99.6871612" id="Fill-20" fill="#2A9637"></path>
        <path d="M125.811125,100.895577 C126.941677,98.7952521 127.264053,96.8317811 126.786201,95 C126.743483,95.15338 125.673532,98.9093834 123.93896,99.5812602 C122.168127,100.266048 119,99.9541235 119,99.9541235 C121.528839,102.490317 124.782403,102.50426 125.811125,100.895577" id="Fill-21" fill="#1E8227"></path>
        <path d="M104,111.855696 C108.019396,101.344668 112.018595,96.442223 116,96 C112.240292,99.9734218 109.699675,105.032899 108.378151,112.332364 C106.610347,113.360672 105.150804,113.200601 104,111.855696" id="Fill-22" fill="#3DAE4E"></path>
        <path d="M110.836739,131.121191 C112.164551,149.319003 105.271519,174.202189 94.5860352,174.981268 C83.8995433,175.75934 73.4675277,152.138695 72.1402197,133.940882 C70.8119039,115.743573 79.0906975,109.860949 89.7771894,109.081366 C100.462673,108.302791 109.508423,112.923378 110.836739,131.121191" id="Fill-23" fill="#DD1221"></path>
        <path d="M141.852109,135.248104 C140.50314,152.891807 130.270293,175.768421 119.865822,174.980173 C109.46035,174.191925 102.824586,150.039575 104.173554,132.394378 C105.522523,114.750176 114.345858,110.297548 124.75083,111.085795 C135.1553,111.873545 143.200577,117.603902 141.852109,135.248104" id="Fill-24" fill="#DD1221"></path>
        <path d="M127,131.552638 C127,150.606832 118.2692,176 107.5,176 C96.7297893,176 88,150.606832 88,131.552638 C88,112.497942 96.7297893,107 107.5,107 C118.2692,107 127,112.497942 127,131.552638" id="Fill-25" fill="#EC1C24"></path>
        <path d="M103,141.000255 C103,144.314628 100.313608,147 97.0002551,147 C93.686392,147 91,144.314628 91,141.000255 C91,137.686392 93.686392,135 97.0002551,135 C100.313608,135 103,137.686392 103,141.000255" id="Fill-26" fill="#FFFFFF"></path>
        <path d="M102,140.5 C102,142.985714 99.9857143,145 97.5004762,145 C95.0152381,145 93,142.985714 93,140.5 C93,138.014762 95.0152381,136 97.5004762,136 C99.9857143,136 102,138.014762 102,140.5" id="Fill-27" fill="#1D1D1B"></path>
        <path d="M97,139.499738 C97,140.327559 96.3291339,141 95.5007874,141 C94.671916,141 94,140.327559 94,139.499738 C94,138.671391 94.671916,138 95.5007874,138 C96.3291339,138 97,138.671391 97,139.499738" id="Fill-28" fill="#FFFFFF"></path>
        <path d="M112,140.999235 C112,144.312869 114.686506,147 118,147 C121.314514,147 124,144.312869 124,140.999235 C124,137.68611 121.314514,135 118,135 C114.686506,135 112,137.68611 112,140.999235" id="Fill-29" fill="#FFFFFF"></path>
        <path d="M113,141.000262 C113,143.761499 115.23897,146 118.000262,146 C120.761553,146 123,143.761499 123,141.000262 C123,138.239548 120.761553,136 118.000262,136 C115.23897,136 113,138.239548 113,141.000262" id="Fill-30" fill="#1D1D1B"></path>
        <path d="M117,139.499738 C117,140.327559 116.328202,141 115.5,141 C114.671274,141 114,140.327559 114,139.499738 C114,138.671391 114.671274,138 115.5,138 C116.328202,138 117,138.671391 117,139.499738" id="Fill-31" fill="#FFFFFF"></path>
        <path d="M120.116187,148.033017 C118.839276,148.043085 117.563407,147.753229 116.57332,148.722948 C114.591584,150.659737 118.292178,150.995695 119.439471,150.995695 C120.483695,150.997284 123.652287,151.134529 123.965658,149.723932 C124.359194,147.9636 121.258275,148.129459 120.399366,148.022949 L120.116187,148.033017" id="Fill-32" fill="#F97D9A"></path>
        <path d="M95.1161145,148.033017 C93.8389163,148.043085 92.5637999,147.753229 91.5728523,148.722948 C89.591998,150.659737 93.2929583,150.995695 94.4390017,150.995695 C95.4830357,150.997284 98.6505289,151.134529 98.9659251,149.723932 C99.3578282,147.9636 96.2574738,148.129459 95.3992424,148.022949 L95.1161145,148.033017" id="Fill-33" fill="#F97D9A"></path>
        <path d="M103,148 C103,148 103.495786,155 107.773681,155 C112.051576,155 112,148 112,148 L103,148" id="Fill-34" fill="#870000"></path>
        <path d="M107.030899,155 C108.531835,155 109.444288,154.027944 110,152.83686 C109.226592,152.315942 108.224251,152 107.126873,152 C105.905431,152 104.800562,152.391052 104,153.020514 C104.647472,154.126797 105.607678,155 107.030899,155" id="Fill-35" fill="#C4171F"></path>
        <path d="M176.920251,130.912183 C177.14487,102.155541 169.423244,90.1988952 151.720452,91.0414574 C141.01645,92.1482937 132.16926,95.1688565 136.928298,124.009906 C141.112927,147.986503 120.452496,157.956068 135.690424,173.23674 C159.557355,187.756242 178.382249,157.403906 176.920251,130.912183" id="Fill-36" fill="#30930C"></path>
        <path d="M163.287314,95.8344483 C172.193027,114.803388 176.042098,140.860941 157.340101,165.748053 C177.038171,125.089474 161.82961,104.508305 156.80764,95.2512268 C156.453492,113.518002 167.378593,131.515905 143.440155,169 C163.799962,121.892501 151.353262,111.829808 151.368122,94.5615563 C141.549053,107.946163 157.138013,132.621377 134,161.029307 C152.15121,129.962147 137.100159,105.073035 144.584326,95.6260478 C136.811887,99.2293267 137.76041,110.779809 137.481054,122.079912 C136.278931,113.27062 135.81631,107.393927 136.171449,103.089483 C138.114558,93.385618 144.481301,91.7813842 151.692056,91.0412378 C169.414821,90.2031381 177.145159,102.096457 176.920287,130.700794 C177.405198,139.434122 175.657241,148.58775 172.236615,156.402018 C171.509001,157.545971 170.756127,158.654941 169.982449,159.716934 C180.343885,127.348895 171.987968,100.978991 163.287314,95.8344483" id="Fill-37" fill="#62A528"></path>
        <path d="M153,132.500748 C153,135.538259 150.53776,138 147.500249,138 C144.463238,138 142,135.538259 142,132.500748 C142,129.463238 144.463238,127 147.500249,127 C150.53776,127 153,129.463238 153,132.500748" id="Fill-38" fill="#FFFFFF"></path>
        <path d="M152,132.500762 C152,134.985605 149.985492,137 147.5,137 C145.014508,137 143,134.985605 143,132.500762 C143,130.014395 145.014508,128 147.5,128 C149.985492,128 152,130.014395 152,132.500762" id="Fill-39" fill="#1D1D1B"></path>
        <path d="M147,131.5 C147,132.327799 146.328108,133 145.49944,133 C144.671333,133 144,132.327799 144,131.5 C144,130.671642 144.671333,130 145.49944,130 C146.328108,130 147,130.671642 147,131.5" id="Fill-40" fill="#FFFFFF"></path>
        <path d="M162,132.499252 C162,135.536762 164.462351,138 167.500499,138 C170.53715,138 173,135.536762 173,132.499252 C173,129.46224 170.53715,127 167.500499,127 C164.462351,127 162,129.46224 162,132.499252" id="Fill-41" fill="#FFFFFF"></path>
        <path d="M162,132.500503 C162,134.985705 164.014408,137 166.499749,137 C168.985592,137 171,134.985705 171,132.500503 C171,130.0153 168.985592,128 166.499749,128 C164.014408,128 162,130.0153 162,132.500503" id="Fill-42" fill="#1D1D1B"></path>
        <path d="M166,131.5 C166,132.327799 165.328108,133 164.49944,133 C163.671892,133 163,132.327799 163,131.5 C163,130.671642 163.671892,130 164.49944,130 C165.328108,130 166,130.671642 166,131.5" id="Fill-43" fill="#FFFFFF"></path>
        <path d="M154.000916,139.363828 C154.004162,139.385513 154.077446,140.246453 154.494887,141.141534 C154.704535,141.588614 155.002773,142.048151 155.43923,142.403877 C155.874296,142.760525 156.454538,143.001828 157.162332,143 C157.852964,143.00229 158.410015,142.770676 158.815397,142.420948 C159.42486,141.894972 159.705936,141.150762 159.851577,140.534817 C159.995362,139.916564 159.999536,139.413657 160,139.340297 L159.746753,139.340297 L159.999072,139.356907 L160,139.340297 L159.746753,139.340297 L159.999072,139.356907 C160.011596,139.172816 159.871057,139.013177 159.685992,139.00072 C159.500463,138.988724 159.340444,139.128061 159.327921,139.312614 L159.326993,139.340297 C159.328385,139.393818 159.317253,140.196162 159.025972,140.938988 C158.881723,141.310862 158.67022,141.662897 158.37662,141.913427 C158.080701,142.163497 157.707788,142.32821 157.162332,142.330517 C156.603889,142.328671 156.198044,142.153808 155.865483,141.885744 C155.368729,141.485264 155.056576,140.840252 154.88357,140.287977 C154.796372,140.012993 154.743032,139.763385 154.711492,139.584369 C154.695722,139.494861 154.685518,139.423346 154.679488,139.374901 L154.672995,139.320458 L154.67114,139.305694 C154.654906,139.121141 154.49164,138.985494 154.306575,139.001643 C154.12151,139.017791 153.984682,139.179736 154.001379,139.364289" id="Fill-44" fill="#1D1D1B"></path>
        <path d="M168.601476,139.032867 C167.48379,139.04304 166.367562,138.753678 165.501599,139.721796 C163.767728,141.659162 167.005615,141.994302 168.009102,141.995997 C168.921717,141.997127 171.694549,142.132766 171.970083,140.723824 C172.31365,138.963918 169.600104,139.127814 168.848824,139.022129 L168.601476,139.032867" id="Fill-45" fill="#F97D9A"></path>
        <path d="M145.601228,139.032867 C144.483619,139.04304 143.367468,138.753678 142.501564,139.721796 C140.767813,141.659162 144.005477,141.994302 145.008895,141.995997 C145.921933,141.997127 148.694575,142.132766 148.97009,140.723824 C149.313633,138.963918 146.599787,139.127814 145.84856,139.022129 L145.601228,139.032867" id="Fill-46" fill="#F97D9A"></path>
        <polyline id="Fill-47" fill="#9AB006" points="172.804526 72 160 58.0804957 163.977898 54 175 70.6450262 173.224037 71.8527967"></polyline>
        <polyline id="Fill-48" fill="#9AB006" points="178 70.6719536 165.681659 42 160 44.5782236 175.675823 71 178 70.6719536"></polyline>
        <polyline id="Fill-49" fill="#9AB006" points="177.281161 69.312304 167 41 171.484185 41 179 68.534174 177.610707 70"></polyline>
        <polyline id="Fill-50" fill="#9AB006" points="175 45.2353446 179.416715 43 182 70 179.377035 68.8828316 175 45.2353446"></polyline>
        <path d="M163.054014,84.8493564 C163.203713,86.8348354 164.126357,89.6818714 165.611869,93.1231019 C175.122737,90.0821656 181.511885,88.1241724 181.511885,88.1241724 C181.511885,88.1241724 175.782909,91.8197721 167.424722,97.0575788 C168.829895,99.9495917 170.50303,103.127458 172.398218,106.511218 C183.320248,102.994026 190.897007,100.678217 190.897007,100.678217 C190.897007,100.678217 184.255367,104.956017 174.85777,110.828498 C176.804355,114.18777 178.896147,117.66998 181.091231,121.224152 C190.081647,118.352129 196.074093,116.518572 196.074093,116.518572 C196.074093,116.518572 190.899003,119.854356 183.228931,124.671879 C185.132602,127.715814 187.08717,130.771243 189.046729,133.804183 C196.867497,131.315463 201.946281,129.761262 201.946281,129.761262 C201.946281,129.761262 197.588048,132.569818 190.952894,136.750168 C193.056663,139.97501 195.148455,143.141882 197.186855,146.196811 C203.052057,144.344263 206.714689,143.22384 206.714689,143.22384 C206.714689,143.22384 203.596961,145.228809 198.639932,148.370693 C200.642903,151.350661 202.569028,154.202194 204.378389,156.851332 C209.223143,155.325617 212.180195,154.422081 212.180195,154.422081 C212.180195,154.422081 209.673238,156.040249 205.590451,158.626419 C212.254047,168.347421 217,175 217,175 C217,175 213.075893,104.619191 200.745197,77.2162814 C193.332109,60.7457507 161.51461,64.8341484 163.054014,84.8493564" id="Fill-51" fill="#F98000"></path>
        <path d="M205,156.311185 C205.426223,156.886485 205.833515,157.442292 206.242853,158 C210.429357,155.539522 213,154 213,154 C213,154 209.967829,154.859622 205,156.311185" id="Fill-52" fill="#FF4D1D"></path>
        <path d="M208,143 C208,143 204.15586,144.088455 198,145.888144 C198.512203,146.598408 199.020216,147.300903 199.525086,148 C204.727768,144.947762 208,143 208,143" id="Fill-53" fill="#FF4D1D"></path>
        <path d="M202,130 C202,130 196.881668,131.556668 189,134.049339 C189.637151,135.037898 190.281846,136.018448 190.921009,137 C197.607829,132.813014 202,130 202,130" id="Fill-54" fill="#FF4D1D"></path>
        <path d="M196,116 C196,116 190.000699,117.799081 181,120.617101 C181.70339,121.740484 182.416772,122.869261 183.140145,124 C190.81899,119.273062 196,116 196,116" id="Fill-55" fill="#FF4D1D"></path>
        <path d="M173,106.74664 C173.8026,108.132096 174.652352,109.553986 175.526192,111 C185.17841,105.214465 192,101 192,101 C192,101 184.217954,103.281522 173,106.74664" id="Fill-56" fill="#F98000"></path>
        <path d="M182,88 C182,88 175.570675,89.9725889 166,93.0361938 C166.533769,94.280264 167.150389,95.6099239 167.824253,97 C176.234999,91.7231484 182,88 182,88" id="Fill-57" fill="#FF4D1D"></path>
        <path d="M205,156.311185 C205.426223,156.886485 205.833515,157.442292 206.242853,158 C210.429357,155.539522 213,154 213,154 C213,154 209.967829,154.859622 205,156.311185" id="Fill-58" fill="#E56700"></path>
        <path d="M198,145.888144 C198.512203,146.598408 199.020216,147.300903 199.525086,148 C204.727768,144.947762 208,143 208,143 C208,143 204.15586,144.088455 198,145.888144" id="Fill-59" fill="#E56700"></path>
        <path d="M189,134.049339 C189.637151,135.037898 190.281846,136.018448 190.921009,137 C197.607829,132.813014 202,130 202,130 C202,130 196.881668,131.556668 189,134.049339" id="Fill-60" fill="#E56700"></path>
        <path d="M181,120.617101 C181.70339,121.740484 182.416772,122.869261 183.140145,124 C190.81899,119.273062 196,116 196,116 C196,116 190.000699,117.799081 181,120.617101" id="Fill-61" fill="#E56700"></path>
        <path d="M166,93.0361938 C166.533769,94.280264 167.150389,95.6099239 167.824253,97 C176.234999,91.7231484 182,88 182,88 C182,88 175.570675,89.9725889 166,93.0361938" id="Fill-62" fill="#E56700"></path>
        <path d="M200.855737,77.4575447 C193.595156,62.0824992 179.349052,64.5675716 170,71.1120109 C174.94463,69.0736035 184.936974,64.6597959 193.55749,73.7910036 C204.606955,85.4950215 217,175 217,175 C217,175 213.644769,104.540596 200.855737,77.4575447" id="Fill-63" fill="#E56700"></path>
        <path d="M189.033472,106.443188 C189.042169,106.460539 189.328652,107.073584 189.870413,107.702929 C190.14206,108.017338 190.478167,108.337005 190.883848,108.583065 C191.289017,108.829124 191.768365,109.000525 192.303987,109 C192.621165,109 192.956248,108.939535 193.30054,108.80599 C193.962009,108.55257 194.407593,108.115131 194.663382,107.619332 C194.920705,107.123532 195,106.583043 195,106.089346 C194.997954,105.084604 194.676683,104.2439 194.670033,104.221818 C194.602504,104.043057 194.407082,103.954202 194.233145,104.023604 C194.059209,104.093005 193.972752,104.293848 194.040281,104.47261 L194.042327,104.477867 C194.069441,104.548846 194.326764,105.292808 194.324718,106.089346 C194.325229,106.507332 194.255143,106.93373 194.067906,107.291778 C193.879134,107.649301 193.584465,107.951617 193.062144,108.156667 C192.789474,108.262346 192.538289,108.305985 192.303987,108.305985 C191.909049,108.305985 191.552479,108.181904 191.227116,107.985266 C190.739583,107.691362 190.334413,107.227634 190.059185,106.835937 C189.92157,106.640351 189.815162,106.463693 189.745076,106.337509 C189.709266,106.274417 189.683175,106.223943 189.665782,106.189768 L189.646853,106.151913 L189.642249,106.141923 C189.560908,105.968946 189.359347,105.896915 189.191038,105.979987 C189.02324,106.063058 188.952643,106.270736 189.033472,106.443188" id="Fill-64" fill="#1D1D1B"></path>
        <path d="M200.649068,101.520218 C199.697003,101.846498 198.663735,101.979172 198.190133,102.856456 C197.242444,104.609729 200.101557,103.900123 200.958805,103.613168 C201.740199,103.351712 204.146619,102.646427 203.992966,101.652459 C203.801872,100.411295 201.528683,101.295495 200.857666,101.441997 L200.649068,101.520218" id="Fill-65" fill="#E8231F"></path>
        <path d="M181.648854,108.519816 C180.696865,108.846136 179.663681,108.979257 179.190118,109.855781 C178.242505,111.610126 181.101387,110.900003 181.958566,110.613015 C182.739896,110.351959 185.146608,109.646591 184.992968,108.652073 C184.800917,107.411195 182.528884,108.295931 181.857435,108.442018 L181.648854,108.519816" id="Fill-66" fill="#E8231F"></path>
        <path d="M201.969836,98.0566175 C201.963123,98.0430015 201.498004,97.0570181 200.679491,96.0550712 C200.269515,95.5540977 199.770831,95.0479595 199.185836,94.6596699 C198.6018,94.2718497 197.923302,94 197.173837,94 C196.809893,94 196.431565,94.0647932 196.048441,94.206587 C195.253423,94.4976869 194.720695,95.0244837 194.412853,95.637202 C194.102614,96.2503898 194.000959,96.9405782 194,97.6082298 C194.002877,99.2444928 194.614245,100.77981 194.619999,100.79859 C194.683773,100.960573 194.869341,101.04133 195.03477,100.978885 C195.200198,100.916439 195.282673,100.734267 195.218899,100.572284 L195.195403,100.511247 C195.086077,100.217799 194.640138,98.9064413 194.642056,97.6082298 C194.641576,97.0034933 194.738436,96.4062691 194.987778,95.9170335 C195.239038,95.4273284 195.626957,95.0366911 196.274767,94.7944209 C196.588842,94.6784505 196.887094,94.6286818 197.173837,94.6286818 C197.761229,94.6282123 198.314577,94.840903 198.825728,95.1798935 C199.591976,95.6860316 200.242662,96.4748184 200.691478,97.1368358 C200.915886,97.467375 201.091385,97.7659871 201.209822,97.9805559 C201.269281,98.0876055 201.313874,98.1739965 201.344083,98.232686 L201.377648,98.2998267 L201.387718,98.3204854 C201.462041,98.4777733 201.652884,98.5463226 201.813518,98.4735476 C201.974631,98.4007727 202.044638,98.2139053 201.970315,98.0566175" id="Fill-67" fill="#1D1D1B"></path>
        <path d="M179.035956,107.548172 L179.02067,107.49194 C178.95016,107.220242 178.659245,105.999438 178.660231,104.671427 C178.659245,103.88944 178.761805,103.07487 179.047296,102.400091 C179.335747,101.724786 179.784447,101.189273 180.53639,100.88394 C180.850974,100.757813 181.143369,100.703684 181.420478,100.703158 C182.004775,100.703684 182.535326,100.945953 183.021501,101.335895 C183.74879,101.918181 184.345414,102.832601 184.747272,103.600399 C184.94894,103.984035 185.103274,104.330359 185.206327,104.579459 C185.2581,104.70401 185.297053,104.804386 185.323186,104.872179 L185.351785,104.949957 L185.360167,104.974132 C185.423281,105.15649 185.612623,105.250034 185.784214,105.182767 C185.955312,105.115499 186.042586,104.91317 185.979472,104.730812 C185.973555,104.715046 185.5786,103.569393 184.826657,102.402719 C184.449946,101.819382 183.983988,101.229213 183.418921,100.774105 C182.855827,100.320048 182.182283,99.9994751 181.420478,100 C181.061518,100 180.686286,100.071473 180.303165,100.225978 C179.378151,100.594374 178.782514,101.304363 178.445249,102.112101 C178.105025,102.92089 178.000986,103.826902 178,104.671427 C178.001479,106.3095 178.3989,107.72948 178.402844,107.747873 C178.454617,107.934436 178.638535,108.040593 178.813085,107.985412 C178.987634,107.930232 179.087729,107.734209 179.035956,107.548172" id="Fill-68" fill="#1D1D1B"></path>
        <path d="M213.607135,150.396319 C212.779168,146.457605 210.719079,143.040949 207.823968,140.360581 C202.242879,135.192051 193.557042,132.763453 184.609158,134.619939 C171.019018,137.437454 161.968331,149.072403 164.392766,160.606243 C166.691217,171.541944 178.485834,178.457844 191.288827,176.738504 C191.987282,176.644904 192.687753,176.526778 193.390743,176.380621 C206.979875,173.562606 216.032074,161.929159 213.607135,150.396319" id="Fill-69" fill="#EF4024"></path>
        <path d="M193.128647,175.645835 C206.890598,172.857096 216.057916,161.344506 213.602139,149.931479 C212.763642,146.033683 210.677354,142.652522 207.745425,140 C207.745425,140 214.542193,150.475852 209.516831,160.025923 C207.633659,163.603732 204.102585,172.114092 191.00051,176 L191,176 C191.707338,175.907372 192.416716,175.790473 193.128647,175.645835" id="Fill-70" fill="#DB2B19"></path>
        <path d="M183.27534,148 L187.063036,140.320865 C190.097832,138.745507 194.663641,142.433542 200,141.205173 C199.315683,138.740139 193.594049,138.189154 192.939486,135.868089 C195.557741,135.683126 197.336863,135.273181 198.274836,134.638744 C197.475038,133.65683 192.281896,132.936987 186.188603,134.117529 C182.81291,132.355744 180.101866,131.316731 178.064044,131 C177.638427,132.51045 177.649521,134.092639 178.096319,135.752426 C174.647504,135.89249 170.950076,137.010076 167,139.105185 C167.564801,140.697623 174.296016,139.783545 178.863338,139.309669 C180.413011,144.403715 181.883006,147.299678 183.27534,148" id="Fill-71" fill="#3DAE4E"></path>
        <path d="M183,136.666453 C183.139086,132.191324 183.916751,128.339058 185.443147,125 L188,126.099024 C186.326904,130.639353 185.830964,133.645988 186.178173,136.387374 C185.069543,137.096677 184.010152,137.190527 183,136.666453" id="Fill-72" fill="#2A9637"></path>
        <path d="M187.853322,125.517519 C187.495326,125.989428 186.600061,126.141098 185.851524,125.856304 C185.105193,125.569862 184.78912,124.955763 185.148219,124.48303 C185.505112,124.011122 186.399826,123.858215 187.147259,124.144245 C187.894693,124.429039 188.209663,125.044374 187.853322,125.517519" id="Fill-73" fill="#3DAE4E"></path>
        <path d="M184,136.66378 C184.40557,130.927694 185.405939,127.705038 187,127 C185.921062,129.4412 185.544264,132.563884 185.868499,136.369099 C185.260421,137.096643 184.637956,137.195045 184,136.66378" id="Fill-74" fill="#3DAE4E"></path>
        <path d="M175.192605,153.370413 C176.372539,152.60779 178.038813,150.529002 177.99931,148.878907 C177.930566,145.980337 177.155401,144.971528 174.783219,145.000609 C170.881225,145.04774 166.889968,150.915578 167.002318,155.682852 C167.134163,161.195701 168.735796,163.278501 170.628309,166.013616 C171.654852,167.496746 173.665872,169.950077 175.203891,171 C175.203891,171 174.559544,170.467517 173.57712,168.067836 C171.987799,164.182518 172.054491,164.065693 171.95394,159.889565 C171.900586,157.553561 173.456048,155.187974 174.793992,153.780054 L175.192605,153.370413" id="Fill-75" fill="#FC4B42"></path>
        <path d="M198.86568,163.234889 C197.906999,163.453228 196.906933,163.419165 196.299298,164.401968 C195.082567,166.370367 197.912355,166.043697 198.775119,165.856071 C199.560468,165.685197 201.961796,165.279232 201.999286,164.0323 C202.046514,162.476567 199.737695,163.126557 199.076989,163.178489 L198.86568,163.234889" id="Fill-76" fill="#F97D9A"></path>
        <path d="M180.865589,166.234827 C179.907021,166.452603 178.907559,166.419099 178.299021,167.401882 C177.082919,169.369681 179.912863,169.044134 180.774065,168.855954 C181.559809,168.685083 183.961829,168.279685 183.999315,167.03278 C184.045564,165.476521 181.737502,166.126498 181.076874,166.178429 L180.865589,166.234827" id="Fill-77" fill="#F97D9A"></path>
        <path d="M201.989007,160.171929 C201.983934,160.155799 201.659746,158.904443 200.938823,157.628631 C200.577093,156.990726 200.116433,156.344495 199.530461,155.846034 C198.946518,155.348613 198.224073,154.998962 197.382404,155 C197.17947,155 196.970447,155.019774 196.755845,155.06244 C196.183063,155.173787 195.708198,155.419376 195.334799,155.752377 C194.773686,156.25292 194.443411,156.934011 194.250624,157.639038 C194.058344,158.346145 194.000507,159.086553 194,159.740588 C194.000507,160.85146 194.168943,161.717263 194.170972,161.730791 C194.205978,161.911861 194.377965,162.029452 194.554517,161.99355 C194.73107,161.957648 194.845728,161.781782 194.810722,161.600713 L194.804126,161.567412 C194.774701,161.402993 194.651418,160.652179 194.651926,159.740588 C194.650911,158.923174 194.7539,157.977242 195.086712,157.222266 C195.253118,156.843997 195.473301,156.514118 195.761975,156.257082 C196.051663,156.000567 196.409842,155.811173 196.879127,155.718557 C197.05365,155.684216 197.221071,155.668607 197.382404,155.668607 C198.045491,155.669127 198.611677,155.935008 199.114953,156.361145 C199.867331,156.99749 200.441635,157.997534 200.813004,158.838883 C200.999703,159.258777 201.137191,159.638086 201.227497,159.911251 C201.272142,160.047574 201.305627,160.15736 201.327442,160.232285 L201.351794,160.317617 L201.359404,160.344673 C201.405572,160.522621 201.584154,160.628765 201.758169,160.581416 C201.931678,160.533547 202.035174,160.350397 201.989007,160.172449" id="Fill-78" fill="#1D1D1B"></path>
        <path d="M177.709288,164.631236 C177.709288,164.631236 177.706714,164.609132 177.702082,164.561839 C177.688699,164.420476 177.661418,164.070923 177.661418,163.608793 C177.660389,162.800708 177.748407,161.64564 178.125698,160.671003 C178.313572,160.183685 178.570933,159.743145 178.913738,159.403359 C179.258088,159.063572 179.683763,158.817857 180.247385,158.709392 C180.422905,158.675979 180.588646,158.660558 180.746151,158.660558 C181.406025,158.6621 181.940822,158.924265 182.40819,159.347327 C183.106154,159.980121 183.605434,160.982517 183.912209,161.826585 C184.066626,162.248105 184.175747,162.62953 184.245235,162.903518 C184.279721,163.040769 184.304942,163.150775 184.320899,163.22634 L184.338914,163.311672 L184.344061,163.338917 C184.377004,163.517806 184.548921,163.636551 184.729074,163.604166 C184.908197,163.571267 185.027098,163.399061 184.994671,163.219658 C184.990553,163.203208 184.761501,161.94533 184.135084,160.660208 C183.821103,160.017647 183.407781,159.365319 182.85394,158.859495 C182.302672,158.354699 181.593384,157.998463 180.746151,158 C180.544894,158 180.337461,158.020053 180.123336,158.060663 C179.432579,158.191231 178.874105,158.510456 178.447915,158.93506 C177.80657,159.572995 177.452956,160.428886 177.25067,161.275011 C177.049413,162.122163 177.000515,162.967774 177,163.608793 C177,164.259579 177.051472,164.698576 177.052502,164.708343 C177.073605,164.889289 177.237802,165.018829 177.419499,164.997753 C177.600681,164.976677 177.730391,164.812695 177.709288,164.631236" id="Fill-79" fill="#1D1D1B"></path>
        <path d="M186,165.324885 C186,165.324885 187.380401,170.576967 190.632879,169.947647 C193.883894,169.317832 192.840545,164 192.840545,164 L186,165.324885" id="Fill-80" fill="#870000"></path>
        <path d="M190.847243,169.940162 C192.104441,169.660742 192.718887,168.576503 193,167.353404 C192.27184,167.008239 191.383114,166.898285 190.463641,167.102324 C189.440215,167.3296 188.574427,167.902042 188,168.642249 C188.713519,169.562123 189.654466,170.204279 190.847243,169.940162" id="Fill-81" fill="#D12118"></path>
        <path d="M249.60665,87 C249.60665,87 252.632824,93.8851929 249.765667,116.059411 C246.898025,138.233133 245,130.804046 245,130.804046 L249.60665,87" id="Fill-82" fill="#9AB006"></path>
        <path d="M267,91 C267,91 260.477207,95.3817067 251.823445,116.096401 C243.170191,136.810104 248.800007,131.349083 248.800007,131.349083 L267,91" id="Fill-83" fill="#9AB006"></path>
        <path d="M265,76 C265,76 259.626251,85.7201101 250.750782,111.999255 C241.876332,138.278399 248.156313,131.105563 248.156313,131.105563 L265,76" id="Fill-84" fill="#9AB006"></path>
        <path d="M266.600537,141.42805 C263.582231,136.319063 259.804557,133.62121 256.245215,129.572183 L256.119662,129.456297 C255.671908,129.026718 255.132888,128.34189 255.132888,128.34189 C254.122416,126.839864 254.201076,124.890277 254.201076,124.890277 C254.647317,122.60402 256.023354,120.104473 259.791448,118.541007 C256.153949,119.246315 253.289432,120.746343 251.195879,123.039093 L253.237497,119.700369 L250.270117,121.633473 L248.921813,117.674857 L248.05202,120.136941 C246.67447,117.968568 244.749833,116.589422 242.282143,116 C246.110744,121.151945 243.591622,124.283372 242.617959,125.388788 C238.72633,126.520677 232.234399,127.647572 226.341995,130.438833 C222.148334,132.358949 216.278621,137.714694 214.647948,144.058969 C211.437531,157.69459 220.546907,168.927568 233.359331,171.899652 L230.861892,172.92115 L234.800918,172.732335 L233.953816,175.107504 L236.288894,172.874196 C236.288894,172.874196 237.937718,176.581558 238.107643,175.921206 C238.277063,175.261353 239.610745,173.242335 239.610745,173.242335 L241.157211,175.507612 L241.331674,173.911178 C251.633045,176.132998 263.027076,171.18835 266.173961,165.614819 C269.905245,160.266067 272.299318,150.854301 266.600537,141.42805" id="Fill-85" fill="#E6983D"></path>
        <path d="M256.950178,132 C256.950178,132 257.578396,132.625797 258.571223,133.816861 C259.552435,135.014929 260.938656,136.752753 262.346591,139.017326 C263.051569,140.147862 263.770182,141.404958 264.428699,142.788614 C265.089237,144.170269 265.711395,145.671481 266.172459,147.291248 C266.636047,148.906014 266.970861,150.636834 266.998636,152.427183 C267.009746,153.321107 266.953691,154.227536 266.804212,155.126963 C266.723917,155.574175 266.636047,156.02739 266.509798,156.464097 L266.338603,157.100899 L266.132564,157.753208 C265.573531,159.477525 264.780178,161.109299 263.840881,162.620015 C262.894009,164.127229 261.763823,165.481871 260.544757,166.657429 C259.336296,167.845992 258.008655,168.821955 256.691619,169.636341 C255.375089,170.455729 254.036843,171.06952 252.775357,171.543745 C251.513366,172.022472 250.315005,172.336621 249.243903,172.548721 C248.173307,172.765824 247.22795,172.877377 246.449242,172.935905 C246.059888,172.970421 245.711945,172.98893 245.40844,172.990431 C245.105946,172.999435 244.848397,173.003437 244.639328,172.996433 C244.222704,172.990431 244,172.986929 244,172.986929 C244,172.986929 244.221694,172.969921 244.637308,172.937906 C245.051912,172.906891 245.659425,172.84086 246.425002,172.726305 C247.19058,172.616253 248.114727,172.44167 249.150478,172.156535 C250.18522,171.873401 251.332071,171.486218 252.539018,170.968972 C253.741419,170.443723 255.00543,169.786412 256.250756,168.957019 C257.492547,168.125124 258.727773,167.139157 259.866039,165.982609 C261.01592,164.836565 262.042582,163.505935 262.944004,162.070754 C263.828256,160.628071 264.574139,159.057326 265.092772,157.426553 L265.289722,156.820766 L265.465966,156.184464 C265.587671,155.776271 265.66948,155.365076 265.74725,154.950879 C265.891175,154.120986 265.95026,153.278086 265.94622,152.440189 C265.92501,150.762894 265.667965,149.106109 265.248312,147.542368 C264.414054,144.40488 263.072779,141.627564 261.807758,139.328474 C260.524557,137.033386 259.307511,135.193514 258.403564,133.943921 C257.506687,132.688827 256.950178,132 256.950178,132" id="Fill-86" fill="#BF7C32"></path>
        <path d="M255.019262,133 C255.019262,133 255.45977,133.574283 256.124075,134.653635 C256.776228,135.736999 257.689648,137.307877 258.550409,139.310095 C258.981296,140.3102 259.411171,141.413125 259.779779,142.610343 C260.149906,143.806056 260.485603,145.090043 260.696237,146.447759 C260.909908,147.802967 261.038009,149.227892 260.989908,150.680904 C260.971174,151.406658 260.89725,152.137928 260.795477,152.868698 C260.738262,153.235838 260.667376,153.588934 260.596996,153.96761 C260.513451,154.319703 260.443071,154.665276 260.348894,155.023388 C259.977248,156.45383 259.501804,157.836123 258.927119,159.165752 C258.35294,160.492371 257.664838,161.745262 256.909393,162.898844 C255.39901,165.208516 253.555968,167.075814 251.754445,168.354786 C249.953428,169.648804 248.204564,170.31738 246.974181,170.650916 C246.355952,170.818938 245.857217,170.893168 245.519495,170.940315 C245.18076,170.979436 245,171 245,171 C245,171 245.176709,170.958872 245.508356,170.882134 C245.838483,170.801383 246.315446,170.657436 246.909371,170.448287 C248.096716,170.029486 249.707352,169.196399 251.369128,167.857241 C252.19394,167.181643 253.026347,166.379151 253.830905,165.466316 C254.632932,164.550473 255.385845,163.507735 256.091163,162.386252 C256.791924,161.260757 257.40104,160.03144 257.952433,158.755979 C258.494713,157.478512 258.936739,156.123304 259.288132,154.768597 C259.380284,154.431551 259.457753,154.072435 259.543323,153.725859 C259.605095,153.398342 259.680032,153.047252 259.735222,152.708199 C259.836488,152.020062 259.91345,151.330421 259.937248,150.640779 C259.994463,149.263502 259.927121,147.89726 259.749399,146.585186 C259.404588,143.955018 258.692182,141.551053 257.973193,139.534291 C257.241546,137.519033 256.508379,135.876432 255.940277,134.753445 C255.380782,133.625944 255.019262,133 255.019262,133" id="Fill-87" fill="#BF7C32"></path>
        <path d="M238,127 C238,127 237.174309,127.340109 235.771396,128.015341 C234.365943,128.682593 232.39648,129.71838 230.147043,131.121206 C227.912851,132.5365 225.37836,134.335289 223.117237,136.687129 C221.986167,137.858561 220.954689,139.18758 220.121376,140.64626 C219.710817,141.377844 219.353102,142.143838 219.077195,142.938257 C218.944576,143.337711 218.817546,143.736167 218.726593,144.151081 L218.573142,144.790905 L218.452718,145.414771 C218.118885,147.087889 218.014721,148.814866 218.095003,150.495963 C218.194594,152.178057 218.455767,153.827737 218.914597,155.374187 C219.358692,156.924127 219.970973,158.371337 220.664046,159.686393 C221.361691,160.999953 222.159436,162.172382 222.966834,163.199691 C223.781855,164.223011 224.607038,165.104203 225.383949,165.840275 C226.160353,166.57934 226.89255,167.168297 227.515503,167.626597 C228.135914,168.088388 228.640983,168.433484 228.9926,168.6564 C229.34371,168.880812 229.531713,169 229.531713,169 C229.531713,169 229.333039,168.898266 228.961605,168.706768 C228.773602,168.614011 228.548506,168.488839 228.285301,168.337735 C228.018031,168.193113 227.719766,168.012586 227.392538,167.798646 C226.732493,167.379744 225.951517,166.83517 225.11109,166.139492 C224.267615,165.448302 223.361134,164.607005 222.478533,163.592662 C221.593901,162.580812 220.709776,161.411375 219.944551,160.072382 C219.176786,158.73688 218.477108,157.25526 217.986774,155.644479 C217.480689,154.039682 217.14025,152.319687 217.036086,150.553313 C216.939544,148.786939 217.031513,146.983662 217.375001,145.209808 L217.51016,144.541558 L217.668185,143.902731 C217.7693,143.460389 217.911065,143.022536 218.057911,142.593161 C218.362781,141.735407 218.753524,140.915555 219.19711,140.137592 C220.091397,138.583163 221.228564,137.226217 222.42264,136.031346 C223.616209,134.831489 224.896157,133.810663 226.150699,132.913014 C227.404733,132.012372 228.650637,131.251864 229.822864,130.594586 C232.167319,129.277036 234.236373,128.410306 235.685016,127.82484 C237.141281,127.250843 238,127 238,127" id="Fill-88" fill="#BF7C32"></path>
        <path d="M239,129 C239,129 238.386865,129.377495 237.361967,130.100486 C236.33206,130.814976 234.909927,131.906962 233.311468,133.325943 C231.723528,134.751424 229.956256,136.520401 228.400375,138.659373 C227.619429,139.724359 226.907611,140.888844 226.299986,142.121827 C225.991415,142.736319 225.728428,143.376311 225.487983,144.026302 C225.373771,144.350298 225.271081,144.692294 225.168391,145.008289 C225.077222,145.352285 224.972528,145.70328 224.891879,146.041776 C224.550247,147.393758 224.286759,148.78874 224.148002,150.163722 C224.017761,151.540703 223.959653,152.904685 224.031286,154.221168 C224.107928,155.535651 224.264217,156.804134 224.523196,157.984619 C224.786684,159.164103 225.126313,160.259589 225.520543,161.240576 C226.324532,163.19755 227.325886,164.68753 228.157425,165.615518 C228.573696,166.079012 228.919336,166.430007 229.167295,166.656505 C229.418761,166.880502 229.552508,167 229.552508,167 C229.552508,167 229.405235,166.896501 229.129725,166.702504 C228.858724,166.501507 228.461488,166.201511 228.004141,165.762016 C227.094457,164.889028 225.894235,163.477546 224.947983,161.494572 C223.993215,159.523098 223.284403,157.018631 223.075516,154.282667 C222.96982,152.916185 222.970822,151.494704 223.105572,150.062223 C223.241323,148.626242 223.48828,147.191761 223.848447,145.763779 C223.937612,145.405784 224.041304,145.069789 224.136981,144.722793 C224.257204,144.357298 224.363902,144.015302 224.490135,143.666307 C224.750618,142.978816 225.035645,142.303325 225.366257,141.658833 C226.018465,140.36435 226.810431,139.177866 227.643474,138.09188 C228.475013,137.002895 229.380189,136.037407 230.272842,135.165919 C231.164994,134.29143 232.06516,133.52894 232.917238,132.856449 C234.621894,131.510467 236.165752,130.565979 237.249759,129.925988 C238.342282,129.294996 239,129 239,129" id="Fill-89" fill="#BF7C32"></path>
        <path d="M249.367204,160.42451 C248.42177,160.17989 247.532529,159.707877 246.622215,160.250274 C244.801588,161.337035 247.47259,162.322896 248.319219,162.550781 C249.089989,162.757994 251.404171,163.489392 251.897257,162.475476 C252.512093,161.211033 250.192292,160.723763 249.576988,160.472745 L249.367204,160.42451" id="Fill-90" fill="#E8231F"></path>
        <path d="M230.366969,156.424494 C229.421543,156.179883 228.532308,155.707888 227.62247,156.250264 C225.801389,157.336492 228.47237,158.322809 229.319461,158.550686 C230.089757,158.757891 232.404858,159.489262 232.897004,158.475875 C233.512772,157.210988 231.192052,156.723736 230.57722,156.472727 L230.366969,156.424494" id="Fill-91" fill="#E8231F"></path>
        <path d="M237.844099,151.233146 C237.163054,153.907944 234.441886,155.525368 231.76689,154.844374 C229.090891,154.162877 227.474351,151.440907 228.155898,148.766612 C228.836942,146.09081 231.558612,144.47439 234.23411,145.155886 C236.909105,145.83688 238.525645,148.557847 237.844099,151.233146" id="Fill-92" fill="#FFFFFF"></path>
        <path d="M236.875548,150.986234 C236.330432,153.126503 234.152968,154.420456 232.012977,153.875397 C229.872487,153.330338 228.579899,151.1526 229.124515,149.012831 C229.66963,146.872562 231.846595,145.579608 233.986585,146.124667 C236.126576,146.669726 237.420164,148.845966 236.875548,150.986234" id="Fill-93" fill="#1D1D1B"></path>
        <path d="M232.968802,148.246289 C232.832495,148.781982 232.288504,149.10538 231.753601,148.968669 C231.218284,148.832371 230.894864,148.288417 231.031171,147.753137 C231.167479,147.218271 231.711882,146.894872 232.246786,147.03117 C232.782102,147.167469 233.10511,147.711835 232.968802,148.246289" id="Fill-94" fill="#FFFFFF"></path>
        <path d="M236.133216,157 C236.133216,157 235.168279,162.976314 238.432376,163.901207 C241.696472,164.826634 243,158.945851 243,158.945851 L236.133216,157" id="Fill-95" fill="#7F440E"></path>
        <path d="M239.104171,163.900105 C240.345914,164.262614 241.298453,163.592243 242,162.635112 C241.465937,161.971233 240.70117,161.439373 239.793923,161.174796 C238.784299,160.879919 237.790715,160.970276 237,161.354427 C237.310908,162.523654 237.927533,163.555992 239.104171,163.900105" id="Fill-96" fill="#CE7720"></path>
        <path d="M253.622057,153.003812 L245.279527,154.283786 C245.139454,154.305395 245.028583,154.415954 245.004825,154.558174 C244.980572,154.700393 245.049372,154.841607 245.174596,154.90945 L252.698464,158.960942 C252.85883,159.047379 253.057804,158.985566 253.142937,158.822743 C253.228069,158.659417 253.16719,158.457395 253.006823,158.370958 L246.362992,154.793363 L253.720058,153.664152 C253.899728,153.636512 254.023468,153.46615 253.996245,153.28423 C253.969023,153.101808 253.801727,152.976172 253.622057,153.003812" id="Fill-97" fill="#1D1D1B"></path>
        <path d="M145.998229,80.5165346 C145.970518,78.5714283 145.81584,77.2011475 145.81584,77.2011475 L128.527613,70 C128.527613,70 118.298171,80.2484147 119.038311,85.5885526 C119.646444,89.9724619 128.597143,94.9499948 135.536013,95.8557653 C137.059622,96.0536398 138.486998,96.0556185 139.7078,95.813717 C144.426756,94.8698556 146.061713,84.9860247 145.998229,80.5165346" id="Fill-98" fill="#D8CBB8"></path>
        <path d="M145.998218,80.1514415 L134,79 C134,79 143.732547,82.2598859 143.194019,85.4524271 C143.194019,85.4524271 141.21536,93.4466921 139.07494,94.7500388 C138.223539,95.2665165 136.738784,95.5764032 135.468528,95.8523643 C137.001963,96.0549046 138.438544,96.05693 139.66722,95.8093245 C144.416609,94.8432073 146.062111,84.7263202 145.998218,80.1514415" id="Fill-99" fill="#BCAA8F"></path>
        <path d="M153.54369,77.6461633 C154.255307,75.3886231 154.329611,70.8491233 152.325414,66.5792327 C150.808927,63.3523953 148.10558,60.2800475 143.588533,58.4625532 C134.327041,54.7418479 126.977489,58.79944 123.531607,63.0553768 C118.154336,69.6914487 123.014974,72.4827253 123.014974,72.4827253 C123.014974,72.4827253 132.377699,79.98045 145.775746,82.508596 C146.630484,82.6690658 147.500681,82.8110964 148.386836,82.9277111 C151.759412,83.3752323 152.24762,81.7605678 153.54369,77.6461633" id="Fill-100" fill="#E5D7CA"></path>
        <path d="M153.556133,77.7833506 C154.248346,75.5836578 154.320623,71.1604786 152.371076,67 C153.222881,73.8515818 151.72252,76.3217445 151.148667,77.7935478 C149.525096,81.9549975 146,82.5211878 146,82.5211878 C146.831432,82.6775456 147.677901,82.8159369 148.539893,82.9295634 C151.820507,83.3656173 152.295403,81.7923271 153.556133,77.7833506" id="Fill-101" fill="#D8CBB8"></path>
        <path d="M133.809798,64.9560502 C131.884682,65.1852416 130.186365,64.4953383 130.013847,63.4155302 C129.843478,62.3347904 131.265011,61.2736158 133.18959,61.0444244 C135.11417,60.8138355 136.814098,61.5037388 136.986079,62.5844786 C137.156986,63.6642867 135.734377,64.726393 133.809798,64.9560502" id="Fill-102" fill="#FFFFFF"></path>
        <path d="M129.88059,66.0846661 C129.557028,66.8482189 128.676506,67.2043153 127.91411,66.8801763 C127.152285,66.5571786 126.796196,65.676639 127.119187,64.9130862 C127.44332,64.1518161 128.3227,63.7962904 129.084525,64.119288 C129.847492,64.4428564 130.204152,65.3228253 129.88059,66.0846661" id="Fill-103" fill="#FFFFFF"></path>
        <path d="M136.360149,91.4167901 C135.740079,91.1942614 135.179651,90.8500441 134.504869,91.0712963 C133.154321,91.5159281 134.879474,92.3094577 135.433988,92.514116 C135.940197,92.6987765 137.446996,93.3187081 137.884199,92.7932341 C138.429347,92.1418166 136.894454,91.6588911 136.49964,91.462317 L136.360149,91.4167901" id="Fill-104" fill="#F97D9A"></path>
        <path d="M125.360847,86.41776 C124.740307,86.1943916 124.179899,85.8493407 123.505142,86.0718581 C122.15415,86.516042 123.879241,87.3103824 124.434227,87.5146049 C124.938939,87.699256 126.447654,88.317029 126.883856,87.7949853 C127.42997,87.1418988 125.89464,86.6585723 125.49984,86.4624336 L125.360847,86.41776" id="Fill-105" fill="#F97D9A"></path>
        <path d="M139.667686,90.8532822 C139.671,90.8408723 139.999053,89.8406305 140,88.7341596 C139.999527,88.2432221 139.935147,87.7284575 139.736327,87.2673038 C139.538453,86.8066466 139.194305,86.4010895 138.668851,86.1687753 C138.408965,86.0531146 138.153339,86 137.908127,86 C137.44232,86 137.025271,86.189624 136.671182,86.4581753 C135.613648,87.2678002 135.025708,88.7892598 135.015767,88.8036553 C134.972216,88.9138557 135.021921,89.0404371 135.127485,89.0866021 C135.232576,89.1322707 135.353288,89.0796526 135.397312,88.9694522 L135.407727,88.9431431 C135.464533,88.8061373 135.746668,88.1588345 136.19354,87.5596822 C136.416503,87.2603543 136.680649,86.9734363 136.970832,86.7669348 C137.261488,86.5594404 137.57392,86.432859 137.908127,86.432859 C138.097007,86.4333554 138.29488,86.4730672 138.507902,86.5673828 C138.934892,86.7589924 139.193358,87.0652699 139.360462,87.4460071 C139.525672,87.8267443 139.587685,88.2829339 139.587211,88.7341596 C139.587211,89.2424711 139.509577,89.7408546 139.431469,90.1101746 C139.392178,90.2943382 139.353361,90.4467324 139.324485,90.5519687 C139.30981,90.6050833 139.297502,90.6457879 139.289454,90.6735862 L139.277147,90.713298 C139.240223,90.8264768 139.297975,90.9495834 139.405906,90.9883025 C139.513837,91.0270215 139.631236,90.966461 139.667686,90.8532822" id="Fill-106" fill="#1D1D1B"></path>
        <path d="M124.37863,83.9388397 L124.391035,83.9129491 C124.455814,83.778927 124.775575,83.1443529 125.257053,82.5554681 C125.497793,82.2615334 125.778043,81.9787671 126.081724,81.7741804 C126.385864,81.5695937 126.7093,81.4431866 127.0456,81.4431866 C127.241775,81.4431866 127.443463,81.4853223 127.656178,81.5848235 C128.026935,81.759966 128.251594,82.0209029 128.397233,82.3412359 C128.541492,82.6610612 128.59938,83.0468823 128.598921,83.4438719 C128.59938,83.9936669 128.489118,84.5602147 128.377477,84.9856332 C128.321887,85.1983424 128.265837,85.3765308 128.224488,85.499892 C128.203355,85.5618265 128.186356,85.6105618 128.174411,85.643052 L128.156493,85.6902643 C128.112388,85.802457 128.15925,85.9329254 128.260783,85.9816607 C128.362316,86.030396 128.480389,85.9786148 128.524494,85.8664221 C128.528169,85.8522076 128.997243,84.6688538 129,83.4438719 C128.999541,83.001193 128.937518,82.5488685 128.756045,82.1437564 C128.57549,81.7396596 128.267674,81.388867 127.812842,81.1771731 C127.552807,81.0548272 127.29415,81 127.0456,81 C126.588012,81.0005077 126.169015,81.183265 125.803771,81.4447095 C124.711714,82.2315815 124.032223,83.7235921 124.022115,83.7372989 C123.971578,83.845938 124.01063,83.9794524 124.108947,84.035295 C124.207724,84.0911375 124.328093,84.0479864 124.37863,83.9393473" id="Fill-107" fill="#1D1D1B"></path>
        <path d="M128.35664,87 C128.35664,87 127.09916,90.8545084 129.306642,91.8355965 C131.513604,92.8194128 133,89.0663963 133,89.0663963 L128.35664,87" id="Fill-108" fill="#7A6043"></path>
        <path d="M129.096371,91.847666 C129.837223,92.2012034 130.484114,91.8941974 131,91.3894329 C130.723536,90.9317057 130.292576,90.5270849 129.750489,90.2706565 C129.147869,89.9828699 128.523566,89.9327981 128,90.0814962 C128.09622,90.8224581 128.393465,91.5148654 129.096371,91.847666" id="Fill-109" fill="#BCAA8F"></path>
        <path d="M83.071653,145.186547 C83.4012852,143.220959 83.6434133,141.3502 83.7980372,139.570297 C85.3059929,122.198252 78.4055916,113.552445 61.885696,111.153424 C50.8049811,109.994626 44.2590713,115.228581 42.9460113,132.720776 C42.5358355,138.182122 26.7955226,158.19597 40.7763052,168.123207 C44.9093865,171.058433 48.9122059,172.794148 52.6997451,173.550296 C69.3150998,176.86434 81.8008535,161.304965 83.071653,145.186547" id="Fill-110" fill="#E3BC79"></path>
        <path d="M83.2674698,145.70864 C83.5998911,143.710717 83.8440678,141.809183 84,140 C83.988468,140.034821 81.028264,153.756854 76.4821649,160.589863 C65.8201157,176.615134 49.0451251,173.514039 49,173.520599 C68.3471192,180.383382 82.279231,162.047807 83.2674698,145.70864" id="Fill-111" fill="#CE9F61"></path>
        <path d="M46.1272766,162.09009 C45.0251452,161.861294 44.0740674,162.083277 44.0041352,162.586289 C43.9337368,163.088165 44.770592,163.680879 45.8731896,163.910243 C46.9743885,164.138472 47.9254664,163.916488 47.9958648,163.414044 C48.0662632,162.9116 47.2294079,162.318887 46.1272766,162.09009" id="Fill-112" fill="#C48B57"></path>
        <path d="M49.1267127,165.089485 C48.0245374,164.861731 47.0742764,165.083662 47.0041621,165.585756 C46.9335166,166.088498 47.7706387,166.680529 48.872814,166.910224 C49.9755205,167.138625 50.9257815,166.916047 50.9958958,166.4146 C51.0660101,165.911859 50.2294192,165.31918 49.1267127,165.089485" id="Fill-113" fill="#C48B57"></path>
        <path d="M45.0630915,164.044635 C44.5120145,163.931206 44.037129,164.041198 44.0020568,164.292607 C43.9669846,164.544015 44.3846259,164.839617 44.9357028,164.95501 C45.4871828,165.069421 45.9624716,164.957956 45.9979469,164.707529 C46.0330191,164.45563 45.6145715,164.159046 45.0630915,164.044635" id="Fill-114" fill="#C48B57"></path>
        <path d="M77.126877,128.090697 C76.0252481,127.861045 75.0744436,128.082628 75.0041268,128.584758 C74.9338101,129.087509 75.7704774,129.682121 76.8721062,129.909911 C77.9742446,130.138942 78.9255588,129.916117 78.9958755,129.413366 C79.0661922,128.910616 78.2290154,128.317866 77.126877,128.090697" id="Fill-115" fill="#C48B57"></path>
        <path d="M73.595358,126.044915 C72.7685033,125.930718 72.0557276,126.041733 72.0030423,126.293461 C71.9507924,126.544835 72.5777912,126.841111 73.4046458,126.954954 C74.2306297,127.069151 74.9442762,126.958843 74.9969616,126.707469 C75.0492115,126.456094 74.4213418,126.158758 73.595358,126.044915" id="Fill-116" fill="#C48B57"></path>
        <path d="M77.0636293,126.04483 C76.5121233,125.931067 76.0377047,126.041074 76.0020242,126.292749 C75.9672247,126.544961 76.3852593,126.840102 76.9363248,126.954402 C77.4878309,127.069776 77.9626899,126.958695 77.9979299,126.705947 C78.0331699,126.455345 77.6142544,126.159667 77.0636293,126.04483" id="Fill-117" fill="#C48B57"></path>
        <path d="M65.190766,163.089879 C63.5374504,162.861416 62.111498,163.083556 62.0061219,163.585585 C61.9012648,164.088878 63.155916,164.681112 64.8092317,164.909997 C66.4625473,165.13846 67.8879806,164.917162 67.9938758,164.413869 C68.0987329,163.91184 66.8446008,163.318764 65.190766,163.089879" id="Fill-118" fill="#C48B57"></path>
        <path d="M59.124985,116.092499 C58.0235794,115.860847 57.0733208,116.079262 57.0040079,116.580622 C56.9346949,117.08143 57.7727112,117.676002 58.8741168,117.907102 C59.9773111,118.139857 60.9266753,117.919788 60.9959883,117.419531 C61.0653013,116.917619 60.2281794,116.323047 59.124985,116.092499" id="Fill-119" fill="#C48B57"></path>
        <path d="M57.9282854,142.839158 C57.4644627,145.561716 54.882762,147.391969 52.1606875,146.928148 C49.4395946,146.464327 47.6083541,143.882633 48.0716859,141.160567 C48.5355086,138.438991 51.1177001,136.608737 53.8392838,137.071577 C56.5613583,137.535398 58.3916172,140.117582 57.9282854,142.839158" id="Fill-120" fill="#FFFFFF"></path>
        <path d="M57.9426794,142.671075 C57.5717748,144.84913 55.506144,146.314198 53.3290952,145.942311 C51.1515577,145.572379 49.686509,143.505743 50.0574136,141.328665 C50.4283182,139.151099 52.4944377,137.68652 54.6719751,138.057429 C56.8495126,138.427361 58.3130954,140.494486 57.9426794,142.671075" id="Fill-121" fill="#1D1D1B"></path>
        <path d="M52.9855997,140.167676 C52.8926954,140.711565 52.3760667,141.078196 51.8319705,140.985731 C51.2874705,140.892862 50.9215083,140.376429 51.0144126,139.832136 C51.1073169,139.288246 51.6239457,138.921212 52.1676379,139.014485 C52.7121379,139.106546 53.078504,139.62419 52.9855997,140.167676" id="Fill-122" fill="#FFFFFF"></path>
        <path d="M66.071718,144.160494 C65.6083642,146.88211 67.4387101,149.464332 70.160914,149.928161 C72.8821363,150.391989 75.4649414,148.561217 75.9282952,145.839601 C76.3916491,143.117985 74.5608123,140.535762 71.8400809,140.071934 C69.1173861,139.607615 66.5350719,141.439859 66.071718,144.160494" id="Fill-123" fill="#FFFFFF"></path>
        <path d="M67.0574138,144.32795 C66.6866526,146.505173 68.1503616,148.571215 70.3280397,148.942464 C72.5052344,149.313713 74.5717325,147.849502 74.9424937,145.671796 C75.3137382,143.493606 73.848579,141.428048 71.6713843,141.057765 C69.4937062,140.685549 67.4281749,142.151211 67.0574138,144.32795" id="Fill-124" fill="#1D1D1B"></path>
        <path d="M69.9855984,143.167388 C69.8926889,143.712191 69.376031,144.07849 68.8319042,143.985603 C68.2877774,143.892716 67.9217945,143.375778 68.0143001,142.831782 C68.1072097,142.288594 68.6238676,141.921487 69.1679944,142.014374 C69.7121212,142.106858 70.078508,142.624199 69.9855984,143.167388" id="Fill-125" fill="#FFFFFF"></path>
        <path d="M58.0101517,149.27545 C58.0096441,149.282165 58,149.385562 58,149.555205 C58.0015228,149.942833 58.0456828,150.674672 58.3781517,151.383234 C58.5451475,151.736844 58.7872661,152.086874 59.1415613,152.372895 C59.4948412,152.658916 59.9618205,152.875558 60.5409763,152.961946 C60.7115253,152.98746 60.8764908,153 61.0348577,153 C61.6510673,153.001336 62.1688052,152.807969 62.5642148,152.527767 C63.1591058,152.106568 63.5037568,151.512593 63.714405,151.027834 C63.9230229,150.54218 63.9930698,150.159028 63.9956078,150.1456 C64.0255553,149.982223 63.8991664,149.828246 63.7138974,149.801837 C63.5286285,149.775428 63.3540188,149.886882 63.3240713,150.050259 L63.319503,150.072639 C63.2946313,150.196627 63.1469237,150.814773 62.7824768,151.371149 C62.6017762,151.650009 62.3687941,151.911411 62.0835307,152.096721 C61.7967445,152.282478 61.4647831,152.398408 61.0348577,152.399751 C60.9160825,152.399751 60.7896936,152.390799 60.6551832,152.370209 C60.1978481,152.30083 59.8648716,152.141929 59.6009268,151.930211 C59.2060247,151.613305 58.968982,151.156745 58.8380248,150.703766 C58.7060524,150.252578 58.6801655,149.812132 58.680673,149.555205 C58.680673,149.480455 58.6827034,149.420923 58.6847337,149.381086 L58.6872717,149.336773 L58.6882868,149.32424 C58.7035144,149.159072 58.5644358,149.014495 58.3771365,149.001067 C58.1898372,148.987191 58.0253793,149.110283 58.0101517,149.27545" id="Fill-126" fill="#1D1D1B"></path>
        <path d="M71.8221224,151.304209 C70.7133861,151.122672 69.6490626,150.690142 68.6497724,151.366299 C66.6506632,152.717562 69.8108525,153.546315 70.8048555,153.716275 C71.709504,153.87045 74.437725,154.451366 74.9151637,153.302688 C75.5110367,151.866708 72.7981487,151.551519 72.0685082,151.335254 L71.8221224,151.304209" id="Fill-127" fill="#F97D9A"></path>
        <path d="M50.8217531,148.303663 C49.7130629,148.122616 48.6487837,147.690525 47.649535,148.365767 C45.6510375,149.717302 48.8105668,150.546223 49.8039998,150.716744 C50.7096681,150.869897 53.4377756,151.451984 53.9151945,150.302021 C54.5110428,148.867856 51.7972102,148.551024 51.0686574,148.334189 L50.8217531,148.303663" id="Fill-128" fill="#F97D9A"></path>
        <path d="M230.006566,95.321483 C227.402211,87.6426441 221.148775,82.586582 211.243272,80.1498423 C216.988275,80.0373318 222.029828,81.8730288 225.463497,85.6184428 C222.980032,81.6790963 217.925544,77.4436697 211,73 C219.263292,75.2961016 226.024167,80.9773863 231.65624,90.0892531 L232.11194,81.8991826 C233.767583,85.6243644 234.334223,90.3256238 233.812357,96 L230.006566,95.321483" id="Fill-129" fill="#9AB006"></path>
        <path d="M246.497975,108.369066 C243.75245,104.894133 240.692259,103.27619 237.655694,100.639174 C237.271662,100.383657 236.956997,100.117659 236.710694,99.8406826 C235.812944,98.8300924 235.833051,97.6737777 236.773526,96.3712392 L235.07504,97.0309924 C235.172053,95.2952726 236.530742,93.6623585 239.151608,92.1302538 C236.541298,93.0140836 234.579921,94.4094466 233.268482,96.3133486 L234.434652,93.6413981 L232.443116,95.3666377 L231.046728,92.5744145 L230.655156,94.4813108 C229.418111,93.0165789 227.859867,92.1886435 225.978916,92 C227.514037,93.4078395 228.362024,94.7228543 228.520864,95.9455437 C226.577583,94.649493 225.302336,94.562158 224.696631,95.6815426 C226.311173,96.5588846 227.413505,97.4167634 227.180271,98.9074463 C221.541438,101.596365 212.094457,103.85809 208.84024,112.072068 C205.211039,122.705972 213.7658,129.456215 226.273977,130.875034 L224.470435,132.451554 L227.422553,131.347141 L226.973176,133.758584 L228.534436,131.302226 C228.534436,131.302226 230.061013,134.449778 230.119321,133.945232 C230.177127,133.439188 231.021595,131.243338 231.021595,131.243338 L232.39285,132.762966 L232.359171,131.565728 C237.06155,133.089848 242.077086,131.904588 247.405275,128.005457 C252.930508,122.053704 251.658277,114.766975 246.497975,108.369066" id="Fill-130" fill="#EDEDED"></path>
        <path d="M226.503898,99 L226.469898,100 C226.534898,99.6550291 226.548898,99.3208645 226.503898,99" id="Fill-131" fill="#DADADA"></path>
        <path d="M216.122112,118.316098 C216.798307,109.762583 226.385548,103.446609 226.98307,99.6009741 L227,99 C222.320905,101.10266 212.055974,103.955664 208.832343,112.177969 C205.237252,122.822655 213.711608,129.579743 226.102223,131 C226.102223,131 215.366246,127.878731 216.122112,118.316098" id="Fill-132" fill="#DADADA"></path>
        <path d="M214.045867,117.270513 C213.135436,128.454727 226.080388,131 226.080388,131 C226.080388,131 215.083299,127.878731 215.857548,118.316098 C216.55019,109.762583 226.370604,103.446609 226.982658,99.6009741 C226.982658,99.6009741 226.969907,99.3047334 227,99 C226.378765,102.466966 214.607427,110.381042 214.045867,117.270513" id="Fill-133" fill="#C6C6C6"></path>
        <path d="M248.916383,112.075494 C249.055231,112.435668 249.785848,114.419348 250.035876,116.651049 C250.062006,116.885731 250.083013,117.122883 250.097871,117.362011 C250.104532,117.481576 250.109655,117.601634 250.113754,117.721692 C250.119902,117.901038 250.120927,118.080879 250.117853,118.259731 C250.120927,118.080879 250.119902,117.901038 250.113754,117.721692 C250.109655,117.601634 250.104532,117.481576 250.097871,117.362011 C250.083013,117.122883 250.062006,116.885731 250.035876,116.651049 C249.785848,114.419348 249.055231,112.435668 248.916383,112.075494 L248.895889,112.02164 L248.916383,112.075494 Z M250.094797,118.795794 C250.102995,118.677712 250.109143,118.558642 250.113242,118.439572 C250.109143,118.558642 250.102995,118.677712 250.094797,118.795794 Z M248.894352,112.017194 C248.212922,110.804753 247.379835,109.609111 246.411486,108.443112 C243.61301,105.002923 240.4938,103.401158 237.398671,100.790507 C237.007233,100.537545 236.435446,100 236.435446,100 C235.871345,104.75836 244.170451,113.439119 243.062742,121.648043 C241.871519,130.471093 232,131.407844 232,131.407844 C236.793069,132.916725 243.622745,131.470591 247.336284,127.88317 C251.931585,123.075897 251.91314,117.389185 248.894352,112.017194 L248.894352,112.017194 Z" id="Fill-134" fill="#DADADA"></path>
        <path d="M243.921503,120.776371 C242.282402,131.956215 232,132 232,132 C232,132 240.559028,130.956199 242.023098,121.40698 C243.214401,113.640879 235.642723,104.505355 235.931448,100.593869 C235.931448,100.593869 236.008741,100.306497 236.048634,100 C235.85266,103.540569 244.931791,113.887989 243.921503,120.776371" id="Fill-135" fill="#C6C6C6"></path>
        <path d="M227.000445,121.224564 L227,121.260507 C227.000889,121.407043 227.011558,122.004707 227.237836,122.618498 C227.351198,122.925394 227.520573,123.23782 227.779303,123.492184 C228.037144,123.746088 228.388342,123.935017 228.82934,123.986167 C228.908026,123.995383 228.984045,124 229.058285,124 C229.485057,124.001373 229.838477,123.8447 230.103431,123.616141 C230.502196,123.272841 230.716471,122.788535 230.841836,122.394547 C230.965866,121.999638 230.99743,121.689055 230.998763,121.677996 C231.011655,121.549892 230.9223,121.435152 230.798714,121.421789 C230.675128,121.408425 230.564434,121.501047 230.551542,121.629612 L230.549319,121.647583 C230.537316,121.748499 230.461742,122.250316 230.233241,122.700983 C230.119435,122.926777 229.969176,123.137825 229.779352,123.287587 C229.588638,123.437348 229.36236,123.532274 229.058285,123.533657 C229.001827,123.533657 228.942256,123.52997 228.880463,123.522597 C228.531489,123.480203 228.284317,123.343344 228.088268,123.153032 C227.796196,122.868715 227.629044,122.444775 227.543245,122.061846 C227.456557,121.679839 227.449889,121.346678 227.449889,121.260507 L227.450333,121.241153 C227.454334,121.112589 227.357421,121.00476 227.233391,121.000152 C227.108916,120.995544 227.00489,121.096 227.000445,121.225025" id="Fill-136" fill="#1D1D1B"></path>
        <path d="M236.678715,122.142952 C235.883621,122.05856 235.110874,121.794527 234.428017,122.309268 C233.062302,123.337762 235.338825,123.800684 236.051976,123.882608 C236.700567,123.957623 238.66074,124.264099 238.954245,123.434986 C239.320753,122.400569 237.380941,122.282618 236.85452,122.156277 L236.678715,122.142952" id="Fill-137" fill="#F97D9A"></path>
        <path d="M221.678282,120.143159 C220.884206,120.058762 220.110988,119.794218 219.428152,120.309485 C218.061983,121.338045 220.339427,121.801983 221.051563,121.882432 C221.700629,121.957452 223.660741,122.26444 223.954236,121.434781 C224.320733,120.400792 222.381479,120.282834 221.855075,120.156485 L221.678282,120.143159" id="Fill-138" fill="#F97D9A"></path>
        <path d="M238.998081,119.763846 C238.998081,119.760974 239,119.700666 239,119.595367 C238.99952,119.196187 238.967375,118.159467 238.631055,117.16056 C238.461695,116.660867 238.215572,116.167875 237.844708,115.773481 C237.475283,115.378609 236.972481,115.088078 236.336303,115.016762 C236.23699,115.005753 236.139596,115 236.044601,115 C235.379157,114.998095 234.836054,115.277617 234.429687,115.67584 C233.817497,116.27461 233.473021,117.127056 233.266719,117.830168 C233.062335,118.53328 233.002364,119.091366 233.001404,119.10046 C232.987011,119.235435 233.084885,119.356529 233.220181,119.370888 C233.355476,119.385247 233.476379,119.287606 233.491252,119.152631 L233.49557,119.113862 C233.520518,118.914272 233.659172,117.971843 234.054505,117.105996 C234.251212,116.672354 234.511248,116.261208 234.837973,115.967327 C235.166618,115.673925 235.549956,115.492523 236.044601,115.491087 C236.119926,115.491087 236.198608,115.495395 236.28017,115.504968 C236.799763,115.565754 237.180223,115.786883 237.485838,116.109481 C237.943061,116.592422 238.208855,117.321859 238.348469,118.005347 C238.489042,118.6874 238.508233,119.318238 238.507753,119.595367 C238.507753,119.693486 238.505834,119.7447 238.505834,119.7447 C238.500557,119.880153 238.606107,119.994547 238.742362,119.999812 C238.878138,120.005077 238.992803,119.899299 238.998081,119.763846" id="Fill-139" fill="#1D1D1B"></path>
        <path d="M219.485399,118.165395 L219.493027,118.126817 C219.533551,117.92718 219.747137,116.987338 220.212924,116.120312 C220.444626,115.686798 220.739259,115.273538 221.093963,114.976492 C221.450575,114.679447 221.857722,114.496204 222.354975,114.49524 C222.431732,114.49524 222.510873,114.49958 222.591921,114.509224 C223.014324,114.558892 223.328504,114.715131 223.58166,114.941773 C223.960679,115.281254 224.199532,115.800119 224.336837,116.356598 C224.474618,116.912112 224.511328,117.497524 224.510852,117.946468 C224.510852,118.178897 224.501316,118.374677 224.491781,118.511627 C224.487014,118.580102 224.482246,118.633628 224.478909,118.669794 L224.473665,118.722838 C224.456978,118.858341 224.552806,118.981789 224.686773,118.998184 C224.821218,119.014579 224.94279,118.918136 224.959476,118.782633 C224.959953,118.7754 225,118.43833 225,117.946468 C224.999046,117.312353 224.935638,116.420733 224.616691,115.630379 C224.456978,115.235443 224.230521,114.863654 223.907282,114.571912 C223.584521,114.280653 223.163548,114.076193 222.648655,114.017845 C222.548537,114.005789 222.450325,114 222.354975,114 C221.690381,113.999038 221.133534,114.274384 220.698735,114.667873 C220.04463,115.259072 219.631762,116.107292 219.370025,116.807471 C219.110195,117.508133 219.006263,118.064611 219.004355,118.073774 C218.979088,118.208312 219.066333,118.337546 219.199347,118.363104 C219.332361,118.388179 219.460131,118.299933 219.485399,118.165877" id="Fill-140" fill="#1D1D1B"></path>
        <path d="M247.336284,127.850981 C251.931585,123.048252 251.91314,117.366914 248.894352,112 C248.896914,112.004936 250.901242,117.021394 249.77765,120.484493 C248.652521,123.950059 246.162994,127.724126 241.523631,129.658051 C236.885805,131.590495 232,131.372324 232,131.372324 C236.630653,132.963691 243.622745,131.435011 247.336284,127.850981" id="Fill-141" fill="#B2B2B2"></path>
    </g>
</svg>