<?xml version="1.0" encoding="UTF-8"?>
<svg width="263px" height="284px" viewBox="0 0 263 284" version="1.1" xmlns="http://www.w3.org/2000/svg" xmlns:xlink="http://www.w3.org/1999/xlink">
    <title>yoga</title>
    <defs>
        <filter id="filter-1">
            <feColorMatrix in="SourceGraphic" type="matrix" values="0 0 0 0 0.922671 0 0 0 0 0.945127 0 0 0 0 0.957808 0 0 0 1.000000 0"></feColorMatrix>
        </filter>
    </defs>
    <g id="yoga" stroke="none" stroke-width="1" fill="none" fill-rule="evenodd">
        <g filter="url(#filter-1)" id="blob-(1)">
            <g transform="translate(8.000000, 10.000000)">
                <path d="M161.141166,32.3165563 C182.494278,41.7849392 204.43509,52.9065318 223.633301,71.2421304 C242.831512,89.577729 259.287121,114.82675 253.997818,137.069935 C248.512615,159.31312 221.4784,178.249886 191.897483,180.353971 C162.316566,182.458056 130.384848,167.579169 96.6900294,169.232379 C63.1911105,171.03588 27.9290906,189.521771 12.0611816,183.960974 C-3.80672734,178.55047 -0.0846252418,149.093279 1.67847575,126.54951 C3.63747686,104.005741 3.63747686,88.2251029 2.46207619,66.2825013 C1.28667553,44.4901914 -0.868225684,16.6862099 14.9996833,5.86520091 C30.6716921,-4.95580811 64.5624112,1.20615536 91.7925266,8.26986958 C119.218542,15.183292 139.788054,22.8481734 161.141166,32.3165563 Z" id="Path" fill="#FF0066" fill-rule="nonzero"></path>
            </g>
        </g>
        <path d="M92.5682,163.5464 C93.99356,152.7764 75.4814,151.826 77.24144,162.0008 C73.17104,155.2112 61.75688,161.8748 64.91144,169.5716 C61.57748,168.9668 58.9214,171.6836 57.68,174.5468 C56.14664,178.0832 57.27608,180.6188 59.64272,183.4856 C56.44916,183.4472 53.08496,186.2456 52.87544,189.5408 C52.57304,194.3 53.33324,195.7256 55.88552,198.26 C52.3658,198.6104 51.28604,202.9028 51.38768,206.0852 C51.54092,210.9656 53.9594,212.0408 58.21976,212.8352 C63.23144,213.7724 67.39496,213.8204 72.47348,213.2024 C76.71884,212.684 81.29012,211.16 85.6886,211.1948 C92.89208,211.2596 100.05476,210.374 107.16968,209.3684 C111.97424,208.6856 118.72196,209.0996 121.8446,204.7856 C124.37948,201.2876 125.27576,196.8356 123.5978,192.8276 C122.68448,190.6376 117.9794,184.6388 115.24124,188.4908 C119.14544,185.3216 119.1626,182.234 117.96848,178.6016 C116.76992,174.9572 112.53788,171.7568 108.89732,173.6396 C111.33308,168.9188 109.18856,163.8788 104.85692,160.8608 C104.85692,160.8608 97.09868,155.6912 92.5682,163.5464" id="Fill-1" fill="#009792"></path>
        <path d="M149.234,194.762 C155.7788,187.4852 145.4132,177.4916 138.338,183.2828 C144.2348,171.6188 123.626,165.0236 122.86376,177.3536 C117.68348,170.7368 105.8546,174.266 108.47612,183.3872 C98.48264,180.3896 93.67376,193.5524 99.71144,198.3944 C94.49432,199.646 93.58316,207.4976 97.3556,210.5084 C100.75856,213.2288 109.20392,212.5856 113.65424,212.5856 C119.52524,212.5892 125.48096,212.2316 131.1992,211.7516 C137.6924,211.2116 147.8756,213.2072 153.2648,208.4348 C155.6528,206.3228 158.3204,204.41 157.1156,198.416 C156.644,196.088 151.46,191.0096 149.234,194.762" id="Fill-2" fill="#57B685"></path>
        <path d="M75.67796,203.9948 C79.19768,200.0828 73.62428,194.7056 69.81548,197.8232 C72.98948,191.5496 61.90376,187.9988 61.49336,194.6324 C58.70564,191.0732 52.3442,192.9692 53.7542,197.876 C48.3776,196.2644 45.78848,203.348 49.03832,205.952 C46.23308,206.6252 45.74096,210.8492 47.76848,212.468 C49.60184,213.932 54.14516,213.5828 56.53772,213.5876 C59.69672,213.5876 62.9012,213.3968 65.97392,213.1376 C69.46784,212.8448 74.94824,213.92 77.84588,211.3544 C79.13084,210.218 80.56448,209.1908 79.9166,205.9652 C79.66196,204.7124 76.87628,201.9788 75.67796,203.9948" id="Fill-3" fill="#37B4A6"></path>
        <path d="M225.7232,99.46616 C243.314,93.86072 256.5416,123.01592 235.7,126.47084 C260.612,129.35156 249.0548,173.7512 222.53,154.9304 C228.3908,172.8968 188.3516,178.8692 188.024,155.2592 C178.4792,161.4872 169.514,161.6288 161.9084,153.5312 C155.2952,146.48804 154.5716,125.58992 169.5656,126.38876 C154.1072,123.01592 157.7288,107.43404 161.576,101.24996 C168.074,90.79856 183.614,90.81164 189.356,101.14616 C186.2336,89.5118 195.92,78.96128 207.1904,79.0556828 C215.1392,79.12532 229.7468,88.28948 221.9432,103.3616 L225.7232,99.46616" id="Fill-4" fill="#71BA7A"></path>
        <path d="M232.0388,98.88116 C235.4336,99.8528 239.0432,102.05744 241.79,104.96684 C244.5392,107.87684 246.4184,111.48128 246.4172,115.24916 C246.4172,116.45396 246.2252,117.67736 245.8088,118.90664 C245.0156,121.24868 243.236,123.20528 240.9992,124.5758 C238.7624,125.94632 236.072,126.72536 233.4932,126.72476 C230.072,126.72092 226.8728,125.37236 225.0776,122.2562 C225.002,122.12396 224.8328,122.07848 224.7008,122.15468 C224.5688,122.23088 224.5232,122.39972 224.5988,122.53208 C226.5068,125.84984 229.9352,127.28132 233.4932,127.277607 C236.1824,127.27688 238.9616,126.47072 241.2872,125.04716 C243.6116,123.6236 245.4872,121.57736 246.3332,119.084 C246.7688,117.79784 246.9704,116.51264 246.9704,115.24916 C246.968,111.29228 245.0072,107.56856 242.192,104.58728 C239.3744,101.60528 235.6952,99.35552 232.1912,98.3498 C232.0448,98.30768 231.8912,98.39264 231.8492,98.5394 C231.8072,98.68616 231.8924,98.83916 232.0388,98.88128 L232.0388,98.88116" id="Fill-5" fill="#1A1E2F"></path>
        <path d="M188.6576,141.72956 C187.6676,144.95024 187.081998,148.17392 187.081998,151.3184 C187.0796,156.8852 188.9276,162.2096 193.5824,166.7588 C193.6916,166.8656 193.8668,166.8632 193.9736,166.754 C194.0804,166.6448 194.0792,166.4708 193.97,166.364 C189.4208,161.9108 187.6376,156.7652 187.6352,151.3184 C187.6352,148.2428 188.2088,145.07228 189.1868,141.89192 C189.2312,141.746 189.1496,141.59144 189.0032,141.54656 C188.8568,141.50168 188.7032,141.58364 188.6576,141.72956" id="Fill-6" fill="#1A1E2F"></path>
        <path d="M204.2936,99.81236 C205.6724,100.79768 206.222,102.08288 206.2268,103.45532 C206.2292,105.09824 205.4,106.86488 204.1424,108.20684 C202.8872,109.55144 201.2144,110.45936 199.58,110.4566 C198.482,110.45468 197.3924,110.06 196.394,109.09292 C196.2836,108.9866 196.1096,108.98924 196.0028,109.0988 C195.8972,109.20824 195.8996,109.3832 196.0088,109.48952 C197.0972,110.549 198.3452,111.01124 199.58,111.009445 C201.4208,111.00668 203.21,110.01104 204.5468,108.58448 C205.8812,107.15528 206.7764,105.28316 206.778826,103.45532 C206.7836,101.9312 206.1332,100.43684 204.614,99.36188 C204.4892,99.27344 204.3176,99.3026 204.2288,99.42704 C204.14,99.55148 204.17,99.72392 204.2936,99.81236" id="Fill-7" fill="#1A1E2F"></path>
        <path d="M186.9572,115.32524 C184.6172,115.50656 182.7956,116.76704 181.58,118.48556 C180.362,120.20552 179.732,122.3834 179.7308,124.46492 C179.7308,126.21668 180.1784,127.90628 181.1324,129.19136 C182.084,130.47716 183.5576,131.34044 185.5172,131.4068 C185.6696,131.41232 185.798,131.29316 185.804,131.14052 C185.8088,130.988 185.69,130.85984 185.5376,130.85444 C183.728,130.78652 182.4428,130.02224 181.5764,128.8616 C180.7112,127.70012 180.2828,126.12392 180.284,124.46492 C180.2828,122.49488 180.8876,120.4166 182.0312,118.80524 C183.1772,117.19256 184.8404,116.04668 187.0004,115.87628 C187.1528,115.86452 187.2656,115.73144 187.2548,115.57928 C187.2428,115.42712 187.1096,115.31336 186.9572,115.32524" id="Fill-8" fill="#1A1E2F"></path>
        <path d="M224.1836,130.37912 C225.5576,131.42696 226.1156,132.79652 226.1192,134.26448 C226.1216,136.07852 225.2324,138.03548 223.8884,139.5236 C222.5456,141.01472 220.7612,142.0238 219.0248,142.02056 C217.7468,142.01768 216.4784,141.49292 215.342,140.17136 C215.2424,140.05532 215.0684,140.042 214.952,140.14124 C214.8368,140.2406 214.8224,140.41508 214.922,140.531 C216.14,141.9578 217.5884,142.57628 219.0248,142.57341 C220.9784,142.57028 222.8792,141.46676 224.2988,139.89368 C225.7184,138.31748 226.67,136.25804 226.672415,134.26448 C226.676,132.65504 226.0316,131.0834 224.5172,129.93884 C224.396,129.84656 224.222,129.87032 224.1296,129.992 C224.0384,130.11356 224.0612,130.28684 224.1836,130.37924 L224.1836,130.37912" id="Fill-9" fill="#1A1E2F"></path>
        <path d="M175.6964,146.41628 C174.9572,146.77592 174.272,146.9318 173.6444,146.93192 C172.2308,146.93108 171.0656,146.13944 170.228,144.9236 C169.3952,143.71064 168.9188,142.08356 168.92,140.51252 C168.9188,139.05164 169.3292,137.64824 170.2016,136.65032 C170.3012,136.53536 170.2892,136.36076 170.1752,136.26044 C170.06,136.16012 169.8848,136.17188 169.7852,136.28684 C168.8,137.41676 168.3668,138.95216 168.3668,140.51252 C168.368,142.1936 168.8672,143.91452 169.7732,145.23632 C170.6744,146.55536 172.01,147.48548 173.6444,147.484641 C174.3644,147.48476 175.1348,147.30452 175.9376,146.91344 C176.0756,146.84672 176.132,146.68124 176.066,146.54408 C175.9988,146.4068 175.8332,146.34968 175.6964,146.4164 L175.6964,146.41628" id="Fill-10" fill="#1A1E2F"></path>
        <path d="M203.462,125.93624 C203.2172,130.05248 203.126,134.22452 203.126,138.42704 C203.126,151.0256 203.9468,163.898 203.9468,176.36 C203.9468,181.6532 203.7728,188.3408 203.7728,194.5052 C203.774,199.9952 203.9096,205.0664 204.434,208.3964 C204.458,208.5464 204.5996,208.6496 204.7496,208.6256 C204.9008,208.6016 205.004,208.4612 204.98,208.31 C204.464,205.046 204.3248,199.9832 204.326,194.5052 C204.326,188.3504 204.5,181.664 204.5,176.36 C204.4988,163.874 203.678,151.0016 203.6792,138.42704 C203.678,134.23256 203.7704,130.07132 204.0128,125.96888 C204.0224,125.81648 203.906,125.68568 203.7536,125.67619 C203.6012,125.66768 203.4704,125.78384 203.462,125.93624" id="Fill-11" fill="#1A1E2F"></path>
        <path d="M21.07484,218.8172 C21.07484,226.958 71.52332,233.5616 133.7516,233.5616 C195.9812,233.5616 246.4316,226.958 246.4316,218.8172 C246.4316,210.6716 195.9812,204.0692 133.7516,204.0692 C71.52332,204.0692 21.07484,210.6716 21.07484,218.8172" id="Fill-12" fill="#79C09A"></path>
        <polygon id="Fill-13" fill="#673220" points="125.5934 122.543 137.2544 122.543 137.2544 111.57356 125.5934 111.57356"></polygon>
        <path d="M137.2544,118.27832 L137.2544,111.57356 L125.5934,111.57356 L125.5934,118.27832 C125.5934,118.27832 130.9016,123.25472 137.2544,118.27832" id="Fill-14" fill="#542B1D"></path>
        <path d="M137.2544,112.22684 C139.1516,110.3858 139.754,108.39224 139.754,108.39224 C140.4824,105.78272 141.2504,102.1616 141.5228,100.30136 C142.6892,92.3222 136.9436,85.69484 131.2376,85.60928 C125.53184,85.69484 119.78648,92.3222 120.95252,100.30136 C121.22432,102.1616 121.51004,105.18704 122.53856,108.57872 C123.36428,111.30116 125.86568,113.30432 128.4356,114.32864 C129.2924,114.67028 130.31,114.9602 131.2376,115.00112 C133.9388,115.11968 135.4832,113.94476 137.2544,112.22684" id="Fill-15" fill="#673220"></path>
        <path d="M135.2696,96.29744 C135.6764,96.02024 136.0796,95.9114 136.454,95.9108 C137.0072,95.90936 137.5028,96.16016 137.792,96.49724 C137.9144,96.63836 138.1268,96.65408 138.2684,96.5324 C138.41,96.4106 138.4256,96.19748 138.3032,96.05636 C137.8784,95.56592 137.2088,95.23736 136.454,95.2360383 C135.9452,95.23544 135.4016,95.38976 134.8892,95.7404 C134.7356,95.84552 134.696,96.0554 134.8016,96.20936 C134.906,96.3632 135.116,96.40256 135.2708,96.29744 L135.2696,96.29744" id="Fill-16" fill="#3B1F15"></path>
        <path d="M128.0492,95.74028 C127.5374,95.38964 126.99296,95.23544 126.48476,95.2360383 C125.72972,95.23736 125.05988,95.5658 124.63544,96.0566 C124.51364,96.19772 124.5296,96.41084 124.67084,96.53252 C124.81196,96.65408 125.02496,96.63824 125.14664,96.49712 C125.43512,96.16016 125.93072,95.90936 126.48476,95.9108 C126.85892,95.9114 127.26224,96.02024 127.66892,96.29744 C127.82264,96.40256 128.0324,96.3632 128.138,96.20936 C128.2424,96.0554 128.204,95.84552 128.0492,95.7404 L128.0492,95.74028" id="Fill-17" fill="#3B1F15"></path>
        <path d="M136.904,98.45636 C136.9028,98.99516 136.4672,99.43088 135.9284,99.43184 C135.3896,99.43088 134.954,98.99492 134.9528,98.45636 C134.9528,98.27 134.8016,98.11892 134.6156,98.11892 C134.4296,98.11892 134.2784,98.27 134.2784,98.45636 C134.2784,99.36788 135.0164,100.10636 135.9284,100.1066 C136.8404,100.10648 137.5784,99.36776 137.5784,98.45636 C137.5784,98.27 137.4284,98.11892 137.2412,98.11892 C137.0552,98.11892 136.904,98.27 136.904,98.45636" id="Fill-18" fill="#302723"></path>
        <path d="M127.5218,98.45636 C127.52096,98.9948 127.08464,99.43088 126.54608,99.43184 C126.0074,99.43088 125.57132,98.99492 125.57036,98.45636 C125.57036,98.27 125.41928,98.11892 125.23304,98.11892 C125.04668,98.11892 124.89572,98.27 124.89572,98.45636 C124.89584,99.368 125.63456,100.10636 126.54608,100.1066 C127.45748,100.10636 128.1968,99.368 128.1968,98.45636 C128.1968,98.27 128.0456,98.11892 127.85936,98.11892 C127.67288,98.11892 127.52192,98.27 127.52192,98.45636 L127.5218,98.45636" id="Fill-19" fill="#302723"></path>
        <path d="M139.0532,102.1616 C139.0532,102.81356 138.008,103.3424 136.7192,103.3424 C135.4292,103.3424 134.3852,102.81356 134.3852,102.1616 C134.3852,101.50952 135.4292,100.98068 136.7192,100.98068 C138.008,100.98068 139.0532,101.50952 139.0532,102.1616" id="Fill-20" fill="#4E291D"></path>
        <path d="M128.3132,102.1616 C128.3132,102.81356 127.26884,103.3424 125.97992,103.3424 C124.691,103.3424 123.64592,102.81356 123.64592,102.1616 C123.64592,101.50952 124.691,100.98068 125.97992,100.98068 C127.26884,100.98068 128.3132,101.50952 128.3132,102.1616" id="Fill-21" fill="#4E291D"></path>
        <path d="M152.4968,128.10224 L135.6356,120.74636 L127.21208,120.74636 L110.35016,128.10224 C110.35016,128.10224 104.95208,131.00912 106.13288,137.41928 L114.56732,173.018 L112.97168,195.2876 L131.4236,195.2156 L149.876,195.2876 L148.28,173.018 L156.7148,137.41928 C157.8956,131.00912 152.4968,128.10224 152.4968,128.10224" id="Fill-22" fill="#673220"></path>
        <path d="M143.9804,103.80236 C143.8124,105.33932 142.7348,106.48232 141.5732,106.35476 C140.4128,106.22756 139.6076,104.87804 139.7768,103.34108 C139.9448,101.80436 141.0236,100.66148 142.184,100.78904 C143.3444,100.91612 144.1496,102.26564 143.9804,103.80236" id="Fill-23" fill="#673220"></path>
        <path d="M141.9524,102.3992 C142.058,102.44888 142.1456,102.54344 142.2152,102.70472 C142.2836,102.86384 142.3232,103.08104 142.3232,103.31384 C142.3232,103.58384 142.2716,103.87412 142.1804,104.11868 C142.0904,104.36432 141.9572,104.55956 141.8324,104.65592 C141.686,104.77196 141.662,104.98472 141.7772,105.13124 C141.8936,105.27776 142.106,105.30248 142.2536,105.18656 C142.5152,104.9768 142.6916,104.68028 142.814,104.3546 C142.9352,104.02796 142.9988,103.6676 143,103.31384 C142.9988,103.00916 142.952,102.7088 142.8368,102.43844 C142.724,102.17012 142.5296,101.92316 142.2428,101.78744 C142.0736,101.70764 141.872,101.77988 141.7916,101.94884 C141.7124,102.11768 141.7844,102.3194 141.9536,102.39932 L141.9524,102.3992" id="Fill-24" fill="#3B1F15"></path>
        <path d="M141.5348,103.57652 C141.6308,103.559 141.746,103.547 141.8612,103.547 C141.9788,103.54676 142.094,103.55972 142.1852,103.58516 C142.2776,103.61048 142.34,103.64732 142.3724,103.68056 C142.5044,103.81244 142.7192,103.81208 142.8512,103.67972 C142.9832,103.54736 142.982,103.33304 142.85,103.20116 C142.7072,103.05968 142.5344,102.98036 142.3664,102.93308 C142.196,102.88628 142.0244,102.87056 141.8612,102.87032 C141.7004,102.87032 141.548,102.8864 141.4136,102.91052 C141.23,102.94388 141.1076,103.11992 141.1412,103.30388 C141.1748,103.48772 141.3512,103.60976 141.5348,103.57652" id="Fill-25" fill="#3B1F15"></path>
        <path d="M118.71776,103.80236 C118.88636,105.33932 119.96456,106.48232 121.12544,106.35476 C122.28632,106.22756 123.0908,104.87804 122.92208,103.34108 C122.75336,101.80436 121.67528,100.66148 120.51464,100.78904 C119.35352,100.91612 118.54904,102.26564 118.71776,103.80236" id="Fill-26" fill="#673220"></path>
        <path d="M120.4562,101.78744 C120.16868,101.92316 119.97452,102.17 119.86076,102.43832 C119.74556,102.7088 119.699,103.00904 119.69852,103.31384 C119.69876,103.66748 119.7626,104.02784 119.8838,104.3546 C120.00632,104.6804 120.18332,104.97704 120.446,105.18668 C120.59264,105.3026 120.80528,105.27764 120.9212,105.131 C121.03688,104.98436 121.01204,104.7716 120.86552,104.6558 C120.74048,104.55932 120.608,104.3642 120.518,104.11868 C120.42668,103.87412 120.37484,103.58384 120.37508,103.31384 C120.3746,103.08104 120.41396,102.86384 120.48284,102.70484 C120.5528,102.54356 120.64076,102.449 120.7454,102.39932 C120.91424,102.3194 120.98648,102.11768 120.90668,101.94884 C120.82688,101.77988 120.62516,101.70764 120.45632,101.78744 L120.4562,101.78744" id="Fill-27" fill="#3B1F15"></path>
        <path d="M121.28432,102.91052 C121.15016,102.8864 120.99764,102.87032 120.83648,102.87032 C120.6734,102.87056 120.50192,102.88628 120.33188,102.93308 C120.16316,102.98036 119.99084,103.05968 119.84804,103.20152 C119.7158,103.33376 119.7158,103.54796 119.84792,103.6802 C119.98004,103.81232 120.19424,103.81232 120.3266,103.6802 C120.35852,103.6472 120.42092,103.61048 120.51296,103.58516 C120.60392,103.55972 120.7196,103.54676 120.83648,103.547 C120.95156,103.547 121.0682,103.559 121.16408,103.57652 C121.3478,103.60964 121.52396,103.4876 121.55708,103.30376 C121.59044,103.1198 121.46828,102.94388 121.28444,102.91064 L121.28432,102.91052" id="Fill-28" fill="#3B1F15"></path>
        <path d="M150.4664,194.2148 C150.4664,194.2148 170.7932,193.1528 189.7436,197.8496 C199.3328,200.2256 184.568,214.706 173.7656,213.4448 L92.84168,213.4448 C75.74804,213.4448 73.07744,201.9596 73.07744,201.9596 C84.91688,191.7068 111.893,195.2876 111.893,195.2876 L113.33864,188.7056 L149.5604,188.7056 L150.4664,194.2148" id="Fill-29" fill="#162945"></path>
        <path d="M151.5356,210.9848 C148.1072,211.5728 143.93,211.574 139.1276,210.2264 C137.0312,208.9496 134.3348,209.5364 132.5048,210.9656 C132.5048,210.9656 130.5536,214.9064 123.01904,212.6576 C123.01904,212.6576 121.29884,213.1196 121.0106,214.5692 C121.0106,214.5692 119.43596,217.6052 122.36012,218.7296 C122.36012,218.7296 130.0076,220.2476 144.0644,218.3924 C144.8132,218.3564 147.9884,218.654 151.5356,219.0212 L151.5356,210.9848" id="Fill-30" fill="#673220"></path>
        <path d="M148.892,220.2476 C154.4804,220.7924 162.794,220.2584 163.07,220.2476 C174.7244,219.8024 179.3012,221.186 190.0484,216.4892 C194.0408,214.7444 201.956,203.252 193.6796,199.154 C184.1096,193.4312 162.0584,206.4452 162.0584,206.4452 C162.0584,206.4452 157.2116,209.8676 148.892,210.428 C148.892,210.428 144.6188,215.3528 148.892,220.2476" id="Fill-31" fill="#162945"></path>
        <path d="M128.042,213.3188 C126.89684,213.3416 125.02316,213.2744 123.86672,213.2144 L123.36392,219.896 C123.96188,219.8552 124.40372,219.836 124.62644,219.8468 C138.6836,221.702 146.3312,220.184 146.3312,220.184 C147.4832,219.4448 147.6812,216.0236 147.6812,216.0236 C147.6812,206.756 135.5228,213.1664 128.042,213.3188" id="Fill-32" fill="#673220"></path>
        <path d="M124.82576,221.702 C122.9702,221.612 106.01624,221.7176 105.62084,221.702 C93.96716,221.2568 89.39036,222.6404 78.64304,217.9436 C74.65052,216.1988 66.73568,204.7064 75.01172,200.6084 C84.58016,194.8868 106.6244,207.896 106.63292,207.8996 C113.5694,210.5696 120.5294,211.5308 126.82496,211.6484 C126.82496,211.6484 129.4364,218.2832 124.82576,221.702" id="Fill-33" fill="#162945"></path>
        <path d="M123.64592,88.7576 C123.64592,88.7576 126.37532,91.541 123.64592,94.50692 C123.64592,94.50692 122.29532,95.92508 122.26748,98.45636 L122.14892,103.02212 L121.454,103.02212 L121.22432,100.86932 C121.22432,100.86932 120.08732,100.57616 119.312,101.49104 C119.312,101.49104 117.88316,91.20368 121.04144,87.49244 C121.04144,87.49244 123.24836,85.26332 123.64592,88.7576" id="Fill-34" fill="#302723"></path>
        <path d="M180.656,198.4964 C177.8072,199.034 175.6376,199.7108 173.3816,200.6132 C171.1256,201.5156 168.7856,202.6412 165.566,204.086 C160.3448,206.4332 156.152,208.8548 150.8096,209.8064 C150.4268,209.8748 149.8772,209.912 149.414,209.972 C149.18,210.0032 148.9688,210.0392 148.784,210.1004 C148.6916,210.1328 148.604,210.17 148.514,210.2408 C148.4264,210.3068 148.3256,210.446 148.327958,210.6128 L148.3388,210.7136 C148.382,210.8948 148.5632,211.0076 148.7444,210.9644 C148.9268,210.9212 149.0384,210.74 148.9952,210.5588 L148.766,210.6128 L149.0024,210.6128 L148.9952,210.5588 L148.766,210.6128 L149.0024,210.6128 L148.814,210.6128 L148.9376,210.7664 C148.946,210.764 149.0048,210.6968 149.0024,210.6128 L148.814,210.6128 L148.9376,210.7664 L148.922,210.7472 L148.9352,210.7676 L148.9376,210.7664 L148.922,210.7472 L148.9352,210.7676 C148.9436,210.7592 149.048,210.7184 149.1872,210.692 C149.618,210.6032 150.3692,210.5684 150.9284,210.47 C156.4124,209.4896 160.6628,207.0272 165.8432,204.7016 C169.07,203.252 171.4076,202.1288 173.6324,201.2396 C175.8584,200.3492 177.9716,199.6904 180.7808,199.1588 C180.9644,199.124 181.0844,198.9476 181.0496,198.7652 C181.0148,198.5816 180.8384,198.4616 180.656,198.4964" id="Fill-35" fill="#0F1F3B"></path>
        <path d="M147.524,218.5412 C147.6752,217.5716 147.7412,217.1492 147.7412,216.5936 C147.74,216.0956 147.6908,215.522 147.6152,214.3328 C147.5468,213.1676 146.8952,212.2388 145.8788,211.6556 C144.8624,211.0688 143.4884,210.7832 141.8624,210.782 C141.2276,210.782 140.5556,210.8264 139.85,210.9152 C138.4496,211.0916 136.5368,211.5824 134.606,212.0384 C132.6776,212.4944 130.7312,212.9144 129.3344,212.954 C128.6312,212.9744 127.92692,212.9864 127.223,212.9864 C123.86372,212.9864 120.50864,212.7068 117.31052,211.7372 C113.88932,210.7052 111.0212,208.5584 107.68364,207.044 C103.09052,204.968 98.07896,201.5816 93.0104,200.228 C92.83004,200.18 92.64536,200.288 92.5976,200.468 C92.5496,200.648 92.65676,200.8328 92.837,200.8808 C97.74788,202.1828 102.74108,205.5428 107.40548,207.6584 C110.65616,209.126 113.54768,211.298 117.1148,212.3828 C120.40448,213.3788 123.82676,213.6608 127.223,213.662 C127.93472,213.662 128.6456,213.6488 129.3536,213.6284 C130.8584,213.5828 132.8216,213.152 134.7608,212.6948 C136.6964,212.2376 138.608,211.7504 139.9352,211.5848 C140.6144,211.4984 141.2588,211.4564 141.8624,211.4564 C143.4092,211.4552 144.6752,211.736 145.5404,212.24 C146.4056,212.7488 146.876,213.4364 146.942,214.3748 C147.0176,215.5688 147.0668,216.1448 147.0656,216.5936 C147.0656,217.0868 147.0104,217.46 146.8568,218.438 C146.828,218.6216 146.954,218.7944 147.1388,218.8232 C147.3224,218.852 147.4952,218.726 147.524,218.5424 L147.524,218.5412" id="Fill-36" fill="#0F1F3B"></path>
        <path d="M147.206,213.8348 L147.1736,213.8408 C147.0128,213.8732 146.2784,214.0076 145.4384,214.0064 C145.0004,214.0064 144.5348,213.9704 144.1124,213.8696 C143.9312,213.8264 143.7488,213.9392 143.7056,214.1204 C143.6624,214.3016 143.7752,214.484 143.9564,214.526 C144.4508,214.6436 144.9644,214.6808 145.4384,214.682 C146.4788,214.6808 147.3344,214.4972 147.3476,214.4948 C147.53,214.4552 147.6464,214.2764 147.6068,214.094 C147.5684,213.9116 147.3884,213.7952 147.2072,213.8348 L147.206,213.8348" id="Fill-37" fill="#0F1F3B"></path>
        <path d="M147.2072,215.6576 L147.182,215.6636 C147.0524,215.6876 146.4272,215.798 145.4984,215.798 C145.1816,215.798 144.8288,215.7848 144.4484,215.7512 C144.2624,215.7356 144.0992,215.8736 144.0836,216.0584 C144.0668,216.2444 144.2048,216.4076 144.3908,216.4244 C144.7916,216.4592 145.1636,216.4724 145.4984,216.4724 C146.6204,216.4724 147.3308,216.3212 147.3488,216.3176 C147.53,216.2792 147.6464,216.0992 147.608,215.918 C147.5684,215.7356 147.3896,215.6192 147.2072,215.6576" id="Fill-38" fill="#0F1F3B"></path>
        <path d="M146.8904,217.5008 L146.8604,217.5092 C146.7116,217.5476 146.018,217.7096 145.2404,217.7096 C145.0784,217.7096 144.9128,217.7024 144.7496,217.6868 C144.5636,217.6688 144.3992,217.8044 144.3812,217.9904 C144.3632,218.1752 144.4988,218.3396 144.6836,218.3576 C144.872,218.3768 145.0592,218.384 145.2404,218.384 C146.2328,218.3828 147.0536,218.156 147.0704,218.1512 C147.2492,218.102 147.3548,217.916 147.3056,217.736 C147.2564,217.5572 147.0704,217.4516 146.8904,217.5008" id="Fill-39" fill="#0F1F3B"></path>
        <path d="M148.184,144.35564 C147.2684,141.42572 147.2444,138.54176 147.2084,135.4988 C147.1724,132.37412 147.1868,129.17564 148.0544,126.16388 L139.754,122.543 C139.556,128.6912 131.5952,128.54036 131.5952,128.54036 C123.35132,128.48444 122.9444,122.60828 122.9444,122.60828 L115.22192,125.97716 C115.92572,130.08764 116.71052,134.2184 116.73668,138.386 C116.75876,141.87212 116.51516,145.79516 114.10148,148.55444 C112.35332,150.5528 112.517,150.782 110.12084,151.8116 L111.66992,174.0572 L110.12084,195.356 C110.12084,195.356 131.6444,222.1172 151.5356,194.174 L151.5356,171.2192 L153.9548,151.4084 C150.626,150.4628 149.3312,148.0256 148.184,144.35564" id="Fill-40" fill="#EAE1D1"></path>
        <path d="M79.25036,195.0452 C79.25036,195.0452 98.41268,182.3864 105.6248,173.4668 C105.6248,173.4668 108.81776,165.8516 109.20524,159.272 C109.20524,159.272 101.79536,162.3056 96.26912,165.9872 C96.26912,165.9872 81.9626,188.5784 76.9262,192.506 L79.25036,195.0452" id="Fill-41" fill="#673220"></path>
        <path d="M66.81056,196.2668 C66.1706,194.6144 68.46824,193.664 69.26864,193.0412 C69.26864,193.0412 70.12688,193.7648 68.67692,194.9972 L69.82304,195.3776 L73.55,193.7192 C72.94808,193.3712 72.23384,193.1948 72.23384,193.1948 C72.53624,193.0076 70.27328,194.3288 69.26864,193.0412 C70.04816,192.3884 71.5472,191.696 72.79292,191.4164 C73.87208,191.0972 76.9262,192.506 76.9262,192.506 L79.12208,191.7404 L80.73188,194.192 L79.2944,195.6632 C78.33404,198.0968 74.42396,200.48 74.42396,200.48 C73.65428,201.2024 70.48976,202.8416 69.42344,202.4492 C69.30992,201.6668 71.07812,200.6708 72.96632,199.0484 C70.80236,200.36 67.35044,202.9628 66.2576,202.19 C66.131,201.1664 70.60724,199.0412 72.21812,198.0668 C71.10344,198.4112 65.17916,201.9488 64.7486,201.0176 C64.5734,199.9196 69.92684,197.4248 69.97856,197.408 L66.81056,196.2668" id="Fill-42" fill="#673220"></path>
        <path d="M103.51724,137.19752 C100.94036,145.40312 99.06044,151.448 95.92268,167.774 C95.92268,167.774 103.92044,176.8568 105.6248,173.4668 C110.88116,163.0124 112.23068,158.5316 115.196,145.86896 C115.196,145.86896 118.65056,130.96724 111.22388,127.74068 C111.22388,127.74068 105.6248,128.73608 103.51724,137.19752" id="Fill-43" fill="#673220"></path>
        <path d="M159.6968,137.50832 C162.2744,145.7138 164.1536,151.7588 167.2916,168.0848 C167.2916,168.0848 158.8976,177.3392 157.5896,173.7776 C152.5976,160.1732 152.5784,156.9848 148.5644,146.4026 C148.5644,146.4026 144.9224,137.04176 149.2148,126.64232 C149.2148,126.64232 157.5896,129.04676 159.6968,137.50832" id="Fill-44" fill="#673220"></path>
        <path d="M183.9644,195.356 C183.9644,195.356 164.8016,182.6972 157.5896,173.7776 C157.5896,173.7776 154.3964,166.1624 154.01,159.5828 C154.01,159.5828 161.4188,162.6164 166.9448,166.298 C166.9448,166.298 181.2524,188.8892 186.2888,192.8168 L183.9644,195.356" id="Fill-45" fill="#673220"></path>
        <path d="M196.4036,196.5776 C197.0444,194.9252 194.7464,193.9748 193.946,193.352 C193.946,193.352 193.088,194.0756 194.5376,195.308 L193.3916,195.6884 L189.6644,194.03 C190.2668,193.682 190.9808,193.5056 190.9808,193.5056 C190.6784,193.3184 192.9416,194.6384 193.946,193.352 C193.166,192.6992 191.6672,192.0068 190.4216,191.7272 C189.3428,191.408 186.2888,192.8168 186.2888,192.8168 L184.0928,192.0512 L182.4824,194.5028 L183.92,195.9728 C184.88,198.4076 188.7908,200.7896 188.7908,200.7896 C189.56,201.5132 192.7244,203.1524 193.7912,202.76 C193.9052,201.9776 192.1364,200.9804 190.2488,199.3592 C192.4124,200.6708 195.8636,203.2736 196.9568,202.5008 C197.084,201.4772 192.6068,199.352 190.9964,198.3776 C192.1112,198.722 198.0356,202.2596 198.4664,201.3284 C198.6416,200.2304 193.2872,197.7356 193.2356,197.7176 L196.4036,196.5776" id="Fill-46" fill="#673220"></path>
        <path d="M140.2748,99.76928 L140.2904,103.02212 L141.008,103.02212 L141.4748,100.87064 C141.4748,100.87064 142.7456,100.75904 143.1416,101.22848 C143.1416,101.22848 145.91,90.41684 139.754,85.24352 C139.754,85.24352 132.9992,78.1862 123.64592,84.6248 C123.64592,84.6248 121.22432,86.79212 122.54048,88.05488 C122.54048,88.05488 123.86204,90.68348 125.57396,90.90848 C125.57396,90.90848 138.7148,89.6294 139.9112,92.30996 C139.9112,92.30996 139.0532,94.40876 140.0168,96.2768 C140.0168,96.2768 140.6552,97.19216 140.2748,99.76928" id="Fill-47" fill="#302723"></path>
        <path d="M130.226,100.04456 C130.2296,100.08008 130.2308,100.1276 130.2308,100.18352 C130.232,100.45604 130.1828,100.9064 130.1324,101.4074 C130.082,101.9102 130.0292,102.46952 130.0292,102.99716 C130.0316,103.4972 130.0712,103.96724 130.2332,104.3624 C130.3148,104.55896 130.4336,104.74184 130.6088,104.87816 C130.7828,105.01508 131.0108,105.09032 131.2496,105.088668 C131.4632,105.08828 131.6864,105.03572 131.9276,104.93816 C132.1004,104.86796 132.1832,104.67068 132.1136,104.49752 C132.0428,104.32436 131.846,104.24096 131.6732,104.31116 C131.4896,104.3858 131.348,104.4122 131.2496,104.41196 C131.138,104.41016 131.0804,104.3858 131.0228,104.34344 C130.94,104.28176 130.8488,104.13272 130.79,103.89152 C130.7312,103.6532 130.706,103.33952 130.706,102.99716 C130.706,102.51368 130.7552,101.97296 130.8056,101.4752 C130.8548,100.97552 130.9076,100.52468 130.9076,100.18352 C130.9076,100.11392 130.9064,100.0478 130.9004,99.98348 C130.8836,99.79736 130.718,99.6602 130.532,99.67712 C130.346,99.69404 130.2092,99.85856 130.226,100.04456" id="Fill-48" fill="#3B1F15"></path>
        <path d="M129.3092,106.93868 C129.7652,107.12696 130.4888,107.3072 131.2904,107.30852 C131.9156,107.30816 132.59,107.1962 133.1996,106.86308 C133.3628,106.7732 133.4228,106.56764 133.334,106.40384 C133.244,106.23992 133.0388,106.1798 132.8744,106.26956 C132.398,106.53152 131.8352,106.6322 131.2904,106.63184 C130.5956,106.63316 129.9308,106.46552 129.5684,106.31372 C129.3956,106.24208 129.1976,106.32392 129.1256,106.49648 C129.0536,106.66916 129.1364,106.86716 129.3092,106.93868" id="Fill-49" fill="#3B1F15"></path>
        <path d="M143.3504,88.26944 C141.8876,90.34244 138.7064,90.69356 136.3052,91.47452 C133.4048,92.41772 130.724,92.32028 127.74452,91.98092 C126.61964,91.85276 125.36,91.76804 124.36652,91.1744 C122.61992,90.12992 121.92416,89.10524 121.04144,87.49244 C120.43976,86.393 121.43288,85.1378 122.14892,84.10088 C122.97848,82.89968 123.70964,81.7448 125.17196,81.79172 C126.58412,81.83672 127.63088,82.67696 128.7584,81.54488 C130.2836,80.01572 131.5052,79.13204 133.8152,79.01024 C135.74,78.90884 137.4584,79.39604 138.6248,80.93144 C139.5776,82.18664 140.5832,84.08408 142.1672,84.66332 C142.1672,84.66332 145.5668,85.12988 143.3504,88.26944" id="Fill-50" fill="#302723"></path>
        <path d="M114.51296,126.60356 C115.66652,129.0542 116.72108,132.7166 116.71856,135.87836 C116.7188,136.99172 116.5886,138.04172 116.29628,138.95276 C116.23928,139.13024 116.33708,139.32032 116.51468,139.3772 C116.69204,139.43408 116.88212,139.33628 116.93912,139.1588 C117.25868,138.15992 117.39308,137.0438 117.39332,135.87836 C117.39092,132.57044 116.3144,128.85596 115.12376,126.31664 C115.04444,126.14804 114.84356,126.07544 114.67484,126.15476 C114.50624,126.23408 114.43376,126.43496 114.51308,126.60356 L114.51296,126.60356" id="Fill-51" fill="#0F1F3B"></path>
        <path d="M146.6456,132.56024 C146.9444,136.23776 146.966,139.57976 147.3824,142.856 C147.7988,146.1314 148.6172,149.342 150.5108,152.7164 C150.602,152.8784 150.8084,152.936 150.9704,152.8448 C151.1336,152.7536 151.1912,152.5484 151.1,152.3864 C149.2556,149.0984 148.4624,145.9928 148.052,142.77092 C147.6416,139.55 147.6188,136.21388 147.3176,132.50552 C147.3032,132.31988 147.14,132.18164 146.954,132.19676 C146.7692,132.21188 146.63,132.3746 146.6456,132.56024" id="Fill-52" fill="#0F1F3B"></path>
        <path d="M126.06428,127.61132 C127.19972,128.618 129.0032,129.04916 130.9328,129.053 C132.746,129.05216 134.6792,128.66144 136.2884,127.91024 C137.8916,127.15928 139.1972,126.0392 139.658,124.5338 C139.712,124.3556 139.6112,124.1672 139.4324,124.11308 C139.2548,124.05896 139.0664,124.15964 139.0124,124.33784 C138.6392,125.57624 137.5088,126.59612 136.0016,127.29896 C134.5004,128.0018 132.6488,128.37908 130.9328,128.37824 C129.104,128.38208 127.4372,127.94252 126.51404,127.1084 C126.37496,126.9842 126.16172,126.9962 126.03776,127.13504 C125.91344,127.274 125.92544,127.48724 126.0644,127.61144 L126.06428,127.61132" id="Fill-53" fill="#0F1F3B"></path>
        <path d="M116.44592,178.0748 C116.75132,178.0232 117.11156,177.8768 117.55868,177.6596 C119.10728,176.9012 121.60988,175.2428 123.74948,173.6612 C124.81832,172.8704 125.79248,172.1 126.50708,171.47 C126.86492,171.1544 127.15724,170.8736 127.37,170.636 C127.47632,170.516 127.5632,170.4068 127.63088,170.2988 C127.69568,170.1884 127.75604,170.0888 127.761801,169.9184 C127.76192,169.8536 127.74776,169.7828 127.71548,169.7192 C127.63208,169.5524 127.4294,169.4852 127.26284,169.568 C127.09616,169.6508 127.0286,169.8536 127.11212,170.0204 L127.31708,169.9184 L127.08704,169.9184 L127.112,170.0204 L127.31708,169.9184 L127.08704,169.9184 L127.22996,169.9184 L127.09076,169.8824 L127.08704,169.9184 L127.22996,169.9184 L127.09076,169.8824 L127.11356,169.8884 L127.09136,169.88 L127.09076,169.8824 L127.11356,169.8884 L127.09136,169.88 C127.0904,169.8884 127.05008,169.9652 126.9746,170.0576 C126.68876,170.4224 125.95928,171.0824 125.0264,171.8288 C123.62396,172.9544 121.74308,174.3116 120.05828,175.4072 C119.21612,175.9556 118.4222,176.438 117.76508,176.7932 C117.1136,177.1496 116.5748,177.3752 116.33972,177.4088 C116.15564,177.4376 116.03024,177.6104 116.05964,177.7952 C116.08904,177.9788 116.26208,178.1048 116.44604,178.0748 L116.44592,178.0748" id="Fill-54" fill="#0F1F3B"></path>
        <path d="M122.83556,179.2364 C123.38972,180.4028 123.96932,181.9388 124.57052,183.4004 C125.174,184.8644 125.79188,186.2516 126.4682,187.1648 C126.5792,187.3148 126.79052,187.346 126.94004,187.2344 C127.08956,187.1228 127.12088,186.9116 127.00976,186.7628 C126.407,185.9552 125.78876,184.592 125.19452,183.1436 C124.59776,181.6928 124.01756,180.1532 123.44516,178.946 C123.36524,178.778 123.164,178.706 122.99576,178.7864 C122.8274,178.8668 122.75576,179.0672 122.83568,179.2364 L122.83556,179.2364" id="Fill-55" fill="#0F1F3B"></path>
    </g>
</svg>